<svg width="40" height="40" viewBox="0 0 40 40" fill="none" xmlns="http://www.w3.org/2000/svg">
<g clip-path="url(#clip0_8665_4850)">
<path d="M18.4373 13.2063C18.2896 13.7962 17.9366 14.207 17.4775 14.5669C17.5845 14.6325 17.673 14.686 17.7615 14.7408C19.1463 15.5988 19.2743 17.2893 18.0386 18.3581C17.1495 19.127 16.0716 19.4538 14.9506 19.6748C13.6843 19.9245 12.402 19.9353 11.1185 19.9195C10.6841 19.9143 10.5185 19.7251 10.5313 19.2798C10.593 17.1378 10.5905 14.9949 10.5822 12.8522C10.5797 12.1636 10.5453 11.4757 10.5306 10.7871C10.5223 10.4138 10.6574 10.2259 11.0217 10.2266C12.8747 10.2285 14.7366 10.1546 16.5449 10.6877C17.1755 10.8737 17.7405 11.1687 18.14 11.7215C18.3226 11.9751 18.3928 12.2687 18.4935 12.6483C18.745 12.0184 18.9655 11.4674 19.1851 10.9158C19.2515 10.7489 19.312 10.5801 19.382 10.4145C19.5336 10.059 19.7183 9.95459 20.0781 10.0648C21.5305 10.5088 22.7765 11.2362 23.5293 12.6254C23.5535 12.67 23.586 12.7095 23.6268 12.7694C24.202 11.8585 24.9536 11.1565 25.8721 10.6323C26.3065 10.3845 26.7703 10.2062 27.2473 10.0667C27.6403 9.95204 27.8531 10.0667 27.9786 10.4521C28.2213 11.196 28.4595 11.9413 28.692 12.6878C28.8385 13.1579 28.7416 13.3229 28.285 13.4567C26.8811 13.8675 25.853 14.6739 25.4753 16.153C25.2943 16.8631 25.3886 17.5881 25.3796 18.3071C25.376 18.5926 25.411 18.878 25.425 19.164C25.4485 19.6391 25.2733 19.8335 24.8013 19.8353C23.9096 19.8398 23.0185 19.8398 22.1266 19.8353C21.6508 19.8335 21.4745 19.6486 21.4865 19.1723C21.5043 18.4626 21.5528 17.7525 21.5433 17.0435C21.5266 15.8294 21.1298 14.779 20.1063 14.0427C19.761 13.7943 19.3693 13.628 18.9641 13.4987C18.7768 13.4395 18.5858 13.391 18.4373 13.2063ZM16.3659 14.6854C16.8838 14.4229 17.3418 14.179 17.675 13.763C18.2323 13.0662 18.1341 12.1802 17.4366 11.6254C16.959 11.2457 16.3952 11.0706 15.8111 10.9514C14.3467 10.654 12.8607 10.6795 11.3778 10.668C10.9676 10.6648 10.972 10.6674 10.981 11.0623C11.0013 11.9731 11.0256 12.8847 11.0319 13.7955C11.044 15.5982 11.0357 17.4008 10.9797 19.2028C10.9746 19.3556 10.944 19.4798 11.188 19.4793C12.439 19.4741 13.6894 19.4728 14.9238 19.2295C15.9404 19.0295 16.9156 18.7276 17.724 18.0371C18.8131 17.1065 18.6508 15.6956 17.382 15.0351C17.0781 14.8771 16.7526 14.7867 16.3659 14.6854ZM23.6128 13.8344C23.5631 13.7745 23.5356 13.7554 23.5275 13.7299C22.9745 12.0305 21.7445 11.0597 20.098 10.5304C19.9246 10.475 19.8298 10.4591 19.7515 10.6718C19.4935 11.3757 19.2163 12.0738 18.9285 12.7662C18.8501 12.9541 18.8768 13.007 19.0711 13.0687C19.7005 13.2675 20.298 13.5407 20.7783 14.0095C21.6318 14.8427 21.9763 15.8893 21.9916 17.053C22.0006 17.7301 21.972 18.4085 21.9318 19.085C21.9158 19.3475 22.0011 19.3951 22.2406 19.3906C23.0465 19.3766 23.8535 19.3671 24.6586 19.3945C24.9733 19.4053 24.9816 19.2906 24.9688 19.0346C24.9198 18.083 24.816 17.1211 25.0166 16.1816C25.376 14.5007 26.488 13.5204 28.0976 13.0573C28.2926 13.0012 28.3231 12.9477 28.2588 12.7579C28.0245 12.0674 27.804 11.3725 27.5913 10.675C27.5358 10.4928 27.4676 10.4508 27.2811 10.5107C26.1753 10.8655 25.2351 11.4642 24.479 12.3509C24.1096 12.7872 23.8313 13.277 23.6128 13.8344Z" fill="black"/>
<path d="M4.42022 19.8373C3.31698 19.8373 2.21438 19.8398 1.11114 19.836C0.655706 19.8348 0.529586 19.7087 0.334036 19.1953C0.199635 18.8423 0.368431 18.6367 0.61685 18.4367C1.59142 17.6518 2.56217 16.8615 3.35392 15.8799C3.57432 15.6066 3.76732 15.3161 3.90427 14.9926C4.21638 14.2518 3.9858 13.6626 3.25773 13.318C2.68 13.0447 2.05705 12.9931 1.43472 12.9383C0.965911 12.8969 0.815586 12.6944 0.908585 12.2217C1.02324 11.6402 1.13662 11.058 1.25956 10.4777C1.33663 10.1159 1.52262 9.97002 1.88952 10.0051C3.20105 10.1299 4.49155 10.3548 5.70625 10.893C6.24323 11.1306 6.7337 11.4459 7.14582 11.8663C8.13122 12.8721 8.26243 14.3193 7.49423 15.5798C7.27767 15.9346 7.01842 16.2544 6.72668 16.55C6.67318 16.6041 6.56043 16.6468 6.61075 16.7462C6.65598 16.836 6.76363 16.7965 6.84198 16.7938C7.17002 16.7812 7.49742 16.7532 7.82547 16.7442C8.21147 16.734 8.386 16.8767 8.39555 17.2602C8.41275 17.9703 8.41083 18.6818 8.39683 19.3922C8.38918 19.78 8.1688 19.945 7.72673 19.9177C6.62542 19.8513 5.52282 19.8813 4.42022 19.8373ZM1.30223 12.4733C1.5309 12.4963 1.74938 12.5166 1.96723 12.5415C2.59273 12.6116 3.2036 12.7345 3.74183 13.0836C4.40747 13.5161 4.6457 14.2161 4.39218 14.9664C4.24122 15.4136 3.98835 15.8034 3.69533 16.169C2.90677 17.1525 1.93538 17.9412 0.96846 18.736C0.873551 18.8137 0.669083 18.8488 0.763991 19.0678C0.847435 19.2597 0.916226 19.3965 1.1863 19.3953C3.36985 19.3838 5.55402 19.3902 7.73693 19.4755C7.89998 19.482 7.95668 19.443 7.95413 19.2712C7.94458 18.6558 7.9414 18.0405 7.9554 17.4258C7.9605 17.222 7.8968 17.1767 7.70572 17.1902C7.13498 17.2302 6.56362 17.2557 5.99225 17.2818C5.70372 17.2952 5.41452 17.3442 5.11068 17.3035C5.15847 17.15 5.28395 17.1227 5.37248 17.0602C5.92092 16.6748 6.44705 16.2652 6.85472 15.7257C7.40315 15.0008 7.69233 14.1995 7.46748 13.288C7.26302 12.4587 6.6719 11.9306 5.96105 11.53C4.69602 10.8178 3.29723 10.5968 1.87997 10.4484C1.74047 10.4337 1.6997 10.4866 1.6755 10.6153C1.55893 11.2287 1.43154 11.8395 1.30223 12.4733ZM6.58273 16.7748C6.57637 16.7685 6.56808 16.755 6.56298 16.7563C6.54833 16.7588 6.53495 16.7678 6.52158 16.7735C6.52795 16.7798 6.53623 16.7933 6.54133 16.792C6.55598 16.79 6.56935 16.7818 6.58273 16.7748Z" fill="black"/>
<path d="M35.391 16.8086C35.893 16.7845 36.326 16.7583 36.7598 16.7456C37.1242 16.7348 37.323 16.903 37.3312 17.2698C37.3472 17.98 37.3458 18.6915 37.3318 19.4018C37.3248 19.7501 37.1363 19.9348 36.7815 19.9183C35.447 19.856 34.1113 19.8705 32.7762 19.854C31.8965 19.8425 31.0157 19.817 30.1367 19.8463C29.4983 19.868 29.348 19.5151 29.2252 18.9705C29.1805 18.7743 29.3302 18.624 29.4863 18.4966C30.399 17.754 31.3157 17.015 32.0922 16.122C32.4138 15.7525 32.6967 15.3582 32.88 14.9002C33.124 14.29 32.9278 13.7378 32.3565 13.4078C31.7392 13.0511 31.052 12.997 30.366 12.9384C29.9048 12.8989 29.7475 12.7059 29.8353 12.2504C29.9532 11.6377 30.0882 11.0274 30.2098 10.4153C30.264 10.1421 30.4487 9.9809 30.6978 10.0045C32.4355 10.1669 34.1585 10.4109 35.6215 11.4752C37.0332 12.502 37.3262 14.1473 36.4007 15.6321C36.1357 16.057 35.7962 16.4175 35.391 16.8086ZM34.0393 17.3271C34.0712 17.166 34.1897 17.1425 34.2687 17.0876C34.7152 16.7806 35.1458 16.4532 35.5133 16.0525C36.2458 15.2538 36.6745 14.3473 36.3885 13.2422C36.165 12.3785 35.5183 11.8612 34.77 11.4612C33.5393 10.8039 32.1915 10.5956 30.8277 10.4484C30.6608 10.4306 30.6315 10.5096 30.6073 10.6351C30.5168 11.1026 30.4227 11.5695 30.3308 12.0364C30.2443 12.4772 30.2443 12.4842 30.6857 12.5211C31.3667 12.5785 32.0317 12.6919 32.6278 13.0517C33.3125 13.4645 33.573 14.141 33.3432 14.9072C33.1692 15.4882 32.8163 15.9646 32.4278 16.4162C31.6698 17.2965 30.771 18.024 29.878 18.7585C29.7755 18.8425 29.6092 18.8928 29.7105 19.1023C29.801 19.2883 29.8825 19.3948 30.1252 19.3935C32.3093 19.3826 34.4935 19.3896 36.6763 19.475C36.8402 19.4813 36.8955 19.4431 36.891 19.2711C36.879 18.8151 36.8872 18.359 36.8872 17.9023C36.8872 17.1603 36.8878 17.1685 36.1318 17.2188C35.4407 17.266 34.7477 17.2915 34.0393 17.3271Z" fill="black"/>
<path d="M36.419 27.8873C35.8056 28.2147 35.2068 28.3492 34.5666 28.3415C33.266 28.3262 32.3208 27.672 31.9583 26.4268C31.5856 25.1445 31.6066 23.8432 32.0283 22.575C32.4736 21.236 33.6176 20.5857 35.1425 20.7353C35.9973 20.8195 36.7331 21.0992 37.128 21.9405C37.237 22.1737 37.2898 22.4222 37.314 22.6763C37.3363 22.9082 37.2325 23.0393 36.9898 23.0413C36.8731 23.0418 36.756 23.0418 36.6395 23.0418C36.0591 23.0418 36.0578 23.0418 35.9508 22.4763C35.8853 22.1285 35.6598 21.9118 35.347 21.7978C34.605 21.5272 33.7648 21.875 33.4048 22.5833C33.2291 22.9285 33.1456 23.3005 33.1151 23.682C33.0475 24.5285 33.0075 25.377 33.266 26.2025C33.5386 27.0727 34.1126 27.4243 35.0406 27.316C35.8101 27.2262 36.3471 26.6262 36.3993 25.7987C36.4286 25.335 36.4286 25.335 35.9553 25.335C35.5095 25.335 35.0636 25.3395 34.6183 25.333C34.2833 25.3287 34.2336 25.2567 34.2336 24.8305C34.2336 24.4102 34.2845 24.3375 34.6253 24.3355C35.5483 24.3312 36.472 24.3357 37.3948 24.333C37.642 24.3323 37.7643 24.4323 37.763 24.6923C37.758 25.7962 37.7586 26.8993 37.763 28.0033C37.7636 28.2523 37.6395 28.344 37.4083 28.3397C37.228 28.3358 37.0471 28.3293 36.8675 28.3408C36.577 28.36 36.3815 28.2803 36.419 27.8873ZM36.621 27.4988C36.621 27.6778 36.6318 27.7925 36.6185 27.9052C36.5948 28.109 36.6871 28.1643 36.8738 28.1478C37.021 28.1352 37.1713 28.137 37.3191 28.1472C37.4873 28.1593 37.5656 28.1167 37.5643 27.9243C37.556 26.8637 37.558 25.8032 37.563 24.7427C37.5636 24.5757 37.5025 24.5228 37.3395 24.5242C36.4483 24.5298 35.5571 24.5343 34.6668 24.5215C34.424 24.5183 34.419 24.6432 34.4246 24.8183C34.4305 24.9878 34.389 25.1592 34.6673 25.147C35.1011 25.128 35.5368 25.142 35.9718 25.142C36.6401 25.142 36.6401 25.142 36.5916 25.8153C36.5255 26.7402 35.9323 27.3975 35.068 27.5058C34.052 27.6332 33.3565 27.2153 33.0826 26.2413C32.7666 25.1178 32.7788 23.9745 33.0935 22.852C33.2985 22.1208 33.7883 21.6558 34.5711 21.5432C35.3266 21.4348 35.9788 21.7788 36.1311 22.3757C36.2515 22.8488 36.2515 22.8488 36.7381 22.8483C36.791 22.8483 36.8445 22.8438 36.8975 22.8488C37.093 22.8693 37.1223 22.7705 37.1095 22.5985C37.0591 21.9118 36.5948 21.3258 35.8896 21.0775C35.3878 20.9003 34.8693 20.894 34.3501 20.9437C33.3845 21.0367 32.654 21.4985 32.3003 22.4183C31.7775 23.7802 31.7551 25.1777 32.2125 26.558C32.5016 27.43 33.14 27.9587 34.0655 28.0995C34.9693 28.2383 35.8165 28.1038 36.621 27.4988Z" fill="black"/>
<path d="M15.3213 23.5438C15.3213 24.9535 15.3213 26.344 15.3213 27.7345C15.3213 28.1983 15.308 28.211 14.8309 28.211C14.6825 28.211 14.5334 28.2033 14.385 28.2128C14.0843 28.232 13.9741 28.1026 13.976 27.7988C13.9862 26.1751 13.9805 24.551 13.9805 22.9273C13.9805 22.3858 13.9792 21.8445 13.9811 21.3036C13.9824 20.905 14.0289 20.8578 14.413 20.852C15.2302 20.84 15.229 20.8406 15.6226 21.5571C16.08 22.3896 16.5399 23.2216 17.0252 24.1013C17.2258 23.7476 17.4075 23.4336 17.5838 23.1165C17.9533 22.4501 18.3278 21.7865 18.6813 21.112C18.7877 20.9086 18.9253 20.8411 19.1362 20.8508C19.3165 20.859 19.498 20.8635 19.677 20.8501C19.9802 20.8271 20.0955 20.9571 20.091 21.2585C20.0795 22.0011 20.0872 22.7445 20.0872 23.4871C20.0872 24.9095 20.0872 26.332 20.0872 27.7536C20.0872 28.1931 20.07 28.2141 19.6463 28.211C18.6163 28.2026 18.7533 28.3441 18.7488 27.3191C18.7438 26.1306 18.7482 24.942 18.7457 23.7528C18.7457 23.686 18.7768 23.6101 18.6967 23.5241C18.3043 24.2363 17.9183 24.9363 17.5323 25.6363C17.4457 25.7943 17.361 25.953 17.2705 26.109C17.1093 26.3873 16.9482 26.3911 16.794 26.1121C16.3634 25.3345 15.9405 24.5521 15.5092 23.7751C15.4646 23.6955 15.4538 23.5731 15.3213 23.5438ZM18.8845 22.7885C18.903 22.7955 18.9222 22.8031 18.9407 22.8101C18.9407 24.3375 18.9407 25.8643 18.9407 27.3918C18.9407 28.0198 18.9413 28.0058 19.5668 28.0243C19.8267 28.032 19.903 27.9695 19.9012 27.6981C19.8885 25.672 19.8942 23.6458 19.8942 21.6201C19.8942 21.0526 19.8935 21.0718 19.331 21.045C19.0323 21.031 18.8737 21.1355 18.7425 21.3953C18.4852 21.9056 18.1953 22.3998 17.9183 22.9C17.6328 23.4151 17.3463 23.9298 17.0398 24.4815C16.973 24.3745 16.9265 24.3076 16.887 24.2363C16.3985 23.3566 15.8876 22.4878 15.4347 21.5896C15.2258 21.175 14.9837 20.996 14.5111 21.0373C14.2264 21.0623 14.1659 21.1348 14.1671 21.405C14.178 23.3885 14.1729 25.372 14.1729 27.3561C14.1729 28.0231 14.1729 28.0123 14.8315 28.0236C15.0672 28.0275 15.1341 27.9676 15.1322 27.7263C15.1207 26.1561 15.1251 24.5866 15.129 23.0165C15.129 22.9445 15.0806 22.8535 15.1818 22.7858C15.243 22.8923 15.3016 22.9923 15.357 23.0935C15.8659 24.0223 16.3781 24.9496 16.8807 25.8821C16.9857 26.0765 17.0615 26.1408 17.1712 25.895C17.201 25.8275 17.2418 25.7643 17.2775 25.6993C17.8138 24.7293 18.3488 23.7585 18.8845 22.7885Z" fill="black"/>
<path d="M29.8818 25.4154C29.8818 24.0389 29.8812 22.6624 29.8818 21.286C29.8818 20.8809 29.9087 20.8502 30.3125 20.8522C31.296 20.8579 31.222 20.7292 31.222 21.7477C31.2215 23.7632 31.222 25.7779 31.222 27.7932C31.222 28.2385 31.1825 28.2372 30.7283 28.283C30.1978 28.3365 29.9016 28.164 29.6538 27.6645C28.9685 26.2824 28.2112 24.9352 27.4823 23.5745C27.4353 23.4867 27.385 23.4 27.2843 23.3262C27.2843 23.8287 27.2843 24.332 27.2843 24.8345C27.2843 25.8314 27.2773 26.8289 27.2888 27.8257C27.292 28.1162 27.1881 28.236 26.8976 28.2137C26.7078 28.199 26.5148 28.199 26.325 28.2137C26.0295 28.2365 25.9383 28.1054 25.9397 27.82C25.9485 26.1869 25.9442 24.5537 25.9442 22.9199C25.9442 22.3682 25.9523 21.8165 25.941 21.2655C25.9345 20.9725 26.0448 20.8809 26.3442 20.8394C27.097 20.7344 27.5245 21 27.8538 21.7109C28.422 22.937 29.1123 24.1059 29.752 25.2989C29.7762 25.3435 29.8017 25.3867 29.8265 25.4314C29.845 25.4257 29.8633 25.4205 29.8818 25.4154ZM30.0762 26.1925C29.9347 26.1327 29.9188 26.0174 29.8717 25.9307C29.1238 24.5415 28.3487 23.165 27.6518 21.7504C27.378 21.1935 27.0602 20.9529 26.4448 21.0407C26.2053 21.075 26.1295 21.1152 26.1307 21.3649C26.141 23.3695 26.1365 25.3747 26.1365 27.3792C26.1365 28.0219 26.1365 28.0105 26.7805 28.0252C27.027 28.0309 27.0983 27.9672 27.0963 27.713C27.0843 26.09 27.09 24.467 27.09 22.8447C27.09 22.7452 27.09 22.6465 27.09 22.5472C27.1862 22.623 27.2333 22.7019 27.2766 22.7835C28.1308 24.3804 29.001 25.969 29.8271 27.5805C30.0303 27.9774 30.2513 28.1295 30.6947 28.0984C30.9845 28.078 31.036 28.0009 31.0342 27.7347C31.0233 25.73 31.0285 23.7249 31.0285 21.7204C31.0285 21.0445 31.0285 21.0572 30.3666 21.0477C30.1201 21.0445 30.0685 21.1254 30.0703 21.3554C30.08 22.8619 30.0755 24.3677 30.0755 25.874C30.0762 25.9734 30.0762 26.074 30.0762 26.1925Z" fill="black"/>
<path d="M4.64753 27.8923C3.36403 28.6918 1.50853 28.4248 0.68684 27.3318C0.307842 26.828 0.131401 26.2388 0.0645189 25.6216C-0.0450405 24.6165 -0.040582 23.6158 0.281088 22.6405C0.658177 21.4953 1.56268 20.7181 2.91497 20.7488C3.40225 20.7596 3.87425 20.7748 4.33987 20.9391C5.04818 21.1888 5.62402 22.0215 5.58325 22.7673C5.57305 22.9571 5.45967 23.0303 5.29915 23.038C5.05583 23.0495 4.81123 23.0431 4.56727 23.0405C4.3558 23.0386 4.25388 22.9195 4.2265 22.7176C4.1214 21.9436 3.63093 21.6048 2.84298 21.7373C2.01747 21.8761 1.61746 22.3928 1.45121 23.2928C1.28114 24.2106 1.27158 25.142 1.50153 26.0566C1.64739 26.6363 1.92767 27.1656 2.56272 27.2846C3.83475 27.5236 4.75072 26.8038 4.67938 25.5C4.66918 25.3113 4.5781 25.333 4.46153 25.3336C3.95197 25.335 3.44302 25.3356 2.93343 25.3336C2.56527 25.3323 2.50922 25.27 2.5073 24.8801C2.5054 24.3916 2.54488 24.3361 2.93917 24.3348C3.84113 24.3316 4.74308 24.3375 5.64503 24.3316C5.9253 24.3298 6.04887 24.447 6.04697 24.7305C6.04123 25.8025 6.03868 26.8738 6.04887 27.9458C6.05142 28.2178 5.91765 28.321 5.67878 28.3363C5.53102 28.346 5.38068 28.3261 5.23355 28.3408C4.89913 28.3733 4.64435 28.3083 4.64753 27.8923ZM4.82652 27.5668C4.92143 28.1485 4.92143 28.1485 5.51955 28.1453C5.54057 28.1453 5.56222 28.1421 5.58325 28.1458C5.79535 28.1796 5.8495 28.0848 5.84822 27.8796C5.8425 26.8401 5.84758 25.8005 5.85842 24.761C5.86033 24.5826 5.81192 24.5208 5.6272 24.5228C4.72525 24.5311 3.82393 24.5355 2.92197 24.5208C2.64553 24.5165 2.71113 24.6885 2.71113 24.8343C2.71113 24.9795 2.64488 25.1585 2.92197 25.147C3.38823 25.1285 3.85513 25.142 4.32203 25.142C4.86857 25.142 4.87812 25.142 4.87493 25.693C4.86728 27.0178 3.71755 27.7598 2.48438 27.4593C1.7837 27.2885 1.46395 26.728 1.31426 26.093C1.07157 25.0648 1.0773 24.0183 1.32827 22.9915C1.52255 22.196 1.99645 21.636 2.86592 21.545C3.56723 21.471 4.23032 21.717 4.41185 22.3781C4.45453 22.5328 4.31312 22.7565 4.5074 22.8316C4.66473 22.8928 4.86347 22.8475 5.04373 22.8495C5.07558 22.8501 5.10807 22.845 5.13927 22.8501C5.35138 22.887 5.40362 22.7673 5.38132 22.5928C5.31953 22.1181 5.14947 21.6978 4.75008 21.403C4.20675 21.001 3.5857 20.9563 2.93153 20.938C1.68817 20.9035 0.795763 21.631 0.464537 22.7113C0.134586 23.7883 0.105285 24.8858 0.328862 25.9801C0.633335 27.4733 1.49452 28.1458 3.01243 28.1458C3.67488 28.1465 4.27682 27.9523 4.82652 27.5668Z" fill="black"/>
<path d="M23.6867 24.5325C23.6867 25.3389 23.6925 26.146 23.6828 26.9524C23.681 27.1384 23.716 27.2224 23.9237 27.2045C24.1447 27.1855 24.3688 27.202 24.5918 27.2002C24.8198 27.1982 24.9383 27.2824 24.9428 27.5365C24.9555 28.2117 24.9638 28.211 24.2957 28.211C23.372 28.211 22.4485 28.2117 21.5255 28.211C21.1337 28.2104 21.1057 28.1824 21.1038 27.7977C21.1032 27.7129 21.105 27.6275 21.1038 27.5429C21.1007 27.3079 21.2045 27.1894 21.451 27.1989C21.684 27.2079 21.9185 27.1919 22.151 27.204C22.307 27.2122 22.3478 27.1575 22.3472 27.0059C22.342 25.3605 22.3427 23.7152 22.3472 22.07C22.3478 21.9127 22.3172 21.8375 22.1382 21.8502C21.9165 21.8662 21.6923 21.8432 21.47 21.8565C21.1885 21.8732 21.0822 21.7425 21.1032 21.4757C21.1095 21.391 21.1082 21.3055 21.1032 21.2209C21.0885 20.947 21.2185 20.8464 21.4872 20.8489C22.5063 20.8572 23.5255 20.8579 24.544 20.8482C24.8447 20.8457 24.9803 20.9572 24.9383 21.261C24.937 21.2712 24.9383 21.282 24.9383 21.2929C24.9408 21.854 24.9408 21.854 24.3912 21.854C23.6867 21.854 23.6867 21.854 23.6867 22.5585C23.6867 23.2159 23.6867 23.8745 23.6867 24.5325ZM22.5458 24.521C22.5458 25.3912 22.5402 26.2619 22.5503 27.132C22.5528 27.337 22.4987 27.4174 22.2847 27.404C22.0203 27.3874 21.7542 27.409 21.4892 27.3982C21.2298 27.3874 21.2948 27.5734 21.3025 27.7034C21.3095 27.8237 21.2 28.0212 21.4707 28.0199C22.5 28.0155 23.53 28.0135 24.5593 28.0219C24.795 28.0237 24.7523 27.8709 24.7403 27.7454C24.7282 27.6122 24.8397 27.3982 24.558 27.4009C24.3033 27.4027 24.0472 27.3824 23.7943 27.4059C23.5325 27.43 23.4797 27.3262 23.481 27.0835C23.4912 25.5975 23.4817 24.112 23.4892 22.626C23.4912 22.312 23.3478 21.8929 23.5573 21.7132C23.7377 21.5585 24.1447 21.6489 24.4498 21.6655C24.69 21.6782 24.76 21.6037 24.7517 21.3649C24.744 21.1509 24.7237 21.0432 24.4618 21.0477C23.4962 21.0642 22.53 21.066 21.565 21.047C21.2828 21.0412 21.3012 21.182 21.2917 21.3757C21.2808 21.5897 21.3325 21.6859 21.5675 21.6649C21.7993 21.6445 22.035 21.675 22.2675 21.6559C22.4955 21.6375 22.5535 21.724 22.551 21.9432C22.5388 22.8019 22.5458 23.6617 22.5458 24.521Z" fill="black"/>
<path d="M12.6805 28.211C11.9397 28.2097 12.0939 28.2697 11.8219 27.6275C11.6493 27.2193 11.4894 26.8045 11.3353 26.3887C11.2773 26.2325 11.2104 26.1537 11.0212 26.1575C10.3212 26.1715 9.62052 26.1677 8.91985 26.1593C8.76825 26.1575 8.69947 26.209 8.64661 26.3498C8.44532 26.8835 8.223 27.409 8.023 27.9428C7.94847 28.1428 7.83509 28.2275 7.62044 28.2142C7.3771 28.1995 7.13252 28.2173 6.88856 28.2092C6.58917 28.1995 6.50445 28.074 6.61975 27.804C7.65037 25.3925 8.6829 22.9815 9.71544 20.5712C9.77085 20.4425 9.82754 20.3055 9.99442 20.3062C10.1562 20.3068 10.1817 20.4527 10.2314 20.568C11.255 22.9477 12.2793 25.3268 13.3022 27.7065C13.4819 28.1243 13.4239 28.2092 12.9659 28.211C12.8716 28.211 12.7761 28.211 12.6805 28.211ZM9.97659 20.4482C8.87909 23.0113 7.81535 25.4968 6.73569 28.018C7.04652 28.018 7.30131 28.0047 7.55356 28.0225C7.73636 28.0352 7.81215 27.9613 7.8733 27.7995C8.07459 27.2645 8.2988 26.7383 8.49754 26.2027C8.56379 26.0243 8.65424 25.9632 8.84469 25.9657C9.59759 25.9765 10.3511 25.9772 11.104 25.965C11.3066 25.9618 11.4072 26.0275 11.4773 26.2167C11.6767 26.7523 11.8952 27.281 12.1028 27.8135C12.1468 27.9257 12.178 28.027 12.3366 28.0205C12.6188 28.0097 12.9022 28.0173 13.2328 28.0173C12.1455 25.4905 11.076 23.0038 9.97659 20.4482Z" fill="black"/>
<path d="M39.7173 11.7643C39.646 11.9917 39.5785 12.2198 39.502 12.4453C39.4772 12.5192 39.467 12.6128 39.3453 12.6102C39.2288 12.6077 39.2135 12.5281 39.188 12.4459C39.1002 12.1688 39.0103 11.8924 38.8753 11.6255C38.8753 11.8968 38.8778 12.1682 38.8733 12.4389C38.872 12.5013 38.9147 12.6007 38.7925 12.6051C38.6772 12.609 38.693 12.5204 38.693 12.4484C38.6925 12.1096 38.6918 11.7707 38.693 11.4312C38.6937 11.3516 38.665 11.2528 38.7943 11.2376C38.9142 11.2235 38.9867 11.2554 39.025 11.3885C39.111 11.6911 39.2167 11.9879 39.3447 12.3803C39.4632 12.0121 39.5523 11.7299 39.6447 11.449C39.6797 11.3414 39.6943 11.2165 39.8632 11.2344C40.0593 11.2554 39.9862 11.4025 39.9887 11.5013C39.997 11.8191 39.9918 12.137 39.9912 12.4548C39.9912 12.5268 40.0052 12.6172 39.8873 12.6045C39.7918 12.5943 39.8225 12.5134 39.8187 12.4567C39.802 12.2274 39.8467 11.9949 39.7173 11.7643Z" fill="black"/>
<path d="M37.8428 11.9859C37.8428 11.8802 37.83 11.7725 37.8453 11.6694C37.8785 11.4483 37.7975 11.3623 37.574 11.3935C37.5173 11.4012 37.4071 11.4471 37.4033 11.3254C37.3995 11.2139 37.4968 11.2356 37.567 11.2356C37.8096 11.2343 38.053 11.2349 38.2956 11.2349C38.3701 11.2349 38.4606 11.2286 38.4516 11.3356C38.4435 11.4267 38.351 11.4044 38.3001 11.3942C38.0103 11.3388 38.0051 11.512 38.0141 11.721C38.025 11.9636 38.018 12.207 38.0153 12.4497C38.0148 12.5191 38.0351 12.6114 37.9166 12.6038C37.8205 12.5974 37.8446 12.5184 37.8433 12.4611C37.8408 12.3031 37.8428 12.1445 37.8428 11.9859Z" fill="black"/>
<path d="M16.366 14.6856C16.7527 14.7869 17.0782 14.8773 17.3807 15.0347C18.6495 15.6952 18.812 17.1062 17.7227 18.0367C16.915 18.7272 15.9392 19.0292 14.9226 19.2292C13.6882 19.4725 12.4378 19.4737 11.1868 19.4788C10.9428 19.48 10.9734 19.3552 10.9785 19.2023C11.0352 17.4003 11.0428 15.5977 11.0307 13.7951C11.0243 12.8842 11.0001 11.9727 10.9797 11.0619C10.9708 10.6669 10.9664 10.6644 11.3766 10.6676C12.8595 10.679 14.3455 10.6536 15.8099 10.951C16.394 11.0695 16.9584 11.2453 17.4355 11.6249C18.133 12.1797 18.231 13.0658 17.6737 13.7626C17.3419 14.1792 16.8839 14.4225 16.366 14.6856ZM13.7264 16.7462C13.7264 17.085 13.7289 17.4245 13.7251 17.7635C13.7232 17.8922 13.7461 17.9597 13.9028 17.9335C14.4169 17.8482 14.8857 17.6673 15.2506 17.2857C15.636 16.8825 15.5984 16.3322 15.1736 15.9697C14.8092 15.6589 14.3678 15.5691 13.9054 15.5436C13.7646 15.536 13.7219 15.5933 13.7245 15.7283C13.7308 16.0678 13.7264 16.4073 13.7264 16.7462ZM13.7264 13.1874C13.7264 13.4104 13.7264 13.6327 13.7264 13.8556C13.7264 14.4155 13.7627 14.4397 14.2825 14.2091C14.3786 14.1665 14.4729 14.1161 14.5602 14.0575C15.043 13.7352 15.2895 13.1728 15.1481 12.725C15.0232 12.3294 14.5729 12.074 13.9837 12.0632C13.9729 12.0632 13.9621 12.0645 13.9519 12.0632C13.7678 12.0364 13.7149 12.1199 13.7226 12.297C13.7359 12.5925 13.7264 12.89 13.7264 13.1874Z" fill="white"/>
<path d="M23.6128 13.8347C23.8313 13.2774 24.1097 12.7876 24.4803 12.3525C25.2365 11.4665 26.1767 10.8671 27.2823 10.5123C27.469 10.4524 27.5372 10.4938 27.5927 10.6766C27.8047 11.3741 28.0252 12.0697 28.2602 12.7595C28.3245 12.9487 28.2933 13.0028 28.099 13.0589C26.4893 13.522 25.3772 14.5016 25.018 16.1832C24.8173 17.1227 24.9212 18.0845 24.9702 19.0362C24.9835 19.2917 24.9747 19.4064 24.66 19.3962C23.8548 19.3687 23.0478 19.3784 22.242 19.3924C22.0025 19.3967 21.9178 19.349 21.9332 19.0865C21.9732 18.41 22.0018 17.7317 21.993 17.0547C21.9777 15.8909 21.6325 14.8443 20.7795 14.0112C20.2993 13.5424 19.7018 13.2691 19.0725 13.0704C18.8782 13.0092 18.8515 12.9557 18.9298 12.7678C19.2177 12.0754 19.4948 11.3773 19.7527 10.6734C19.8312 10.4607 19.926 10.4766 20.0992 10.532C21.7458 11.0614 22.9758 12.0321 23.5287 13.7315C23.5363 13.7557 23.5632 13.7755 23.6128 13.8347Z" fill="white"/>
<path d="M1.30224 12.4735C1.43091 11.8397 1.55894 11.2288 1.67677 10.6154C1.70162 10.4874 1.74175 10.4339 1.88124 10.4485C3.2985 10.5969 4.6973 10.8186 5.96232 11.5301C6.67319 11.9301 7.26429 12.4588 7.46877 13.2881C7.69362 14.1997 7.40379 15.001 6.856 15.7258C6.44834 16.2654 5.92155 16.675 5.37377 17.0603C5.28522 17.1227 5.15974 17.1502 5.11197 17.3037C5.4158 17.3443 5.70499 17.2953 5.99354 17.282C6.5649 17.2552 7.13627 17.2297 7.70699 17.1902C7.89809 17.1768 7.96114 17.2227 7.95669 17.4258C7.94204 18.0407 7.94585 18.6565 7.9554 19.2712C7.95795 19.4432 7.90127 19.482 7.7382 19.4757C5.5553 19.3903 3.37175 19.384 1.18758 19.3955C0.917506 19.3967 0.848712 19.2598 0.765269 19.068C0.670361 18.8495 0.875466 18.8145 0.969737 18.7362C1.93602 17.9412 2.90804 17.1527 3.69662 16.1692C3.98899 15.8042 4.2425 15.4144 4.39345 14.9666C4.64697 14.2162 4.40875 13.5155 3.74312 13.0837C3.2055 12.734 2.59402 12.611 1.9685 12.5416C1.74939 12.5168 1.53091 12.497 1.30224 12.4735Z" fill="white"/>
<path d="M6.58324 16.7755C6.56923 16.782 6.55584 16.7902 6.54184 16.7928C6.53674 16.7933 6.52846 16.7807 6.52209 16.7743C6.53611 16.768 6.54948 16.7597 6.56349 16.7572C6.56859 16.7558 6.57623 16.7685 6.58324 16.7755Z" fill="white"/>
<path d="M34.0394 17.3269C34.7477 17.2912 35.4407 17.2657 36.1319 17.2192C36.8874 17.169 36.8874 17.1607 36.8874 17.9027C36.8874 18.3589 36.879 18.8155 36.8912 19.2715C36.8955 19.4442 36.8402 19.4819 36.6765 19.4754C34.4935 19.39 32.3094 19.383 30.1252 19.3939C29.8832 19.3952 29.801 19.2889 29.7105 19.1029C29.6087 18.8925 29.7755 18.8429 29.878 18.7589C30.7705 18.0244 31.6692 17.297 32.4279 16.4167C32.8164 15.9657 33.1694 15.4886 33.3432 14.9077C33.5732 14.1408 33.3127 13.465 32.6279 13.0522C32.0317 12.693 31.3667 12.579 30.6857 12.5216C30.245 12.4847 30.245 12.4777 30.331 12.0369C30.4227 11.5694 30.5175 11.1031 30.6074 10.6355C30.6317 10.5101 30.6609 10.4311 30.8279 10.4489C32.1915 10.5961 33.5394 10.8043 34.77 11.4617C35.5179 11.8611 36.165 12.3789 36.3885 13.2427C36.6745 14.3478 36.2459 15.2542 35.5134 16.053C35.1459 16.4537 34.7152 16.781 34.2687 17.088C34.1897 17.1422 34.0712 17.1657 34.0394 17.3269Z" fill="white"/>
<path d="M36.621 27.499C35.8165 28.104 34.9694 28.2385 34.0649 28.1009C33.1394 27.9602 32.5005 27.4315 32.212 26.5594C31.7545 25.1792 31.7769 23.7815 32.2999 22.4197C32.6527 21.5 33.384 21.0382 34.3497 20.9452C34.8687 20.8955 35.3872 20.9019 35.8892 21.0789C36.5944 21.3274 37.0587 21.914 37.109 22.6C37.1217 22.772 37.0918 22.87 36.8968 22.8504C36.8447 22.8445 36.7912 22.8497 36.7377 22.8497C36.251 22.8504 36.251 22.8504 36.1305 22.377C35.9784 21.7802 35.326 21.4357 34.5707 21.5445C33.7878 21.6567 33.298 22.1217 33.0928 22.8535C32.7782 23.9759 32.7667 25.1185 33.082 26.2429C33.3553 27.2169 34.0515 27.6347 35.0675 27.5072C35.9319 27.399 36.5242 26.741 36.5912 25.8167C36.6395 25.1434 36.6395 25.1434 35.9713 25.1434C35.5363 25.1434 35.1012 25.1294 34.6669 25.1485C34.3885 25.1607 34.4298 24.9894 34.4242 24.8199C34.4183 24.6447 34.4235 24.5192 34.6662 24.523C35.5567 24.5357 36.4478 24.5307 37.3388 24.5255C37.502 24.5244 37.5632 24.5772 37.5625 24.744C37.5574 25.8047 37.5562 26.8652 37.5638 27.9257C37.565 28.118 37.4867 28.1607 37.3185 28.1487C37.1708 28.1385 37.021 28.1359 36.8734 28.1494C36.686 28.1659 36.5937 28.1099 36.6178 27.9067C36.6318 27.7925 36.621 27.678 36.621 27.499Z" fill="white"/>
<path d="M18.8845 22.7885C18.3495 23.7587 17.8138 24.7289 17.2788 25.6995C17.243 25.7645 17.2023 25.8275 17.1723 25.895C17.0628 26.141 16.987 26.0772 16.882 25.8824C16.3793 24.9499 15.8672 24.0224 15.3583 23.0937C15.3029 22.9924 15.2436 22.893 15.1831 22.786C15.0818 22.8535 15.1302 22.9454 15.1302 23.0167C15.1264 24.5867 15.122 26.1569 15.1334 27.7264C15.1353 27.9679 15.0684 28.0277 14.8328 28.0239C14.1741 28.0124 14.1741 28.0239 14.1741 27.3564C14.1741 25.3729 14.1792 23.3892 14.1684 21.405C14.1671 21.135 14.2276 21.0624 14.5124 21.0375C14.985 20.9962 15.2271 21.1752 15.436 21.5899C15.8889 22.4879 16.3997 23.3562 16.8883 24.2364C16.9278 24.3072 16.9743 24.374 17.0412 24.4817C17.3475 23.9294 17.6342 23.4147 17.9195 22.9C18.1967 22.3994 18.4865 21.9057 18.7438 21.3955C18.875 21.1362 19.0337 21.0312 19.3323 21.0452C19.8942 21.0719 19.8955 21.0529 19.8955 21.6204C19.8955 23.6465 19.8897 25.6729 19.9025 27.6984C19.9043 27.9697 19.8278 28.0322 19.568 28.0245C18.9425 28.006 18.9418 28.02 18.9418 27.392C18.9418 25.8645 18.9418 24.3377 18.9418 22.8102C18.9215 22.8032 18.903 22.7962 18.8845 22.7885Z" fill="white"/>
<path d="M30.0762 26.1925C30.0762 26.074 30.0762 25.974 30.0762 25.8733C30.0762 24.3668 30.0807 22.8611 30.071 21.3546C30.0699 21.1246 30.1214 21.0431 30.3674 21.047C31.029 21.0565 31.029 21.0438 31.029 21.7196C31.029 23.7241 31.024 25.7293 31.0349 27.734C31.0362 28.0001 30.9852 28.0773 30.6954 28.0977C30.252 28.1288 30.031 27.9766 29.8279 27.5798C29.0017 25.9688 28.1315 24.3796 27.2774 22.7828C27.234 22.7011 27.1869 22.6221 27.0907 22.5465C27.0907 22.6458 27.0907 22.7445 27.0907 22.8438C27.0907 24.4668 27.085 26.0898 27.097 27.7123C27.099 27.9665 27.0277 28.0295 26.7812 28.0243C26.1372 28.0098 26.1372 28.0218 26.1372 27.3785C26.1372 25.374 26.1417 23.3688 26.1314 21.3641C26.1302 21.1151 26.206 21.0743 26.4455 21.04C27.0607 20.9521 27.378 21.1928 27.6525 21.7496C28.3494 23.1643 29.1245 24.5408 29.8724 25.93C29.9189 26.0166 29.9349 26.1326 30.0762 26.1925Z" fill="white"/>
<path d="M4.82652 27.567C4.27682 27.9524 3.67489 28.1467 3.01115 28.1467C1.49389 28.146 0.632702 27.474 0.327592 25.981C0.104016 24.8867 0.133317 23.7892 0.463269 22.712C0.794494 21.6317 1.68689 20.9037 2.93025 20.9387C3.58507 20.9572 4.20612 21.0019 4.74882 21.4037C5.1482 21.6994 5.31827 22.1197 5.38005 22.5935C5.40235 22.7682 5.35012 22.8879 5.138 22.8509C5.10679 22.8459 5.0743 22.8504 5.04245 22.8504C4.8622 22.8484 4.66345 22.8935 4.50614 22.8325C4.31185 22.7574 4.45325 22.533 4.41059 22.3789C4.22905 21.7177 3.56595 21.4725 2.86465 21.5457C1.99519 21.6369 1.52128 22.1967 1.327 22.9924C1.07604 24.0192 1.0703 25.0657 1.31299 26.0937C1.46268 26.7289 1.78307 27.2894 2.4831 27.46C3.71629 27.7607 4.86602 27.018 4.87365 25.6937C4.87685 25.1427 4.86794 25.1427 4.32077 25.1427C3.85387 25.1427 3.38697 25.1294 2.9207 25.1479C2.64362 25.1587 2.70987 24.9804 2.70987 24.835C2.70987 24.6899 2.64425 24.5172 2.9207 24.5217C3.82202 24.5357 4.72397 24.5312 5.62592 24.5237C5.81065 24.5217 5.85905 24.5835 5.85715 24.7619C5.84632 25.8014 5.84122 26.8409 5.84695 27.8805C5.84824 28.0855 5.79409 28.1799 5.58197 28.1467C5.56159 28.1435 5.5393 28.146 5.51827 28.146C4.92144 28.1487 4.92144 28.1487 4.82652 27.567Z" fill="white"/>
<path d="M22.5458 24.5212C22.5458 23.6613 22.5388 22.802 22.5503 21.9422C22.5535 21.723 22.4948 21.6363 22.2668 21.6548C22.035 21.6733 21.7987 21.6428 21.5668 21.6638C21.3318 21.6848 21.2802 21.5887 21.291 21.3747C21.3005 21.181 21.2822 21.0402 21.5643 21.0458C22.53 21.065 23.4962 21.0632 24.4612 21.0465C24.723 21.0422 24.7433 21.1503 24.751 21.3638C24.7593 21.6027 24.6893 21.6778 24.4492 21.6643C24.144 21.6478 23.7363 21.5573 23.5567 21.7122C23.3472 21.8918 23.4905 22.311 23.4885 22.625C23.481 24.111 23.4905 25.5965 23.4803 27.0825C23.4783 27.3245 23.5312 27.429 23.7937 27.4048C24.0465 27.3812 24.3027 27.4022 24.5573 27.3997C24.839 27.3972 24.7275 27.6112 24.7395 27.7443C24.751 27.8698 24.7943 28.0227 24.5587 28.0207C23.5293 28.0125 22.4993 28.0143 21.47 28.0188C21.1993 28.0202 21.3088 27.8227 21.3018 27.7023C21.2942 27.5723 21.2287 27.3863 21.4885 27.3972C21.7535 27.4087 22.0197 27.3863 22.284 27.4028C22.498 27.4163 22.5522 27.336 22.5497 27.1308C22.5395 26.262 22.5458 25.392 22.5458 24.5212Z" fill="white"/>
<path d="M9.97647 20.4484C11.0759 23.004 12.1454 25.4907 13.232 28.0182C12.9015 28.0182 12.6186 28.0105 12.3358 28.0214C12.1772 28.0277 12.146 27.9265 12.1021 27.8144C11.8944 27.2819 11.6753 26.7532 11.4766 26.2175C11.4065 26.029 11.3058 25.9627 11.1033 25.9659C10.3504 25.978 9.59684 25.9774 8.84394 25.9665C8.65412 25.964 8.56304 26.0252 8.49679 26.2035C8.29806 26.7392 8.07384 27.2654 7.87256 27.8004C7.81206 27.9622 7.73561 28.036 7.55281 28.0234C7.30056 28.0055 7.04577 28.0189 6.73492 28.0189C7.81524 25.4964 8.87961 23.0115 9.97647 20.4484ZM9.97902 22.5709C9.60386 23.4799 9.25542 24.3264 8.90446 25.1722C8.84204 25.3219 8.90446 25.3564 9.04267 25.3557C9.66627 25.3525 10.2905 25.3494 10.9141 25.3575C11.1211 25.3602 11.1077 25.2824 11.0447 25.1327C10.6969 24.3065 10.3548 23.4772 9.97902 22.5709Z" fill="white"/>
<path d="M13.7264 16.7462C13.7264 16.4073 13.7309 16.0678 13.7239 15.729C13.7213 15.5933 13.764 15.536 13.9048 15.5442C14.3678 15.5704 14.8093 15.6602 15.173 15.9704C15.5978 16.3328 15.6348 16.8832 15.25 17.2864C14.8851 17.6685 14.4162 17.8489 13.9022 17.9342C13.7455 17.9602 13.7226 17.892 13.7245 17.764C13.7289 17.4245 13.7264 17.0857 13.7264 16.7462ZM14.1755 16.7137C14.1755 16.8832 14.1812 17.0532 14.1736 17.222C14.1678 17.3595 14.1971 17.4297 14.3481 17.357C14.5583 17.2557 14.7691 17.1564 14.9277 16.9774C15.1195 16.7615 15.1131 16.5347 14.9073 16.3328C14.8003 16.2277 14.6691 16.1608 14.5296 16.1067C14.1888 15.9755 14.1755 15.9825 14.1748 16.3315C14.1748 16.4589 14.1755 16.5863 14.1755 16.7137Z" fill="black"/>
<path d="M13.7263 13.1873C13.7263 12.8904 13.7359 12.593 13.7225 12.2961C13.7149 12.1184 13.7677 12.035 13.9518 12.0624C13.962 12.0636 13.9728 12.0624 13.9837 12.0624C14.5735 12.0732 15.0238 12.3286 15.148 12.7242C15.2895 13.1726 15.0436 13.735 14.5601 14.0567C14.4729 14.1153 14.3786 14.1656 14.2824 14.2083C13.7626 14.4389 13.7263 14.4147 13.7263 13.8548C13.7263 13.6325 13.7263 13.4096 13.7263 13.1873ZM14.1754 13.7268C14.4544 13.6051 14.599 13.4624 14.6882 13.2344C14.8194 12.8968 14.6907 12.6471 14.3455 12.5592C14.2302 12.5299 14.1703 12.5426 14.1735 12.6853C14.1805 13.0293 14.1754 13.3732 14.1754 13.7268Z" fill="black"/>
<path d="M9.97906 22.5708C10.3555 23.4771 10.6969 24.3058 11.0454 25.1326C11.1084 25.2823 11.1218 25.3601 10.9148 25.3575C10.2912 25.3493 9.66695 25.3525 9.04336 25.3556C8.9045 25.3563 8.84271 25.3225 8.90513 25.1721C9.25546 24.327 9.6039 23.4798 9.97906 22.5708ZM9.97906 23.0663C9.67715 23.8001 9.40261 24.4683 9.1268 25.139C9.70453 25.139 10.2561 25.139 10.8383 25.139C10.5523 24.448 10.2784 23.788 9.97906 23.0663Z" fill="black"/>
<path d="M14.1753 16.7137C14.1753 16.5863 14.1753 16.4595 14.1753 16.3321C14.176 15.9831 14.1893 15.9754 14.5301 16.1073C14.6696 16.1608 14.8008 16.2277 14.9078 16.3334C15.1129 16.5353 15.12 16.7622 14.9282 16.978C14.7696 17.1563 14.5588 17.2563 14.3486 17.3577C14.1976 17.4303 14.1683 17.3602 14.1741 17.2227C14.1804 17.0525 14.1753 16.8832 14.1753 16.7137Z" fill="white"/>
<path d="M14.1755 13.7268C14.1755 13.3739 14.1806 13.0293 14.1729 12.6853C14.1697 12.5426 14.2296 12.5299 14.3449 12.5592C14.6901 12.6477 14.8188 12.8974 14.6876 13.2344C14.5991 13.4624 14.4545 13.6051 14.1755 13.7268Z" fill="white"/>
<path d="M9.97898 23.066C10.2784 23.7884 10.5516 24.4477 10.8383 25.1387C10.2567 25.1387 9.70509 25.1387 9.12671 25.1387C9.40253 24.468 9.67769 23.7999 9.97898 23.066Z" fill="white"/>
</g>
<defs>
<clipPath id="clip0_8665_4850">
<rect width="40" height="40" fill="white"/>
</clipPath>
</defs>
</svg>
