<svg width="140" height="24" viewBox="0 0 140 24" fill="none" xmlns="http://www.w3.org/2000/svg">
<g clip-path="url(#clip0_8669_3560)">
<mask id="mask0_8669_3560" style="mask-type:luminance" maskUnits="userSpaceOnUse" x="0" y="0" width="140" height="24">
<path d="M140 0H0V24H140V0Z" fill="white"/>
</mask>
<g mask="url(#mask0_8669_3560)">
<path fill-rule="evenodd" clip-rule="evenodd" d="M42.0051 0H49.4477C49.1441 0.25096 48.897 0.568502 48.7581 1.01921C47.7338 1.0653 46.7043 1.20871 45.6801 1.45967C44.5323 1.74136 43.5338 2.42254 43.5338 3.59539C43.5338 3.97439 43.6367 4.33291 43.8117 4.64533L43.8015 4.39949L43.9558 4.32266C44.0948 4.25096 44.2441 4.1895 44.3882 4.12804C44.7588 3.97439 45.1448 3.84635 45.5308 3.7388C47.7955 3.10372 51.1308 3.10372 53.3955 3.7388C53.7816 3.84635 54.1676 3.97951 54.5382 4.12804C54.6823 4.18438 54.8316 4.25096 54.9705 4.32266L55.125 4.39949L55.1147 4.64533C55.2897 4.33291 55.3926 3.97439 55.3926 3.59539C55.3926 2.42254 54.3941 1.73111 53.2462 1.45967C52.1551 1.20359 51.0639 1.04993 49.9727 1.01408C50.1992 0.727272 50.5492 0.542894 50.8992 0.363637C51.1205 0.245839 51.3419 0.133163 51.5426 0H56.9212C57.6522 0 58.2492 0.59411 58.2492 1.32138V22.6735C58.2492 23.4008 57.6522 23.9949 56.9212 23.9949H42.0051C41.2742 23.9949 40.6772 23.4008 40.6772 22.6735V1.32138C40.672 0.59411 41.2691 0 42.0051 0ZM50.575 10.3969C52.4639 9.32652 53.3286 8.0922 53.4367 6.04866C52.6698 8.54802 51.5477 9.75672 50.575 10.3969ZM44.2029 7.20102C44.4705 10.7862 48.3617 11.0884 49.4632 13.1165C50.5647 11.0884 54.4558 10.781 54.7235 7.20102L54.847 4.55826C52.186 3.18054 46.7455 3.18054 44.0845 4.55826L44.2029 7.20102Z" fill="black"/>
<path fill-rule="evenodd" clip-rule="evenodd" d="M21.6639 0H36.5801C37.3109 0 37.908 0.59411 37.908 1.32138V22.6735C37.908 23.4008 37.3109 23.9949 36.5801 23.9949H21.6639C20.933 23.9949 20.3359 23.4008 20.3359 22.6735V1.32138C20.3359 0.59411 20.933 0 21.6639 0ZM30.3161 16.4251C32.2051 15.3547 33.0698 14.1203 33.1778 12.0768C32.4109 14.5762 31.2889 15.7849 30.3161 16.4251ZM23.8669 13.4238C24.1345 17.009 28.0257 17.3162 29.1271 19.3393C30.2286 17.3111 34.1197 17.0038 34.3874 13.4238L34.5109 10.781C31.8499 9.40332 26.4095 9.40332 23.7485 10.781L23.8669 13.4238ZM28.422 7.242C27.3977 7.28808 26.3683 7.43148 25.344 7.68246C24.1962 7.96416 23.1977 8.64534 23.1977 9.81816C23.1977 10.1972 23.3007 10.5557 23.4757 10.8681L23.4654 10.6223L23.6198 10.5455C23.7588 10.4738 23.908 10.4123 24.0521 10.3508C24.4227 10.1972 24.8088 10.0691 25.1948 9.96156C27.4595 9.32652 30.7948 9.32652 33.0595 9.96156C33.4455 10.0691 33.8316 10.2023 34.2021 10.3508C34.3462 10.4072 34.4955 10.4738 34.6345 10.5455L34.7889 10.6223L34.7786 10.8681C34.9536 10.5557 35.0566 10.1972 35.0566 9.81816C35.0566 8.64534 34.058 7.9539 32.9102 7.68246C31.819 7.42638 30.7278 7.27272 29.6367 7.2369C29.8632 6.95004 30.2132 6.76566 30.5632 6.58644C31.3352 6.1818 32.0867 5.78745 32.1793 4.65557C30.7485 4.83483 31.469 4.76825 30.0588 5.6338C29.3793 5.99232 28.6845 6.35598 28.422 7.242Z" fill="black"/>
<path fill-rule="evenodd" clip-rule="evenodd" d="M1.32794 0H3.47427L3.52573 1.12164C3.79338 4.70678 7.68458 5.00896 8.78605 7.03716C9.88747 5.00896 13.7787 4.70167 14.0463 1.12164L14.0978 0H16.2441C16.975 0 17.572 0.59411 17.572 1.32138V22.6735C17.572 23.4008 16.975 23.9949 16.2441 23.9949H14.103L14.1699 22.5762C11.5088 21.1985 6.06838 21.1985 3.40735 22.5762L3.47427 23.9949H1.32794C0.597059 24 0 23.4008 0 22.6735V1.32138C0 0.59411 0.597059 0 1.32794 0ZM12.8625 0C12.1059 2.13572 11.0816 3.21639 10.1809 3.80538C11.8949 2.83226 12.7647 1.72087 12.9912 0H12.8625ZM8.08605 19.0423C7.06176 19.0883 6.03235 19.2317 5.00809 19.4827C3.8603 19.7644 2.86177 20.4456 2.86177 21.6184C2.86177 21.9974 2.9647 22.3559 3.1397 22.6684L3.12941 22.4225L3.28382 22.3457C3.4228 22.274 3.57206 22.2125 3.71618 22.1511C4.08677 21.9974 4.4728 21.8694 4.85882 21.7618C7.12352 21.1268 10.4588 21.1268 12.7235 21.7618C13.1096 21.8694 13.4956 22.0025 13.8662 22.1511C14.0103 22.2074 14.1596 22.274 14.2985 22.3457L14.453 22.4225L14.4427 22.6684C14.6177 22.3559 14.7206 21.9974 14.7206 21.6184C14.7206 20.4456 13.722 19.7542 12.5743 19.4827C11.4831 19.2266 10.3919 19.073 9.30071 19.0372C9.52719 18.7503 9.87719 18.5659 10.2272 18.3867C10.9993 17.9821 11.7507 17.5877 11.8434 16.4558C10.4125 16.6351 11.1331 16.5685 9.72281 17.4341C9.04338 17.7875 8.34852 18.1511 8.08605 19.0423Z" fill="black"/>
<path fill-rule="evenodd" clip-rule="evenodd" d="M72.6557 13.8029C75.6465 13.8029 77.4838 11.954 77.4838 9.43928V9.40346C77.4838 6.92456 75.7029 5.97195 73.881 5.66465L77.2732 2.44314V0.230591H68.2091V2.74532H73.4796L70.2782 5.94634L70.736 7.81574H71.9613C73.6084 7.81574 74.586 8.42522 74.586 9.51098V9.54686C74.586 10.5405 73.7986 11.1653 72.6867 11.1653C71.3282 11.1653 70.3705 10.5916 69.4493 9.56222L67.4268 11.4982C68.5746 12.8503 70.2422 13.8029 72.6557 13.8029Z" fill="black"/>
<path fill-rule="evenodd" clip-rule="evenodd" d="M92.4669 13.8028C96.605 13.8028 99.6113 10.694 99.6113 6.89886V6.86298C99.6113 3.06786 96.6409 0 92.5029 0C88.3648 0 85.3585 3.10883 85.3585 6.89886V6.93468C85.3585 10.735 88.3289 13.8028 92.4669 13.8028ZM92.5029 11.0935C90.1247 11.0935 88.4416 9.18822 88.4416 6.89886V6.86298C88.4416 4.57363 90.0888 2.70935 92.4669 2.70935C94.8451 2.70935 96.5282 4.61459 96.5282 6.90396V6.93984C96.5282 9.2292 94.881 11.0935 92.5029 11.0935Z" fill="black"/>
<path fill-rule="evenodd" clip-rule="evenodd" d="M100.224 13.5724H103.23L104.454 10.5813H110.127L111.351 13.5724H114.434L108.696 0.133179H105.973L100.224 13.5724ZM105.515 7.98974L107.296 3.66199L109.077 7.98974H105.515Z" fill="black"/>
<path fill-rule="evenodd" clip-rule="evenodd" d="M116.509 13.5724H119.463V9.49562L121.013 7.89254L125.171 13.5724H128.713L123.004 5.89L128.466 0.230591H124.904L119.463 6.06416V0.230591H116.509V13.5724Z" fill="black"/>
<path fill-rule="evenodd" clip-rule="evenodd" d="M135.074 13.7669C137.967 13.7669 140 12.2816 140 9.62858V9.59276C140 7.26752 138.466 6.29444 135.749 5.58763C133.432 4.99864 132.856 4.71183 132.856 3.83603V3.79505C132.856 3.14461 133.448 2.63244 134.58 2.63244C135.713 2.63244 136.881 3.12924 138.065 3.9487L139.599 1.73615C138.239 0.65037 136.572 0.0408936 134.616 0.0408936C131.878 0.0408936 129.922 1.64396 129.922 4.06138V4.09723C129.922 6.7451 131.667 7.49288 134.369 8.17916C136.613 8.75282 137.071 9.13178 137.071 9.87446V9.91028C137.071 10.6939 136.346 11.1702 135.136 11.1702C133.602 11.1702 132.341 10.5402 131.132 9.55178L129.387 11.6311C130.993 13.0601 133.046 13.7669 135.074 13.7669Z" fill="black"/>
<path fill-rule="evenodd" clip-rule="evenodd" d="M70.3704 24C71.395 24 72.1873 23.6005 72.764 23.114V20.6966H70.3295V21.7567H71.5697V22.5506C71.2556 22.7759 70.8598 22.8835 70.4119 22.8835C69.4183 22.8835 68.7183 22.1357 68.7183 21.1165V21.1012C68.7183 20.1537 69.4288 19.3649 70.3246 19.3649C70.9732 19.3649 71.3591 19.5698 71.7859 19.9283L72.5633 18.9962C71.9817 18.5045 71.369 18.233 70.3655 18.233C68.6718 18.233 67.4317 19.5289 67.4317 21.1165V21.1319C67.4267 22.781 68.626 24 70.3704 24Z" fill="black"/>
<path fill-rule="evenodd" clip-rule="evenodd" d="M81.1486 23.9026H82.4042L82.914 22.6529H85.2817L85.7915 23.9026H87.0781L84.6795 18.2893H83.5422L81.1486 23.9026ZM83.357 21.5723L84.1028 19.7643L84.8493 21.5723H83.357Z" fill="black"/>
<path fill-rule="evenodd" clip-rule="evenodd" d="M95.6373 23.9028H96.8416V20.2869L98.4014 22.648H98.4373L100.013 20.2664V23.9028H101.237V18.3304H99.9098L98.4373 20.6864L96.9655 18.3304H95.6373V23.9028Z" fill="black"/>
<path d="M111.552 18.3304H110.322V23.9028H111.552V18.3304Z" fill="black"/>
<path fill-rule="evenodd" clip-rule="evenodd" d="M120.637 23.9028H121.856V20.3586L124.569 23.9028H125.614V18.3304H124.399V21.7619L121.774 18.3304H120.637V23.9028Z" fill="black"/>
<path fill-rule="evenodd" clip-rule="evenodd" d="M137.339 24C138.363 24 139.156 23.6005 139.732 23.114V20.6966H137.298V21.7567H138.539V22.5506C138.225 22.7759 137.828 22.8835 137.38 22.8835C136.387 22.8835 135.682 22.1357 135.682 21.1165V21.1012C135.682 20.1537 136.392 19.3649 137.288 19.3649C137.937 19.3649 138.322 19.5698 138.749 19.9283L139.527 18.9962C138.945 18.5045 138.332 18.233 137.329 18.233C135.636 18.233 134.395 19.5289 134.395 21.1165V21.1319C134.395 22.781 135.599 24 137.339 24Z" fill="black"/>
</g>
</g>
<defs>
<clipPath id="clip0_8669_3560">
<rect width="140" height="24" fill="white"/>
</clipPath>
</defs>
</svg>
