<svg width="140" height="40" viewBox="0 0 140 40" fill="none" xmlns="http://www.w3.org/2000/svg">
<path d="M23.2739 0H2.28882e-05L3.56285 6.1231H12.5854L8.07456 13.876L11.6365 19.9991L11.6374 20L23.2739 0Z" fill="black"/>
<path d="M46.547 0H23.274L26.8368 6.1231H35.8585L31.3476 13.876L34.9105 19.9991L34.9113 20L46.5478 0H46.547Z" fill="black"/>
<path d="M34.9104 20H11.6374L15.2003 26.1231H24.2219L19.7111 33.876L23.2739 39.9991V40L34.9113 20H34.9104Z" fill="black"/>
<path d="M35.8575 6.12305H12.5845L16.1473 12.2461H25.169L20.6582 19.9991L24.221 26.123L35.8584 6.12305H35.8575Z" fill="black"/>
<path d="M62.7342 24.5364L67.0923 15.1786C67.1348 15.095 67.2043 15.0261 67.331 15.0261H67.4708C67.6114 15.0261 67.667 15.0959 67.7095 15.1786L72.025 24.5364C72.1092 24.7173 71.9972 24.8982 71.7863 24.8982H70.5674C70.3573 24.8982 70.2592 24.8146 70.1611 24.6208L69.4744 23.1185H65.2848L64.5981 24.6208C64.5426 24.7595 64.4158 24.8982 64.1918 24.8982H62.973C62.762 24.8982 62.65 24.7173 62.7342 24.5364ZM68.7877 21.5748L67.3866 18.5158H67.344L65.9715 21.5748H68.7877Z" fill="black"/>
<path d="M82.0607 15.2346C82.0746 15.1235 82.1588 15.0261 82.3124 15.0261H82.5364C82.6484 15.0261 82.7335 15.0813 82.7752 15.1657L85.8579 21.7281C85.8866 21.7281 85.8866 21.7281 85.9004 21.7281L88.9832 15.1657C89.0257 15.0821 89.0952 15.0261 89.2219 15.0261H89.4459C89.6004 15.0261 89.6847 15.1235 89.6985 15.2346L91.3515 24.5786C91.394 24.7733 91.2812 24.8982 91.0997 24.8982H89.8244C89.6985 24.8982 89.5857 24.7871 89.5579 24.6897L88.7314 19.4195C88.7175 19.4195 88.6889 19.4195 88.6889 19.4195L86.2364 24.8844C86.2086 24.968 86.1244 25.0369 85.9977 25.0369H85.7459C85.62 25.0369 85.5497 24.9671 85.5072 24.8844L83.0269 19.4195C83.0269 19.4195 82.9991 19.4195 82.9844 19.4195L82.1718 24.6897C82.1579 24.7871 82.0459 24.8982 81.92 24.8982H80.6595C80.4772 24.8982 80.3652 24.7733 80.393 24.5786L82.0607 15.2346Z" fill="black"/>
<path d="M101.469 15.429C101.469 15.2895 101.595 15.1646 101.735 15.1646H103.038C103.179 15.1646 103.305 15.2895 103.305 15.429V24.6335C103.305 24.773 103.179 24.8979 103.038 24.8979H101.735C101.595 24.8979 101.469 24.773 101.469 24.6335V15.429Z" fill="black"/>
<path d="M114.09 15.2759C114.09 15.1364 114.216 15.0261 114.356 15.0261H114.706L120.536 21.1716H120.549V15.4293C120.549 15.2897 120.661 15.1648 120.816 15.1648H122.105C122.246 15.1648 122.372 15.2897 122.372 15.4293V24.7871C122.372 24.9258 122.246 25.0369 122.105 25.0369H121.769L115.913 18.6554H115.899V24.6337C115.899 24.7733 115.787 24.8982 115.632 24.8982H114.358C114.217 24.8982 114.091 24.7733 114.091 24.6337V15.2759H114.09Z" fill="black"/>
<path d="M54.1179 20.0103H51.4276C51.2731 20.0103 51.1611 20.1214 51.1611 20.2748V21.3731C51.1611 21.5126 51.2731 21.6238 51.4276 21.6238H52.5484V22.8057C52.2688 22.9168 51.6655 23.1528 50.8807 23.1528C49.7955 23.1528 48.8553 22.6006 48.2901 21.7754C47.9359 21.2577 47.7276 20.6331 47.7276 19.9689C47.7276 18.2314 49.1149 16.7429 50.8668 16.7429C51.5535 16.7429 52.2185 16.9634 52.781 17.3855C52.7836 17.3872 52.7923 17.3941 52.7949 17.3958C52.9286 17.4992 53.0684 17.4501 53.1508 17.3157L53.7716 16.2527C53.8453 16.1269 53.8271 15.9736 53.7143 15.8943C53.6144 15.8263 53.512 15.7617 53.4078 15.7005C52.6161 15.2345 51.7158 14.9631 50.7826 14.9631C47.9941 14.9631 45.7526 17.202 45.7526 19.9819C45.7526 21.0492 46.0851 22.0286 46.6502 22.8332C47.5566 24.1237 49.0654 24.9593 50.7834 24.9593C52.8157 24.9593 54.2586 24.0556 54.2586 24.0556C54.3141 24.0134 54.3706 23.9445 54.3706 23.8334V20.2739C54.3697 20.1352 54.2577 20.0103 54.1179 20.0103Z" fill="black"/>
<path d="M139.748 20.0103H137.057C136.903 20.0103 136.791 20.1214 136.791 20.2748V21.3731C136.791 21.5126 136.903 21.6238 137.057 21.6238H138.178V22.8057C137.898 22.9168 137.295 23.1528 136.51 23.1528C135.425 23.1528 134.485 22.6006 133.92 21.7754C133.566 21.2577 133.357 20.6331 133.357 19.9689C133.357 18.2314 134.744 16.7429 136.496 16.7429C137.183 16.7429 137.848 16.9634 138.411 17.3855C138.413 17.3872 138.422 17.3941 138.424 17.3958C138.558 17.4992 138.698 17.4501 138.78 17.3157L139.401 16.2527C139.475 16.1269 139.457 15.9736 139.344 15.8943C139.244 15.8263 139.142 15.7617 139.037 15.7005C138.246 15.2345 137.345 14.9631 136.412 14.9631C133.624 14.9631 131.382 17.202 131.382 19.9819C131.382 21.0492 131.715 22.0286 132.28 22.8332C133.186 24.1237 134.695 24.9593 136.413 24.9593C138.445 24.9593 139.888 24.0556 139.888 24.0556C139.944 24.0134 140 23.9445 140 23.8334V20.2739C140 20.1352 139.888 20.0103 139.748 20.0103Z" fill="black"/>
</svg>
