<svg width="120" height="40" viewBox="0 0 120 40" fill="none" xmlns="http://www.w3.org/2000/svg">
<path d="M80.1 27.8C79.9 27.2 79.6 26.9 79.6 26.7C79.7 25.4 79.6 24.1 79.6 22.9C79.6 22.2 78.8 21.6 78.3 21.4C78.6 20.9 78.7 20.9 79.1 19.8C80.3 16.6 78.8 12.4 75.6 11.1C75.4 11 75.3 11 75.1 10.9C74.3 10.6 73.5 10.4 72.7 10.4C71.6 10.4 71.4 10.4 70.3 10.7C69.8 10.8 69.4 11 69.2 11.2C69.1 11 68.8 10.8 68.6 10.7C68.4 10.6 68.3 10.5 68.1 10.5C68 10.4 67.8 10.4 67.7 10.4H65C65.2 9.80002 66.2 7.00002 66.3 6.60002C66.5 5.90002 66.8 5.30002 66.5 4.50002C66.3 4.00002 65.5 3.40002 65 3.40002H41.8C40.5 3.40002 39.6 4.20002 39.6 5.40002V13.8C39.6 14.6 40.1 15.1 40.6 15.5C41.4 16 41.9 15.9 42.9 15.9H48.2C46.7 20.2 45.1 24.6 43.6 28.9C43.3 29.7 41.6 34.3 41.6 35C41.6 36.2 43.1 36.9 43.8 36.9H54.4C55.3 36.9 56.1 35.8 56.1 35.3C57.3 35.3 57.6 35.1 58.4 34.7C59.2 34.3 59.5 33.9 59.9 33.6C60.1 33.8 60.3 34 60.7 34.2C61.1 34.4 61.4 34.6 61.8 34.8C62.6 35.1 63.4 35.3 64.2 35.3H64.5C65.7 35.4 66.9 35.1 68 34.5C68.2 34.4 68.4 34.2 68.6 34.1C68.8 34.6 69.5 35.1 70 35.1H76.2C77.3 35.1 78.4 34.4 79.1 33.7C80.5 32.3 80.7 29.5 80.1 27.8Z" fill="black"/>
<path d="M52 33.5001V29.3001C52 28.8001 52.3 28.4001 52.6 28.1001C53 27.7001 53.6 27.6001 54.2 27.6001V12.0001C54.2 11.6001 54.6 11.0001 54.7 10.8001C55 10.5001 55.4 10.3001 55.9 10.3001H60C60.4 10.3001 60.8 10.6001 61 10.9001L61.7 11.8001C61.9 11.8001 62 11.6001 62.1 11.4001C62.2 11.3001 62.4 10.9001 62.6 10.7001L64.6 5.20007H41.5V13.6001H51L43.7 34.7001H52.7C52.3 34.4001 52 34.0001 52 33.5001Z" fill="black"/>
<path fill-rule="evenodd" clip-rule="evenodd" d="M66.2 28.1001C66.2 29.7001 64.1 30.0001 63.5 28.7001C63 27.4001 64.2 26.4001 65.3 26.8001C65.8 27.0001 66.2 27.5001 66.2 28.1001ZM59.8 27.6001V23.2001H56.3V28.2001C56.3 29.9001 55.5 29.6001 54.1 29.6001V33.2001C55.8 33.2001 56.3 33.4001 57.7 32.7001C57.9 32.6001 58.1 32.4001 58.3 32.3001L58.8 31.8001C59.5 31.1001 59.8 30.1001 59.8 28.7001C59.8 29.8001 60.4 30.7001 61 31.5001C61.1 31.6001 61.2 31.7001 61.3 31.8001C63.7 33.9001 67.1 33.5001 68.8 31.1001C69 30.8001 69.1 30.7001 69.3 30.3001C70.4 28.0001 69.7 25.8001 68 24.2001C66.7 23.0001 64.6 22.7001 63 23.4001C62.5 23.6001 61.9 24.0001 61.5 24.3001C61.1 24.7001 60.8 25.1001 60.4 25.6001C60.1 26.1001 59.8 26.9001 59.8 27.6001Z" fill="white"/>
<path fill-rule="evenodd" clip-rule="evenodd" d="M56.2 22.4H59.7V17.4L61.5999 19.8C61.8999 20.2 61.7999 20.2 62.0999 19.8L63.9 17.5V22.3H67.4V12.3H64C64 12.4 62.1 15 61.9 15.1C61.8 15 59.7999 12.5 59.7999 12.3H56.2V22.4Z" fill="white"/>
<path fill-rule="evenodd" clip-rule="evenodd" d="M74 17.3C74 18.9 71.9 19.2 71.3 17.9C70.8 16.6 72 15.6 73.1 16C73.6 16.2 74 16.7 74 17.3ZM67.6 17.1C67.6 19.2 68.7 20.9 70.5 21.8C72.3 22.7 74.7 22.3 76.1 20.9C76.5 20.5 76.8 20.1 77.1 19.5C78.4 16.9 77.2 13.7 74.6 12.6C73.3 12.1 71.8 12.1 70.6 12.7C68.9 13.5 67.6 15.1 67.6 17.1Z" fill="white"/>
<path fill-rule="evenodd" clip-rule="evenodd" d="M69.6 25.7C69.6 26.6 69.6 27.3 70 28.1C70.6 29.6 71.6 29.5 72.8 29.5C73.3 29.5 74.5 29.3 74.5 29.9C74.5 30.2 74.2 30.3 73.9 30.3H70.3V33.2H75.7C78.2 33.2 78.6 29.7 77.7 27.9C77 26.6 76 26.7 74.9 26.7C74.4 26.7 73.3 26.9 73.3 26.3C73.3 26 73.6 25.9 73.9 25.9H77.5V23H72.1C70.7 23.1 69.6 24.4 69.6 25.7Z" fill="white"/>
</svg>
