<svg width="116" height="31" viewBox="0 0 116 31" fill="none" xmlns="http://www.w3.org/2000/svg">
<path d="M17.6382 20.9584C15.8989 20.9584 14.3045 20.9584 12.5652 20.9584C14.2683 14.1323 15.9714 7.34424 17.7107 0.518066C19.1964 0.670607 20.356 1.43331 21.7329 2.15787C20.8995 2.76803 20.1748 3.26379 19.4863 3.83581C19.1602 4.10276 18.7253 4.33157 18.5804 4.67479C18.4354 5.05614 18.4717 5.62816 18.6891 5.97137C18.7978 6.16205 19.4863 6.20019 19.7399 6.00951C20.7183 5.39935 21.6242 4.63665 22.5664 3.95022C22.7838 3.79768 23.0374 3.64514 23.3636 3.41633C23.3636 3.91208 23.3636 4.2553 23.3636 4.59851C23.3636 11.6154 23.3273 18.6703 23.3998 25.6872C23.3998 26.6024 23.1461 27.1745 22.4214 27.5939C21.443 28.166 20.4284 28.738 19.2689 29.3863C19.2689 27.0219 19.2689 24.9245 19.2689 22.8652C19.2689 20.4246 19.2689 17.9839 19.2689 15.5814C19.2689 15.3145 19.2689 15.0475 19.2689 14.8187C19.2326 14.2467 19.0515 13.7509 18.3992 13.7891C17.8557 13.8272 17.6382 14.2467 17.6382 14.7806C17.6382 16.0772 17.6382 17.3738 17.6382 18.6703C17.6382 19.3186 17.6382 20.0432 17.6382 20.9584Z" fill="black"/>
<path d="M4.48456 10.3188C4.12219 8.94592 3.79607 7.61119 3.43371 6.3146C3.25253 5.70444 3.39747 5.28496 3.83231 4.82733C7.05732 1.31891 10.9708 -0.20649 15.5366 0.0223205C15.6453 0.0223205 15.754 0.0985912 15.9714 0.174861C15.1017 3.56888 14.2683 6.9629 13.3986 10.3569C10.391 10.3188 7.49216 10.3188 4.48456 10.3188Z" fill="white"/>
<path d="M4.99182 12.3781C7.70953 12.3781 10.2098 12.3781 12.8913 12.3781C11.623 17.6026 10.3548 22.6745 9.12274 27.7465C9.01403 27.7465 8.94156 27.7846 8.83285 27.7846C7.56459 22.7126 6.29632 17.6026 4.99182 12.3781Z" fill="white"/>
<path d="M2.02046 7.57312C3.72356 14.323 5.39042 21.0729 7.12975 27.9372C-0.15371 23.7805 -1.85681 13.5222 2.02046 7.57312Z" fill="black"/>
<path d="M93.2268 10.662C93.2268 9.21288 93.2268 7.91629 93.2268 6.6197C93.2268 6.04767 93.2993 5.43751 93.9153 5.55191C94.169 5.59005 94.5676 6.20021 94.5676 6.58156C94.6038 11.0434 94.6038 15.5052 94.6038 19.967C94.6038 20.6915 94.3139 21.1873 93.5892 21.3398C92.2122 21.683 90.9077 22.0644 89.4945 21.6068C88.0451 21.1491 87.1029 20.1195 86.9217 18.6322C86.7406 16.8399 86.6681 14.9713 86.958 13.2171C87.3928 10.4713 89.4945 9.70863 92.0673 10.2425C92.3934 10.3188 92.7195 10.4713 93.2268 10.662ZM93.2268 20.0051C93.2268 17.5645 93.2631 15.1619 93.1906 12.7976C93.1906 12.4544 92.8645 11.9586 92.5746 11.8442C91.8498 11.5772 91.0889 11.3866 90.3279 11.3866C89.2046 11.3866 88.2987 12.3018 88.2625 13.5221C88.19 15.0857 88.2262 16.6492 88.2625 18.2127C88.2987 19.2043 88.7698 19.967 89.7119 20.2339C90.8715 20.6153 92.031 20.4627 93.2268 20.0051Z" fill="black"/>
<path d="M25.0667 24.9626C25.0667 18.289 25.0667 11.806 25.0667 5.28491C29.3425 9.63231 30.2484 18.8228 25.0667 24.9626Z" fill="black"/>
<path d="M12.0216 23.094C13.9784 23.094 15.754 23.094 17.5658 23.094C17.5658 25.344 17.5658 27.4795 17.5658 29.6532C15.2467 30.3778 12.9275 30.2252 10.4272 29.5388C10.9708 27.327 11.4781 25.1914 12.0216 23.094Z" fill="black"/>
<path d="M38.329 14.8187C38.4015 14.7043 38.474 14.6662 38.474 14.628C38.8726 11.234 36.6984 10.9671 34.633 11.6535C34.2706 11.7679 33.9807 12.073 33.6183 12.073C33.3284 12.1111 32.9661 11.8823 32.6762 11.806C32.7849 11.5009 32.7849 11.0815 32.9661 10.9289C34.1981 9.93741 37.4231 9.47979 38.945 11.0815C39.5973 11.7679 39.851 12.645 39.851 13.5602C39.8872 15.6577 39.851 17.717 39.851 19.8144C39.851 20.6534 39.5248 21.1872 38.6914 21.3779C36.9158 21.8355 35.1403 22.2169 33.4372 21.1491C32.2776 20.4245 31.7341 19.0135 32.024 17.5644C32.2776 16.2297 33.2197 15.2382 34.5605 15.0856C35.865 14.9331 37.097 14.9331 38.329 14.8187ZM38.4015 16.3441C37.3507 16.3441 36.2636 16.306 35.2127 16.3441C34.1981 16.4204 33.5821 17.1068 33.5096 18.0602C33.4009 19.2042 33.7633 20.0051 34.633 20.2339C35.9375 20.6152 37.2057 20.5008 38.5102 19.9669C38.5102 18.861 38.5102 17.8314 38.5102 16.8017C38.5102 16.6873 38.4377 16.5729 38.4015 16.3441Z" fill="black"/>
<path d="M99.713 15.8484C99.713 15.0094 99.5681 14.1705 99.7493 13.3696C100.257 10.8146 101.851 9.93748 103.953 10.0519C106.525 10.1663 107.54 11.6917 107.794 13.9417C107.939 15.2764 107.902 16.6492 107.794 17.984C107.613 20.3102 105.837 21.8737 103.59 21.7975C101.344 21.7212 99.7493 20.0433 99.6768 17.6408C99.6406 17.0306 99.6768 16.4204 99.6768 15.8103C99.6768 15.8484 99.6768 15.8484 99.713 15.8484ZM106.38 15.9628C106.38 15.2383 106.417 14.4756 106.38 13.751C106.272 12.34 105.366 11.4629 103.953 11.3866C102.358 11.3103 101.235 12.073 101.126 13.5603C101.018 15.162 101.018 16.7637 101.126 18.3272C101.235 19.7763 102.286 20.5009 103.844 20.4628C105.257 20.4246 106.272 19.5475 106.38 18.1746C106.453 17.4119 106.38 16.6874 106.38 15.9628Z" fill="black"/>
<path d="M48.9825 16.6492C50.1783 16.6492 51.1929 16.6492 52.2075 16.6492C52.3887 16.6492 52.6061 16.6111 52.896 16.6111C52.896 15.6577 52.896 14.7425 52.896 13.8654C52.896 13.2933 52.9685 12.7594 53.657 12.7976C54.2367 12.8357 54.3092 13.3315 54.3092 13.8272C54.3092 14.7425 54.3092 15.6196 54.3092 16.6874C54.9252 16.6874 55.4325 16.6111 55.9398 16.7255C56.1573 16.7636 56.5196 17.145 56.5196 17.3357C56.5196 17.5645 56.1935 17.9077 55.9398 17.9458C55.4688 18.0602 54.9615 17.9839 54.3092 17.9839C54.3092 18.9373 54.3092 19.8144 54.3092 20.6915C54.3092 21.2636 54.2367 21.8356 53.5845 21.7975C52.9322 21.7975 52.8598 21.2254 52.896 20.6534C52.896 19.8144 52.896 18.9373 52.896 17.9458C51.4828 17.9458 50.1783 17.9458 48.8738 17.9458C47.3881 17.9458 47.1707 17.6407 47.6418 16.1916C48.7288 12.9501 49.8159 9.70864 50.9392 6.46717C50.9755 6.39089 50.9755 6.27649 51.048 6.23836C51.3378 5.97141 51.664 5.51379 51.9176 5.55192C52.4974 5.66633 52.4249 6.27649 52.28 6.73411C52.0263 7.64935 51.664 8.48832 51.3378 9.40356C50.6131 11.4629 49.9246 13.5221 49.1999 15.5814C49.1274 15.8484 49.0912 16.1535 48.9825 16.6492Z" fill="black"/>
<path d="M83.8054 20.1576C83.8054 17.1831 83.8054 14.4755 83.8054 11.7297C83.8054 11.4247 83.7329 11.0815 83.8416 10.8145C83.9866 10.5094 84.2765 10.2806 84.5301 10.0137C84.7838 10.2806 85.0374 10.5094 85.2549 10.7764C85.3273 10.8908 85.2911 11.1196 85.2911 11.2721C85.2911 14.0941 85.2911 16.9161 85.2911 19.7381C85.2911 20.6152 85.0374 21.1491 84.1678 21.3016C83.2256 21.4542 82.3197 21.7211 81.3776 21.7593C79.0585 21.7974 77.5366 20.3101 77.4641 17.9076C77.3916 15.6195 77.4641 13.2933 77.4279 11.0052C77.4279 10.4713 77.609 10.0137 78.1526 10.0137C78.6961 10.0137 78.8411 10.4713 78.8411 11.0433C78.8411 13.217 78.8773 15.3907 78.8048 17.5644C78.7686 19.3568 79.747 20.5389 81.6312 20.4245C82.356 20.3864 83.0445 20.272 83.8054 20.1576Z" fill="black"/>
<path d="M113.374 10.0519C113.881 10.1663 114.606 10.3188 115.331 10.5476C115.766 10.7002 116.092 11.0815 115.802 11.5391C115.657 11.768 115.186 11.8442 114.86 11.8061C114.026 11.7298 113.193 11.4629 112.359 11.4247C111.598 11.3866 111.055 11.8824 110.838 12.6832C110.62 13.5222 111.019 14.1323 111.671 14.5137C112.432 14.9332 113.265 15.2001 114.026 15.5815C115.077 16.1154 115.874 16.8781 115.983 18.1746C116.128 19.7 115.331 21.0348 113.99 21.5305C112.649 22.0644 111.309 21.7975 110.04 21.2254C109.75 21.111 109.424 20.539 109.497 20.2721C109.642 19.6619 110.113 19.8145 110.584 19.967C111.236 20.1958 111.925 20.3865 112.613 20.4246C113.664 20.5009 114.425 19.8907 114.606 19.0517C114.787 18.0984 114.425 17.4119 113.447 16.8781C112.794 16.5348 112.07 16.306 111.417 15.9628C109.932 15.2382 109.243 14.0942 109.424 12.7595C109.642 11.2341 110.765 10.2426 112.468 10.0519C112.686 10.09 112.903 10.09 113.374 10.0519Z" fill="black"/>
<path d="M66.086 21.95C65.325 21.7593 64.5641 21.6068 63.8393 21.3017C63.5132 21.1492 63.0421 20.5771 63.1146 20.3483C63.2596 19.6619 63.8031 19.8526 64.3104 20.0432C64.9626 20.2721 65.6511 20.4246 66.3396 20.4627C67.318 20.5009 68.079 19.9288 68.2239 19.1661C68.4051 18.2128 68.0427 17.4501 67.1006 16.9543C66.3396 16.5729 65.5062 16.2679 64.7452 15.8484C63.477 15.2001 62.8247 14.0179 63.0421 12.7213C63.2233 11.3866 64.2379 10.2425 65.6511 10.2044C66.7382 10.1663 67.8253 10.3951 68.9124 10.5858C69.3472 10.662 69.6371 11.0052 69.4559 11.5391C69.2385 12.073 68.8761 11.9586 68.4413 11.8442C67.6441 11.6154 66.8469 11.501 66.0135 11.4629C65.2525 11.4247 64.6728 11.8823 64.4916 12.6832C64.3104 13.5221 64.6365 14.1323 65.325 14.5137C66.0497 14.895 66.8107 15.2001 67.5716 15.5814C69.2747 16.4204 69.9995 17.717 69.6733 19.2043C69.2747 20.7678 67.8615 21.8356 66.086 21.95Z" fill="black"/>
<path d="M72.6447 10.2425C73.5143 10.2425 74.1666 10.1663 74.8188 10.2807C75.1812 10.3569 75.761 10.662 75.7972 10.9671C75.8697 11.5773 75.3262 11.6535 74.8551 11.6535C74.1666 11.6535 73.4781 11.6535 72.6447 11.6535C72.6447 14.1704 72.6084 16.573 72.6809 18.9755C72.7172 19.8526 73.3332 20.3102 74.1666 20.3483C74.4203 20.3483 74.6739 20.3102 74.8913 20.3102C75.3262 20.2721 75.8335 20.3865 75.7972 20.9203C75.761 21.2254 75.3262 21.6068 75 21.7212C73.152 22.2932 71.3039 20.9585 71.2677 18.8992C71.1952 14.7806 71.2315 10.662 71.2315 6.54344C71.2315 6.00955 71.4126 5.51379 71.92 5.51379C72.5722 5.51379 72.6084 6.08582 72.6084 6.61971C72.6447 7.8019 72.6447 8.94595 72.6447 10.2425Z" fill="black"/>
<path d="M58.585 7.26803C57.6429 7.84006 56.9544 8.33582 56.2297 8.67903C55.9398 8.83157 55.3238 8.86971 55.1788 8.67903C54.8165 8.22141 55.1426 7.76379 55.5774 7.53498C56.5921 6.88669 57.6429 6.27652 58.6937 5.7045C59.3822 5.32315 59.8895 5.62823 59.9982 6.42907C60.0345 6.69601 59.9982 6.96296 59.9982 7.19177C59.9982 11.5392 59.9982 15.8484 59.9982 20.1958C59.9982 20.2721 59.9982 20.3865 59.9982 20.4628C60.0345 21.0729 59.9258 21.7212 59.2735 21.7594C58.5126 21.7975 58.585 21.0729 58.585 20.539C58.585 16.6493 58.585 12.7213 58.585 8.83157C58.585 8.37395 58.585 7.95447 58.585 7.26803Z" fill="black"/>
<path d="M41.4815 13.6365C41.4815 11.4246 41.4815 9.21281 41.4815 7.00098C41.4815 6.6959 41.4091 6.35268 41.5178 6.08574C41.5903 5.85693 41.8439 5.51371 42.0613 5.51371C42.2787 5.47558 42.6411 5.70438 42.7136 5.9332C42.8585 6.20014 42.8585 6.58149 42.8585 6.92471C42.8585 11.3865 42.8585 15.8483 42.8585 20.3101C42.8585 20.5771 42.931 20.8821 42.8223 21.0728C42.6411 21.3398 42.315 21.5304 42.0613 21.7592C41.8801 21.4923 41.5903 21.3016 41.5178 20.9965C41.4091 20.5389 41.4815 20.0432 41.4815 19.5855C41.4815 17.6407 41.4815 15.6195 41.4815 13.6365Z" fill="black"/>
<path d="M44.453 13.5984C44.453 11.3865 44.453 9.17471 44.453 6.96288C44.453 6.6578 44.4167 6.35272 44.4892 6.04764C44.5617 5.81883 44.7791 5.55188 44.9603 5.55188C45.2139 5.55188 45.5763 5.66629 45.6487 5.8951C45.7937 6.23831 45.8299 6.61966 45.8299 7.00101C45.8299 11.4247 45.8299 15.8483 45.8299 20.272C45.8299 20.9203 45.9024 21.7974 45.069 21.7593C44.1631 21.7593 44.4167 20.8059 44.4167 20.2339C44.4167 18.022 44.453 15.8102 44.453 13.5984Z" fill="black"/>
<path d="M96.4518 15.9246C96.4518 14.3992 96.4518 12.8738 96.4518 11.3865C96.4518 11.0814 96.4518 10.7382 96.5605 10.5094C96.633 10.3187 96.9229 10.1281 97.1403 10.1281C97.3214 10.1281 97.6113 10.3569 97.6838 10.5475C97.7925 10.8526 97.8288 11.234 97.8288 11.5772C97.8288 14.5136 97.8288 17.4881 97.8288 20.4245C97.8288 20.6152 97.9012 20.8059 97.8288 20.9203C97.6476 21.2635 97.3577 21.5304 97.1403 21.8355C96.9229 21.5304 96.5242 21.2254 96.5242 20.8821C96.4155 19.2423 96.4518 17.5644 96.4518 15.9246Z" fill="black"/>
<path d="M97.1403 7.45864C96.633 7.38237 96.2344 7.11543 96.2344 6.50527C96.1982 5.89511 96.5968 5.47562 97.1041 5.51376C97.4302 5.55189 97.9013 6.00951 97.9737 6.35273C98.0824 6.92475 97.7926 7.34424 97.1403 7.45864Z" fill="black"/>
</svg>
