<svg width="130" height="40" viewBox="0 0 130 40" fill="none" xmlns="http://www.w3.org/2000/svg">
<g clip-path="url(#clip0_8661_3396)">
<mask id="mask0_8661_3396" style="mask-type:luminance" maskUnits="userSpaceOnUse" x="0" y="0" width="130" height="40">
<path d="M130 0H0V40H130V0Z" fill="white"/>
</mask>
<g mask="url(#mask0_8661_3396)">
<path d="M0 40H130V-0.000183105H0V40Z" fill="#0F0F0F"/>
<path d="M114.474 26.2256C111.701 26.2256 110.186 24.5885 110.186 21.8629V16.3006H107.891V13.7389H110.235L111.065 10.2638H113.203V13.7389H118.504L117.857 16.3006H113.203V21.326C113.203 22.8758 113.667 23.6131 115.072 23.6131H117.857V26.2256H114.474ZM102.268 19.9757C102.268 17.7509 100.595 16.126 98.5429 16.126C96.54 16.126 94.9521 17.7382 94.9521 19.9757C94.9521 22.2262 96.54 23.8384 98.5429 23.8384C100.595 23.8384 102.268 22.213 102.268 19.9757ZM102.707 13.7389H105.273V26.2256H102.707L102.39 24.4134C101.364 25.7628 99.826 26.5382 98.0171 26.5382C94.6716 26.5382 91.9478 23.9009 91.9478 19.9757C91.9478 16.1134 94.659 13.4136 98.0423 13.4136C99.8499 13.4136 101.377 14.1885 102.39 15.5384L102.707 13.7389ZM87.743 16.3006C85.9229 16.3006 84.922 17.4383 84.922 19.2637V23.6882L89.2944 23.8384V26.2256H79.6213V23.8384L81.9173 23.6882V16.2884L79.6213 16.126V13.7389H84.3233L84.556 15.5008C85.0927 14.288 86.3271 13.5141 87.951 13.5141H90.0756V16.3006H87.743ZM73.3397 19.9757C73.3397 17.7509 71.6663 16.126 69.6142 16.126C67.6113 16.126 66.023 17.7382 66.023 19.9757C66.023 22.2262 67.6113 23.8384 69.6142 23.8384C71.6663 23.8384 73.3397 22.213 73.3397 19.9757ZM73.7795 13.7389H76.3435V26.2256H73.7795L73.4613 24.4134C72.4357 25.7628 70.8969 26.5382 69.0893 26.5382C65.7429 26.5382 63.0196 23.9009 63.0196 19.9757C63.0196 16.1134 65.7303 13.4136 69.1136 13.4136C70.9212 13.4136 72.4483 14.1885 73.4613 15.5384L73.7795 13.7389ZM50.5693 19.9757C50.5693 22.213 52.2553 23.8384 54.2947 23.8384C56.2973 23.8384 57.8851 22.2262 57.8851 19.9757C57.8851 17.7382 56.2973 16.126 54.2947 16.126C52.2553 16.126 50.5693 17.7509 50.5693 19.9757ZM50.5693 24.5753V29.0877L55.0155 29.2506V31.6508H45.3424V29.2506L47.565 29.1004V13.7389H50.1294L50.4477 15.551C51.4733 14.2012 53.0121 13.4136 54.8318 13.4136C58.2151 13.4136 60.8898 16.1134 60.8898 19.9757C60.8898 23.9009 58.13 26.5382 54.7954 26.5382C53.0612 26.5382 51.5827 25.8257 50.5693 24.5753ZM34.309 19.9757C34.309 22.213 35.9825 23.8384 38.022 23.8384C40.0248 23.8384 41.6249 22.2262 41.6249 19.9757C41.6249 17.7382 40.0248 16.126 38.022 16.126C35.9825 16.126 34.309 17.7509 34.309 19.9757ZM34.309 24.5885V29.0877L38.7544 29.2506V31.6508H29.0817V29.2506L31.2922 29.1004V16.2884L28.9959 16.126V13.7389H33.8573L34.1865 15.551C35.2125 14.1885 36.7516 13.4136 38.5595 13.4136C41.9427 13.4136 44.6294 16.1134 44.6294 19.9757C44.6294 23.9009 41.8689 26.5382 38.5228 26.5382C36.7883 26.5382 35.3226 25.8257 34.309 24.5885ZM24.0456 26.2256L23.276 22.8256H16.1436L15.3745 26.2256H12.0522L14.9347 14.5514H18.0001L16.7545 20.0883H22.6651L20.9435 12.4641H12.0522L12.7241 9.72638H23.3985L27.4288 26.2256H24.0456Z" fill="white"/>
</g>
</g>
<defs>
<clipPath id="clip0_8661_3396">
<rect width="130" height="40" fill="white"/>
</clipPath>
</defs>
</svg>
