<svg width="100" height="31" viewBox="0 0 100 31" fill="none" xmlns="http://www.w3.org/2000/svg">
<path d="M4.66578 3.64514L0 31H27.366L32.0318 3.64514H4.66578Z" fill="black"/>
<path d="M22.7002 27.1875C21.9391 25.2479 21.1781 23.3083 20.417 21.3687C20.2846 21.0343 20.1522 20.9674 19.7882 20.9674C16.9094 20.9674 13.9974 20.9674 11.1185 20.9674C10.7876 20.9674 10.6221 21.0678 10.4236 21.3353C9.06687 23.208 7.67706 25.0807 6.28726 26.9534C6.08871 27.2209 5.89017 27.3547 5.55926 27.3547C4.56654 27.3213 3.54073 27.3547 2.41565 27.3547C7.64397 20.3321 12.8061 13.3763 18.0013 6.35364C18.4315 7.42376 18.7955 8.39355 19.1926 9.36335C20.6817 13.1756 22.2039 16.9879 23.6929 20.8002C23.726 20.8671 23.7591 20.9006 23.7922 20.9674C23.4613 23.0074 23.1304 25.1141 22.7002 27.1875ZM16.9424 12.5068C15.6188 14.3126 14.3614 16.0181 13.0378 17.7905C15.0563 17.7905 17.0086 17.7905 18.9941 17.7905C18.3323 16.0516 17.6374 14.3126 16.9424 12.5068Z" fill="white"/>
<path d="M55.0629 0H30.2449H27.366L22.5679 27.3215H22.7002V27.3883H50.1986L55.0629 0Z" fill="black"/>
<path d="M43.6466 17.3226C42.9186 17.3226 42.1906 17.3226 41.4626 17.3226C40.503 17.3226 39.5434 17.3226 38.5837 17.3226C38.2859 17.3226 38.1536 17.2557 38.2197 16.9213C38.3852 16.1187 38.5176 15.3161 38.6499 14.547C38.683 14.3129 38.7492 14.2126 39.0139 14.2126C41.7935 14.2126 44.6062 14.2126 47.3859 14.2126C47.7168 14.2126 47.7499 14.3129 47.6837 14.6138C47.5182 15.4499 47.3859 16.2525 47.2535 17.0885C47.2204 17.2891 47.1542 17.4564 47.055 17.6236C44.9371 21.068 41.959 23.2417 37.9219 23.7099C33.4547 24.2449 29.8147 21.7703 28.822 17.7239C28.1602 15.0486 28.6565 12.5071 30.0133 10.1662C31.9325 6.85549 34.7452 4.71525 38.5176 4.01299C41.2641 3.51137 43.8121 4.01299 45.9961 5.95258C47.1873 7.0227 47.9153 8.39379 48.3455 9.93208C48.4448 10.2665 48.3455 10.3334 48.0146 10.3334C47.1211 10.2999 46.2277 10.3334 45.3342 10.3334C45.1688 10.3334 45.0033 10.3334 44.9041 10.1327C43.7128 7.45743 40.7015 6.35387 37.8558 7.25679C34.4143 8.3269 32.2303 10.6678 31.734 14.3129C31.2376 17.958 33.8518 20.767 37.4918 20.6667C40.0728 20.5664 42.0583 19.3625 43.6466 17.3226Z" fill="white"/>
<path d="M63.2031 16.119L62.9715 14.5473H59.5631L58.769 16.119H56.9159L61.4493 7.45776H63.534L65.0562 16.119H63.2031ZM60.3904 12.9756H62.7729L62.2435 9.36391L60.3904 12.9756Z" fill="black"/>
<path d="M65.5857 14.7828L67.0086 14.0805C67.174 14.6156 67.5711 14.8831 68.1999 14.8831C68.7293 14.8831 69.0271 14.7159 69.0933 14.4149C69.1264 14.0805 68.6631 13.8799 68.0675 13.7127C67.2071 13.4786 66.0821 13.0439 66.3137 11.6393C66.413 11.0708 66.7108 10.6026 67.174 10.3017C67.6373 9.96726 68.1999 9.8335 68.7955 9.8335C69.8544 9.8335 70.6817 10.3017 71.0787 11.1377L69.6558 11.84C69.5235 11.4387 69.1926 11.2046 68.7293 11.2046C68.266 11.2046 67.9682 11.3718 67.902 11.7396C67.8359 12.1075 68.2991 12.3081 68.8948 12.4754C69.7882 12.676 70.9133 13.0773 70.6486 14.5153C70.45 15.7191 69.4242 16.3211 68.0675 16.3211C66.81 16.2876 65.9828 15.786 65.5857 14.7828Z" fill="black"/>
<path d="M71.476 16.1205L72.5679 9.93383H74.1563L73.0643 16.1205H71.476ZM73.7923 7.2251C74.3217 7.2251 74.6857 7.69327 74.6196 8.22833C74.5203 8.76339 74.0239 9.19813 73.4945 9.19813C72.965 9.19813 72.601 8.76339 72.7003 8.22833C72.7665 7.65983 73.2628 7.2251 73.7923 7.2251Z" fill="black"/>
<path d="M80.2449 9.93369H81.8332L80.7413 16.1203H79.1529L79.2522 15.5518C78.7227 16.0534 78.0278 16.2875 77.2336 16.2875C76.3071 16.2875 75.6453 15.9531 75.182 15.2508C74.7187 14.5486 74.5864 13.7794 74.7518 12.8765C74.9173 12.007 75.3144 11.2713 75.9431 10.6694C76.5718 10.0674 77.3329 9.76648 78.2264 9.76648C79.0867 9.76648 79.7154 10.1009 80.1125 10.7697L80.2449 9.93369ZM79.6824 13.144L79.7154 12.9434C79.8478 11.9402 79.2191 11.3048 78.2925 11.3048C77.3329 11.3048 76.5056 11.9736 76.3402 13.0437C76.1416 14.0804 76.7373 14.8161 77.73 14.8161C78.6565 14.7827 79.4838 14.1138 79.6824 13.144Z" fill="black"/>
<path d="M64.196 22.271L64.0967 22.9398C63.8982 24.2106 63.3356 25.2138 62.4422 25.9829C61.5487 26.7521 60.4568 27.1199 59.1993 27.1199C57.8757 27.1199 56.8499 26.6852 56.1219 25.7823C55.3939 24.8794 55.1292 23.7758 55.3608 22.5051C55.5593 21.2343 56.155 20.1976 57.1146 19.3616C58.0742 18.5256 59.1993 18.1243 60.4568 18.1243C62.1444 18.1243 63.4018 18.8934 64.0305 20.2311L62.4753 21.0337C62.0451 20.1976 61.3171 19.7629 60.2913 19.7629C59.464 19.7629 58.736 20.0304 58.1404 20.5655C57.5448 21.1005 57.1808 21.7694 57.0484 22.6054C56.9161 23.4414 57.0484 24.1437 57.4455 24.6453C57.8757 25.1804 58.5044 25.4479 59.3648 25.4479C60.7877 25.4479 61.7142 24.9128 62.1775 23.8093H59.6626L59.9273 22.3044H64.196V22.271Z" fill="black"/>
<path d="M70.2515 20.7335H71.8398L70.7478 26.9201H69.1595L69.2588 26.3516C68.7293 26.8532 68.0344 27.0873 67.2402 27.0873C66.3137 27.0873 65.6519 26.7529 65.1886 26.0506C64.7253 25.3484 64.593 24.5792 64.7584 23.6763C64.9239 22.8068 65.321 22.0711 65.9497 21.4692C66.5784 20.8673 67.3395 20.5663 68.2329 20.5663C69.0933 20.5663 69.722 20.9007 70.1191 21.5695L70.2515 20.7335ZM69.6889 23.9438L69.722 23.7432C69.8544 22.74 69.2257 22.1046 68.2991 22.1046C67.3395 22.1046 66.5122 22.7734 66.3468 23.8435C66.1482 24.8802 66.7439 25.6159 67.7366 25.6159C68.6631 25.5825 69.4904 24.9136 69.6889 23.9438Z" fill="black"/>
<path d="M81.6016 21.2685C81.9656 21.7367 82.098 22.3721 81.9656 23.1078L81.3038 26.9201H79.7154L80.3442 23.2081C80.4765 22.4724 80.1787 22.0377 79.5169 22.0377C78.822 22.0377 78.3918 22.439 78.1602 23.2081L77.5315 26.9201H75.9431L76.5718 23.2081C76.7042 22.4724 76.4064 22.0377 75.7776 22.0377C75.0497 22.0377 74.5202 22.5059 74.3878 23.4088L73.7922 26.9201H72.2039L73.2959 20.7335H74.8842L74.7849 21.3689C75.2482 20.8338 75.8438 20.5663 76.5718 20.5663C77.3329 20.5663 77.8293 20.8673 78.1271 21.5026C78.6234 20.8673 79.2853 20.5663 80.0794 20.5663C80.7082 20.5663 81.2376 20.8004 81.6016 21.2685Z" fill="black"/>
<path d="M82.5942 26.9201L83.6862 20.7335H85.2746L84.1826 26.9201H82.5942ZM84.9437 18.0248C85.4731 18.0248 85.8371 18.493 85.7709 19.028C85.6717 19.5631 85.1753 19.9978 84.6459 19.9978C84.1164 19.9978 83.7524 19.5631 83.8517 19.028C83.8848 18.4595 84.3811 18.0248 84.9437 18.0248Z" fill="black"/>
<path d="M91.6611 21.2685C92.0251 21.7367 92.1574 22.3721 92.0251 23.1413L91.3632 26.9536H89.7749L90.4036 23.3419C90.536 22.5059 90.1389 22.0711 89.4109 22.0711C88.6498 22.0711 88.0542 22.5059 87.8225 23.4088L87.1938 26.9536H85.6055L86.6975 20.7335H88.2858L88.1534 21.4023C88.6167 20.8338 89.2785 20.5663 90.0396 20.5663C90.7676 20.5663 91.264 20.8004 91.6611 21.2685Z" fill="black"/>
<path d="M98.4447 20.7337H99.9999L98.9741 26.6194C98.6432 28.6259 97.2534 29.5622 95.4334 29.5622C94.0767 29.5622 93.084 29.0271 92.6207 28.0574L94.0436 27.3216C94.3084 27.8901 94.8047 28.1577 95.5658 28.1577C96.5916 28.1577 97.2865 27.6226 97.452 26.6194L97.5512 26.0843C97.0218 26.6194 96.3269 26.8869 95.5327 26.8869C94.6062 26.8869 93.8782 26.5525 93.448 25.9171C92.9847 25.2483 92.8193 24.4791 92.9847 23.5762C93.1171 22.7402 93.5142 22.0045 94.1098 21.436C94.7385 20.8341 95.4665 20.5331 96.36 20.5331C97.2865 20.5331 97.9483 20.9009 98.3454 21.6032L98.4447 20.7337ZM97.9152 23.8103L97.9483 23.6766C98.0807 22.7068 97.452 22.0714 96.4923 22.0714C96.0291 22.0714 95.5658 22.2051 95.2018 22.5396C94.8378 22.8405 94.6062 23.2418 94.5069 23.7434C94.4076 24.2116 94.5069 24.6463 94.8047 24.9473C95.0694 25.2483 95.4665 25.4155 95.9629 25.4155C96.8894 25.4155 97.7167 24.7467 97.9152 23.8103Z" fill="black"/>
</svg>
