<svg width="180" height="80" viewBox="0 0 180 80" fill="none" xmlns="http://www.w3.org/2000/svg">
<rect width="180" height="80" fill="white"/>
<path fill-rule="evenodd" clip-rule="evenodd" d="M81.9967 37.3703C82.3905 37.3751 82.78 37.2884 83.1348 37.1171C83.4712 36.9536 83.7697 36.7211 84.0109 36.4345C84.2589 36.1361 84.4475 35.7927 84.5662 35.423C84.6975 35.0234 84.7633 34.6051 84.7609 34.1844C84.7781 33.6379 84.5952 33.104 84.2468 32.6836C84.0627 32.4773 83.8344 32.3156 83.5792 32.2105C83.3239 32.1054 83.0482 32.0596 82.7728 32.0767C82.3877 32.0748 82.0074 32.1615 81.6608 32.33C81.3163 32.496 81.0092 32.7312 80.7586 33.0208C80.5005 33.3224 80.2981 33.6677 80.1608 34.0406C80.0139 34.4311 79.9395 34.8453 79.9414 35.2627C79.9193 35.8225 80.1195 36.3682 80.4981 36.7799C80.6922 36.979 80.9261 37.1346 81.1844 37.2363C81.4427 37.3381 81.7196 37.3837 81.9967 37.3703Z" fill="black"/>
<path fill-rule="evenodd" clip-rule="evenodd" d="M92.4611 31.9419C92.1368 31.9371 91.815 32.0004 91.5164 32.1277C91.2467 32.2451 90.9991 32.408 90.7842 32.6094C90.5815 32.7997 90.4082 33.0193 90.2701 33.261C90.146 33.4712 90.0549 33.6993 89.9999 33.9374H94.1956C94.2066 33.8583 94.2148 33.7853 94.2217 33.7172C94.2271 33.6498 94.2299 33.5823 94.2299 33.5142C94.2336 33.3062 94.1944 33.0996 94.1146 32.9075C94.0349 32.7154 93.9163 32.542 93.7664 32.3982C93.5899 32.2389 93.3836 32.1166 93.1595 32.0383C92.9354 31.9599 92.698 31.9272 92.4611 31.9419Z" fill="black"/>
<path fill-rule="evenodd" clip-rule="evenodd" d="M108.689 24.7098C106.811 20.2813 98.1554 19.3878 86.3109 24.3978C84.6236 25.1068 82.9766 25.9086 81.3773 26.7995L80.413 31.9757H80.4473C80.7711 31.501 81.2065 31.1138 81.715 30.8483C82.2234 30.5829 82.7892 30.4473 83.3623 30.4536C83.8431 30.4471 84.3207 30.5333 84.7691 30.7075C85.1755 30.8667 85.543 31.1117 85.8468 31.4259C86.1496 31.7443 86.3847 32.1212 86.5378 32.5337C86.7053 32.9881 86.788 33.4695 86.7819 33.9539C86.7869 34.622 86.676 35.2858 86.4542 35.9157C86.2488 36.5008 85.9373 37.0427 85.5356 37.5141C85.1457 37.9679 84.6668 38.3361 84.1288 38.5958C83.5686 38.8642 82.9546 39.0002 82.334 38.9935C81.7421 38.9969 81.1582 38.8562 80.6324 38.5834C80.1204 38.326 79.7021 37.9134 79.4368 37.404H79.4025L79.1667 38.7905H77.2964L79.1635 28.1369C72.5336 32.4499 69.9456 37.249 71.3864 40.6466C73.2643 45.0749 83.1397 45.1317 93.439 40.7317C95.0581 40.0412 96.6363 39.2577 98.1658 38.3852C98.0035 38.2119 97.8772 38.0079 97.7942 37.7851C97.7113 37.5623 97.6732 37.3252 97.6824 37.0875C97.6824 36.93 97.692 36.7586 97.7084 36.5728C97.7235 36.3999 97.7487 36.2281 97.7839 36.0582L98.4749 32.297H97.0421L97.3286 30.6738H98.7272L99.1317 28.306H101.087L100.682 30.6738H102.502L102.215 32.297H100.429L99.7212 36.0932C99.6892 36.2481 99.6723 36.4057 99.6705 36.5639C99.6578 36.6789 99.6753 36.7952 99.7212 36.9013C99.7672 37.0074 99.8399 37.0996 99.9324 37.1687C99.9728 37.1939 100.015 37.2158 100.059 37.2342C106.466 33.0992 110.126 28.0964 108.689 24.7098ZM95.9644 34.4528C95.9341 34.7575 95.8837 35.0597 95.8135 35.3577H89.8148C89.8034 35.4189 89.7979 35.4811 89.7984 35.5434C89.7954 35.8006 89.8502 36.0551 89.9588 36.288C90.0644 36.512 90.2163 36.7109 90.4044 36.8715C90.6047 37.04 90.8331 37.1716 91.079 37.2603C91.3489 37.3581 91.634 37.4068 91.9209 37.4041C92.3787 37.4175 92.8328 37.3188 93.244 37.1164C93.6168 36.919 93.9509 36.6553 94.2299 36.3382L95.3583 37.404C94.9011 37.9225 94.3379 38.3359 93.7071 38.616C93.0763 38.8961 92.3926 39.0364 91.7029 39.0272C91.1872 39.033 90.6743 38.9501 90.1864 38.7823C89.7451 38.6299 89.3383 38.3914 88.9894 38.0804C88.6469 37.7682 88.3769 37.3844 88.1983 36.9561C87.9991 36.4709 87.9016 35.9497 87.9117 35.4251C87.906 34.7576 88.026 34.095 88.2654 33.4722C88.4899 32.8866 88.8246 32.3497 89.2513 31.891C89.6733 31.4393 90.1834 31.0796 90.7499 30.8341C91.3487 30.5762 91.9946 30.4466 92.6462 30.4536C93.1006 30.4492 93.5529 30.5177 93.9858 30.6566C94.3804 30.783 94.7446 30.9904 95.0553 31.2655C95.3649 31.5452 95.6068 31.8921 95.7628 32.2798C95.9397 32.732 96.0255 33.215 96.0151 33.7007C96.0108 33.9521 95.9938 34.2031 95.9644 34.4528Z" fill="black"/>
<path d="M62.4955 49.6104L62.7073 48.3255H64.677L63.34 56.0521C63.2243 56.745 63.0357 57.4236 62.7775 58.0769C62.5501 58.6561 62.2161 59.1874 61.7927 59.6432C61.3644 60.0885 60.8414 60.4314 60.2625 60.6467C59.5571 60.8969 58.812 61.0161 58.0638 60.9983C57.6982 60.9971 57.3333 60.9648 56.9731 60.9016C56.5962 60.8369 56.2255 60.7398 55.8651 60.6115C55.5081 60.4852 55.1636 60.326 54.836 60.136C54.5277 59.9599 54.2462 59.7407 54 59.4849L55.3727 57.9888C55.7025 58.3773 56.1174 58.6844 56.5851 58.8862C57.0675 59.0976 57.5888 59.2054 58.1153 59.2028C58.5625 59.2151 59.0079 59.1402 59.4265 58.9822C59.7683 58.8457 60.0772 58.6379 60.3326 58.3727C60.5844 58.1043 60.7814 57.7892 60.9123 57.4452C61.0601 57.0631 61.1779 56.6701 61.2645 56.2698L61.4048 55.598H61.3704C61.0515 56.0126 60.6383 56.3451 60.1652 56.5677C59.6347 56.8178 59.0538 56.9425 58.4675 56.9323C57.9656 56.939 57.4671 56.8496 56.9989 56.6687C56.5762 56.5037 56.1929 56.2516 55.8738 55.9288C55.5565 55.6019 55.3108 55.2123 55.1523 54.785C54.9775 54.3121 54.8912 53.811 54.8975 53.3067C54.8933 52.6171 55.0091 51.9319 55.2397 51.282C55.4542 50.6732 55.7793 50.1094 56.1988 49.6189C56.6045 49.1473 57.1049 48.7664 57.6674 48.5009C58.2539 48.2275 58.8942 48.0892 59.5411 48.0962C60.1891 48.0664 60.833 48.2124 61.4048 48.5188C61.8495 48.7738 62.2102 49.1532 62.4426 49.6103L62.4955 49.6104ZM57.0074 53.0497C56.9897 53.6183 57.1806 54.1737 57.5442 54.611C57.7364 54.8258 57.9747 54.9942 58.2412 55.1036C58.5077 55.213 58.7955 55.2606 59.083 55.2428C59.485 55.2446 59.882 55.1544 60.2439 54.9792C60.6037 54.8066 60.9243 54.5618 61.1857 54.2601C61.7385 53.6153 62.0413 52.7933 62.0389 51.9438C62.0618 51.3614 61.8528 50.7936 61.4577 50.3653C61.2551 50.158 61.0109 49.9961 60.7412 49.8902C60.4716 49.7843 60.1825 49.7368 59.8932 49.7507C59.4821 49.7456 59.0754 49.8358 58.7051 50.0143C58.354 50.1847 58.0424 50.4267 57.7904 50.7248C57.5328 51.033 57.336 51.3874 57.2107 51.7691C57.0725 52.1818 57.0038 52.6145 57.0074 53.0497Z" fill="black"/>
<path d="M71.4491 51.4231C71.472 51.282 71.4863 51.1738 71.4935 51.0972C71.4992 51.0213 71.5021 50.9475 71.5021 50.8773C71.5177 50.7088 71.4894 50.5391 71.4199 50.3848C71.3504 50.2305 71.2421 50.0969 71.1056 49.9971C70.7492 49.7983 70.3431 49.7068 69.9361 49.7335C69.5004 49.7379 69.0689 49.8181 68.6607 49.9706C68.2444 50.1173 67.8508 50.3218 67.4912 50.5779L66.6996 49.1877C67.2028 48.8366 67.7577 48.5664 68.3443 48.387C68.956 48.1936 69.5938 48.0955 70.2352 48.0962C70.6344 48.0962 71.0324 48.1404 71.4219 48.228C71.7966 48.3084 72.1542 48.4544 72.4783 48.6591C72.7865 48.8566 73.0428 49.1253 73.2255 49.4427C73.4247 49.8126 73.522 50.2289 73.5075 50.6488C73.5075 50.7541 73.5003 50.883 73.4888 51.0356C73.4799 51.1715 73.4622 51.3066 73.4359 51.4402L72.8204 54.8731C72.7617 55.2019 72.7121 55.5421 72.6715 55.8937C72.6343 56.1857 72.6137 56.4796 72.61 56.774H70.7105C70.7123 56.4369 70.7473 56.1008 70.815 55.7706H70.7806C70.444 56.1643 70.0216 56.4754 69.5458 56.68C69.07 56.8845 68.5537 56.9769 68.0366 56.9502C67.7287 56.9486 67.422 56.9131 67.1219 56.8442C66.8149 56.778 66.5228 56.6556 66.2602 56.4832C65.9973 56.3082 65.7799 56.073 65.6261 55.7971C65.4515 55.4639 65.3666 55.0909 65.3799 54.7149C65.3516 54.1052 65.5493 53.5065 65.9353 53.0339C66.3262 52.59 66.8174 52.2459 67.3681 52.0305C67.9964 51.7795 68.6563 51.6166 69.3292 51.5463C70.0329 51.465 70.7407 51.4239 71.4491 51.4231ZM71.0097 52.9014C70.6103 52.9014 70.1966 52.9162 69.7686 52.9458C69.3698 52.9701 68.9748 53.0379 68.5906 53.1477C68.2696 53.2346 67.9702 53.3875 67.7117 53.5969C67.5985 53.6926 67.5087 53.813 67.4492 53.9488C67.3896 54.0846 67.3619 54.2322 67.3681 54.3804C67.3617 54.5547 67.4012 54.7276 67.4827 54.8818C67.5564 55.0144 67.6622 55.1265 67.7904 55.2076C67.9251 55.2922 68.074 55.3517 68.2299 55.3831C68.3973 55.419 68.5682 55.4367 68.7394 55.4361C69.043 55.4384 69.3443 55.3848 69.6284 55.2778C69.8928 55.1787 70.1372 55.0326 70.3498 54.8467C70.5541 54.6656 70.7263 54.4513 70.8594 54.2128C70.9958 53.9683 71.0938 53.7043 71.15 53.43L71.2559 52.9014H71.0097Z" fill="black"/>
<path d="M76.0839 49.2757C76.1354 48.9234 76.1741 48.6068 76.197 48.3253H78.1322C78.1208 48.4542 78.0965 48.6591 78.0621 48.9413C78.0263 49.2227 77.9977 49.4577 77.9734 49.6453H78.0092C78.2813 49.2311 78.6238 48.8677 79.0212 48.5717C79.4838 48.2397 80.0441 48.0723 80.6129 48.0961C81.2135 48.0669 81.8078 48.2302 82.3091 48.5624C82.7189 48.8476 83.0149 49.2684 83.1451 49.7506C83.4822 49.2592 83.9199 48.8452 84.4291 48.5359C84.947 48.236 85.5371 48.0839 86.1353 48.0961C86.5672 48.0855 86.9971 48.1572 87.4021 48.3074C87.7303 48.4333 88.0293 48.6249 88.281 48.8704C88.5161 49.1056 88.6939 49.3919 88.8006 49.7069C88.9116 50.0327 88.9677 50.3747 88.9667 50.7189C88.9694 50.9846 88.946 51.25 88.8966 51.5111L87.9647 56.7738H85.9063L86.7165 52.127C86.7394 51.9859 86.7594 51.8455 86.778 51.7044C86.7952 51.5642 86.8038 51.4231 86.8038 51.2818C86.8045 51.0976 86.7809 50.9141 86.7337 50.7361C86.6908 50.5689 86.6127 50.4129 86.5046 50.2784C86.3874 50.141 86.2399 50.0326 86.0738 49.9618C85.8592 49.8737 85.6285 49.8318 85.3967 49.8386C85.0906 49.8332 84.7881 49.9059 84.5178 50.0499C84.2611 50.1895 84.0317 50.3744 83.8408 50.5957C83.6466 50.8187 83.4891 51.071 83.3741 51.3434C83.2603 51.6057 83.1777 51.8805 83.1279 52.1621L82.3192 56.7738H80.2436L81.1397 51.6693C81.1731 51.5129 81.1908 51.3536 81.1926 51.1937C81.2074 50.8407 81.0952 50.4941 80.8763 50.2168C80.7512 50.0836 80.5976 49.9804 80.4271 49.915C80.2566 49.8495 80.0735 49.8234 79.8915 49.8386C79.5947 49.8341 79.3015 49.9038 79.0384 50.0413C78.7893 50.1737 78.5658 50.3496 78.3785 50.5606C78.1864 50.7787 78.029 51.0251 77.9118 51.2911C77.7917 51.5578 77.7061 51.8387 77.657 52.127L76.8311 56.7738H74.7727L75.9336 50.1381C75.9808 49.9153 76.0309 49.6279 76.0839 49.2757Z" fill="black"/>
<path d="M92.3435 53.2007C92.3316 53.2645 92.3259 53.3293 92.3263 53.3941C92.3232 53.6618 92.3805 53.9266 92.4938 54.1691C92.6041 54.4023 92.7627 54.6093 92.959 54.7764C93.1681 54.9518 93.4065 55.0888 93.6633 55.1811C93.945 55.2829 94.2427 55.3336 94.5422 55.3308C95.0201 55.3447 95.4942 55.242 95.9235 55.0314C96.3126 54.8258 96.6614 54.5514 96.9527 54.2213L98.1307 55.3307C97.6534 55.8704 97.0654 56.3007 96.4069 56.5923C95.7483 56.8838 95.0346 57.0298 94.3145 57.0203C93.7761 57.0263 93.2407 56.9401 92.7313 56.7653C92.2707 56.6068 91.846 56.3585 91.4817 56.0348C91.1242 55.7098 90.8423 55.3103 90.6559 54.8645C90.448 54.3594 90.3462 53.817 90.3567 53.2709C90.3508 52.5761 90.4761 51.8865 90.726 51.2383C90.9604 50.6286 91.3098 50.0699 91.7552 49.5924C92.1958 49.1223 92.7284 48.7478 93.3198 48.4923C93.9449 48.2238 94.6192 48.0889 95.2994 48.0962C95.7739 48.0917 96.246 48.163 96.6979 48.3075C97.1099 48.4392 97.4901 48.655 97.8144 48.9414C98.1377 49.2325 98.3903 49.5935 98.553 49.9971C98.7378 50.4678 98.8273 50.9705 98.8165 51.4761C98.8119 51.7378 98.7943 51.999 98.7635 52.2589C98.7319 52.576 98.6793 52.8906 98.606 53.2007H92.3435ZM96.9169 51.7225C96.9284 51.6401 96.937 51.5642 96.9441 51.4933C96.9498 51.4231 96.9527 51.3529 96.9527 51.282C96.9566 51.0655 96.9156 50.8504 96.8324 50.6505C96.7491 50.4505 96.6253 50.27 96.4689 50.1203C96.2846 49.9546 96.0692 49.8273 95.8352 49.7458C95.6013 49.6642 95.3534 49.6301 95.1062 49.6455C94.7675 49.6405 94.4316 49.7063 94.1199 49.8389C93.8384 49.961 93.5798 50.1306 93.3555 50.3402C93.1439 50.5384 92.963 50.767 92.8188 51.0185C92.6892 51.2373 92.5941 51.4748 92.5368 51.7225H96.9169Z" fill="black"/>
<path d="M100.733 54.3452C100.906 54.6819 101.179 54.9558 101.516 55.128C101.872 55.3123 102.268 55.406 102.668 55.4009C103.072 55.4208 103.472 55.323 103.821 55.1194C103.954 55.0399 104.065 54.9264 104.14 54.7904C104.216 54.6544 104.254 54.5008 104.252 54.3452C104.26 54.2117 104.232 54.0784 104.172 53.9592C104.112 53.8399 104.021 53.739 103.908 53.6669C103.561 53.4691 103.192 53.3126 102.809 53.2006C102.453 53.088 102.103 52.9557 101.762 52.8046C101.49 52.6869 101.237 52.5266 101.015 52.3297C100.822 52.1566 100.669 51.9431 100.567 51.7045C100.462 51.4417 100.41 51.1603 100.417 50.8772C100.413 50.4837 100.51 50.0958 100.699 49.7506C100.891 49.4053 101.154 49.1052 101.472 48.8704C101.822 48.6133 102.215 48.4199 102.633 48.2988C103.107 48.1597 103.599 48.0914 104.093 48.0961C104.707 48.0874 105.316 48.2105 105.879 48.4571C106.4 48.6874 106.838 49.0712 107.136 49.5572L105.535 50.5077C105.38 50.2707 105.176 50.0697 104.937 49.9182C104.633 49.7446 104.285 49.6621 103.935 49.6804C103.755 49.6806 103.575 49.6983 103.398 49.7334C103.23 49.764 103.066 49.8203 102.915 49.9003C102.777 49.9742 102.659 50.0798 102.571 50.2083C102.48 50.3498 102.434 50.5156 102.439 50.6839C102.434 50.806 102.463 50.9272 102.524 51.0332C102.585 51.1391 102.674 51.2255 102.783 51.2819C103.104 51.4478 103.443 51.5778 103.793 51.6694C104.463 51.8329 105.087 52.1426 105.623 52.5761C105.845 52.7825 106.018 53.0355 106.131 53.317C106.244 53.5985 106.293 53.9014 106.274 54.2041C106.283 54.6367 106.18 55.0642 105.975 55.4453C105.777 55.8015 105.504 56.1106 105.175 56.3513C104.825 56.6054 104.431 56.7932 104.014 56.9057C103.558 57.031 103.088 57.0932 102.615 57.0905C101.85 57.1249 101.089 56.9582 100.408 56.607C99.888 56.3191 99.4492 55.9042 99.1326 55.4009L100.733 54.3452Z" fill="black"/>
<path d="M109.916 55.507C109.918 55.6811 109.886 55.8539 109.821 56.0155C109.756 56.1771 109.66 56.3241 109.538 56.4481C109.42 56.5755 109.277 56.6766 109.118 56.7449C108.958 56.8131 108.786 56.847 108.613 56.8442C108.282 56.8514 107.959 56.7356 107.708 56.5191C107.578 56.4007 107.477 56.2545 107.411 56.0914C107.346 55.9284 107.318 55.7526 107.329 55.5772C107.324 55.3976 107.358 55.219 107.428 55.0535C107.498 54.888 107.602 54.7393 107.734 54.6175C107.983 54.3738 108.318 54.238 108.666 54.2393C108.829 54.2351 108.992 54.2633 109.145 54.3222C109.297 54.381 109.437 54.4695 109.555 54.5824C109.677 54.7024 109.772 54.8469 109.834 55.0062C109.896 55.1655 109.924 55.3362 109.916 55.507Z" fill="black"/>
<path d="M111.206 50.0149L111.505 48.3254H112.965L113.388 45.8608H115.429L115.007 48.3254H116.906L116.607 50.0149H114.742L114.003 53.9663C113.97 54.1275 113.952 54.2916 113.95 54.4562C113.937 54.5759 113.955 54.697 114.003 54.8074C114.051 54.9179 114.127 55.0138 114.224 55.0858C114.446 55.212 114.699 55.2724 114.954 55.2598C115.092 55.2602 115.23 55.2503 115.367 55.2304C115.495 55.2116 115.621 55.1863 115.745 55.1545L115.622 56.7209C115.42 56.7983 115.211 56.8544 114.998 56.8885C114.78 56.9273 114.559 56.9479 114.338 56.9501C113.66 57.0162 112.982 56.825 112.439 56.4143C112.25 56.2321 112.102 56.0119 112.005 55.7683C111.908 55.5247 111.864 55.2633 111.875 55.0012C111.875 54.8372 111.885 54.6589 111.902 54.4655C111.918 54.2855 111.944 54.1067 111.98 53.9298L112.702 50.0149H111.206Z" fill="black"/>
<path d="M120.987 56.7739H118.77L117.117 48.3253H119.281L120.266 54.5206H120.3L123.818 48.3253H126L120.987 56.7739Z" fill="black"/>
</svg>
