<svg width="120" height="40" viewBox="0 0 120 40" fill="none" xmlns="http://www.w3.org/2000/svg">
<path d="M14.7858 17.9314C14.7858 15.708 13.6736 15.2938 11.45 15.2938H9.26353C7.07711 15.2938 5.73903 15.6701 5.73903 17.9693V19.7968C5.73903 21.5493 6.51224 22.5668 8.92433 22.5668H11.5625C14.2017 22.5668 14.7858 21.681 14.7858 19.816V17.9314ZM4.11841 10.0929H5.73903V15.4069H5.77695C6.11592 14.4082 7.00196 13.9748 8.84872 13.9748H11.3177C15.2193 13.9748 16.4069 15.0673 16.4069 18.1387V19.8347C16.4069 23.1512 14.3525 23.8856 11.412 23.8856H9.15023C7.45423 23.8856 6.13464 23.3771 5.66365 22.2088H5.62596V23.7354H4.11841V10.0929Z" fill="black"/>
<path d="M38.221 15.4444H36.1102V14.1254H38.221V11.8457H39.8421V14.1254H46.269V15.4444H39.8421V20.2302C39.8421 22.0203 40.4638 22.5667 42.2356 22.5667H42.7444C44.8932 22.5667 45.2322 22.1146 45.2322 20.0984V19.3825H46.552V20.4375C46.552 22.3594 46.363 23.8858 42.8578 23.8858H41.9717C38.9374 23.8858 38.221 22.416 38.221 20.8517V15.4444Z" fill="black"/>
<path d="M48.5938 14.1245H51.9866V15.9523H52.0241C52.4389 14.4259 53.9088 13.9738 55.5486 13.9738C58.1873 13.9738 59.224 15.1044 59.224 17.7611C59.224 18.0059 59.2048 18.2699 59.1859 18.6088H56.0576C56.0576 17.3841 55.7747 16.7999 54.3232 16.7999C53.0794 16.7999 52.2124 17.2713 52.2124 18.4206V23.7338H48.5938V14.1245Z" fill="black"/>
<path d="M67.0071 21.6237C69.4951 21.6237 69.7212 21.2472 69.7212 20.6064C69.7212 19.8907 69.5138 19.6265 67.5162 19.6265H65.9145C64.3874 19.6265 64.0672 19.9656 64.0672 20.7571C64.0672 21.3789 64.5573 21.6237 65.9706 21.6237H67.0071ZM60.5614 20.3616C60.5614 17.7423 62.3706 17.5916 65.8762 17.5916C67.8553 17.5916 68.9488 17.6482 69.6458 18.3639V17.5162C69.6458 16.5742 69.363 16.2349 67.9493 16.2349H65.8195C64.7642 16.2349 64.4627 16.329 64.425 17.0074H60.9193C60.9193 14.4073 62.2012 13.9739 65.2547 13.9739H69.4572C71.9454 13.9739 73.2647 15.1611 73.2647 17.4221V23.734H69.8345V22.6413C68.8354 23.678 68.4583 23.8849 66.649 23.8849H64.1797C61.9751 23.9034 60.5614 23.4136 60.5614 21.1526V20.3616Z" fill="black"/>
<path d="M78.5968 19.4945C78.5968 20.5683 78.7663 21.1711 80.5001 21.1711H82.6299C84.0624 21.1711 84.8159 20.8512 84.8159 19.4004V18.458C84.8159 17.0072 84.0624 16.6868 82.6299 16.6868H80.5001C78.7663 16.6868 78.5968 17.29 78.5968 18.3639V19.4945ZM75.0911 18.0625C75.0911 15.6131 75.6566 13.9737 80.2367 13.9737H81.3106C82.7997 13.9737 84.3263 14.3879 84.5526 15.8953H84.5897V10.0918H88.2086V23.7338H84.8159V21.9629H84.7787C84.3824 23.1501 83.4779 23.8848 81.292 23.8848H80.2367C75.6566 23.8848 75.0911 22.2456 75.0911 19.7957V18.0625Z" fill="black"/>
<path d="M96.6621 21.6237C99.1497 21.6237 99.3758 21.2472 99.3758 20.6064C99.3758 19.8907 99.1686 19.6265 97.1707 19.6265H95.5686C94.0422 19.6265 93.7218 19.9656 93.7218 20.7571C93.7218 21.3789 94.2116 21.6237 95.6253 21.6237H96.6621ZM90.2166 20.3616C90.2166 17.7423 92.0256 17.5916 95.5309 17.5916C97.5099 17.5916 98.6032 17.6482 99.3005 18.3639V17.5162C99.3005 16.5742 99.0178 16.2349 97.6045 16.2349H95.4745C94.419 16.2349 94.1175 16.329 94.0798 17.0074H90.5741C90.5741 14.4073 91.8558 13.9739 94.9092 13.9739H99.1124C101.6 13.9739 102.919 15.1611 102.919 17.4221V23.734H99.4889V22.6413C98.4902 23.678 98.1129 23.8849 96.3037 23.8849H93.8349C91.6295 23.9034 90.2166 23.4136 90.2166 21.1526V20.3616Z" fill="black"/>
<path d="M105.237 14.1245H108.63V15.9523H108.668C109.083 14.4259 110.552 13.9738 112.192 13.9738C114.831 13.9738 115.867 15.1044 115.867 17.7611C115.867 18.0059 115.848 18.2699 115.829 18.6088H112.701C112.701 17.3841 112.418 16.7999 110.967 16.7999C109.723 16.7999 108.856 17.2713 108.856 18.4206V23.7338H105.237V14.1245Z" fill="black"/>
<path d="M61.0751 31.3264C61.0751 31.9208 61.2611 32.2025 62.1019 32.2025H62.9421C63.7107 32.2025 63.9567 31.879 63.9567 31.3206V30.7387C63.9567 30.0064 63.5302 29.8861 62.834 29.8861H62.1377C61.4294 29.8861 61.0751 30.0181 61.0751 30.7266V31.3264ZM64.473 32.5748H63.9928V32.0884H63.9807C63.8308 32.4609 63.4106 32.6233 62.8701 32.6233H62.1496C61.2134 32.6233 60.5588 32.3891 60.5588 31.3323V30.7923C60.5588 29.8148 60.9371 29.4661 62.1798 29.4661H62.9661C63.5544 29.4661 63.8365 29.604 63.9444 29.9216H63.9567V28.2296H64.473V32.5748Z" fill="black"/>
<path d="M65.4889 29.5139H65.9691V29.9588H65.9812C66.1735 29.5625 66.5634 29.4663 66.9177 29.4663H67.4037C68.3701 29.4663 68.6884 29.7782 68.6884 30.5284V30.8946H68.2084V30.7629C68.2084 30.0064 68.0519 29.8859 67.1337 29.8859H66.8156C66.2692 29.8859 66.0052 30.2346 66.0052 30.6303V32.5747H65.4889V29.5139Z" fill="black"/>
<path d="M69.3745 29.5137H69.8908V32.5746H69.3745V29.5137ZM69.3745 28.2296H69.8908V28.7943H69.3745V28.2296Z" fill="black"/>
<path d="M70.4858 29.5139H71.032L72.5203 32.155L74.0094 29.5139H74.5555L72.8266 32.5746H72.2146L70.4858 29.5139Z" fill="black"/>
<path d="M78.3448 30.5105C78.3448 30.1986 78.1107 29.8859 77.2703 29.8859H76.5137C75.6974 29.8859 75.5054 30.018 75.4575 30.7149H78.3448V30.5105ZM74.9409 30.7028C74.9409 29.5921 75.7093 29.4663 76.4419 29.4663H77.2703C78.1946 29.4663 78.8611 29.7004 78.8611 30.7922V31.1349H75.4575V31.3263C75.4575 32.023 75.7935 32.2027 76.6942 32.2027H77.4021C78.0506 32.2027 78.3148 32.1193 78.3448 31.6508H78.8611V31.71C78.8611 32.4126 78.2789 32.6234 77.3185 32.6234H76.382C75.7093 32.6234 74.9409 32.4975 74.9409 31.3689V30.7028Z" fill="black"/>
<path d="M79.6733 29.5139H80.1533V30.0422H80.1654C80.3574 29.5685 80.7599 29.4663 81.4022 29.4663H82.1765C83.143 29.4663 83.4493 29.9528 83.4493 30.5044V32.5747H82.9325V30.6303C82.9325 30.1801 82.807 29.8859 81.8044 29.8859H81.6723C80.4657 29.8859 80.1896 30.1141 80.1896 30.8348V32.5747H79.6733V29.5139Z" fill="black"/>
<path d="M89.5145 30.7266C89.5145 30.018 89.1602 29.8861 88.4519 29.8861H87.7552C87.059 29.8861 86.6331 30.0064 86.6331 30.7387V31.3204C86.6331 31.879 86.8791 32.2025 87.6477 32.2025H88.488C89.3282 32.2025 89.5145 31.9208 89.5145 31.3264V30.7266ZM86.1168 28.2296H86.6331V29.9216H86.645C86.7533 29.6042 87.0352 29.4663 87.6233 29.4663H88.4098C89.6525 29.4663 90.0308 29.8146 90.0308 30.7922V31.3325C90.0308 32.3893 89.3762 32.6233 88.4398 32.6233H87.7197C87.1792 32.6233 86.7593 32.4607 86.6087 32.0882H86.5972V32.5748H86.1168V28.2296Z" fill="black"/>
<path d="M91.0345 33.2953C91.8274 33.2953 91.9952 33.2408 92.2649 32.6233H92.1391L90.4043 29.5139H90.9867L92.4695 32.2206L93.802 29.5139H94.3602L92.6315 32.9529C92.3133 33.5833 92.0971 33.7032 91.0345 33.715V33.2953Z" fill="black"/>
<path d="M96.9136 29.9346H96.2473V29.5139H96.9136V29.2441C96.9136 28.5175 97.3579 28.2296 97.9223 28.2296H98.8887V28.6498H97.9639C97.5798 28.6498 97.4299 28.8659 97.4299 29.1357V29.5139H98.8887V29.9346H97.4299V32.5748H96.9136V29.9346Z" fill="black"/>
<path d="M102.696 31.6147C102.696 31.1942 102.323 31.1409 101.531 31.1409H100.738C100.072 31.1409 99.886 31.2365 99.886 31.6208V31.7162C99.886 32.0587 100.006 32.2025 100.715 32.2025H101.399C102.335 32.2025 102.696 32.1369 102.696 31.7527V31.6147ZM102.696 32.2693H102.683C102.546 32.5452 102.383 32.6234 101.591 32.6234H100.354C99.574 32.6234 99.3699 32.2809 99.3699 31.7047V31.501C99.3699 30.8043 99.8621 30.7207 100.763 30.7207H101.591C102.263 30.7207 102.503 30.7922 102.683 31.087H102.696V30.5105C102.696 29.9588 102.347 29.8861 101.555 29.8861H100.798C100.15 29.8861 100.024 30.042 100.024 30.2944V30.4022H99.5078V30.2522C99.5078 29.6943 99.8621 29.4663 100.786 29.4663H101.603C102.563 29.4663 103.212 29.6103 103.212 30.5226V32.5748H102.696V32.2693Z" fill="black"/>
<path d="M103.988 30.7029C103.988 29.5923 104.769 29.4661 105.524 29.4661H106.389C107.35 29.4661 107.728 29.8564 107.728 30.5044V30.5886H107.247V30.5165C107.247 30.0064 106.911 29.886 106.395 29.886H105.447C104.961 29.886 104.504 29.9586 104.504 30.7205V31.3628C104.504 32.0466 104.924 32.2024 105.549 32.2024H106.419C106.899 32.2024 107.302 32.0586 107.302 31.5605V31.4584H107.782V31.5484C107.782 32.3224 107.398 32.6231 106.437 32.6231H105.272C104.81 32.6231 103.988 32.4973 103.988 31.3866V30.7029Z" fill="black"/>
<path d="M108.852 29.9346H108.18V29.5139H108.852V28.7881H109.369V29.5139H111.415V29.9346H109.369V31.4583C109.369 32.029 109.567 32.2025 110.131 32.2025H110.293C110.977 32.2025 111.086 32.0587 111.086 31.4167V31.1885H111.505V31.5244C111.505 32.1369 111.445 32.6234 110.329 32.6234H110.047C109.08 32.6234 108.852 32.1549 108.852 31.657V29.9346Z" fill="black"/>
<path d="M112.023 31.5186H112.503V31.6686C112.503 32.0464 112.701 32.2027 113.23 32.2027H114.334C115.109 32.2027 115.355 32.173 115.355 31.7162V31.6924C115.355 31.3986 115.271 31.2367 114.653 31.2367H113.062C112.335 31.2367 112.065 31.0024 112.065 30.4202V30.2405C112.065 29.7421 112.347 29.4663 113.62 29.4663H114.412C115.577 29.4663 115.739 29.8019 115.739 30.2346V30.3962H115.259V30.3665C115.259 29.898 114.946 29.8859 114.382 29.8859H113.482C112.743 29.8859 112.582 29.9588 112.582 30.3059V30.4202C112.582 30.6726 112.666 30.8158 113.206 30.8158H114.569C115.343 30.8158 115.871 30.8946 115.871 31.7221V31.7351C115.871 32.5928 115.079 32.6234 114.449 32.6234H113.5C112.738 32.6234 112.023 32.6234 112.023 31.7045V31.5186Z" fill="black"/>
<path d="M27.5689 15.2734H25.1943C22.6307 15.2734 22.0277 15.6877 21.877 17.8736H30.9424V17.233C30.9424 16.2529 30.2071 15.2734 27.5689 15.2734Z" fill="black"/>
<path d="M32.5634 19.1926H21.8771V19.7954C21.8771 21.9808 22.9324 22.5463 25.7598 22.5463H27.9836C30.019 22.5463 30.8485 22.2823 30.9424 20.8128H32.5634V21.0014C32.5634 23.2058 30.7355 23.8653 27.7198 23.8653H24.7792C22.6683 23.8653 20.256 23.4695 20.256 19.9272V17.8359C20.256 14.35 22.6683 13.9542 24.968 13.9542H27.5691C30.4713 13.9542 32.5634 14.6891 32.5634 18.1184V19.1926ZM27.9465 12.5736H24.982C21.0541 12.5736 18.1869 13.5135 18.1869 17.5608V20.2587C18.1869 24.3065 21.0541 25.2459 24.982 25.2459H27.9465C31.8748 25.2459 34.742 24.3065 34.742 20.2587V17.5608C34.742 13.5135 31.8748 12.5736 27.9465 12.5736Z" fill="black"/>
</svg>
