<svg width="120" height="34" viewBox="0 0 120 34" fill="none" xmlns="http://www.w3.org/2000/svg">
<g clip-path="url(#clip0_8661_2554)">
<path d="M41.0021 20.5861C41.0021 21.2902 40.4816 23.8469 36.0719 23.8469H31.4387V11.2839H36.0733C39.9792 11.2839 40.4469 14.0123 40.4469 14.5626C40.4469 16.296 39.2838 17.0851 38.2427 17.446C39.4933 17.737 41.0021 18.5083 41.0021 20.5861ZM35.7957 11.8837H33.3486V17.0673H36.1607C37.2017 17.0673 38.5564 16.2946 38.5564 14.6477C38.555 12.88 37.3919 11.8837 35.7957 11.8837ZM38.902 20.4996C38.902 17.9085 36.1427 17.6684 35.6041 17.6684H33.3472V23.1772H36.0719C36.0733 23.1772 38.902 23.1086 38.902 20.4996Z" fill="black"/>
<path d="M58.1178 17.5311C58.1178 22.0793 55.3751 24.0707 51.9911 24.0707C48.6057 24.0707 45.8644 22.0793 45.8644 17.5311C45.8644 13.1381 48.6071 11.0095 51.9911 11.0095C55.3751 11.0081 58.1178 13.1024 58.1178 17.5311ZM56.0344 17.5311C56.0344 13.4976 54.2286 11.5763 51.9897 11.5763C49.7675 11.5763 47.945 13.5333 47.945 17.5311C47.945 21.684 49.7675 23.486 51.9897 23.486C54.23 23.486 56.0344 21.684 56.0344 17.5311Z" fill="black"/>
<path d="M76.7603 23.8469H74.9032L73.393 15.231L68.6723 23.8469L64.35 15.7978L63.4131 23.8469H62.6317L64.0891 11.2839L69.2789 21.0321L74.6422 11.2839L76.8297 23.8305L76.7603 23.8469Z" fill="black"/>
<path d="M91.2541 20.5861C91.2541 21.2902 90.7336 23.8469 86.3238 23.8469H81.6892V11.2839H86.3238C90.2297 11.2839 90.6975 14.0123 90.6975 14.5626C90.6975 16.296 89.5343 17.0851 88.4933 17.446C89.7439 17.737 91.2541 18.5083 91.2541 20.5861ZM86.0476 11.8837H83.6005V17.0673H86.4126C87.4537 17.0673 88.8084 16.2946 88.8084 14.6477C88.807 12.88 87.6438 11.8837 86.0476 11.8837ZM89.154 20.4996C89.154 17.9085 86.3946 17.6684 85.856 17.6684H83.5991V23.1772H86.3238C86.3252 23.1772 89.154 23.1086 89.154 20.4996Z" fill="black"/>
<path d="M95.2474 23.8469L100.941 11.2839L106.774 23.8469H104.673L103.58 21.4782H97.1739L96.0982 23.8469H95.2474ZM97.4696 20.8263H103.267L100.334 14.5105L97.4696 20.8263Z" fill="black"/>
<path d="M120 11.2839L115.4 18.4232V23.8469H113.49V18.6469L108.509 11.2839H110.817L115.035 17.5476L119.062 11.2839H120Z" fill="black"/>
<path d="M24.1474 19.5927C24.1474 15.0239 21.5629 11.0316 17.7139 8.96199C18.1539 8.12894 18.3899 7.20943 18.3899 6.23227C18.3899 4.30679 17.4794 2.66951 16.04 1.57844C14.6297 0.516201 13.2487 -0.145299 10.635 0.0276243C7.99084 0.199175 6.49178 1.78019 6.49178 1.78019C6.43348 1.83783 6.34465 1.92429 6.28635 1.98193C5.61038 2.72852 5.28697 3.64803 5.28697 4.56754C5.28697 5.71625 5.75751 6.83751 6.72635 7.64174C6.90263 7.78584 7.10806 7.92857 7.28434 8.04385C7.54806 8.18795 7.90062 8.07267 7.98945 7.78584L8.37116 6.80868L8.42945 6.6934V6.66458C8.37116 6.63576 8.31147 6.60694 8.25317 6.57812C7.22465 5.94544 6.63752 4.79674 6.78465 3.56157C6.84295 3.15946 6.96093 2.81498 7.13721 2.46914C7.25519 2.26739 8.37116 0.630111 11.4553 0.918316C11.9259 0.975957 12.4242 1.09124 12.953 1.29161C13.1876 1.37807 13.4236 1.49335 13.629 1.60726H13.6581C15.0392 2.38267 15.9498 3.81958 15.9498 5.48568C15.9498 6.80731 15.4792 8.15776 14.5395 8.99081C14.3924 9.10609 14.2453 9.24882 14.069 9.36411C13.511 9.67976 12.8642 9.8815 12.2188 9.99678V6.60694C12.2188 6.57812 12.2188 6.57812 12.2188 6.57812V4.94084C12.2188 4.68283 12.0425 4.45226 11.8079 4.39462L10.2797 3.93487V10.1121H8.92775C8.5752 10.1121 8.28094 10.3138 8.16434 10.6295L7.78264 11.6931L10.1034 11.7219C11.5719 11.7795 12.953 12.0664 14.2161 12.555C14.5978 12.6991 14.9795 12.8706 15.3612 13.0435C17.242 14.0207 18.7105 15.6291 19.4448 17.5834C19.8265 18.5318 20.0028 19.5666 20.0028 20.6288C20.0028 21.0886 19.9736 21.5483 19.8848 21.9793C19.7668 22.9276 19.4739 23.8183 19.0617 24.6513C17.5335 27.812 14.2439 30.0243 10.4254 30.0243C8.39892 30.0243 6.51815 29.393 4.96079 28.3294C4.72621 28.1565 4.49025 27.9849 4.25567 27.7832C3.93226 27.5252 3.66854 27.2658 3.40343 26.9789C2.3749 25.8302 1.72947 24.3933 1.72947 22.8137C1.72947 19.3374 4.60823 16.7518 8.16295 16.7518C9.0152 16.7518 9.80776 16.8959 10.542 17.1827C11.218 17.4695 11.8343 17.8717 12.3048 18.3891C12.8045 19.0217 13.0974 19.7971 13.0974 20.659C13.0974 21.4921 12.8031 22.2387 12.334 22.8713C11.7177 23.5603 10.8363 23.6756 10.424 23.6756C9.8952 23.6467 9.42467 23.5315 9.10264 23.4464C8.83892 23.3599 8.51551 23.504 8.42668 23.762L8.1921 24.3933C8.72094 24.6513 9.33722 24.8243 9.95489 24.8819H9.98404C10.0423 24.8819 10.102 24.8819 10.1603 24.8819C10.1895 24.8819 10.2186 24.8819 10.2478 24.8819C10.2769 24.8819 10.2769 24.8819 10.3061 24.8819C10.3644 24.8819 10.4532 24.8819 10.5115 24.8819H10.5406C10.6281 24.8819 10.7169 24.8819 10.8044 24.8531C13.5957 24.5951 15.8568 22.0657 15.8568 19.1645C15.8568 16.7229 14.3285 14.6534 12.1258 13.8203C12.0383 13.7915 11.9495 13.7627 11.862 13.7338C10.8932 13.3894 9.86467 13.1876 8.77785 13.1876C6.10452 13.1876 3.6963 14.3652 2.08064 16.2042C0.79256 17.6685 0 19.6215 0 21.7473C0 21.805 0 21.8914 0 21.9491C0 21.9779 0 21.9779 0 22.0067C0 22.0644 0 22.1508 0 22.2085C0 22.3814 0.0291484 22.5529 0.0291484 22.697C0.557985 27.7818 4.96495 31.7467 10.2228 31.7755V33.9302L11.8093 33.5281C12.0147 33.4704 12.1618 33.2989 12.1618 33.0683V32.0912C12.1618 32.0623 12.1618 32.0335 12.1618 32.0047V31.8606C18.8008 31.6314 24.0891 26.3161 24.0891 19.7944C24.0891 19.7656 24.0891 19.7368 24.0891 19.7079C24.1474 19.6791 24.1474 19.6215 24.1474 19.5927Z" fill="black"/>
<path d="M31.6844 29.4587H32.4672V33.3083H34.5951V33.9986H31.6844V29.4587Z" fill="black"/>
<path d="M39.9445 29.4587H40.7274V34H39.9445V29.4587Z" fill="black"/>
<path d="M46.0449 29.4587H46.886L48.1088 32.887H48.1158L49.3317 29.4587H50.1659L48.4517 34H47.7591L46.0449 29.4587Z" fill="black"/>
<path d="M55.4113 29.4587H58.3025V30.149H56.1941V31.402H57.8958V32.0923H56.1941V33.3069H58.4385V33.9972H55.4113V29.4587Z" fill="black"/>
</g>
<defs>
<clipPath id="clip0_8661_2554">
<rect width="120" height="34" fill="white"/>
</clipPath>
</defs>
</svg>
