<svg width="110" height="40" viewBox="0 0 110 40" fill="none" xmlns="http://www.w3.org/2000/svg">
<path d="M35.9196 15.4648C35.9196 12.8815 36.709 10.7737 38.2877 9.14136C39.8665 7.50899 41.8934 6.69282 44.3686 6.69282C46.4789 6.69282 48.2719 7.2792 49.7475 8.45196C51.2231 9.62474 52.1355 11.2095 52.4846 13.2064H49.4143C49.1287 12.0336 48.5376 11.1145 47.6412 10.4488C46.7447 9.78321 45.6539 9.4504 44.3686 9.4504C42.6868 9.4504 41.3659 9.9932 40.4059 11.0788C39.446 12.1644 38.966 13.6264 38.966 15.4648C38.966 17.3032 39.446 18.7691 40.4059 19.8627C41.3659 20.9562 42.6868 21.503 44.3686 21.503C45.6539 21.503 46.7447 21.1701 47.6412 20.5045C48.5376 19.8389 49.1287 18.9197 49.4143 17.747H52.4846C52.1355 19.7438 51.2231 21.3286 49.7475 22.5014C48.2719 23.6741 46.4789 24.2605 44.3686 24.2605C41.8934 24.2605 39.8665 23.4443 38.2877 21.8119C36.709 20.1796 35.9196 18.0639 35.9196 15.4648ZM62.8178 18.1273L59.5334 18.6265C57.9943 18.8642 57.2247 19.4506 57.2247 20.3856C57.2247 21.4633 57.9546 22.0022 59.4144 22.0022C60.5092 22.0022 61.3501 21.709 61.9372 21.1226C62.5242 20.5362 62.8178 19.7992 62.8178 18.9118V18.1273ZM58.8432 24.213C57.3834 24.213 56.2965 23.8723 55.5825 23.1908C54.8685 22.5093 54.5115 21.606 54.5115 20.4807C54.5115 18.3254 56.0902 17.0258 59.2478 16.5821L62.8178 16.0829V15.8927C62.8178 14.3871 61.9372 13.6343 60.176 13.6343C58.6369 13.6343 57.7642 14.2445 57.558 15.4648H54.7971C54.9241 14.2603 55.4278 13.2658 56.3084 12.4814C57.1891 11.6969 58.502 11.3047 60.2474 11.3047C62.0086 11.3047 63.3374 11.7088 64.2339 12.5171C65.1304 13.3253 65.5786 14.4584 65.5786 15.9164V21.598C65.5786 22.5965 65.6976 23.3731 65.9356 23.9277H63.2462C63.2304 23.9277 63.2105 23.8683 63.1867 23.7494C63.1629 23.6306 63.1391 23.4364 63.1153 23.167C63.0915 22.8976 63.0796 22.6123 63.0796 22.3112C62.2386 23.579 60.8265 24.213 58.8432 24.213ZM71.8661 23.9277H69.0336V6.09851H71.8661V23.9277ZM86.769 18.579H77.3675C77.4787 19.5615 77.836 20.342 78.439 20.9205C79.0419 21.499 79.8352 21.7882 80.8189 21.7882C81.4692 21.7882 82.0566 21.6298 82.5796 21.3128C83.1033 20.9958 83.4762 20.5679 83.6984 20.0291H86.5546C86.1739 21.281 85.4634 22.2914 84.4245 23.06C83.3849 23.8286 82.1592 24.213 80.7474 24.213C78.9067 24.213 77.4192 23.6028 76.2848 22.3825C75.1504 21.1622 74.5828 19.617 74.5828 17.747C74.5828 15.9243 75.1539 14.3951 76.2968 13.1589C77.439 11.9227 78.9145 11.3047 80.7234 11.3047C82.5322 11.3047 83.9964 11.9108 85.1145 13.1232C86.2333 14.3356 86.7924 15.861 86.7924 17.6994L86.769 18.579ZM80.7234 13.6106C79.8352 13.6106 79.0971 13.8721 78.5097 14.3951C77.9231 14.918 77.5579 15.6154 77.415 16.487H83.9843C83.8569 15.6154 83.5081 14.918 82.937 14.3951C82.3659 13.8721 81.6278 13.6106 80.7234 13.6106ZM95.0312 21.4078V23.8564C94.6823 23.9515 94.1904 23.999 93.5557 23.999C91.1439 23.999 89.938 22.7867 89.938 20.3619V13.8483H88.0577V11.5899H89.938V8.38065H92.7701V11.5899H95.0793V13.8483H92.7701V20.0766C92.7701 21.0433 93.2308 21.5267 94.1508 21.5267L95.0312 21.4078ZM105.055 18.1273L101.771 18.6265C100.232 18.8642 99.4619 19.4506 99.4619 20.3856C99.4619 21.4633 100.192 22.0022 101.651 22.0022C102.747 22.0022 103.588 21.709 104.174 21.1226C104.762 20.5362 105.055 19.7992 105.055 18.9118V18.1273ZM101.08 24.213C99.6212 24.213 98.5342 23.8723 97.8201 23.1908C97.1061 22.5093 96.7487 21.606 96.7487 20.4807C96.7487 18.3254 98.3275 17.0258 101.485 16.5821L105.055 16.0829V15.8927C105.055 14.3871 104.174 13.6343 102.414 13.6343C100.874 13.6343 100.002 14.2445 99.7952 15.4648H97.0346C97.1613 14.2603 97.6651 13.2658 98.5462 12.4814C99.4265 11.6969 100.739 11.3047 102.485 11.3047C104.246 11.3047 105.575 11.7088 106.471 12.5171C107.368 13.3253 107.816 14.4584 107.816 15.9164V21.598C107.816 22.5965 107.935 23.3731 108.173 23.9277H105.484C105.468 23.9277 105.448 23.8683 105.424 23.7494C105.4 23.6306 105.377 23.4364 105.353 23.167C105.329 22.8976 105.317 22.6123 105.317 22.3112C104.476 23.579 103.064 24.213 101.08 24.213Z" fill="black"/>
<g opacity="0.8">
<g opacity="0.8">
<mask id="mask0_8661_2757" style="mask-type:alpha" maskUnits="userSpaceOnUse" x="37" y="28" width="73" height="8">
<g opacity="0.8">
<path opacity="0.8" d="M37.817 28.1685H110V36H37.817V28.1685Z" fill="white"/>
</g>
</mask>
<g mask="url(#mask0_8661_2757)">
<path opacity="0.8" fill-rule="evenodd" clip-rule="evenodd" d="M38.9828 29.1576L40.7669 31.4526L42.5578 29.1576H43.0159V34.0804H42.5092V30.0173L40.7807 32.2083H40.753L39.0314 30.0173V34.0804H38.5247V29.1576H38.9828ZM46.7952 32.2707L45.6221 32.4302C45.2981 32.4718 45.0656 32.5493 44.9245 32.6625C44.7833 32.7757 44.7127 32.9248 44.7127 33.1097C44.7127 33.3408 44.7914 33.5061 44.9487 33.6055C45.1061 33.7048 45.3004 33.7545 45.5319 33.7545C45.9252 33.7545 46.2341 33.6448 46.4586 33.4252C46.683 33.2056 46.7952 32.9571 46.7952 32.6798V32.2707ZM45.4763 34.1636C45.0644 34.1636 44.7532 34.07 44.5427 33.8828C44.3321 33.6956 44.2268 33.4379 44.2268 33.1097C44.2268 32.5134 44.671 32.1575 45.5596 32.0419L46.7952 31.8824V31.7854C46.7952 31.1891 46.462 30.891 45.7956 30.891C45.231 30.891 44.9025 31.1244 44.8099 31.5913H44.3171C44.3679 31.2492 44.5149 30.9765 44.7578 30.7731C45.0008 30.5697 45.3537 30.468 45.8164 30.468C46.307 30.468 46.6749 30.587 46.9202 30.8251C47.1655 31.0631 47.2881 31.3856 47.2881 31.7923V33.3385C47.2881 33.6852 47.3228 33.9325 47.3922 34.0804H46.9063C46.8554 33.9417 46.83 33.7407 46.83 33.4772C46.5615 33.9348 46.1103 34.1636 45.4763 34.1636ZM51.0604 30.5512H51.7199L50.2552 32.0073L51.831 34.0804H51.2201L49.9081 32.3401L49.1098 33.1166V34.0804H48.6169V28.8802H49.1098V32.5134L51.0604 30.5512ZM52.8544 29.6776C52.7479 29.6776 52.6623 29.6464 52.5975 29.584C52.5328 29.5216 52.5004 29.4395 52.5004 29.3378C52.5004 29.2362 52.5328 29.1518 52.5975 29.0847C52.6623 29.0177 52.7479 28.9842 52.8544 28.9842C52.9562 28.9842 53.0407 29.0177 53.1078 29.0847C53.1748 29.1518 53.2084 29.2362 53.2084 29.3378C53.2084 29.4395 53.1748 29.5216 53.1078 29.584C53.0407 29.6464 52.9562 29.6776 52.8544 29.6776ZM52.6045 34.0804V30.5512H53.0973V34.0804H52.6045ZM54.9329 30.5512V31.092C55.0162 30.9348 55.1551 30.7916 55.3494 30.6621C55.5438 30.5327 55.7937 30.468 56.0991 30.468C56.5249 30.468 56.8546 30.5928 57.0883 30.8424C57.322 31.092 57.4389 31.4202 57.4389 31.827V34.0804H56.946V31.924C56.946 31.5959 56.8685 31.3428 56.7135 31.1649C56.5585 30.9869 56.3259 30.8979 56.0158 30.8979C55.7058 30.8979 55.4512 30.9926 55.2522 31.1822C55.0532 31.3717 54.9537 31.6375 54.9537 31.9796V34.0804H54.4609V30.5512H54.9329ZM61.4958 31.196V30.5512H61.9679V33.907C61.9679 34.4063 61.8255 34.8131 61.5409 35.1274C61.2564 35.4417 60.848 35.5989 60.3157 35.5989C59.853 35.5989 59.4862 35.4879 59.2155 35.266C58.9447 35.0442 58.7747 34.7807 58.7053 34.4756H59.212C59.2814 34.6836 59.4145 34.8489 59.6112 34.9713C59.8078 35.0939 60.0473 35.1551 60.3296 35.1551C60.686 35.1551 60.9659 35.0499 61.1695 34.8396C61.3732 34.6293 61.475 34.3554 61.475 34.018V33.3593C61.2019 33.8354 60.7646 34.0735 60.163 34.0735C59.654 34.0735 59.249 33.8978 58.9482 33.5465C58.6474 33.1952 58.497 32.77 58.497 32.2707C58.497 31.7715 58.6474 31.3463 58.9482 30.995C59.249 30.6436 59.654 30.468 60.163 30.468C60.7785 30.468 61.2227 30.7107 61.4958 31.196ZM61.1557 33.2483C61.3825 32.9895 61.4958 32.6636 61.4958 32.2707C61.4958 31.8778 61.3836 31.5531 61.1591 31.2966C60.9347 31.0401 60.6328 30.9118 60.2532 30.9118C59.8738 30.9118 59.5695 31.0412 59.3404 31.3001C59.1113 31.5589 58.9968 31.8824 58.9968 32.2707C58.9968 32.659 59.1113 32.9838 59.3404 33.2449C59.5695 33.5061 59.8738 33.6366 60.2532 33.6366C60.6328 33.6366 60.9335 33.5072 61.1557 33.2483ZM65.7432 31.1891C66.0116 30.7084 66.4512 30.468 67.0621 30.468C67.585 30.468 67.9946 30.6471 68.2908 31.0054C68.587 31.3636 68.735 31.8016 68.735 32.3193C68.735 32.8323 68.587 33.268 68.2908 33.6262C67.9946 33.9845 67.585 34.1636 67.0621 34.1636C66.4419 34.1636 65.9954 33.9186 65.7224 33.4287V34.0804H65.2503V28.8802H65.7432V31.1891ZM65.7293 32.3193C65.7293 32.7168 65.8403 33.0496 66.0625 33.3177C66.2846 33.5858 66.5877 33.7199 66.9718 33.7199C67.356 33.7199 67.6625 33.5858 67.8916 33.3177C68.1207 33.0496 68.2353 32.7168 68.2353 32.3193C68.2353 31.9171 68.1207 31.582 67.8916 31.3139C67.6625 31.0458 67.356 30.9118 66.9718 30.9118C66.5877 30.9118 66.2846 31.0446 66.0625 31.3105C65.8403 31.5762 65.7293 31.9125 65.7293 32.3193ZM72.9934 32.4579H70.057C70.0801 32.8277 70.2051 33.1305 70.4318 33.3662C70.6586 33.602 70.9525 33.7199 71.3134 33.7199C71.5773 33.7199 71.8087 33.6517 72.0076 33.5153C72.2065 33.379 72.3452 33.1999 72.4244 32.9779H72.9375C72.8313 33.3293 72.6346 33.6147 72.348 33.8343C72.0607 34.0538 71.7139 34.1636 71.3063 34.1636C70.7699 34.1636 70.3451 33.9845 70.0327 33.6262C69.7202 33.268 69.5641 32.8301 69.5641 32.3123C69.5641 31.8038 69.7249 31.3693 70.0466 31.0088C70.3682 30.6483 70.7861 30.468 71.2992 30.468C71.813 30.468 72.2249 30.6402 72.5348 30.9845C72.8455 31.3289 73.0005 31.7576 73.0005 32.2707L72.9934 32.4579ZM71.2992 30.9118C70.9666 30.9118 70.6886 31.0192 70.4665 31.2341C70.2444 31.4491 70.1125 31.723 70.0708 32.0558H72.5072C72.4747 31.7091 72.3515 31.4318 72.1357 31.2237C71.9206 31.0158 71.6417 30.9118 71.2992 30.9118ZM75.5297 33.6159V34.0596C75.4469 34.0827 75.3216 34.0943 75.1553 34.0943C74.5446 34.0943 74.2389 33.7731 74.2389 33.1305V30.9672H73.5652V30.5512H74.2389V29.5459H74.7314V30.5512H75.5439V30.9672H74.7314V33.0958C74.7314 33.4656 74.8935 33.6505 75.2176 33.6505L75.5297 33.6159ZM77.8445 33.6159V34.0596C77.761 34.0827 77.6365 34.0943 77.4694 34.0943C76.8587 34.0943 76.5537 33.7731 76.5537 33.1305V30.9672H75.88V30.5512H76.5537V29.5459H77.0463V30.5512H77.8587V30.9672H77.0463V33.0958C77.0463 33.4656 77.2083 33.6505 77.5324 33.6505L77.8445 33.6159ZM81.8875 32.4579H78.9513C78.9747 32.8277 79.0992 33.1305 79.3264 33.3662C79.5528 33.602 79.8465 33.7199 80.2074 33.7199C80.4714 33.7199 80.7028 33.6517 80.9017 33.5153C81.1012 33.379 81.2399 33.1999 81.3185 32.9779H81.8323C81.7254 33.3293 81.5287 33.6147 81.2421 33.8343C80.9555 34.0538 80.608 34.1636 80.2011 34.1636C79.664 34.1636 79.2393 33.9845 78.9273 33.6262C78.6145 33.268 78.4581 32.8301 78.4581 32.3123C78.4581 31.8038 78.6194 31.3693 78.9407 31.0088C79.2627 30.6483 79.6802 30.468 80.194 30.468C80.7078 30.468 81.1196 30.6402 81.4296 30.9845C81.7396 31.3289 81.8945 31.7576 81.8945 32.2707L81.8875 32.4579ZM80.194 30.9118C79.8607 30.9118 79.5833 31.0192 79.3611 31.2341C79.1389 31.4491 79.0065 31.723 78.9655 32.0558H81.402C81.3695 31.7091 81.2456 31.4318 81.0305 31.2237C80.8153 31.0158 80.5365 30.9118 80.194 30.9118ZM84.709 30.5235V30.988C84.6531 30.9834 84.5958 30.9811 84.5356 30.9811C84.2207 30.9811 83.9659 31.0747 83.772 31.2619C83.5774 31.4491 83.4805 31.7207 83.4805 32.0766V34.0804H82.9872V30.5512H83.4592V31.0989C83.5427 30.9464 83.6793 30.8112 83.869 30.6933C84.0586 30.5755 84.2992 30.5166 84.5908 30.5166L84.709 30.5235ZM90.2614 31.196V30.5512H90.7334V33.907C90.7334 34.4063 90.5912 34.8131 90.3067 35.1274C90.0215 35.4417 89.6132 35.5989 89.081 35.5989C88.6182 35.5989 88.2516 35.4879 87.9813 35.266C87.7102 35.0442 87.5404 34.7807 87.471 34.4756H87.9777C88.0471 34.6836 88.1801 34.8489 88.3769 34.9713C88.5736 35.0939 88.8128 35.1551 89.0952 35.1551C89.4511 35.1551 89.7314 35.0499 89.9352 34.8396C90.139 34.6293 90.2402 34.3554 90.2402 34.018V33.3593C89.9677 33.8354 89.5304 34.0735 88.9289 34.0735C88.4193 34.0735 88.0145 33.8978 87.7138 33.5465C87.413 33.1952 87.2623 32.77 87.2623 32.2707C87.2623 31.7715 87.413 31.3463 87.7138 30.995C88.0145 30.6436 88.4193 30.468 88.9289 30.468C89.5438 30.468 89.9882 30.7107 90.2614 31.196ZM89.921 33.2483C90.1482 32.9895 90.2614 32.6636 90.2614 32.2707C90.2614 31.8778 90.1489 31.5531 89.9246 31.2966C89.7002 31.0401 89.398 30.9118 89.0187 30.9118C88.6394 30.9118 88.3351 31.0412 88.1058 31.3001C87.8765 31.5589 87.7626 31.8824 87.7626 32.2707C87.7626 32.659 87.8765 32.9838 88.1058 33.2449C88.3351 33.5061 88.6394 33.6366 89.0187 33.6366C89.398 33.6366 89.6988 33.5072 89.921 33.2483ZM94.3879 32.2707L93.2145 32.4302C92.8904 32.4718 92.6583 32.5493 92.5168 32.6625C92.3759 32.7757 92.3052 32.9248 92.3052 33.1097C92.3052 33.3408 92.3837 33.5061 92.5415 33.6055C92.6986 33.7048 92.8933 33.7545 93.124 33.7545C93.5174 33.7545 93.8267 33.6448 94.051 33.4252C94.2754 33.2056 94.3879 32.9571 94.3879 32.6798V32.2707ZM93.0688 34.1636C92.6569 34.1636 92.3455 34.07 92.1353 33.8828C91.9245 33.6956 91.819 33.4379 91.819 33.1097C91.819 32.5134 92.2634 32.1575 93.1523 32.0419L94.3879 31.8824V31.7854C94.3879 31.1891 94.0546 30.891 93.3879 30.891C92.8232 30.891 92.4948 31.1244 92.4021 31.5913H91.9096C91.9605 31.2492 92.107 30.9765 92.3505 30.7731C92.5932 30.5697 92.9463 30.468 93.4092 30.468C93.8996 30.468 94.2676 30.587 94.5124 30.8251C94.758 31.0631 94.8804 31.3856 94.8804 31.7923V33.3385C94.8804 33.6852 94.9151 33.9325 94.9844 34.0804H94.499C94.448 33.9417 94.4226 33.7407 94.4226 33.4772C94.1543 33.9348 93.7028 34.1636 93.0688 34.1636ZM99.0975 32.0211V34.0804H98.6042V31.924C98.6042 31.6051 98.5313 31.3543 98.3855 31.1718C98.2398 30.9892 98.0168 30.8979 97.7161 30.8979C97.4196 30.8979 97.1768 30.995 96.9872 31.1891C96.7968 31.3832 96.702 31.6467 96.702 31.9796V34.0804H96.2094V30.5512H96.6815V31.092C96.9079 30.676 97.2809 30.468 97.7989 30.468C98.3594 30.468 98.7429 30.6945 98.9517 31.1475C99.0628 30.958 99.2241 30.7973 99.4371 30.6656C99.6502 30.5339 99.9021 30.468 100.194 30.468C100.606 30.468 100.924 30.5963 101.148 30.8528C101.373 31.1093 101.485 31.4341 101.485 31.827V34.0804H100.992V31.924C100.992 31.6098 100.919 31.3602 100.773 31.1753C100.627 30.9904 100.407 30.8979 100.111 30.8979C99.8193 30.8979 99.5773 30.995 99.3855 31.1891C99.193 31.3832 99.0975 31.6606 99.0975 32.0211ZM105.98 32.4579H103.043C103.066 32.8277 103.191 33.1305 103.418 33.3662C103.645 33.602 103.939 33.7199 104.3 33.7199C104.564 33.7199 104.795 33.6517 104.994 33.5153C105.193 33.379 105.331 33.1999 105.41 32.9779H105.924C105.818 33.3293 105.621 33.6147 105.334 33.8343C105.047 34.0538 104.7 34.1636 104.293 34.1636C103.755 34.1636 103.331 33.9845 103.019 33.6262C102.707 33.268 102.55 32.8301 102.55 32.3123C102.55 31.8038 102.711 31.3693 103.033 31.0088C103.354 30.6483 103.772 30.468 104.285 30.468C104.799 30.468 105.211 30.6402 105.521 30.9845C105.831 31.3289 105.986 31.7576 105.986 32.2707L105.98 32.4579ZM104.285 30.9118C103.952 30.9118 103.675 31.0192 103.453 31.2341C103.23 31.4491 103.099 31.723 103.057 32.0558H105.493C105.461 31.7091 105.337 31.4318 105.122 31.2237C104.907 31.0158 104.628 30.9118 104.285 30.9118ZM108.211 34.1636C107.734 34.1636 107.379 34.0515 107.145 33.8273C106.912 33.6031 106.783 33.32 106.76 32.9779H107.26C107.278 33.2137 107.367 33.3986 107.527 33.5326C107.687 33.6667 107.914 33.7338 108.211 33.7338C108.502 33.7338 108.73 33.6794 108.895 33.5708C109.059 33.4621 109.141 33.3177 109.141 33.1374C109.141 32.9525 109.066 32.815 108.915 32.7249C108.765 32.6348 108.583 32.5735 108.37 32.5411C108.157 32.5088 107.943 32.4695 107.728 32.4232C107.513 32.377 107.33 32.28 107.18 32.1321C107.029 31.9841 106.954 31.7762 106.954 31.508C106.954 31.2215 107.072 30.9765 107.308 30.7731C107.544 30.5697 107.863 30.468 108.266 30.468C108.711 30.468 109.039 30.5813 109.252 30.8077C109.465 31.0342 109.585 31.2931 109.613 31.5843H109.12C109.097 31.3809 109.013 31.2157 108.87 31.0885C108.727 30.9615 108.521 30.8979 108.252 30.8979C107.989 30.8979 107.786 30.9533 107.645 31.0643C107.504 31.1753 107.433 31.3162 107.433 31.4872C107.433 31.6398 107.488 31.76 107.597 31.8478C107.705 31.9356 107.84 31.9922 108.002 32.0176C108.164 32.0431 108.339 32.0766 108.527 32.1182C108.714 32.1598 108.889 32.206 109.051 32.2569C109.212 32.3077 109.348 32.4071 109.456 32.555C109.565 32.7029 109.62 32.8924 109.62 33.1236C109.62 33.4102 109.498 33.6552 109.255 33.8586C109.013 34.0619 108.664 34.1636 108.211 34.1636Z" stroke="black" stroke-width="0.6"/>
</g>
<mask id="mask1_8661_2757" style="mask-type:alpha" maskUnits="userSpaceOnUse" x="38" y="28" width="72" height="8">
<g opacity="0.8">
<path opacity="0.8" d="M38.9828 29.1576L40.7669 31.4526L42.5578 29.1576H43.0159V34.0804H42.5092V30.0173L40.7807 32.2083H40.753L39.0314 30.0173V34.0804H38.5247V29.1576H38.9828ZM46.7952 32.2707L45.6221 32.4302C45.2981 32.4718 45.0656 32.5493 44.9245 32.6625C44.7833 32.7757 44.7127 32.9248 44.7127 33.1097C44.7127 33.3408 44.7914 33.5061 44.9487 33.6055C45.1061 33.7048 45.3004 33.7545 45.5319 33.7545C45.9252 33.7545 46.2341 33.6448 46.4586 33.4252C46.683 33.2056 46.7952 32.9571 46.7952 32.6798V32.2707ZM45.4763 34.1636C45.0644 34.1636 44.7532 34.07 44.5427 33.8828C44.3321 33.6956 44.2268 33.4379 44.2268 33.1097C44.2268 32.5134 44.671 32.1575 45.5596 32.0419L46.7952 31.8824V31.7854C46.7952 31.1891 46.462 30.891 45.7956 30.891C45.231 30.891 44.9025 31.1244 44.8099 31.5913H44.3171C44.3679 31.2492 44.5149 30.9765 44.7578 30.7731C45.0008 30.5697 45.3537 30.468 45.8164 30.468C46.307 30.468 46.6749 30.587 46.9202 30.8251C47.1655 31.0631 47.2881 31.3856 47.2881 31.7923V33.3385C47.2881 33.6852 47.3228 33.9325 47.3922 34.0804H46.9063C46.8554 33.9417 46.83 33.7407 46.83 33.4772C46.5615 33.9348 46.1103 34.1636 45.4763 34.1636ZM51.0604 30.5512H51.7199L50.2552 32.0073L51.831 34.0804H51.2201L49.9081 32.3401L49.1098 33.1166V34.0804H48.6169V28.8802H49.1098V32.5134L51.0604 30.5512ZM52.8544 29.6776C52.7479 29.6776 52.6623 29.6464 52.5975 29.584C52.5328 29.5216 52.5004 29.4395 52.5004 29.3378C52.5004 29.2362 52.5328 29.1518 52.5975 29.0847C52.6623 29.0177 52.7479 28.9842 52.8544 28.9842C52.9562 28.9842 53.0407 29.0177 53.1078 29.0847C53.1748 29.1518 53.2084 29.2362 53.2084 29.3378C53.2084 29.4395 53.1748 29.5216 53.1078 29.584C53.0407 29.6464 52.9562 29.6776 52.8544 29.6776ZM52.6045 34.0804V30.5512H53.0973V34.0804H52.6045ZM54.9329 30.5512V31.092C55.0162 30.9348 55.1551 30.7916 55.3494 30.6621C55.5438 30.5327 55.7937 30.468 56.0991 30.468C56.5249 30.468 56.8546 30.5928 57.0883 30.8424C57.322 31.092 57.4389 31.4202 57.4389 31.827V34.0804H56.946V31.924C56.946 31.5959 56.8685 31.3428 56.7135 31.1649C56.5585 30.9869 56.3259 30.8979 56.0158 30.8979C55.7058 30.8979 55.4512 30.9926 55.2522 31.1822C55.0532 31.3717 54.9537 31.6375 54.9537 31.9796V34.0804H54.4609V30.5512H54.9329ZM61.4958 31.196V30.5512H61.9679V33.907C61.9679 34.4063 61.8255 34.8131 61.5409 35.1274C61.2564 35.4417 60.848 35.5989 60.3157 35.5989C59.853 35.5989 59.4862 35.4879 59.2155 35.266C58.9447 35.0442 58.7747 34.7807 58.7053 34.4756H59.212C59.2814 34.6836 59.4145 34.8489 59.6112 34.9713C59.8078 35.0939 60.0473 35.1551 60.3296 35.1551C60.686 35.1551 60.9659 35.0499 61.1695 34.8396C61.3732 34.6293 61.475 34.3554 61.475 34.018V33.3593C61.2019 33.8354 60.7646 34.0735 60.163 34.0735C59.654 34.0735 59.249 33.8978 58.9482 33.5465C58.6474 33.1952 58.497 32.77 58.497 32.2707C58.497 31.7715 58.6474 31.3463 58.9482 30.995C59.249 30.6436 59.654 30.468 60.163 30.468C60.7785 30.468 61.2227 30.7107 61.4958 31.196ZM61.1557 33.2483C61.3825 32.9895 61.4958 32.6636 61.4958 32.2707C61.4958 31.8778 61.3836 31.5531 61.1591 31.2966C60.9347 31.0401 60.6328 30.9118 60.2532 30.9118C59.8738 30.9118 59.5695 31.0412 59.3404 31.3001C59.1113 31.5589 58.9968 31.8824 58.9968 32.2707C58.9968 32.659 59.1113 32.9838 59.3404 33.2449C59.5695 33.5061 59.8738 33.6366 60.2532 33.6366C60.6328 33.6366 60.9335 33.5072 61.1557 33.2483ZM65.7432 31.1891C66.0116 30.7084 66.4512 30.468 67.0621 30.468C67.585 30.468 67.9946 30.6471 68.2908 31.0054C68.587 31.3636 68.735 31.8016 68.735 32.3193C68.735 32.8323 68.587 33.268 68.2908 33.6262C67.9946 33.9845 67.585 34.1636 67.0621 34.1636C66.4419 34.1636 65.9954 33.9186 65.7224 33.4287V34.0804H65.2503V28.8802H65.7432V31.1891ZM65.7293 32.3193C65.7293 32.7168 65.8403 33.0496 66.0625 33.3177C66.2846 33.5858 66.5877 33.7199 66.9718 33.7199C67.356 33.7199 67.6625 33.5858 67.8916 33.3177C68.1207 33.0496 68.2353 32.7168 68.2353 32.3193C68.2353 31.9171 68.1207 31.582 67.8916 31.3139C67.6625 31.0458 67.356 30.9118 66.9718 30.9118C66.5877 30.9118 66.2846 31.0446 66.0625 31.3105C65.8403 31.5762 65.7293 31.9125 65.7293 32.3193ZM72.9934 32.4579H70.057C70.0801 32.8277 70.2051 33.1305 70.4318 33.3662C70.6586 33.602 70.9525 33.7199 71.3134 33.7199C71.5773 33.7199 71.8087 33.6517 72.0076 33.5153C72.2065 33.379 72.3452 33.1999 72.4244 32.9779H72.9375C72.8313 33.3293 72.6346 33.6147 72.348 33.8343C72.0607 34.0538 71.7139 34.1636 71.3063 34.1636C70.7699 34.1636 70.3451 33.9845 70.0327 33.6262C69.7202 33.268 69.5641 32.8301 69.5641 32.3123C69.5641 31.8038 69.7249 31.3693 70.0466 31.0088C70.3682 30.6483 70.7861 30.468 71.2992 30.468C71.813 30.468 72.2249 30.6402 72.5348 30.9845C72.8455 31.3289 73.0005 31.7576 73.0005 32.2707L72.9934 32.4579ZM71.2992 30.9118C70.9666 30.9118 70.6886 31.0192 70.4665 31.2341C70.2444 31.4491 70.1125 31.723 70.0708 32.0558H72.5072C72.4747 31.7091 72.3515 31.4318 72.1357 31.2237C71.9206 31.0158 71.6417 30.9118 71.2992 30.9118ZM75.5297 33.6159V34.0596C75.4469 34.0827 75.3216 34.0943 75.1553 34.0943C74.5446 34.0943 74.2389 33.7731 74.2389 33.1305V30.9672H73.5652V30.5512H74.2389V29.5459H74.7314V30.5512H75.5439V30.9672H74.7314V33.0958C74.7314 33.4656 74.8935 33.6505 75.2176 33.6505L75.5297 33.6159ZM77.8445 33.6159V34.0596C77.761 34.0827 77.6365 34.0943 77.4694 34.0943C76.8587 34.0943 76.5537 33.7731 76.5537 33.1305V30.9672H75.88V30.5512H76.5537V29.5459H77.0463V30.5512H77.8587V30.9672H77.0463V33.0958C77.0463 33.4656 77.2083 33.6505 77.5324 33.6505L77.8445 33.6159ZM81.8875 32.4579H78.9513C78.9747 32.8277 79.0992 33.1305 79.3264 33.3662C79.5528 33.602 79.8465 33.7199 80.2074 33.7199C80.4714 33.7199 80.7028 33.6517 80.9017 33.5153C81.1012 33.379 81.2399 33.1999 81.3185 32.9779H81.8323C81.7254 33.3293 81.5287 33.6147 81.2421 33.8343C80.9555 34.0538 80.608 34.1636 80.2011 34.1636C79.664 34.1636 79.2393 33.9845 78.9273 33.6262C78.6145 33.268 78.4581 32.8301 78.4581 32.3123C78.4581 31.8038 78.6194 31.3693 78.9407 31.0088C79.2627 30.6483 79.6802 30.468 80.194 30.468C80.7078 30.468 81.1196 30.6402 81.4296 30.9845C81.7396 31.3289 81.8946 31.7576 81.8946 32.2707L81.8875 32.4579ZM80.194 30.9118C79.8607 30.9118 79.5833 31.0192 79.3611 31.2341C79.1389 31.4491 79.0065 31.723 78.9655 32.0558H81.402C81.3695 31.7091 81.2456 31.4318 81.0305 31.2237C80.8153 31.0158 80.5365 30.9118 80.194 30.9118ZM84.709 30.5235V30.988C84.6531 30.9834 84.5958 30.9811 84.5356 30.9811C84.2207 30.9811 83.9659 31.0747 83.772 31.2619C83.5774 31.4491 83.4805 31.7207 83.4805 32.0766V34.0804H82.9872V30.5512H83.4592V31.0989C83.5427 30.9464 83.6793 30.8112 83.869 30.6933C84.0586 30.5755 84.2992 30.5166 84.5908 30.5166L84.709 30.5235ZM90.2614 31.196V30.5512H90.7334V33.907C90.7334 34.4063 90.5912 34.8131 90.3067 35.1274C90.0215 35.4417 89.6132 35.5989 89.081 35.5989C88.6182 35.5989 88.2516 35.4879 87.9813 35.266C87.7102 35.0442 87.5404 34.7807 87.471 34.4756H87.9777C88.0471 34.6836 88.1801 34.8489 88.3769 34.9713C88.5736 35.0939 88.8128 35.1551 89.0952 35.1551C89.4511 35.1551 89.7314 35.0499 89.9352 34.8396C90.139 34.6293 90.2402 34.3554 90.2402 34.018V33.3593C89.9677 33.8354 89.5304 34.0735 88.9289 34.0735C88.4193 34.0735 88.0145 33.8978 87.7138 33.5465C87.413 33.1952 87.2623 32.77 87.2623 32.2707C87.2623 31.7715 87.413 31.3463 87.7138 30.995C88.0145 30.6436 88.4193 30.468 88.9289 30.468C89.5438 30.468 89.9882 30.7107 90.2614 31.196ZM89.921 33.2483C90.1482 32.9895 90.2614 32.6636 90.2614 32.2707C90.2614 31.8778 90.1489 31.5531 89.9246 31.2966C89.7002 31.0401 89.398 30.9118 89.0187 30.9118C88.6394 30.9118 88.3351 31.0412 88.1058 31.3001C87.8765 31.5589 87.7626 31.8824 87.7626 32.2707C87.7626 32.659 87.8765 32.9838 88.1058 33.2449C88.3351 33.5061 88.6394 33.6366 89.0187 33.6366C89.398 33.6366 89.6988 33.5072 89.921 33.2483ZM94.3879 32.2707L93.2145 32.4302C92.8904 32.4718 92.6583 32.5493 92.5168 32.6625C92.3759 32.7757 92.3052 32.9248 92.3052 33.1097C92.3052 33.3408 92.3837 33.5061 92.5415 33.6055C92.6986 33.7048 92.8933 33.7545 93.124 33.7545C93.5174 33.7545 93.8267 33.6448 94.051 33.4252C94.2754 33.2056 94.3879 32.9571 94.3879 32.6798V32.2707ZM93.0688 34.1636C92.6569 34.1636 92.3455 34.07 92.1353 33.8828C91.9244 33.6956 91.819 33.4379 91.819 33.1097C91.819 32.5134 92.2634 32.1575 93.1523 32.0419L94.3879 31.8824V31.7854C94.3879 31.1891 94.0546 30.891 93.3879 30.891C92.8232 30.891 92.4948 31.1244 92.4021 31.5913H91.9096C91.9605 31.2492 92.107 30.9765 92.3505 30.7731C92.5932 30.5697 92.9463 30.468 93.4092 30.468C93.8996 30.468 94.2676 30.587 94.5124 30.8251C94.758 31.0631 94.8804 31.3856 94.8804 31.7923V33.3385C94.8804 33.6852 94.9151 33.9325 94.9844 34.0804H94.499C94.448 33.9417 94.4226 33.7407 94.4226 33.4772C94.1543 33.9348 93.7028 34.1636 93.0688 34.1636ZM99.0975 32.0211V34.0804H98.6042V31.924C98.6042 31.6051 98.5313 31.3543 98.3855 31.1718C98.2398 30.9892 98.0168 30.8979 97.7161 30.8979C97.4196 30.8979 97.1768 30.995 96.9872 31.1891C96.7968 31.3832 96.702 31.6467 96.702 31.9796V34.0804H96.2094V30.5512H96.6815V31.092C96.9079 30.676 97.2809 30.468 97.7989 30.468C98.3594 30.468 98.7429 30.6945 98.9517 31.1475C99.0628 30.958 99.2241 30.7973 99.4371 30.6656C99.6502 30.5339 99.9021 30.468 100.194 30.468C100.606 30.468 100.924 30.5963 101.148 30.8528C101.373 31.1093 101.485 31.4341 101.485 31.827V34.0804H100.992V31.924C100.992 31.6098 100.919 31.3602 100.773 31.1753C100.627 30.9904 100.407 30.8979 100.111 30.8979C99.8193 30.8979 99.5773 30.995 99.3855 31.1891C99.193 31.3832 99.0975 31.6606 99.0975 32.0211ZM105.98 32.4579H103.043C103.066 32.8277 103.191 33.1305 103.418 33.3662C103.645 33.602 103.939 33.7199 104.3 33.7199C104.564 33.7199 104.795 33.6517 104.994 33.5153C105.193 33.379 105.331 33.1999 105.41 32.9779H105.924C105.818 33.3293 105.621 33.6147 105.334 33.8343C105.047 34.0538 104.7 34.1636 104.293 34.1636C103.755 34.1636 103.331 33.9845 103.019 33.6262C102.707 33.268 102.55 32.8301 102.55 32.3123C102.55 31.8038 102.711 31.3693 103.033 31.0088C103.354 30.6483 103.772 30.468 104.285 30.468C104.799 30.468 105.211 30.6402 105.521 30.9845C105.831 31.3289 105.986 31.7576 105.986 32.2707L105.98 32.4579ZM104.285 30.9118C103.952 30.9118 103.675 31.0192 103.453 31.2341C103.23 31.4491 103.099 31.723 103.057 32.0558H105.493C105.461 31.7091 105.337 31.4318 105.122 31.2237C104.907 31.0158 104.628 30.9118 104.285 30.9118ZM108.211 34.1636C107.734 34.1636 107.379 34.0515 107.145 33.8273C106.912 33.6031 106.783 33.32 106.76 32.9779H107.26C107.278 33.2137 107.367 33.3986 107.527 33.5326C107.687 33.6667 107.914 33.7338 108.211 33.7338C108.502 33.7338 108.73 33.6794 108.895 33.5708C109.059 33.4621 109.141 33.3177 109.141 33.1374C109.141 32.9525 109.066 32.815 108.915 32.7249C108.765 32.6348 108.583 32.5735 108.37 32.5411C108.157 32.5088 107.943 32.4695 107.728 32.4232C107.513 32.377 107.33 32.28 107.18 32.1321C107.029 31.9841 106.954 31.7762 106.954 31.508C106.954 31.2215 107.072 30.9765 107.308 30.7731C107.544 30.5697 107.863 30.468 108.266 30.468C108.711 30.468 109.039 30.5813 109.252 30.8077C109.465 31.0342 109.585 31.2931 109.613 31.5843H109.12C109.097 31.3809 109.013 31.2157 108.87 31.0885C108.727 30.9615 108.521 30.8979 108.252 30.8979C107.989 30.8979 107.786 30.9533 107.645 31.0643C107.504 31.1753 107.433 31.3162 107.433 31.4872C107.433 31.6398 107.488 31.76 107.597 31.8478C107.705 31.9356 107.84 31.9922 108.002 32.0176C108.164 32.0431 108.339 32.0766 108.527 32.1182C108.714 32.1598 108.889 32.206 109.051 32.2569C109.212 32.3077 109.348 32.4071 109.456 32.555C109.565 32.7029 109.62 32.8924 109.62 33.1236C109.62 33.4102 109.498 33.6552 109.255 33.8586C109.013 34.0619 108.664 34.1636 108.211 34.1636Z" fill="white"/>
</g>
</mask>
<g mask="url(#mask1_8661_2757)">
</g>
</g>
</g>
<path d="M38.9828 29.1577L40.7669 31.4527L42.5578 29.1577H43.0159V34.0805H42.5092V30.0175L40.7807 32.2084H40.753L39.0314 30.0175V34.0805H38.5247V29.1577H38.9828ZM46.7952 32.2709L45.6221 32.4303C45.2981 32.4719 45.0656 32.5494 44.9245 32.6626C44.7833 32.7759 44.7127 32.9249 44.7127 33.1098C44.7127 33.3409 44.7914 33.5062 44.9487 33.6056C45.1061 33.705 45.3005 33.7547 45.5319 33.7547C45.9252 33.7547 46.2341 33.6449 46.4586 33.4253C46.683 33.2057 46.7952 32.9573 46.7952 32.68V32.2709ZM45.4763 34.1637C45.0644 34.1637 44.7532 34.0701 44.5427 33.8829C44.3321 33.6957 44.2268 33.438 44.2268 33.1098C44.2268 32.5135 44.671 32.1576 45.5596 32.042L46.7952 31.8826V31.7855C46.7952 31.1892 46.462 30.8911 45.7956 30.8911C45.231 30.8911 44.9025 31.1245 44.8099 31.5914H44.3171C44.3679 31.2493 44.5149 30.9766 44.7578 30.7732C45.0008 30.5698 45.3537 30.4681 45.8164 30.4681C46.307 30.4681 46.6749 30.5872 46.9202 30.8252C47.1655 31.0632 47.2881 31.3857 47.2881 31.7924V33.3387C47.2881 33.6853 47.3228 33.9326 47.3922 34.0805H46.9063C46.8554 33.9418 46.83 33.7408 46.83 33.4773C46.5615 33.9349 46.1103 34.1637 45.4763 34.1637ZM51.0604 30.5513H51.7199L50.2552 32.0074L51.831 34.0805H51.2201L49.9081 32.3402L49.1098 33.1167V34.0805H48.6169V28.8803H49.1098V32.5135L51.0604 30.5513ZM52.8544 29.6777C52.7479 29.6777 52.6623 29.6465 52.5975 29.5841C52.5328 29.5217 52.5004 29.4396 52.5004 29.338C52.5004 29.2363 52.5328 29.1519 52.5975 29.0849C52.6623 29.0179 52.7479 28.9843 52.8544 28.9843C52.9562 28.9843 53.0407 29.0179 53.1078 29.0849C53.1748 29.1519 53.2084 29.2363 53.2084 29.338C53.2084 29.4396 53.1748 29.5217 53.1078 29.5841C53.0407 29.6465 52.9562 29.6777 52.8544 29.6777ZM52.6045 34.0805V30.5513H53.0974V34.0805H52.6045ZM54.9329 30.5513V31.0921C55.0162 30.9349 55.1551 30.7917 55.3494 30.6623C55.5438 30.5328 55.7937 30.4681 56.0991 30.4681C56.5249 30.4681 56.8546 30.5929 57.0883 30.8425C57.322 31.0921 57.4389 31.4204 57.4389 31.8271V34.0805H56.9461V31.9241C56.9461 31.596 56.8685 31.3429 56.7135 31.165C56.5585 30.987 56.3259 30.898 56.0158 30.898C55.7058 30.898 55.4512 30.9928 55.2522 31.1823C55.0532 31.3718 54.9537 31.6376 54.9537 31.9797V34.0805H54.4609V30.5513H54.9329ZM61.4959 31.1962V30.5513H61.9679V33.9072C61.9679 34.4064 61.8256 34.8132 61.5409 35.1275C61.2564 35.4418 60.848 35.599 60.3157 35.599C59.853 35.599 59.4862 35.4881 59.2155 35.2661C58.9447 35.0443 58.7747 34.7808 58.7053 34.4757H59.212C59.2814 34.6838 59.4145 34.849 59.6112 34.9715C59.8078 35.094 60.0473 35.1552 60.3296 35.1552C60.686 35.1552 60.9659 35.0501 61.1695 34.8398C61.3732 34.6294 61.475 34.3555 61.475 34.0181V33.3594C61.202 33.8355 60.7646 34.0736 60.163 34.0736C59.654 34.0736 59.249 33.8979 58.9482 33.5466C58.6474 33.1953 58.497 32.7701 58.497 32.2709C58.497 31.7716 58.6474 31.3464 58.9482 30.9951C59.249 30.6438 59.654 30.4681 60.163 30.4681C60.7785 30.4681 61.2228 30.7108 61.4959 31.1962ZM61.1557 33.2485C61.3825 32.9897 61.4959 32.6637 61.4959 32.2709C61.4959 31.8779 61.3836 31.5532 61.1591 31.2967C60.9347 31.0402 60.6328 30.9119 60.2532 30.9119C59.8738 30.9119 59.5695 31.0413 59.3404 31.3002C59.1113 31.559 58.9968 31.8826 58.9968 32.2709C58.9968 32.6592 59.1113 32.9839 59.3404 33.245C59.5695 33.5062 59.8738 33.6368 60.2532 33.6368C60.6328 33.6368 60.9335 33.5073 61.1557 33.2485ZM65.7432 31.1892C66.0116 30.7085 66.4512 30.4681 67.0621 30.4681C67.5851 30.4681 67.9946 30.6472 68.2908 31.0055C68.587 31.3637 68.735 31.8017 68.735 32.3194C68.735 32.8325 68.587 33.2681 68.2908 33.6264C67.9946 33.9846 67.5851 34.1637 67.0621 34.1637C66.4419 34.1637 65.9954 33.9188 65.7224 33.4288V34.0805H65.2503V28.8803H65.7432V31.1892ZM65.7293 32.3194C65.7293 32.7169 65.8404 33.0497 66.0625 33.3178C66.2846 33.5859 66.5877 33.72 66.9719 33.72C67.356 33.72 67.6625 33.5859 67.8916 33.3178C68.1207 33.0497 68.2353 32.7169 68.2353 32.3194C68.2353 31.9172 68.1207 31.5821 67.8916 31.314C67.6625 31.0459 67.356 30.9119 66.9719 30.9119C66.5877 30.9119 66.2846 31.0447 66.0625 31.3106C65.8404 31.5764 65.7293 31.9126 65.7293 32.3194ZM72.9934 32.458H70.057C70.0801 32.8278 70.2051 33.1306 70.4318 33.3664C70.6586 33.6021 70.9525 33.72 71.3134 33.72C71.5773 33.72 71.8088 33.6518 72.0076 33.5154C72.2065 33.3791 72.3452 33.2 72.4244 32.9781H72.9375C72.8313 33.3294 72.6346 33.6148 72.348 33.8344C72.0607 34.054 71.7139 34.1637 71.3063 34.1637C70.7699 34.1637 70.3451 33.9846 70.0327 33.6264C69.7203 33.2681 69.5641 32.8302 69.5641 32.3124C69.5641 31.804 69.7249 31.3695 70.0466 31.0089C70.3682 30.6484 70.7862 30.4681 71.2992 30.4681C71.813 30.4681 72.2249 30.6403 72.5348 30.9846C72.8455 31.329 73.0005 31.7578 73.0005 32.2709L72.9934 32.458ZM71.2992 30.9119C70.9666 30.9119 70.6886 31.0193 70.4665 31.2343C70.2444 31.4492 70.1125 31.7231 70.0708 32.0559H72.5072C72.4747 31.7092 72.3515 31.4319 72.1357 31.2239C71.9206 31.0159 71.6417 30.9119 71.2992 30.9119ZM75.5297 33.616V34.0597C75.4469 34.0828 75.3217 34.0944 75.1554 34.0944C74.5446 34.0944 74.2389 33.7732 74.2389 33.1306V30.9673H73.5652V30.5513H74.2389V29.546H74.7315V30.5513H75.5439V30.9673H74.7315V33.096C74.7315 33.4657 74.8935 33.6506 75.2176 33.6506L75.5297 33.616ZM77.8445 33.616V34.0597C77.761 34.0828 77.6365 34.0944 77.4695 34.0944C76.8587 34.0944 76.5537 33.7732 76.5537 33.1306V30.9673H75.88V30.5513H76.5537V29.546H77.0463V30.5513H77.8587V30.9673H77.0463V33.096C77.0463 33.4657 77.2083 33.6506 77.5324 33.6506L77.8445 33.616ZM81.8875 32.458H78.9513C78.9747 32.8278 79.0992 33.1306 79.3264 33.3664C79.5529 33.6021 79.8466 33.72 80.2075 33.72C80.4714 33.72 80.7028 33.6518 80.9017 33.5154C81.1013 33.3791 81.24 33.2 81.3185 32.9781H81.8323C81.7254 33.3294 81.5287 33.6148 81.2421 33.8344C80.9555 34.054 80.608 34.1637 80.2011 34.1637C79.664 34.1637 79.2394 33.9846 78.9273 33.6264C78.6145 33.2681 78.4581 32.8302 78.4581 32.3124C78.4581 31.804 78.6194 31.3695 78.9407 31.0089C79.2627 30.6484 79.6802 30.4681 80.194 30.4681C80.7078 30.4681 81.1197 30.6403 81.4296 30.9846C81.7396 31.329 81.8946 31.7578 81.8946 32.2709L81.8875 32.458ZM80.194 30.9119C79.8607 30.9119 79.5833 31.0193 79.3611 31.2343C79.1389 31.4492 79.0065 31.7231 78.9655 32.0559H81.402C81.3695 31.7092 81.2456 31.4319 81.0305 31.2239C80.8154 31.0159 80.5365 30.9119 80.194 30.9119ZM84.709 30.5236V30.9881C84.6531 30.9835 84.5958 30.9812 84.5356 30.9812C84.2207 30.9812 83.9659 31.0748 83.772 31.262C83.5774 31.4492 83.4805 31.7208 83.4805 32.0767V34.0805H82.9872V30.5513H83.4592V31.0991C83.5427 30.9466 83.6793 30.8114 83.869 30.6935C84.0586 30.5756 84.2993 30.5167 84.5908 30.5167L84.709 30.5236ZM90.2614 31.1962V30.5513H90.7335V33.9072C90.7335 34.4064 90.5912 34.8132 90.3067 35.1275C90.0215 35.4418 89.6132 35.599 89.081 35.599C88.6182 35.599 88.2516 35.4881 87.9813 35.2661C87.7103 35.0443 87.5404 34.7808 87.4711 34.4757H87.9778C88.0471 34.6838 88.1802 34.849 88.3769 34.9715C88.5736 35.094 88.8128 35.1552 89.0952 35.1552C89.4511 35.1552 89.7314 35.0501 89.9352 34.8398C90.139 34.6294 90.2402 34.3555 90.2402 34.0181V33.3594C89.9677 33.8355 89.5304 34.0736 88.9289 34.0736C88.4193 34.0736 88.0146 33.8979 87.7138 33.5466C87.413 33.1953 87.2623 32.7701 87.2623 32.2709C87.2623 31.7716 87.413 31.3464 87.7138 30.9951C88.0146 30.6438 88.4193 30.4681 88.9289 30.4681C89.5438 30.4681 89.9883 30.7108 90.2614 31.1962ZM89.921 33.2485C90.1482 32.9897 90.2614 32.6637 90.2614 32.2709C90.2614 31.8779 90.1489 31.5532 89.9246 31.2967C89.7002 31.0402 89.3981 30.9119 89.0188 30.9119C88.6394 30.9119 88.3351 31.0413 88.1058 31.3002C87.8766 31.559 87.7626 31.8826 87.7626 32.2709C87.7626 32.6592 87.8766 32.9839 88.1058 33.245C88.3351 33.5062 88.6394 33.6368 89.0188 33.6368C89.3981 33.6368 89.6988 33.5073 89.921 33.2485ZM94.3879 32.2709L93.2146 32.4303C92.8904 32.4719 92.6583 32.5494 92.5168 32.6626C92.376 32.7759 92.3052 32.9249 92.3052 33.1098C92.3052 33.3409 92.3838 33.5062 92.5416 33.6056C92.6987 33.705 92.8933 33.7547 93.124 33.7547C93.5175 33.7547 93.8267 33.6449 94.051 33.4253C94.2754 33.2057 94.3879 32.9573 94.3879 32.68V32.2709ZM93.0688 34.1637C92.6569 34.1637 92.3455 34.0701 92.1354 33.8829C91.9245 33.6957 91.819 33.438 91.819 33.1098C91.819 32.5135 92.2634 32.1576 93.1523 32.042L94.3879 31.8826V31.7855C94.3879 31.1892 94.0546 30.8911 93.388 30.8911C92.8232 30.8911 92.4949 31.1245 92.4022 31.5914H91.9096C91.9606 31.2493 92.1071 30.9766 92.3505 30.7732C92.5932 30.5698 92.9464 30.4681 93.4092 30.4681C93.8996 30.4681 94.2676 30.5872 94.5124 30.8252C94.758 31.0632 94.8804 31.3857 94.8804 31.7924V33.3387C94.8804 33.6853 94.9151 33.9326 94.9845 34.0805H94.499C94.448 33.9418 94.4226 33.7408 94.4226 33.4773C94.1544 33.9349 93.7029 34.1637 93.0688 34.1637ZM99.0975 32.0213V34.0805H98.6042V31.9241C98.6042 31.6053 98.5313 31.3544 98.3856 31.1719C98.2398 30.9893 98.0169 30.898 97.7161 30.898C97.4196 30.898 97.1769 30.9951 96.9872 31.1892C96.7968 31.3833 96.702 31.6468 96.702 31.9797V34.0805H96.2095V30.5513H96.6815V31.0921C96.9079 30.6762 97.2809 30.4681 97.7989 30.4681C98.3594 30.4681 98.7429 30.6946 98.9517 31.1476C99.0628 30.9581 99.2242 30.7975 99.4372 30.6658C99.6502 30.534 99.9021 30.4681 100.194 30.4681C100.606 30.4681 100.924 30.5964 101.148 30.8529C101.373 31.1095 101.485 31.4342 101.485 31.8271V34.0805H100.992V31.9241C100.992 31.6099 100.919 31.3603 100.773 31.1754C100.627 30.9905 100.407 30.898 100.111 30.898C99.8193 30.898 99.5773 30.9951 99.3855 31.1892C99.193 31.3833 99.0975 31.6607 99.0975 32.0213ZM105.98 32.458H103.043C103.066 32.8278 103.191 33.1306 103.418 33.3664C103.645 33.6021 103.939 33.72 104.3 33.72C104.564 33.72 104.795 33.6518 104.994 33.5154C105.193 33.3791 105.331 33.2 105.41 32.9781H105.924C105.818 33.3294 105.621 33.6148 105.334 33.8344C105.047 34.054 104.7 34.1637 104.293 34.1637C103.755 34.1637 103.331 33.9846 103.019 33.6264C102.707 33.2681 102.55 32.8302 102.55 32.3124C102.55 31.804 102.711 31.3695 103.033 31.0089C103.354 30.6484 103.772 30.4681 104.285 30.4681C104.799 30.4681 105.211 30.6403 105.521 30.9846C105.831 31.329 105.986 31.7578 105.986 32.2709L105.98 32.458ZM104.285 30.9119C103.952 30.9119 103.675 31.0193 103.453 31.2343C103.23 31.4492 103.099 31.7231 103.057 32.0559H105.493C105.461 31.7092 105.337 31.4319 105.122 31.2239C104.907 31.0159 104.628 30.9119 104.285 30.9119ZM108.211 34.1637C107.734 34.1637 107.379 34.0516 107.145 33.8274C106.912 33.6032 106.783 33.3201 106.76 32.9781H107.26C107.278 33.2139 107.367 33.3987 107.527 33.5327C107.687 33.6668 107.914 33.7339 108.211 33.7339C108.503 33.7339 108.73 33.6795 108.895 33.5709C109.059 33.4623 109.141 33.3178 109.141 33.1375C109.141 32.9526 109.066 32.8152 108.915 32.725C108.765 32.6349 108.583 32.5736 108.37 32.5413C108.157 32.5089 107.943 32.4696 107.728 32.4234C107.513 32.3772 107.33 32.2801 107.18 32.1322C107.029 31.9842 106.954 31.7763 106.954 31.5081C106.954 31.2216 107.072 30.9766 107.308 30.7732C107.544 30.5698 107.863 30.4681 108.266 30.4681C108.711 30.4681 109.039 30.5814 109.252 30.8079C109.465 31.0343 109.585 31.2932 109.613 31.5844H109.12C109.097 31.3811 109.013 31.2158 108.87 31.0887C108.727 30.9616 108.521 30.898 108.252 30.898C107.989 30.898 107.786 30.9535 107.645 31.0644C107.504 31.1754 107.433 31.3163 107.433 31.4874C107.433 31.6399 107.488 31.7601 107.597 31.8479C107.705 31.9357 107.84 31.9923 108.002 32.0178C108.164 32.0432 108.339 32.0767 108.527 32.1183C108.714 32.1599 108.889 32.2061 109.051 32.257C109.212 32.3078 109.348 32.4072 109.456 32.5552C109.565 32.703 109.62 32.8925 109.62 33.1237C109.62 33.4103 109.498 33.6553 109.255 33.8587C109.013 34.062 108.664 34.1637 108.211 34.1637Z" fill="black"/>
<path d="M20.8777 4C17.9088 4 14.6878 4.69226 12.1737 5.72313C9.25239 6.92088 5.97183 8.67473 3.62425 10.9304C4.67702 10.2716 5.94865 9.65717 7.45248 9.14772C9.72299 8.37857 14.0986 6.64202 16.644 8.70392C19.1894 10.766 19.1053 15.4276 18.4963 18.9332C17.8872 22.4389 16.6427 26.9934 13.277 28.0823C9.91138 29.1711 6.37465 26.2414 4.14315 24.0166C3.38126 23.2571 2.54614 22.428 1.80011 21.5296C3.58569 24.435 6.71978 26.8546 8.58385 28.4166C14.9502 33.751 18.2577 35.9968 20.8163 34.9478C25.7032 32.9441 27.4751 26.9267 28.5197 22.1388C29.5644 17.3508 31.0902 9.88162 28.0643 6.41878C26.5531 4.68927 23.8413 4 20.8787 4C20.8783 4 20.8781 4 20.8777 4Z" fill="black"/>
<mask id="mask2_8661_2757" style="mask-type:alpha" maskUnits="userSpaceOnUse" x="0" y="4" width="31" height="32">
<path d="M12.7628 5.45575C14.8049 4.78168 17.5997 4 20.3271 4C20.5345 4 20.7412 4.00453 20.9475 4.01391C20.2392 4.12265 19.5466 4.25048 18.8925 4.36109C15.8331 4.87854 11.3923 6.12666 10.3407 9.54899C9.28922 12.9713 12.2516 16.6182 14.7319 19.1354C17.2122 21.6524 20.9268 24.3961 24.0511 23.4629C27.1756 22.5296 28.2836 17.8961 28.9651 15.5675C29.4841 13.7938 29.7149 12.1962 29.7436 10.8097C29.8439 11.18 29.9218 11.573 29.9753 11.9936C30.3315 14.7879 29.64 18.737 29.0214 21.4564C27.8027 26.8137 25.5201 33.7368 20.2412 35.14C14.9622 36.543 9.73909 31.7337 6.47357 28.1189C3.2081 24.5044 -0.980118 19.9168 0.205621 14.7051C0.826255 11.9765 4.89728 8.05241 12.7628 5.45575Z" fill="white"/>
</mask>
<g mask="url(#mask2_8661_2757)">
<path fill-rule="evenodd" clip-rule="evenodd" d="M42.0022 45.9502L-12.1882 35.4844L0.569363 -10.7417L54.7598 -0.275883L42.0022 45.9502Z" fill="#01F5FC"/>
</g>
<mask id="mask3_8661_2757" style="mask-type:alpha" maskUnits="userSpaceOnUse" x="0" y="4" width="31" height="32">
<path d="M12.7628 5.45575C14.8049 4.78168 17.5997 4 20.3271 4C20.5345 4 20.7412 4.00453 20.9475 4.01391C20.2392 4.12265 19.5466 4.25048 18.8925 4.36109C15.8331 4.87854 11.3923 6.12666 10.3407 9.54899C9.28922 12.9713 12.2516 16.6182 14.7319 19.1354C17.2122 21.6524 20.9268 24.3961 24.0511 23.4629C27.1756 22.5296 28.2836 17.8961 28.9651 15.5675C29.4841 13.7938 29.7149 12.1962 29.7436 10.8097C29.8439 11.18 29.9218 11.573 29.9753 11.9936C30.3315 14.7879 29.64 18.737 29.0214 21.4564C27.8027 26.8137 25.5201 33.7368 20.2412 35.14C14.9622 36.543 9.73909 31.7337 6.47357 28.1189C3.2081 24.5044 -0.980118 19.9168 0.205621 14.7051C0.826255 11.9765 4.89728 8.05241 12.7628 5.45575Z" fill="white"/>
</mask>
<g mask="url(#mask3_8661_2757)">
<path d="M-1.76355 0.771057V37.4975H36.7736V0.771057H-1.76355Z" fill="#808184"/>
</g>
<mask id="mask4_8661_2757" style="mask-type:alpha" maskUnits="userSpaceOnUse" x="2" y="20" width="21" height="16">
<path d="M21.8797 23.5789C22.6658 27.36 22.4583 31.1884 19.5583 33.7607C18.8368 34.4007 18.0171 34.9064 17.126 35.2992C12.9713 34.6827 9.0948 31.0166 6.47668 28.1185C5.04984 26.5391 3.44683 24.774 2.19293 22.8521C2.74534 22.9786 3.28946 23.0911 3.81408 23.1924C7.94397 23.9901 13.4819 24.318 16.0948 21.8559C16.3751 21.5917 16.6047 21.304 16.7905 20.998C18.3596 22.2544 20.1446 23.3043 21.8797 23.5789Z" fill="white"/>
</mask>
<g mask="url(#mask4_8661_2757)">
<path fill-rule="evenodd" clip-rule="evenodd" d="M58.9759 33.2805L3.12276 49.3685L-16.4044 1.92786L39.4487 -14.1602L58.9759 33.2805Z" fill="black"/>
</g>
<mask id="mask5_8661_2757" style="mask-type:alpha" maskUnits="userSpaceOnUse" x="2" y="19" width="23" height="17">
<path d="M21.8797 23.5791C26.1398 24.1233 24.7796 32.3449 21.8797 34.9171C21.1582 35.5571 18.6508 36.7363 17.126 35.2994C12.9713 34.6828 9.0948 31.0169 6.47668 28.1187C5.04984 26.5394 3.44683 24.7742 2.19293 22.8524C2.74534 22.9787 3.14804 21.5156 3.67266 21.6169C7.80258 22.4145 8.54883 21.7747 11.1617 19.3126C11.442 19.0484 16.6047 21.3043 16.7905 20.9983C18.3596 22.2546 20.1446 23.3045 21.8797 23.5791Z" fill="white"/>
</mask>
<g mask="url(#mask5_8661_2757)">
<path d="M-1.76355 8.45039V8.87511C-1.58795 8.73993 -1.41459 8.60943 -1.24473 8.48378C-0.644331 8.03999 -0.0152507 7.56102 0.642035 7.08972C-0.1969 7.48558 -1.0011 7.9491 -1.76355 8.45039ZM16.1483 12.5545C16.9193 14.8866 18.7075 19.3941 16.0947 21.8561C13.4818 24.3182 7.94385 23.9902 3.81397 23.1926C2.03333 22.8487 0.0280899 22.3754 -1.76355 21.6714V34.5438C-0.814187 34.7809 0.122501 34.9971 1.01967 35.205C6.64682 36.5092 15.034 37.774 19.5582 33.761C24.0826 29.7478 22.0533 22.6772 19.9219 17.4989C18.8399 14.8703 17.0566 11.164 14.9285 8.99437C14.6083 8.66788 14.2805 8.37755 13.9441 8.11849C14.7894 9.305 15.5611 10.7783 16.1483 12.5545Z" fill="black"/>
</g>
</svg>
