<svg width="120" height="40" viewBox="0 0 120 40" fill="none" xmlns="http://www.w3.org/2000/svg">
<path fill-rule="evenodd" clip-rule="evenodd" d="M65.8 0H55.9L57.6 20.2H60.8H64L65.8 0ZM78.3 7.9C71.7 7.9 67.4 9.6 66.7 14.5H74.9C75.2 13.3 76.3 12.9 78.3 12.9C80.9 12.9 81.5 13.8 81.5 15.7V16C68.4 15.4 65.6 18.1 65.6 22.8C65.6 26.9 68.6 28.9 74.3 28.9C77.9 28.9 80.2 27.7 81.6 26.4V28.4H90.8V15.5C90.7 9 84.9 7.9 78.3 7.9ZM81.6 22.8C80.6 23.7 79 24.4 77 24.4C75.8 24.4 74.4 24.1 74.4 22.6C74.4 20.5 76.9 20.4 81.5 20.6L81.6 22.8ZM42.3 7.9C48.3 7.9 55.6 11 55.1 20.2H37.9C38.4 22.1 39.8 23.4 42.5 23.4C44.4 23.4 45.6 22.7 46.4 21.6H54.8C53.5 27 48.1 28.8 42.5 28.8C35.9 28.8 29.1 26 29.1 18.3C29.1 10.6 35.9 7.9 42.3 7.9ZM46.4 16.3C45.9 14.5 44.6 13.3 42.3 13.3C39.7 13.3 38.4 14.5 37.9 16.3H46.4ZM39.2 35.9H34.9V37.5H36.9C36.7 38 36.2 38.5 35.2 38.5C33.9 38.5 33.1 37.8 33.1 36.5C33.1 35.2 33.8 34.6 35.1 34.6C36.1 34.6 36.5 34.9 36.8 35.4H39.1C38.7 33.7 37 33 35 33C32.9 33 30.7 33.9 30.7 36.5C30.7 39.1 32.8 40 35.1 40C37.7 40 39.4 38.8 39.2 35.9ZM49.6 39.9H52L48.9 33.2H46L42.9 39.9H45.3L45.7 38.9H49.2L49.6 39.9ZM46.3 37.3L47.3 34.9H47.7L48.6 37.3H46.3ZM78.1 38.3H73.7V37.2H77.8V35.7H73.7V34.8H78V33.3H71.4V40H78.1V38.3ZM87.1 35.7C86.1 35.6 85.4 35.5 85.4 35.1C85.4 34.7 85.9 34.6 86.8 34.6C87.7 34.6 88.2 34.8 88.2 35.3H90.5C90.5 34.1 89.7 33.1 86.8 33.1C84.2 33.1 83.1 33.9 83.1 35.2C83.1 36.5 83.8 37 85.9 37.3C86.3 37.4 86.6 37.4 86.9 37.4C88 37.6 88.4 37.6 88.4 38C88.4 38.4 87.9 38.5 87 38.5C86.1 38.5 85.3 38.3 85.3 37.7H83C83 39.1 84.1 40 86.9 40C89.5 40 90.9 39.3 90.9 37.7C90.9 36 89.5 35.9 87.4 35.7C87.3 35.7 87.2 35.7 87.1 35.7ZM62.4 33.2L60.8 37.6L59.2 33.2H56V39.9H58.3V35.6L59.9 39.9H61.9L63.5 35.6V39.9H65.8V33.2H62.4Z" fill="black"/>
<path fill-rule="evenodd" clip-rule="evenodd" d="M63.9 26C63.3 25.7 62.6 25.5 61.9 25.3C62.6 25.2 63.2 24.9 63.9 24.6C64.2 24.5001 64.4 24.2 64.4 23.9C64.4 23.5 64.1 23.2 63.7 23.1C63.5 23.1 63.4 23 63.3 22.9C63.2 22.8 63.1 22.6 63.1 22.5C63 22.1 62.7 21.8 62.3 21.8C62 21.8 61.7 22 61.6 22.3C61.3 22.9 61.1 23.6 60.9 24.3C60.8 23.6 60.5 23 60.2 22.3C60.1 22 59.8 21.8 59.5 21.8C59.1 21.8 58.8 22.1 58.7 22.5C58.7 22.7 58.6 22.8 58.5 22.9C58.4 23 58.2 23.1 58.1 23.1C57.7 23.2 57.4 23.5 57.4 23.9C57.4 24.2 57.6 24.5001 57.9 24.6C58.5 24.9 59.2 25.1 59.9 25.3C59.2 25.4 58.6 25.7 57.9 26C57.6 26.1 57.4 26.4001 57.4 26.7001C57.4 27.1001 57.7 27.4 58.1 27.5C58.3 27.5 58.4 27.6001 58.5 27.7001C58.6 27.8001 58.7 28.0001 58.7 28.1C58.8 28.5001 59.1 28.8 59.5 28.8C59.8 28.8 60.1 28.6 60.2 28.3C60.5 27.7 60.7 27 60.9 26.3C61 27 61.3 27.6 61.6 28.3C61.7 28.6 62 28.8 62.3 28.8C62.7 28.8 63 28.5001 63.1 28.1C63.1 27.9001 63.2 27.8001 63.3 27.7001C63.4 27.6001 63.6 27.5 63.7 27.5C64.1 27.4 64.4 27.1001 64.4 26.7001C64.4 26.4001 64.2 26.2 63.9 26Z" fill="black"/>
</svg>
