<svg width="32" height="32" viewBox="0 0 32 32" fill="none" xmlns="http://www.w3.org/2000/svg">
<rect width="32" height="32" rx="8" fill="white"/>
<g clip-path="url(#clip0_10115_409133)">
<path d="M7.08398 24.0512V26.6827C7.08398 26.8281 7.19772 26.9458 7.33812 26.9458H9.16009V26.3349H7.74818V25.6517H8.95901V25.0456H7.74818V24.3987H9.16009V23.7878H7.33812C7.19772 23.7878 7.08398 23.9056 7.08398 24.0509V24.0512Z" fill="#1D1D1B"/>
<path d="M11.9135 25.9731C11.9135 25.792 11.8801 25.6382 11.8131 25.5118C11.7459 25.3851 11.6441 25.2825 11.5073 25.2043C11.3701 25.126 11.1968 25.0702 10.987 25.037L10.6855 24.9871C10.6009 24.9719 10.5318 24.9525 10.4779 24.9283C10.4241 24.904 10.3846 24.8694 10.3598 24.8243C10.3351 24.779 10.3226 24.7204 10.3226 24.648C10.3226 24.5514 10.359 24.4762 10.432 24.4219C10.5049 24.3675 10.6156 24.3405 10.7642 24.3405C10.9215 24.3405 11.0518 24.3684 11.1555 24.4241C11.2589 24.4799 11.347 24.5514 11.4199 24.639L11.8613 24.1777C11.7358 24.036 11.5859 23.9265 11.411 23.8496C11.236 23.7727 11.0336 23.7341 10.8034 23.7341C10.5732 23.7341 10.3598 23.775 10.1892 23.8564C10.0189 23.9378 9.88775 24.0501 9.79578 24.1935C9.70409 24.3368 9.6581 24.5033 9.6581 24.6934C9.6581 24.8683 9.69157 25.0215 9.75851 25.1524C9.82544 25.2837 9.9283 25.3893 10.0668 25.469C10.205 25.549 10.3808 25.6039 10.5936 25.634L10.8951 25.6749C10.9911 25.687 11.0649 25.7087 11.1157 25.7405C11.1666 25.772 11.2017 25.8115 11.2208 25.8582C11.2398 25.905 11.2491 25.9571 11.2491 26.0142C11.2491 26.1289 11.2096 26.2209 11.131 26.2902C11.0523 26.3598 10.9313 26.3942 10.7683 26.3942C10.6197 26.3942 10.4804 26.364 10.3509 26.3037C10.2211 26.2435 10.1054 26.1531 10.0034 26.0323L9.56641 26.4891C9.69756 26.6369 9.85701 26.7591 10.045 26.8555C10.233 26.9521 10.4594 27.0002 10.7247 27.0002C10.99 27.0002 11.1938 26.9566 11.3715 26.869C11.5492 26.7817 11.6841 26.6609 11.7758 26.5071C11.8675 26.3533 11.9135 26.1753 11.9135 25.9731Z" fill="#1D1D1B"/>
<path d="M13.6351 26.9457V24.3989H14.4612V23.7881H12.1445V24.3989H12.9706V26.9457H13.6351Z" fill="#1D1D1B"/>
<path d="M16.4312 26.2512C16.3335 26.3433 16.2031 26.3892 16.0399 26.3892C15.8445 26.3892 15.6881 26.323 15.57 26.1901C15.4519 26.0574 15.3928 25.8673 15.3928 25.6201V25.1134C15.3928 24.863 15.4519 24.6724 15.57 24.5411C15.6881 24.4099 15.8445 24.3443 16.0399 24.3443C16.2031 24.3443 16.3291 24.3843 16.4178 24.4642C16.5068 24.5442 16.5699 24.6504 16.608 24.783L17.1805 24.4755C17.0698 24.222 16.922 24.0353 16.737 23.9145C16.552 23.7939 16.3196 23.7334 16.0399 23.7334C15.7602 23.7334 15.5278 23.7976 15.3253 23.9258C15.1229 24.0539 14.9662 24.2409 14.8554 24.4868C14.7447 24.7326 14.6895 25.0334 14.6895 25.3894C14.6895 25.7454 14.7447 26.0425 14.8554 26.2805C14.9662 26.5187 15.1226 26.6981 15.3253 26.819C15.5278 26.9395 15.7661 27.0001 16.0399 27.0001C16.3136 27.0001 16.5528 26.9339 16.7392 26.8009C16.9256 26.6683 17.0758 26.4827 17.1895 26.2444L16.6475 25.9186C16.6009 26.0484 16.5286 26.1591 16.4312 26.2512Z" fill="#1D1D1B"/>
<path d="M20.0303 25.6519V23.7881H19.3835V25.7243C19.3835 25.8722 19.3645 25.995 19.3267 26.093C19.2889 26.191 19.2298 26.2648 19.1495 26.3146C19.0693 26.3645 18.9637 26.3892 18.8325 26.3892C18.7014 26.3892 18.595 26.3645 18.5134 26.3146C18.4317 26.2648 18.3727 26.191 18.3362 26.093C18.2998 25.995 18.2815 25.8722 18.2815 25.7243V23.7881H17.6348V25.6519C17.6348 25.9626 17.6742 26.2174 17.7529 26.4166C17.8315 26.6157 17.9583 26.7627 18.1332 26.8576C18.3082 26.9525 18.5411 27.0001 18.8325 27.0001C19.124 27.0001 19.3571 26.9525 19.5318 26.8576C19.7068 26.7627 19.8333 26.6157 19.9122 26.4166C19.9909 26.2174 20.0303 25.9626 20.0303 25.6519Z" fill="#1D1D1B"/>
<path d="M22.8534 25.4711C22.7834 25.4139 22.7091 25.3717 22.6305 25.3443C22.5519 25.3173 22.476 25.3035 22.4033 25.3035V25.2765C22.5083 25.2706 22.6036 25.2449 22.6895 25.1996C22.7755 25.1542 22.8438 25.0827 22.895 24.9847C22.9459 24.8867 22.9714 24.7577 22.9714 24.598C22.9714 24.3538 22.8999 24.1576 22.7573 24.01C22.6145 23.8621 22.4177 23.7883 22.1671 23.7883H20.6855V26.946H22.3026C22.4542 26.946 22.5889 26.9052 22.707 26.8238C22.8251 26.7424 22.9181 26.6337 22.9867 26.4979C23.0553 26.3622 23.0893 26.2115 23.0893 26.0456C23.0893 25.9099 23.0675 25.7944 23.0237 25.6995C22.9799 25.6046 22.9233 25.5283 22.8534 25.4711ZM21.3497 24.3674H22.0098C22.0681 24.3674 22.1184 24.3786 22.1606 24.4012C22.2028 24.4237 22.2349 24.4569 22.2566 24.5006C22.2784 24.5442 22.2893 24.5963 22.2893 24.6566V24.7924C22.2893 24.8526 22.2784 24.9047 22.2566 24.9484C22.2349 24.992 22.2028 25.0253 22.1606 25.0478C22.1184 25.0703 22.0681 25.0816 22.0098 25.0816H21.3497V24.3668V24.3674ZM22.3987 26.0819C22.3987 26.1422 22.387 26.1935 22.3636 26.2357C22.3402 26.278 22.3075 26.3103 22.2653 26.3329C22.2232 26.3554 22.1728 26.3667 22.1146 26.3667H21.3497V25.6429H22.1146C22.1728 25.6429 22.2232 25.6541 22.2653 25.6767C22.3075 25.6992 22.3404 25.7319 22.3636 25.7738C22.387 25.8161 22.3987 25.8673 22.3987 25.9276V26.0814V26.0819Z" fill="#1D1D1B"/>
<path d="M23.6016 24.0512V26.6827C23.6016 26.8281 23.7153 26.9458 23.8557 26.9458H25.6777V26.3349H24.2658V25.6517H25.4766V25.0456H24.2658V24.3987H25.6777V23.7878H23.8557C23.7153 23.7878 23.6016 23.9056 23.6016 24.0509V24.0512Z" fill="#1D1D1B"/>
<path d="M26.0261 8.03515L22.7057 7.23193L22.2677 7.71831L21.835 8.19878L21.4383 8.63925L21.3629 8.7229L20.7578 9.39515L20.6786 9.48302L20.3945 9.79845L20.9009 11.5488L20.9327 11.6592L21.2242 12.6663C21.2544 12.6401 21.2848 12.6139 21.315 12.5877L20.5347 9.89026L22.2437 10.3037L23.6703 10.6487L24.0066 11.8085L24.5908 13.8241L21.6884 13.1226C21.6538 13.1527 21.619 13.1828 21.5841 13.213L21.7771 13.2597L21.8897 13.287L23.2907 13.6256C23.3188 13.6323 23.3767 13.6464 23.4045 13.6532L23.7462 13.7357L24.3704 13.8866L24.688 13.9635L27 11.3967L26.0259 8.03515H26.0261ZM20.5597 9.78043L22.7425 7.35613L25.8792 8.11513L23.6954 10.5389L20.5597 9.78014V9.78043ZM23.7745 10.616L24.3323 9.997L25.9581 8.19258L26.8781 11.3669L24.6948 13.7906L23.7745 10.616Z" fill="#1D1D1B"/>
<path d="M8.60585 15.4213C8.6083 15.4323 8.61102 15.443 8.61347 15.4537C8.60449 15.4156 8.59605 15.3776 8.58789 15.3396C8.59388 15.3669 8.59959 15.3937 8.60585 15.4213Z" fill="white"/>
<path d="M14.3887 12.076C14.4191 11.9475 14.4504 11.8197 14.4823 11.6924C14.4502 11.8197 14.4186 11.9475 14.3887 12.076Z" fill="white"/>
<path d="M13.6617 18.6267C13.6495 18.6332 13.6372 18.6397 13.625 18.6459L13.6617 18.6267Z" fill="white"/>
<path d="M8.6135 15.4536C8.61786 15.4719 8.62221 15.4905 8.62656 15.5086C8.63881 15.559 8.65105 15.6085 8.66357 15.6573C8.66874 15.6772 8.67391 15.6967 8.67935 15.7164C8.6916 15.762 8.70384 15.8071 8.71636 15.851C8.71717 15.8541 8.71826 15.8575 8.71908 15.8606C9.08314 17.1364 9.73509 18.3083 10.639 19.2889C10.6472 19.2858 10.6553 19.2827 10.6638 19.2796C10.8689 19.201 11.0782 19.1165 11.2907 19.027C11.2314 18.9625 11.1731 18.8972 11.1171 18.8301C10.7802 18.4277 10.4948 17.9754 10.2665 17.4828C10.6061 17.7163 11.0477 17.9396 11.5826 18.1483L11.6025 18.1559L11.6039 18.161H11.6041C11.673 18.3806 11.7516 18.5896 11.8392 18.7879C11.8727 18.773 11.9062 18.7577 11.9396 18.7423C11.8643 18.5719 11.7951 18.393 11.7339 18.206C11.9807 18.2984 12.2428 18.3863 12.5189 18.4696C12.569 18.4454 12.6191 18.4209 12.6694 18.3961C12.3211 18.2939 11.9938 18.1846 11.6909 18.0686C11.3873 17.0702 11.2934 15.8781 11.418 14.6144C11.7097 14.725 12.0191 14.829 12.3633 14.9323L12.3666 14.9332C12.3682 14.9337 12.3701 14.9343 12.3717 14.9346C12.8006 15.0644 13.2506 15.183 13.7096 15.2869H13.7102L13.727 15.2908C13.6296 16.3002 13.5929 17.1651 13.6163 17.9097C13.6522 17.8906 13.6881 17.8712 13.7243 17.8517C13.7047 17.1277 13.7412 16.2895 13.8351 15.3148C13.856 15.3193 13.877 15.3238 13.8985 15.3283L13.9031 15.3294C13.9428 15.3382 13.9828 15.3469 14.0228 15.3553V15.3548C14.8236 15.5249 15.6587 15.6581 16.5076 15.7499L16.5215 15.7516C16.5041 15.9099 16.4864 16.0667 16.4687 16.2211C16.5084 16.1955 16.5482 16.1695 16.5879 16.1436C16.6023 16.018 16.6165 15.891 16.6303 15.7629C16.7873 15.7789 16.9427 15.793 17.0978 15.806C17.1481 15.7722 17.1985 15.7384 17.2485 15.7043C17.0483 15.6885 16.8464 15.6711 16.6429 15.6502L16.6507 15.5801C16.6831 15.2804 16.7166 14.9704 16.7473 14.6645L16.7482 14.6555C16.7484 14.6515 16.749 14.6473 16.7492 14.6445C16.8328 13.8235 16.9111 12.9812 16.9824 12.138L16.983 12.1332C16.9963 11.9738 17.0096 11.8152 17.0222 11.6586L17.2594 11.682C17.334 11.6888 17.4083 11.6952 17.4828 11.7012H17.4855C17.559 11.7074 17.6325 11.7127 17.7059 11.7178C17.7059 11.7178 17.8553 11.7279 17.9299 11.7324C18.002 11.7366 18.0741 11.7406 18.1462 11.744C18.1476 11.744 18.1492 11.744 18.1508 11.7443H18.1525C18.2564 11.749 18.3601 11.7533 18.4616 11.7564C18.6703 11.7631 18.8781 11.7665 19.08 11.7665H19.0947C19.1138 11.7665 19.1361 11.7665 19.16 11.7665C19.2504 11.7659 19.3611 11.7648 19.3837 11.7645H19.3984C19.424 12.0062 19.4449 12.2529 19.4612 12.4982C19.4955 13.024 19.5083 13.5518 19.4996 14.0756C19.5366 14.0472 19.5733 14.0184 19.6101 13.99C19.6161 13.4918 19.6033 12.9905 19.5706 12.4906C19.5548 12.2481 19.5336 12.0039 19.5083 11.764C19.9981 11.7493 20.3926 11.7226 20.7453 11.6809C20.8092 11.6738 20.8715 11.6665 20.9325 11.6584L20.9006 11.548C20.846 11.555 20.7904 11.5615 20.7333 11.5677C20.3812 11.6094 19.9869 11.6358 19.4958 11.6505C19.4155 10.9343 19.2974 10.2508 19.1451 9.6199C19.0297 9.13098 18.8964 8.67868 18.7478 8.27595C18.9671 8.26919 19.1777 8.25483 19.3744 8.23342L19.3908 8.23173C19.4022 8.23061 19.4139 8.22948 19.4237 8.22807L19.4514 8.22525C19.5861 8.21005 19.7276 8.18723 19.8629 8.15907C19.8754 8.17597 19.8882 8.19315 19.9007 8.21033L19.9162 8.23201C20.1967 8.61588 20.4517 9.03579 20.6781 9.4819L20.7572 9.39403C20.5325 8.95553 20.2805 8.54237 20.0038 8.16358L19.9886 8.14217C19.9861 8.13908 19.9839 8.13598 19.9815 8.13288C20.1924 8.08303 20.4471 8.00614 20.6256 7.89574C20.7107 7.97883 20.7728 8.04585 20.7744 8.04754C20.7758 8.04895 20.9216 8.19794 21.0596 8.35283C21.1053 8.40409 21.2111 8.52632 21.3629 8.72149L21.4383 8.63785C21.2895 8.4469 21.1853 8.32692 21.1401 8.27595C21.0005 8.1188 20.8528 7.96812 20.8525 7.96784C20.8498 7.96503 20.7948 7.9056 20.7156 7.82787C20.7578 7.79239 20.7959 7.75239 20.8296 7.70846C20.8694 7.65664 20.9292 7.57835 20.9553 7.45865C20.9635 7.42063 20.9673 7.38092 20.9668 7.34065C21.1853 7.52427 21.395 7.7217 21.591 7.92813C21.6745 8.016 21.7558 8.10584 21.8348 8.19737L22.2674 7.71691C22.1937 7.6327 22.1186 7.54962 22.0413 7.46795C20.5298 5.877 18.5201 5 16.3819 5C14.2438 5 12.2338 5.877 10.7223 7.46935C9.21239 9.0603 8.38086 11.1751 8.38086 13.4242C8.38086 14.0517 8.44562 14.6687 8.57187 15.2669C8.57704 15.2908 8.58248 15.3154 8.58793 15.3396C8.59636 15.3776 8.6048 15.4156 8.6135 15.4536ZM11.5614 18.0185C10.9873 17.7903 10.5264 17.5456 10.1911 17.2904L10.1753 17.2778C9.71877 16.1955 9.54272 14.9512 9.66516 13.6732C10.1819 14.041 10.7585 14.3575 11.2986 14.5696L11.3114 14.5744C11.1843 15.8285 11.2708 17.0153 11.5611 18.0185H11.5614ZM11.3233 14.4575C10.7786 14.2423 10.1963 13.919 9.67904 13.5447C9.82135 12.2608 10.2635 10.9914 10.9595 9.86802C10.9748 9.87956 10.9903 9.89139 11.0058 9.90294C11.0134 9.90829 11.0213 9.91364 11.0295 9.91927C11.0352 9.92322 11.0409 9.92688 11.0469 9.93138C11.5024 10.2488 12.0014 10.4645 12.3878 10.6172C11.8294 11.847 11.4716 13.1386 11.3233 14.4572V14.4575ZM12.7358 10.1508H12.7366C12.7976 10.0331 12.8615 9.91251 12.9276 9.7931L12.929 9.79057L12.939 9.77226L13.0522 9.57427L13.2324 9.278L13.2443 9.258C13.2482 9.25209 13.2517 9.24617 13.2555 9.24054L13.2648 9.22758C13.6677 8.65277 13.9711 8.24187 14.0127 8.1923C14.047 8.15147 14.0808 8.11204 14.0808 8.11204C14.1017 8.08754 14.1197 8.0667 14.1284 8.05684C14.139 8.04473 14.1499 8.03205 14.1608 8.01966C14.1926 7.98333 14.2244 7.94728 14.2563 7.91152C14.2884 7.87575 14.3208 7.84026 14.3531 7.80478C14.3858 7.76957 14.4187 7.73437 14.4519 7.69945C14.4772 7.67297 14.5028 7.64678 14.5286 7.62031C14.8451 7.74028 15.2119 7.84843 15.6769 7.95968C15.5852 8.14752 15.4949 8.34382 15.4083 8.54406C15.3452 8.68967 15.2826 8.84175 15.2217 8.9958C15.2018 9.04649 15.182 9.09719 15.1624 9.14873C15.0998 9.31433 15.0369 9.48894 14.9749 9.66749C14.918 9.83281 14.8598 10.0071 14.8027 10.1851C14.7507 10.3479 14.6973 10.5192 14.6446 10.6943C14.6375 10.718 14.6255 10.7585 14.6114 10.8059C14.6084 10.8163 14.6051 10.8273 14.6018 10.8382C14.5969 10.8549 14.592 10.872 14.5869 10.8892C14.5719 10.9413 14.5561 10.9945 14.5431 11.039C14.5428 11.041 14.5423 11.0427 14.5414 11.0444C14.5393 11.0523 14.5371 11.0599 14.5349 11.0675C14.5311 11.0807 14.5276 11.0931 14.5246 11.1038C14.5205 11.1176 14.5172 11.1292 14.515 11.1368L14.5088 11.1354C14.3703 11.1035 14.2315 11.0703 14.0968 11.0365C14.0179 11.0168 13.9401 10.9962 13.8631 10.976C13.8076 10.961 13.7521 10.9461 13.6974 10.9309C13.6419 10.9154 13.5858 10.8994 13.5314 10.8836C13.5311 10.8836 13.5309 10.8833 13.5306 10.8833C13.4555 10.8616 13.1369 10.7619 13.0653 10.7402C13.0245 10.727 12.9842 10.7132 12.9442 10.7C12.8906 10.6819 12.8376 10.6633 12.7853 10.6448C12.7344 10.627 12.6841 10.6087 12.6346 10.5904C12.6022 10.5786 12.5704 10.5662 12.5385 10.5541L12.5437 10.5434C12.5753 10.4769 12.6071 10.411 12.6389 10.3454C12.6702 10.2823 12.7018 10.2198 12.7333 10.1573L12.7363 10.1513L12.7355 10.1508H12.7358ZM14.5017 7.48991C14.4244 7.45921 14.3493 7.42795 14.2783 7.39613C14.2024 7.36205 14.1289 7.32628 14.0598 7.29024C14.0266 7.27306 13.9942 7.25531 13.9627 7.23757C13.9254 7.21645 13.8889 7.19532 13.8538 7.17364C13.8062 7.14435 13.76 7.11421 13.7156 7.08324C13.7641 7.05338 13.8138 7.02381 13.8677 6.99199C14.1757 6.81174 14.4949 6.65375 14.8163 6.52279C14.8301 6.51715 14.8443 6.51152 14.8582 6.50589L14.8807 6.49716C14.9526 6.46871 15.016 6.44477 15.0753 6.42337C15.0859 6.41943 15.0971 6.41548 15.1079 6.41182C15.1188 6.40788 15.1303 6.40394 15.1406 6.40028C15.1844 6.38507 15.2282 6.37014 15.2717 6.35578C15.2941 6.34874 15.3158 6.3417 15.3379 6.33494L15.3515 6.33071H15.3517C15.3602 6.32762 15.3689 6.32508 15.3779 6.32255L15.3928 6.31804C15.4892 6.28791 15.5898 6.25974 15.6921 6.23355C15.7324 6.22313 15.773 6.21299 15.813 6.20342C15.826 6.20032 15.8396 6.19722 15.8527 6.19412C15.8649 6.19131 15.8774 6.18821 15.8897 6.18567C16.023 6.15554 16.1629 6.12935 16.3046 6.1071C16.426 6.08823 16.549 6.07302 16.6728 6.06119C16.6706 6.06204 16.6684 6.06288 16.6657 6.06373C16.512 6.11667 16.352 6.18314 16.1901 6.26031C16.1267 6.291 16.0638 6.32255 16.0026 6.3555C15.9661 6.37493 15.9294 6.39493 15.8935 6.4152C15.8796 6.42281 15.8644 6.43126 15.8505 6.43942L15.8189 6.45801L15.774 6.48448C15.5926 6.59488 15.3705 6.74499 15.1909 6.88356L15.1869 6.88666C15.1292 6.93144 15.0718 6.97734 15.016 7.02353C15.0051 7.03226 14.9939 7.04099 14.9847 7.04944C14.8255 7.18209 14.6631 7.33051 14.5017 7.49076V7.48991ZM13.7981 7.27137C13.8536 7.30572 13.9129 7.33924 13.9738 7.37191C13.9861 7.37839 13.9983 7.38486 14.0106 7.39134C14.0819 7.42852 14.1572 7.46485 14.2351 7.50005C14.2927 7.52624 14.3537 7.55159 14.4157 7.57694C14.3055 7.69015 14.1918 7.81323 14.0781 7.9439C13.9749 8.06529 13.8704 8.19287 13.7651 8.32664C13.6816 8.43282 13.6019 8.53815 13.5257 8.64151L13.2095 9.10507L13.1159 9.25378C13.0631 9.33911 13.0098 9.42726 12.9584 9.51569C12.942 9.54386 12.9254 9.57146 12.9097 9.59962C12.8876 9.63792 12.8659 9.67679 12.8444 9.71537H12.8441C12.825 9.74973 12.8057 9.78437 12.7869 9.81901C12.7682 9.85337 12.7494 9.88773 12.7312 9.92181C12.6942 9.99109 12.6574 10.0612 12.6218 10.1311C12.5856 10.202 12.5497 10.2736 12.5157 10.344C12.4939 10.3885 12.4729 10.4333 12.452 10.4783L12.4441 10.4946L12.4349 10.5141C12.0531 10.3628 11.5576 10.1496 11.1086 9.83704C11.1027 9.83281 11.0964 9.82859 11.0904 9.82436C11.0833 9.81929 11.0763 9.81451 11.0692 9.80972C11.0523 9.79733 11.0357 9.78465 11.0194 9.77254C11.0836 9.672 11.1503 9.57089 11.2191 9.47232C11.2199 9.47092 11.221 9.46951 11.2221 9.4681C11.224 9.46528 11.2259 9.46247 11.2281 9.45965L11.2289 9.45824L11.2305 9.45599H11.2308C11.2776 9.38812 11.322 9.32644 11.3658 9.26701L11.3916 9.23237C11.4352 9.17407 11.4801 9.11521 11.5247 9.05832C11.5307 9.05072 11.5364 9.0434 11.5413 9.03664C11.5873 8.97862 11.6362 8.91807 11.6907 8.85273C11.7007 8.84062 11.7113 8.82823 11.722 8.81584C11.7742 8.7536 11.8267 8.69248 11.8776 8.63531C12.0653 8.42465 12.2621 8.22413 12.4621 8.0391L12.4876 8.01544C12.5772 7.93292 12.6697 7.85153 12.7625 7.77352C12.855 7.6955 12.951 7.61834 13.0471 7.54455C13.1916 7.43359 13.3407 7.32685 13.4909 7.22659C13.5306 7.19983 13.5714 7.17364 13.6125 7.14717C13.6707 7.18941 13.733 7.23109 13.7981 7.2708V7.27137ZM13.7393 15.1779L13.7341 15.1768C13.4775 15.1162 13.2433 15.0579 13.0239 15.0005C12.8046 14.9428 12.6 14.8853 12.4027 14.8264L11.4294 14.4983C11.5747 13.1789 11.932 11.8868 12.4912 10.6569C12.5268 10.6701 12.5622 10.6839 12.5984 10.6971C12.6484 10.7154 12.6988 10.734 12.7505 10.7521C12.8033 10.7706 12.8566 10.7892 12.9108 10.8075C12.951 10.8211 12.9916 10.8349 13.0327 10.8481C13.1151 10.8751 13.1989 10.9016 13.2819 10.9272C13.3545 10.9495 13.428 10.9712 13.502 10.9929C13.5573 11.0089 13.613 11.025 13.6691 11.0405C13.7241 11.0557 13.7801 11.0709 13.8359 11.0858C13.9134 11.1064 13.9918 11.1269 14.071 11.1469C14.2065 11.181 14.3458 11.2145 14.4848 11.246C14.3333 11.8059 14.1989 12.3802 14.0846 12.953C14.0685 13.0344 14.0525 13.1161 14.037 13.198C14.0361 13.2011 14.0356 13.204 14.0353 13.2056C14.0038 13.3724 13.973 13.5433 13.9447 13.7131C13.8601 14.2125 13.791 14.7051 13.7393 15.1776V15.1779ZM16.8739 12.129V12.1335C16.8026 12.9727 16.7242 13.8137 16.6404 14.6344L16.6388 14.6544C16.6078 14.9585 16.5743 15.2686 16.5422 15.568L16.5346 15.6395L13.9216 15.2182H13.9213C13.8963 15.2128 13.8721 15.2075 13.8473 15.2019C13.899 14.7281 13.9681 14.2339 14.053 13.7326C14.0816 13.5636 14.1118 13.3938 14.1434 13.2259L14.1444 13.2217C14.1602 13.1397 14.176 13.0578 14.1923 12.9761C14.2242 12.8161 14.2576 12.6565 14.2925 12.4973C14.3164 12.3875 14.3409 12.2782 14.3665 12.169C14.3736 12.1377 14.3809 12.1067 14.3885 12.0757C14.4187 11.9473 14.4503 11.8194 14.4821 11.6922C14.5178 11.5511 14.5548 11.4102 14.5926 11.2705C14.7012 11.2942 14.8195 11.319 14.9526 11.3457L14.9694 11.3494C15.0416 11.3638 15.1137 11.3784 15.1858 11.3922L15.272 11.4083C15.3014 11.4136 15.3302 11.419 15.3591 11.4238C15.8059 11.5043 16.2453 11.5702 16.6652 11.6198C16.6671 11.6201 16.6692 11.6201 16.6712 11.6203C16.7492 11.6299 16.8271 11.6386 16.9052 11.6471C16.9079 11.6477 16.9106 11.6477 16.9133 11.6479C16.9005 11.8062 16.8872 11.9659 16.8736 12.1292L16.8739 12.129ZM17.0224 10.188L17.0216 10.1995C17.0181 10.2555 17.0143 10.3119 17.0102 10.3682L17.0088 10.3859L17.0077 10.4026C17.0069 10.4121 17.0007 10.4997 16.9985 10.5335L16.9922 10.6203L16.9824 10.7521L16.9783 10.8095C16.9645 10.9988 16.9501 11.1877 16.9354 11.377L16.9291 11.455C16.9272 11.4815 16.925 11.508 16.9228 11.5344L16.9182 11.5339C16.8385 11.5254 16.7579 11.5164 16.6782 11.5066C16.2606 11.4576 15.8233 11.3919 15.3784 11.3117C15.3496 11.3069 15.321 11.3015 15.2924 11.2962L15.2059 11.2801C15.1343 11.2666 15.0625 11.252 14.9912 11.2376L14.9741 11.2342C14.8451 11.208 14.7297 11.1841 14.6239 11.1607C14.6405 11.1024 14.6576 11.0436 14.6748 10.9841L14.6772 10.9765C14.7012 10.8946 14.7256 10.812 14.7507 10.7287C14.8032 10.5544 14.8563 10.3837 14.9082 10.2215C14.9651 10.0443 15.0228 9.87083 15.0796 9.70636C15.1411 9.52865 15.2037 9.35516 15.2658 9.19069C15.2851 9.14028 15.3049 9.08987 15.3248 9.03917C15.3852 8.88653 15.4473 8.73585 15.5101 8.59081C15.5964 8.39085 15.6864 8.19456 15.7781 8.00699C15.7817 8.00023 15.7852 7.99319 15.7885 7.98615L15.7915 7.98671C15.807 7.99009 15.8227 7.99347 15.8407 7.9977L15.8679 8.00305C16.2761 8.09035 16.703 8.15851 17.137 8.2061C17.1367 8.20976 17.1367 8.21314 17.1364 8.21681L17.1337 8.27595V8.28045C17.1321 8.31819 17.1302 8.35593 17.1285 8.39423L17.125 8.46802L17.1109 8.75163L17.0986 8.98031L17.0959 9.02875C17.094 9.06283 17.0918 9.09719 17.0899 9.13127L17.0858 9.1983L17.0828 9.25124C17.0823 9.26138 17.0817 9.27124 17.0809 9.28138C17.0758 9.37403 17.0703 9.46669 17.0646 9.55963L17.0592 9.64637C17.0556 9.70411 17.0518 9.7624 17.048 9.82098C17.0445 9.87928 17.0407 9.93814 17.0366 9.997C17.0325 10.0601 17.0281 10.1237 17.0238 10.1877L17.0224 10.188ZM19.4408 8.11345L19.4123 8.11654C19.4019 8.11767 19.391 8.1188 19.3804 8.11992L19.3636 8.12161C19.1581 8.14443 18.9369 8.15851 18.7067 8.16442C18.5576 7.77352 18.3895 7.41669 18.2071 7.10464C17.9927 6.72528 17.7579 6.41295 17.4945 6.15807L17.6129 6.21384C17.7639 6.28791 17.9122 6.37014 18.054 6.45773C18.0629 6.46364 18.0803 6.47519 18.1021 6.49012C18.1021 6.49012 18.8183 6.97424 19.4095 7.60848C19.4359 7.63664 19.4604 7.66396 19.4604 7.66396C19.5712 7.78901 19.6803 7.92222 19.7867 8.05965C19.6721 8.08219 19.5538 8.10049 19.4406 8.11317L19.4408 8.11345ZM19.908 8.03487C19.7589 7.83688 19.5981 7.64397 19.4242 7.45696C19.4191 7.45161 19.4139 7.44598 19.409 7.44063C19.3856 7.41584 19.3627 7.39162 19.3391 7.3674C19.338 7.36628 19.3361 7.36402 19.335 7.3629V7.36233L19.1614 7.18857L19.1606 7.18772C19.1587 7.18575 19.1573 7.18462 19.1557 7.18293C18.9268 6.96101 18.6869 6.75908 18.4425 6.58334L18.4395 6.58108C18.2126 6.3938 17.9538 6.23496 17.6586 6.11076L17.6504 6.10682C17.7987 6.13948 17.9715 6.18455 18.1228 6.24172C18.307 6.31156 18.4716 6.39324 18.6039 6.45857C18.606 6.4597 18.8433 6.57742 19.0705 6.71064C19.6792 7.06718 20.4452 7.73127 20.4775 7.75943C20.4979 7.7769 20.5192 7.79661 20.5415 7.81661C20.3954 7.89912 20.175 7.97517 19.9083 8.03459L19.908 8.03487ZM20.8579 7.34628C20.8579 7.37698 20.8549 7.40599 20.8487 7.43528C20.8285 7.52934 20.7796 7.59299 20.7439 7.63974C20.7121 7.68114 20.6753 7.7186 20.6345 7.75127C20.6043 7.7231 20.5755 7.69691 20.5477 7.67269C20.5151 7.64425 19.7415 6.97368 19.1244 6.61235C19.0621 6.57573 18.7426 6.3969 18.6501 6.35831L18.6509 6.35662C18.5394 6.30142 18.4047 6.23468 18.2539 6.173C18.5905 6.24988 18.9225 6.35099 19.2471 6.47604C19.3973 6.53377 19.5472 6.5977 19.6933 6.66557C20.0541 6.83315 20.4057 7.03282 20.7366 7.25813L20.8579 7.34656V7.34628ZM17.8371 5.80997C17.8493 5.81082 17.8619 5.81223 17.8741 5.81364V5.81279C18.7783 6.00712 19.6354 6.37972 20.4125 6.9182C20.1932 6.78724 19.9676 6.66783 19.738 6.56137C19.5899 6.49237 19.4378 6.42788 19.2855 6.36902C18.6773 6.13442 18.0442 5.9829 17.4031 5.91671C17.556 5.8356 17.7013 5.79955 17.8371 5.80941V5.80997ZM17.2515 8.07824C17.2611 7.82703 17.2689 7.59017 17.2755 7.3736L17.2766 7.32882C17.2847 6.97227 17.2861 6.66783 17.2809 6.42365C17.2777 6.30818 17.273 6.20229 17.2668 6.10203C17.59 6.37634 17.8597 6.71402 18.113 7.16209C18.2861 7.45837 18.4458 7.7952 18.5886 8.16386C18.1576 8.16977 17.7081 8.1495 17.251 8.10303C17.2513 8.09458 17.2515 8.08641 17.2518 8.07796L17.2515 8.07824ZM17.1914 9.25716L17.1944 9.20534L17.1985 9.13859C17.2004 9.10395 17.2026 9.06959 17.2045 9.03579L17.2072 8.98932V8.98707L17.2189 8.76852L17.2341 8.47365L17.2374 8.39987C17.2393 8.36128 17.2412 8.32326 17.2426 8.28552V8.28214L17.2431 8.27679L17.2455 8.22216C17.2455 8.22019 17.2455 8.2185 17.2458 8.21652C17.6526 8.25764 18.0537 8.27848 18.4414 8.27848C18.504 8.27848 18.5663 8.2782 18.6281 8.27708H18.6319L18.6417 8.30355C18.7903 8.70572 18.9241 9.15802 19.0395 9.64806C19.1902 10.2708 19.3067 10.9447 19.3867 11.6516C19.2863 11.6533 19.1834 11.6538 19.0809 11.6538C18.8803 11.6538 18.6732 11.6505 18.4659 11.6437C18.365 11.6406 18.2616 11.6364 18.1584 11.6316H18.1568C18.012 11.6246 17.8657 11.6158 17.7206 11.6057C17.7187 11.6054 17.7141 11.6051 17.7141 11.6051C17.6401 11.6001 17.5664 11.5947 17.4923 11.5885H17.4896C17.4164 11.5826 17.343 11.5761 17.2698 11.5696H17.2687L17.2643 11.5691C17.187 11.562 17.1092 11.5542 17.0317 11.546C17.0339 11.5187 17.036 11.4916 17.0382 11.4646L17.0445 11.3866C17.0589 11.197 17.0736 11.0078 17.0875 10.8182L17.0915 10.7611C17.0948 10.7169 17.0981 10.6729 17.1013 10.629L17.1076 10.5422C17.1098 10.5084 17.1122 10.4749 17.1147 10.442C17.1147 10.442 17.1158 10.422 17.1168 10.4121L17.1179 10.3947L17.1193 10.3769C17.1234 10.3203 17.1272 10.2637 17.1307 10.2077L17.1315 10.1964C17.1359 10.1322 17.1402 10.0685 17.1443 10.0052C17.1484 9.94631 17.1522 9.88745 17.156 9.82915C17.1598 9.77029 17.1634 9.71199 17.1669 9.65426L17.1724 9.56723C17.1789 9.46472 17.1846 9.36164 17.1906 9.25885V9.25772L17.1914 9.25716ZM17.1715 6.42647C17.1767 6.66867 17.1753 6.97115 17.1672 7.32657L17.1661 7.37106C17.1598 7.58651 17.1519 7.82308 17.1424 8.07402L15.8889 7.89208L15.878 7.88983C15.8723 7.8887 15.8663 7.8873 15.8617 7.88645C15.8546 7.88504 15.8475 7.88335 15.8404 7.88166C15.8437 7.87519 15.847 7.86871 15.8505 7.86195C15.8758 7.8121 15.9011 7.76253 15.927 7.71268L15.9283 7.71015C15.949 7.67072 15.9691 7.63129 15.9901 7.59243L15.9934 7.58679L15.9939 7.58539C16.0788 7.42936 16.1629 7.2846 16.244 7.15477L16.2467 7.15026C16.2491 7.1466 16.2513 7.14294 16.2529 7.14013C16.2557 7.1359 16.2581 7.13168 16.2608 7.12745L16.2625 7.12492C16.3158 7.04099 16.3642 6.96777 16.4091 6.90215C16.6491 6.5625 16.8997 6.2865 17.1552 6.08062C17.1626 6.18821 17.1677 6.30199 17.1713 6.42703L17.1715 6.42647ZM16.4899 6.60784C16.4899 6.60784 16.488 6.61037 16.4869 6.6115C16.3128 6.83005 16.1765 7.04071 16.0704 7.22687L16.0663 7.23419L15.8957 7.53441L15.8929 7.5392C15.8723 7.57806 15.8521 7.61693 15.8317 7.65608L15.8304 7.65861C15.8042 7.70846 15.7787 7.75859 15.7534 7.80872C15.7455 7.82421 15.7376 7.84026 15.7294 7.85632C15.2805 7.74986 14.9243 7.6465 14.6174 7.53328C14.7635 7.3905 14.9099 7.25672 15.0549 7.1359C15.0699 7.12351 15.0851 7.11084 15.0851 7.11084C15.0851 7.11084 15.1082 7.09197 15.1417 7.06493C15.1569 7.05254 15.1722 7.04043 15.1874 7.02832C15.2078 7.01226 15.2293 6.99508 15.2508 6.97847C15.3194 6.92552 15.5417 6.7664 15.854 6.56728L15.8783 6.5532H15.8785C15.8875 6.54785 15.8968 6.54278 15.906 6.53743C15.9335 6.52166 15.9645 6.5042 15.998 6.48561L16.0026 6.48308C16.017 6.47519 16.032 6.46702 16.0475 6.45886C16.0505 6.45717 16.0532 6.45576 16.0562 6.45407C16.0606 6.45182 16.0649 6.44928 16.0695 6.44703C16.0938 6.43407 16.1166 6.42253 16.1376 6.41182C16.1425 6.40929 16.1476 6.40675 16.1525 6.40422C16.1827 6.38901 16.2089 6.37606 16.2287 6.36648C16.2336 6.36423 16.238 6.36197 16.2421 6.36C16.2483 6.35691 16.2538 6.35437 16.2581 6.3524C16.4352 6.26847 16.5789 6.21468 16.6195 6.19975C16.6412 6.19187 16.6641 6.1837 16.6875 6.17553C16.716 6.16568 16.746 6.15554 16.7773 6.1454C16.7971 6.13892 16.8175 6.13244 16.8385 6.12625C16.854 6.12146 16.8695 6.11695 16.885 6.11245C16.9139 6.104 16.9432 6.09555 16.9737 6.08738C16.8233 6.22651 16.6567 6.39887 16.4897 6.60812L16.4899 6.60784ZM16.2948 5.65649C16.5087 5.66916 16.7231 5.73788 16.9345 5.86067C16.5841 5.79449 16.2306 5.75646 15.8804 5.74802L15.8715 5.74745C15.8647 5.74717 15.857 5.74773 15.8513 5.74689C15.835 5.74661 15.8187 5.74661 15.8029 5.74661C15.5447 5.74351 15.2889 5.75646 15.0364 5.78463C15.4486 5.70493 15.8693 5.66155 16.2951 5.65649H16.2948ZM13.3412 6.60474H13.3415V6.56193C13.3496 6.45688 13.4174 6.36057 13.5475 6.26791L13.5551 6.26481C13.5608 6.26256 13.5673 6.26002 13.5728 6.25805C14.2799 5.98459 15.0296 5.85053 15.8015 5.86039C15.8173 5.86039 15.8334 5.86039 15.85 5.86067C15.8554 5.86067 15.8611 5.86095 15.8666 5.86123H15.8769C16.1615 5.86855 16.4483 5.89559 16.7335 5.94122C16.5838 5.95389 16.4347 5.97191 16.2883 5.99473C16.1441 6.01726 16.0023 6.04401 15.8666 6.07443C15.854 6.07724 15.841 6.08034 15.8285 6.08316C15.8157 6.08626 15.8026 6.08935 15.789 6.09245C15.7479 6.10203 15.7063 6.11217 15.6657 6.12315C15.5618 6.14962 15.4595 6.17835 15.3615 6.20877L15.3474 6.21299C15.3338 6.21722 15.3202 6.22116 15.3068 6.22538L15.2924 6.22989H15.2922C15.2745 6.2358 15.2565 6.24144 15.2388 6.24735C15.1945 6.262 15.1504 6.2772 15.1055 6.29269C15.0946 6.29635 15.0837 6.3003 15.0728 6.30396C15.0617 6.3079 15.0503 6.31184 15.0394 6.31579C14.9703 6.34085 14.9063 6.36507 14.8435 6.39014L14.819 6.39971C14.8048 6.40535 14.7904 6.41098 14.7763 6.41689C14.45 6.54982 14.1262 6.71007 13.8136 6.89285C13.7567 6.92665 13.7036 6.95847 13.6528 6.98973C13.6454 6.99424 13.6381 6.99875 13.6305 7.00325L13.619 7.01029C13.6068 7.00044 13.5945 6.99001 13.5823 6.97931L13.5728 6.97086C13.5578 6.95763 13.5437 6.94411 13.53 6.93087C13.5156 6.91679 13.5012 6.90215 13.4881 6.88806C13.4797 6.87877 13.4713 6.86919 13.4631 6.85962C13.4479 6.84131 13.4335 6.82301 13.4209 6.80498C13.4182 6.80076 13.4158 6.79653 13.413 6.79259C13.3984 6.77006 13.3853 6.74809 13.3752 6.72613C13.3711 6.71768 13.3676 6.70951 13.3643 6.70078C13.3578 6.68444 13.3526 6.66755 13.3488 6.65149C13.345 6.63628 13.3426 6.62051 13.3412 6.60559V6.60418H13.3409L13.3412 6.60474ZM10.4445 8.93159V8.92905C10.4447 8.92427 10.445 8.92117 10.445 8.92117C10.4458 8.90624 10.4474 8.89216 10.4496 8.87892C10.4523 8.86005 10.4559 8.84344 10.46 8.82823V8.82767C10.4651 8.80823 10.4706 8.79134 10.4755 8.77782C10.6877 8.47901 10.9225 8.19371 11.1731 7.92926C11.7962 7.27277 12.5091 6.74809 13.2963 6.36592C13.249 6.44111 13.2272 6.5211 13.2318 6.60502L13.2324 6.6146C13.2343 6.63628 13.2378 6.65825 13.243 6.67994C13.2479 6.70134 13.2547 6.72303 13.2631 6.74471C13.2675 6.75542 13.2718 6.76612 13.277 6.77682C13.2917 6.80864 13.3105 6.84075 13.3325 6.87229C13.3469 6.89285 13.3633 6.91426 13.3809 6.9351C13.3899 6.9458 13.3992 6.9565 13.409 6.9672C13.4223 6.98128 13.4375 6.99706 13.4552 7.01452C13.4699 7.0286 13.4854 7.04324 13.5015 7.05761L13.5118 7.06662C13.5145 7.06915 13.5173 7.07141 13.52 7.07394L13.5159 7.07648C13.4876 7.09478 13.4596 7.11337 13.4321 7.13168C13.2797 7.23306 13.1282 7.34149 12.9823 7.45386C12.8849 7.52906 12.7878 7.60707 12.6939 7.68621C12.5997 7.76535 12.5059 7.84787 12.4166 7.9301L12.3891 7.95545C12.1867 8.14245 11.9875 8.34551 11.7973 8.55899C11.7456 8.61729 11.6923 8.67896 11.6398 8.74149C11.6292 8.75416 11.6183 8.76655 11.6079 8.77923C11.553 8.84569 11.5035 8.90652 11.4558 8.96623C11.4507 8.97327 11.4455 8.97975 11.4401 8.98679C11.3946 9.04481 11.3495 9.10423 11.3054 9.16337L11.2792 9.19801C11.2349 9.258 11.19 9.32052 11.1427 9.38896L11.1312 9.40501L11.1304 9.40642C11.0621 9.50443 10.996 9.60441 10.9323 9.70411C10.9269 9.69988 10.9214 9.69538 10.9163 9.69115C10.8964 9.67454 10.8768 9.65764 10.858 9.6413C10.7364 9.53541 10.6651 9.44754 10.6651 9.44754C10.6344 9.41093 10.5976 9.36727 10.5615 9.30813C10.5519 9.29095 10.4515 9.10817 10.4445 8.98256C10.4434 8.96257 10.4436 8.94342 10.4442 8.93187L10.4445 8.93159ZM10.3318 8.98679L10.3356 8.98989V8.9927C10.3364 8.99946 10.3375 9.00622 10.3386 9.0127C10.3479 9.09803 10.3732 9.18393 10.4134 9.26786C10.4298 9.30165 10.4488 9.33601 10.47 9.36953C10.5019 9.41994 10.54 9.4712 10.5832 9.52217C10.6401 9.5892 10.7089 9.65792 10.787 9.72692C10.8066 9.7441 10.827 9.76156 10.8477 9.77902C10.8556 9.7855 10.8643 9.79226 10.8727 9.79874C10.177 10.9196 9.73047 12.185 9.57864 13.465C9.56149 13.4507 9.54408 13.436 9.52775 13.4217C9.4883 13.3876 9.45075 13.3529 9.41592 13.3191C9.38164 13.2853 9.34899 13.2513 9.31933 13.218C9.28967 13.1848 9.26219 13.1513 9.23715 13.1186C9.14029 12.9908 9.07689 12.8643 9.04968 12.7432C9.04723 12.7325 9.04532 12.7212 9.04342 12.7105C9.15906 11.3683 9.6034 10.086 10.3318 8.98679ZM9.02464 12.9888C9.05838 13.0553 9.10056 13.122 9.15117 13.1887C9.17784 13.2239 9.20722 13.2597 9.23879 13.2952C9.27035 13.3304 9.30463 13.3665 9.34082 13.4019C9.37728 13.4377 9.41647 13.4738 9.45728 13.5092C9.47823 13.527 9.49918 13.5453 9.52122 13.563C9.53483 13.5743 9.54952 13.5861 9.56394 13.5974C9.43551 14.8402 9.58462 16.0538 9.99603 17.1246C9.90271 17.0375 9.82652 16.9505 9.76856 16.8652C9.26681 15.7938 9.0124 14.6377 9.0124 13.4281C9.0124 13.2839 9.01675 13.1369 9.02464 12.9893V12.9888Z" fill="#1D1D1B"/>
<path d="M13.6245 18.6463C13.5731 18.6733 13.5216 18.6998 13.4702 18.7263C13.5322 18.7412 13.5948 18.7559 13.658 18.7702L13.6601 18.7708L13.6759 18.7736C13.7758 19.6641 13.9932 20.346 14.3213 20.7994L14.3357 20.8168C14.3703 20.858 14.4059 20.8957 14.443 20.9298C14.3415 20.9008 14.2411 20.8701 14.1417 20.8366L13.8163 20.7129C13.7086 20.671 13.603 20.6214 13.4993 20.5648C13.3956 20.5082 13.2944 20.4445 13.1962 20.3741L13.1761 20.3595L13.1736 20.3578C12.8572 20.126 12.5747 19.8247 12.3328 19.463C12.3024 19.4177 12.2727 19.3712 12.2436 19.3242C12.2098 19.3397 12.1764 19.3552 12.1429 19.3704C12.3375 19.6892 12.5603 19.9677 12.8087 20.2001C12.6724 20.1345 12.5451 20.0649 12.4264 19.9897C12.212 19.8452 12.0036 19.6872 11.805 19.5205C11.5954 19.6117 11.3889 19.6976 11.1857 19.7793C11.1726 19.7847 11.1595 19.7897 11.1465 19.7948C12.6003 21.1233 14.4381 21.8485 16.3822 21.8485C18.5203 21.8485 20.5303 20.9715 22.0416 19.3791C23.4475 17.8977 24.2649 15.9621 24.3707 13.8867L23.7465 13.7358C23.7362 14.0118 23.7125 14.2875 23.6752 14.559C23.6206 14.6823 23.5231 14.7998 23.3863 14.9093C23.3996 14.7147 23.423 14.5018 23.4211 14.2776C23.4192 14.0515 23.4219 13.8493 23.4048 13.6532L23.3749 13.6459L23.4048 13.6532C23.3768 13.6465 23.3188 13.6324 23.291 13.6256C23.3223 14.0889 23.315 14.5486 23.2682 14.9966L23.254 15.0093C22.8709 15.2352 22.422 15.4036 21.8846 15.5236C21.964 14.7879 21.9657 14.0385 21.8903 13.2868L21.7776 13.2595C21.8574 14.027 21.856 14.7919 21.7727 15.5419L21.7719 15.5475L21.7629 15.5495C21.293 15.6455 20.7505 15.708 20.0555 15.7466C19.8942 15.7553 19.7181 15.7635 19.5062 15.7722C19.513 15.7092 19.5195 15.6464 19.5255 15.5833C19.5372 15.4633 19.5478 15.3444 19.5562 15.2307C19.5611 15.169 19.5657 15.107 19.5698 15.0456C19.5747 14.9749 19.5785 14.9043 19.5823 14.8333C19.5443 14.8623 19.5056 14.891 19.4675 14.9197C19.4651 14.9589 19.4632 14.9983 19.4604 15.0375C19.4564 15.0986 19.4517 15.16 19.4471 15.2211C19.4384 15.3346 19.4283 15.4526 19.4164 15.5717C19.4101 15.6379 19.4033 15.7038 19.396 15.7697L19.3954 15.7722H19.3742C19.0281 15.7793 18.6722 15.7759 18.3087 15.7641C18.2572 15.8001 18.2058 15.8365 18.1541 15.8725C18.4414 15.8838 18.7244 15.8897 19.0017 15.8897C19.1277 15.8897 19.2526 15.8883 19.3764 15.886H19.3815C19.3761 15.9333 19.3709 15.9807 19.3649 16.0274L19.3592 16.0733C19.3486 16.1544 19.3377 16.2383 19.3255 16.3203H19.3252C19.3252 16.3203 19.3249 16.322 19.3247 16.3228L19.3241 16.3276C19.3225 16.3395 19.3206 16.351 19.319 16.3628L19.3078 16.4352H19.3083C19.1524 17.4696 18.9016 18.4154 18.5802 19.1772C17.8363 19.1893 16.9985 19.1516 16.2091 19.0704C16.278 18.6201 16.3599 18.0228 16.4412 17.3781L16.4551 17.2666C16.4668 17.1714 16.4785 17.077 16.4899 16.9833C16.45 17.0086 16.4102 17.0337 16.3702 17.059C16.3623 17.123 16.3544 17.1872 16.3466 17.2519L16.3327 17.3635C16.2919 17.6871 16.251 17.9983 16.2116 18.285C16.1721 18.5717 16.1346 18.8336 16.1003 19.0589L16.0916 19.0581C15.3305 18.9767 14.5311 18.8451 13.7769 18.6776C13.7733 18.6426 13.7701 18.6069 13.7668 18.5714C13.7317 18.59 13.6969 18.608 13.6618 18.6263L13.6245 18.6463ZM19.4234 16.4087L19.4243 16.4079L19.4338 16.3392C19.446 16.2552 19.4572 16.1705 19.4678 16.0885L19.4738 16.0421C19.4803 15.9902 19.486 15.9381 19.492 15.8857C19.7121 15.877 19.8944 15.8688 20.0607 15.8593C20.748 15.8212 21.2879 15.7599 21.757 15.6655C21.601 16.9255 21.2138 18.0695 20.6332 18.9786C20.0068 19.1087 19.3135 19.1485 18.7007 19.1727C19.0205 18.4002 19.2697 17.4474 19.4232 16.4085L19.4234 16.4087ZM15.727 20.9827L15.7259 20.9858C15.6862 21.1103 15.6598 21.1478 15.6505 21.1582L15.6484 21.1604C15.6484 21.1604 15.6473 21.1618 15.6467 21.1624C15.5934 21.1568 15.5401 21.1506 15.487 21.1438C15.459 21.1402 15.4307 21.1362 15.4026 21.1323C15.3801 21.1292 15.3575 21.1261 15.3352 21.1227C15.2957 21.1168 15.2563 21.1106 15.2168 21.1038C15.2086 21.1024 15.2002 21.101 15.192 21.0996C15.1463 21.0917 15.1003 21.0836 15.0546 21.0748L14.8419 21.0238H14.841C14.7676 21.0072 14.6952 20.976 14.6258 20.9306C14.5521 20.8822 14.4816 20.8174 14.4157 20.7374L14.4089 20.7295C14.0974 20.2984 13.8895 19.6475 13.7902 18.7964C14.5379 18.9609 15.3275 19.0904 16.0804 19.171H16.084C15.9493 20.0463 15.8268 20.6701 15.73 20.9763L15.7275 20.9827H15.727ZM16.6197 21.1954C16.6143 21.1959 16.6086 21.1962 16.6029 21.1965C16.5803 21.1973 16.5588 21.1979 16.5378 21.1985C16.4861 21.1996 16.4344 21.2004 16.3825 21.2004C16.3267 21.2004 16.2712 21.1996 16.2157 21.1982C16.1857 21.1973 16.1558 21.1962 16.1256 21.1951C16.1041 21.1942 16.0826 21.1937 16.0611 21.1925C16.0176 21.1906 15.9743 21.188 15.9308 21.1855C15.9262 21.1852 15.9215 21.1849 15.9169 21.1847C15.8679 21.1813 15.8192 21.1776 15.7705 21.1734C15.786 21.1427 15.8192 21.0571 15.8192 21.0571L15.8331 21.0129C15.9316 20.7008 16.0562 20.068 16.1923 19.1823C16.8894 19.2543 17.6246 19.2927 18.301 19.2927C18.3783 19.2927 18.4545 19.2921 18.5301 19.291C18.1285 20.1705 17.6989 20.7307 17.2184 21.003L17.1931 21.0168C17.0418 21.099 16.8829 21.1542 16.7196 21.1813C16.6834 21.1878 16.651 21.1923 16.6195 21.1951L16.6197 21.1954ZM18.3911 20.8932C18.2823 20.9332 18.1734 20.9681 18.0673 20.9968C17.7721 21.0695 17.4711 21.1227 17.1677 21.1565C17.1988 21.1418 17.2295 21.1261 17.2594 21.1095C17.7751 20.8228 18.2306 20.2277 18.6526 19.2884C19.2466 19.2656 19.9211 19.2301 20.5431 19.1127C19.9704 19.9584 19.2373 20.5696 18.4164 20.883L18.3911 20.8929V20.8932ZM21.5915 18.9265C21.2408 19.296 20.8634 19.6227 20.4615 19.9055C20.4555 19.9097 20.4493 19.9137 20.4433 19.9179C20.3995 19.9483 20.3556 19.9787 20.3116 20.008C20.2971 20.0176 20.2827 20.0266 20.2683 20.0362C20.2316 20.0604 20.1946 20.0846 20.1573 20.108C20.1448 20.1159 20.1323 20.1232 20.1197 20.1311C20.0795 20.1561 20.0395 20.1809 19.9989 20.2051C19.994 20.208 19.9891 20.2108 19.984 20.2139C19.7252 20.3668 19.4575 20.5031 19.1813 20.6225C19.7576 20.2553 20.2727 19.7337 20.696 19.0823C21.1164 18.9921 21.4772 18.8679 21.7931 18.7052C21.7265 18.7812 21.6593 18.8553 21.5912 18.9268L21.5915 18.9265ZM21.8231 18.546L21.7847 18.5824C21.4955 18.7367 21.166 18.8564 20.7839 18.9462C21.3464 18.029 21.721 16.8912 21.8707 15.6424C22.4094 15.5253 22.8628 15.3605 23.2519 15.14C23.1702 15.7996 23.004 16.4279 22.7572 17.0092L22.7441 17.0399C22.5055 17.5944 22.1956 18.1011 21.8231 18.5463V18.546ZM22.5333 17.7127C22.6473 17.5113 22.7509 17.3021 22.8443 17.0858L22.8576 17.0548C23.1204 16.4358 23.2932 15.7649 23.3719 15.0608C23.4769 14.9865 23.5645 14.9079 23.6347 14.8257C23.4576 15.8587 23.0821 16.8396 22.5335 17.7124L22.5333 17.7127Z" fill="#1D1D1B"/>
<path d="M11.8051 19.5204C11.8655 19.4942 11.9262 19.4677 11.9871 19.4404C12.0391 19.4173 12.0911 19.3939 12.1433 19.3703C12.1768 19.3551 12.2105 19.3396 12.244 19.3241C12.644 19.1407 13.0535 18.9411 13.4706 18.7262C13.522 18.6997 13.5732 18.6732 13.6249 18.6462C13.6371 18.6397 13.6494 18.6332 13.6616 18.6271C13.6965 18.6087 13.7316 18.5904 13.7667 18.5721C14.0439 18.4257 14.3242 18.2728 14.6069 18.1136C15.1867 17.7872 15.7764 17.4349 16.3701 17.06C16.4101 17.035 16.4498 17.0096 16.4898 16.9843C16.9935 16.6641 17.4996 16.3278 18.0049 15.9775C18.0549 15.9428 18.1044 15.9079 18.154 15.8732C18.2057 15.8372 18.2571 15.8012 18.3085 15.7648C18.7036 15.4863 19.09 15.2044 19.4671 14.9202C19.5055 14.8915 19.5438 14.8625 19.5819 14.8337C20.284 14.3012 20.9525 13.7599 21.5843 13.2135C21.6191 13.1834 21.654 13.1532 21.6885 13.1231C21.7108 13.1037 21.7332 13.0845 21.7552 13.0651C21.7884 13.0361 21.8213 13.0068 21.8545 12.9778C21.8869 12.9493 21.9195 12.9206 21.9516 12.8922C22.233 12.6463 22.3987 12.5122 22.6651 12.265C22.796 12.1436 22.8069 11.9355 22.6893 11.8C22.572 11.6645 22.371 11.6535 22.2401 11.7749C22.0599 11.9422 21.9848 11.9963 21.7976 12.1627C21.713 12.2379 21.6276 12.3131 21.5416 12.3883C21.4665 12.4551 21.3911 12.5215 21.3149 12.588C21.285 12.6142 21.2543 12.6404 21.2241 12.6666C20.7106 13.1118 20.1721 13.554 19.6102 13.9911C19.5735 14.0195 19.5368 14.0483 19.4998 14.0767C18.9071 14.5344 18.2897 14.9864 17.65 15.4302C17.5162 15.5229 17.3823 15.6147 17.2487 15.7054C17.1984 15.7395 17.148 15.7733 17.098 15.8071C16.9279 15.9214 16.7578 16.0341 16.588 16.1447C16.5483 16.1707 16.5086 16.1966 16.4689 16.2222C15.5388 16.8246 14.6167 17.3721 13.7245 17.8526C13.6886 17.872 13.6524 17.8914 13.6165 17.9106C13.2962 18.0815 12.9803 18.2437 12.6693 18.3967C12.6189 18.4215 12.5689 18.446 12.5188 18.4702C12.3234 18.5648 12.1305 18.6555 11.9395 18.7425C11.9061 18.7577 11.8726 18.7729 11.8391 18.7881C11.7047 18.8487 11.5711 18.9076 11.4391 18.9644C11.3893 18.9859 11.3398 19.0067 11.2906 19.0275C11.0781 19.1171 10.8688 19.2016 10.6637 19.2802C10.6555 19.2833 10.6473 19.2864 10.6389 19.2895C10.5518 19.3227 10.4647 19.3562 10.3793 19.3872C8.59516 20.0361 7.53343 20.0873 7.02624 19.8806C6.88448 19.8229 6.78598 19.7449 6.72748 19.6542C6.71061 19.628 6.69619 19.5995 6.68367 19.5683C6.62925 19.4291 6.62109 19.2362 6.67578 18.9887C6.80557 18.3984 7.29099 17.496 8.35272 16.263L8.71896 15.8614C8.71815 15.8583 8.71706 15.8549 8.71624 15.8518C8.70373 15.8076 8.69148 15.7626 8.67924 15.7172C8.67407 15.6975 8.66863 15.6781 8.66346 15.6581C8.65094 15.6094 8.63842 15.5598 8.62645 15.5094C8.6221 15.4911 8.61774 15.4728 8.61339 15.4545C8.61094 15.4435 8.60822 15.4331 8.60577 15.4221C8.59951 15.3945 8.5938 15.3677 8.58781 15.3404C8.58237 15.3162 8.57693 15.2917 8.57176 15.2677C8.55979 15.2114 8.54863 15.1556 8.53802 15.1007L7.88008 15.822C6.73401 17.1524 5.51229 18.9605 6.19879 20.0208C6.49374 20.4765 7.04556 20.6475 7.70866 20.6475C7.87355 20.6475 8.04552 20.6368 8.22184 20.6173C8.98644 20.5331 9.83756 20.2825 10.5902 20.009C10.7717 19.9431 10.9578 19.8707 11.1458 19.7955C11.1589 19.7902 11.1719 19.7851 11.185 19.7801C11.3882 19.6984 11.5948 19.6122 11.8043 19.5212L11.8051 19.5204Z" fill="#E30613"/>
</g>
<defs>
<clipPath id="clip0_10115_409133">
<rect width="21" height="22" fill="white" transform="translate(6 5)"/>
</clipPath>
</defs>
</svg>
