<svg width="40" height="40" viewBox="0 0 40 40" fill="none" xmlns="http://www.w3.org/2000/svg">
<g clip-path="url(#clip0_8668_2985)">
<mask id="mask0_8668_2985" style="mask-type:luminance" maskUnits="userSpaceOnUse" x="0" y="0" width="40" height="40">
<path d="M40 0H0V40H40V0Z" fill="white"/>
</mask>
<g mask="url(#mask0_8668_2985)">
<path fill-rule="evenodd" clip-rule="evenodd" d="M31.1823 12.5282C32.0533 13.8221 33.1325 14.872 34.487 15.7136C30.357 17.7645 27.805 21.1863 26.4342 24.0605C25.355 26.3185 24.7465 28.6936 24.6425 31.2001C24.6252 31.621 24.7542 31.7261 25.1533 31.7033C25.7477 31.6698 26.3463 31.6763 26.9417 31.7011C27.292 31.7163 27.3897 31.608 27.4082 31.249C27.56 28.275 28.4992 25.5506 30.1965 23.118C32.5055 19.8068 35.4577 17.4815 39.6952 17.2808C39.938 17.27 40.0032 17.1626 39.9998 16.9456C39.9953 16.6482 39.9965 16.3503 39.9977 16.0521C39.9983 15.9165 39.9988 15.7809 39.9988 15.6453C39.9988 14.5922 39.9988 14.5922 38.9977 14.4414C35.1573 13.8612 32.461 10.935 32.2213 7.06852C32.203 6.77244 32.1368 6.65747 31.8233 6.66724C31.1553 6.68892 30.486 6.68892 29.818 6.66724C29.5067 6.65747 29.4318 6.76375 29.42 7.06527C29.2605 10.9057 27.7323 14.1507 25.0557 16.8665C22.8518 19.1018 20.1978 20.515 17.095 21.0616C16.2667 21.207 16.2544 21.209 16.1221 20.5583C14.7512 13.7961 7.08335 9.37864 0.28963 11.2267C-0.0303172 11.3135 -0.0444167 11.4393 0.0531943 11.7083C1.14752 14.7201 2.74725 17.4131 5.0769 19.6386C7.29375 21.7568 9.86525 23.2361 12.915 23.746C13.5354 23.849 13.6525 24.0561 13.6439 24.6233C13.626 25.8625 13.6274 27.102 13.6287 28.3413C13.6298 29.2878 13.6308 30.2343 13.6233 31.1806C13.62 31.5731 13.71 31.7305 14.1319 31.7033C14.7078 31.6665 15.2902 31.6621 15.8651 31.7045C16.3314 31.738 16.4269 31.5666 16.4225 31.1296C16.4116 29.996 16.412 28.862 16.4124 27.7281C16.4128 26.6218 16.4132 25.5156 16.403 24.4096C16.3997 24.0203 16.493 23.8803 16.8943 23.8586C17.3597 23.8338 17.826 23.7405 18.2815 23.632C24.2532 22.2058 28.3712 18.5715 30.8895 13.0369C30.9095 12.9931 30.925 12.9463 30.9408 12.8989C30.9855 12.7653 31.032 12.6258 31.1823 12.5282ZM7.96943 14.59C6.71783 13.9794 5.39358 13.6074 3.92833 13.5813C4.22117 14.2028 4.56823 14.7245 4.92938 15.232C6.90438 18.0031 9.3978 20.0626 12.7697 20.9065C12.8118 20.917 12.8564 20.9323 12.9016 20.9478C13.0566 21.0011 13.2201 21.0573 13.325 20.9346C13.4236 20.8206 13.355 20.6655 13.2904 20.5193C13.2691 20.4711 13.2482 20.4238 13.2339 20.3795C12.3521 17.6593 10.4878 15.8177 7.96943 14.59Z" fill="black"/>
</g>
</g>
<defs>
<clipPath id="clip0_8668_2985">
<rect width="40" height="40" fill="white"/>
</clipPath>
</defs>
</svg>
