<svg width="120" height="40" viewBox="0 0 120 40" fill="none" xmlns="http://www.w3.org/2000/svg">
<path d="M63.7393 37.1313C62.526 37.3063 61.3128 37.4307 60.1042 37.6885C59.0728 37.9095 57.9425 37.6723 56.8558 37.6378C55.5458 37.2233 54.229 37.198 52.9076 37.5895C52.1801 37.2188 51.303 37.35 50.5985 36.9057C49.5556 36.291 48.3493 36.1575 47.2373 35.7408C46.0218 35.1077 44.7533 34.5598 43.6827 33.6918C42.1863 32.4763 40.6254 31.2977 40.0453 29.3132C40.9385 29.5065 41.6637 30.0867 42.557 30.3192C49.7029 32.184 56.9225 32.8747 64.2712 31.8755C68.1733 31.3437 72.1055 30.927 75.4897 28.6087C75.5863 28.5418 75.7752 28.611 75.9225 28.6155C75.812 30.2708 74.5895 31.2285 73.5258 32.2162C71.134 34.4423 68.2517 35.7707 65.0838 36.5305C64.628 36.6387 63.9627 36.4475 63.7393 37.1313Z" fill="#B7B7B7"/>
<path d="M77.5455 25.2498C77.5708 25.3143 77.564 25.3765 77.5248 25.434C77.0988 25.4685 77.0113 25.8415 76.8318 26.1246C75.911 27.5865 74.6817 28.6386 73.0562 29.3155C69.1448 30.9408 64.9987 31.3276 60.8638 31.6108C54.7287 32.0298 48.6601 31.399 42.7135 29.7851C40.7521 29.2533 39.251 28.1551 38.7607 26.0625C38.6364 25.5376 38.2726 24.847 39.1267 24.5016L39.1175 24.4993C39.1152 24.6973 39.1474 24.8791 39.3546 24.9713L39.3454 24.9598C39.4237 25.0403 39.502 25.121 39.5802 25.2015L39.5733 25.1946C39.6516 25.2728 39.7299 25.3511 39.8105 25.4316L39.8059 25.4248C39.8013 26.1385 40.4021 26.1983 40.8465 26.2628C42.8609 26.5528 44.7417 27.3171 46.6848 27.8536C48.7429 28.42 50.7873 29.182 52.9628 28.855C54.9082 28.5626 56.8512 28.717 58.7942 28.6778C60.9722 28.634 63.1523 28.6433 65.3325 28.6295C65.5557 28.5995 65.7883 28.5971 66.0023 28.5373C68.003 27.9871 69.9413 27.2228 72.0778 27.2066C72.681 27.2021 73.4338 26.9903 73.8437 26.341L73.8343 26.348C74.037 26.3595 74.2188 26.3341 74.3063 26.1131L74.2948 26.12C74.4952 26.1293 74.6747 26.097 74.7622 25.883L74.7553 25.8853C75.8418 25.8691 76.376 24.923 77.1933 24.3888C77.3245 24.702 77.435 24.9758 77.5455 25.2498Z" fill="#5F5F5F"/>
<path d="M38.3371 23.5806C37.6809 21.8471 37.9296 21.1886 39.5549 20.383C40.4136 21.5295 41.5555 22.2708 42.9322 22.6091C47.5826 23.7533 52.2837 24.4923 57.093 24.5361C59.9707 24.5636 62.83 24.3565 65.6685 23.9928C69.26 23.5323 72.8928 23.0626 75.7037 20.3806C75.8142 20.3276 76.056 20.3875 75.9248 20.1251L75.9155 20.1526C77.26 20.1688 77.656 20.6201 77.5133 22.0083C77.4672 22.455 77.3867 22.897 77.3198 23.3413C76.6453 24.368 75.5587 24.9805 74.7598 25.8828L74.7668 25.8805C74.5642 25.8668 74.3938 25.9173 74.2993 26.1176L74.311 26.1108C74.1152 26.1108 73.9333 26.1383 73.839 26.3456L73.8482 26.3386C72.8858 26.5896 71.9005 26.5781 70.9175 26.6471C69.5638 26.7438 68.1527 26.76 66.9968 27.6301C66.4882 28.0123 65.9378 28.2058 65.3347 28.3163C64.7408 28.116 64.126 28.1505 63.5137 28.1528C59.6483 28.1643 55.783 28.185 51.9176 28.1896C51.3467 28.1896 50.7366 28.2403 50.2094 28.07C46.7976 26.958 43.342 26.0416 39.8059 25.4225L39.8104 25.4293C39.7322 25.351 39.6539 25.2728 39.5733 25.1921L39.5802 25.1991C39.5664 25.0563 39.4927 24.9711 39.3454 24.9573L39.3546 24.9688C39.3684 24.764 39.3362 24.5845 39.1175 24.497L39.1244 24.4993C39.1014 23.9006 38.9817 23.332 38.5535 22.7105C38.4614 23.088 38.3992 23.3343 38.3371 23.5806ZM75.9017 22.2938C75.3332 22.1465 74.9578 22.478 74.5527 22.6413C70.5883 24.2575 66.4443 25.1346 62.1992 25.404C55.8152 25.8091 49.5349 25.0678 43.3857 23.2883C42.4004 23.0028 41.4151 22.7081 40.4228 22.4503C40.2294 22.3996 39.9394 22.3536 39.8197 22.6183C39.7068 22.8646 39.8864 23.0511 40.0453 23.2193C40.7014 23.9076 41.5417 24.2598 42.4395 24.4946C43.9452 24.8883 45.483 24.7225 47.0117 24.7363C47.5159 24.741 47.9878 24.7433 48.3861 25.1508C50.4419 27.2665 52.9766 27.423 55.6127 26.714C56.6255 26.4423 57.505 26.4953 58.4927 26.7231C60.5853 27.2043 62.8622 27.7545 64.7615 26.6058C66.4052 25.6111 68.0767 25.6526 69.7802 25.4478C71.0787 25.2911 72.3403 25.0195 73.5328 24.49C74.5435 24.0341 75.416 23.4011 75.9017 22.2938Z" fill="#5F5F5F"/>
<path d="M39.3177 16.4464C39.9578 12.1275 42.4395 8.88603 45.5498 6.07506C47.8565 3.9893 50.6261 2.7254 53.688 2.12683C54.4247 1.9818 55.2005 2.08078 55.9118 1.7723C57.4428 2.0877 58.9715 2.0992 60.5023 1.76538C68.2815 2.63561 73.1138 7.11105 75.7982 14.2363C76.1297 15.1157 76.3 15.9883 76.1527 16.9184C76.0652 17.1394 75.98 17.3627 75.8925 17.5837C75.6232 17.6205 75.4688 17.7724 75.4298 18.0419C75.0453 18.0419 74.716 18.1454 74.5182 18.5069C73.8367 18.7532 73.1552 18.9972 72.476 19.2482C69.6652 20.284 66.762 20.7814 63.7715 20.9334C59.3352 21.1567 54.8988 21.0737 50.4672 20.9679C49.3852 20.9425 48.264 20.9149 47.1659 20.7377C45.0203 20.39 43.0726 19.5589 41.2009 18.5069C40.5747 17.823 39.9463 17.1347 39.3177 16.4464ZM56.7268 20.3302C60.5553 20.3809 64.3838 20.4384 68.164 19.6855C70.342 19.2527 72.506 18.7809 74.4582 17.6459C75.2478 17.1854 75.8303 16.5891 75.5333 15.6084C74.0922 10.8636 71.539 6.91766 67.1073 4.45893C59.3075 0.137746 45.46 1.53747 40.3814 14.432C39.9094 15.6314 40.1258 16.4763 40.9914 17.3029C42.3382 18.5874 43.9958 19.2459 45.7593 19.6809C49.3737 20.5719 53.0618 20.2957 56.7268 20.3302Z" fill="black"/>
<path d="M38.3371 23.5807C38.3992 23.3344 38.4614 23.0881 38.5558 22.7129C38.984 23.3344 39.1037 23.9007 39.1267 24.5017C38.2726 24.8447 38.6386 25.5354 38.763 26.0626C39.2533 28.1552 40.7566 29.2534 42.7158 29.7852C48.6623 31.3991 54.7308 32.0297 60.8662 31.6107C65.0008 31.3276 69.1472 30.9409 73.0585 29.3156C74.6838 28.6411 75.9132 27.5866 76.8342 26.1247C77.0137 25.8416 77.1012 25.4686 77.527 25.4341C77.5593 26.6219 76.4888 27.2344 76.0928 28.1989C75.9432 28.3002 75.8902 28.4407 75.9225 28.6157C75.7775 28.6111 75.5887 28.5421 75.4897 28.6087C72.1055 30.9247 68.171 31.3437 64.2712 31.8756C56.9248 32.8747 49.7029 32.1841 42.5569 30.3192C41.6614 30.0867 40.9362 29.5042 40.0453 29.3132V29.3362C40.1028 29.1061 39.9233 29.1589 39.8058 29.1382C39.8197 28.6871 39.4329 28.5972 39.152 28.4131C38.3923 26.8821 37.9756 25.2982 38.3371 23.5807Z" fill="black"/>
<path d="M75.8925 17.5859C75.98 17.3649 76.0652 17.1415 76.1527 16.9205C76.9862 17.4547 76.6293 18.166 76.4497 18.8614C76.3323 19.3217 75.9042 19.6464 75.9133 20.155L75.9225 20.1275C75.7107 20.093 75.667 20.2057 75.7015 20.383C72.8905 23.065 69.26 23.5347 65.6663 23.9952C62.8253 24.3589 59.9683 24.566 57.0907 24.5385C52.2814 24.4924 47.5804 23.7557 42.93 22.6115C41.551 22.2732 40.4114 21.5319 39.5527 20.3854C39.014 19.1007 38.7929 17.7977 39.3178 16.4486C39.9463 17.137 40.5748 17.823 41.201 18.5114C41.1665 18.5482 41.1297 18.585 41.0951 18.6219C40.4344 18.539 40.1397 17.9474 39.6954 17.4777C39.2925 19.8719 40.3838 21.3752 43.1026 22.1074C47.3893 23.263 51.7657 23.8777 56.202 24.0365C58.9577 24.1355 61.6905 23.8617 64.43 23.6084C67.1788 23.3552 69.8885 22.9315 72.467 21.9279C74.2028 21.2532 75.5657 20.132 76.1688 18.2719C76.261 17.9842 76.475 17.6687 75.9293 17.625L75.8925 17.5859Z" fill="black"/>
<path d="M75.9202 28.6155C75.888 28.4405 75.9408 28.3002 76.0905 28.1989C76.8595 28.749 76.6247 29.3407 76.1942 29.9762C74.2303 32.8769 71.4632 34.7232 68.2723 35.994C66.8197 36.5719 65.3302 37.076 63.7393 37.1314C63.9627 36.4475 64.628 36.6387 65.0815 36.5305C68.2517 35.7707 71.1317 34.4424 73.5237 32.2162C74.5872 31.2285 75.812 30.2709 75.9202 28.6155Z" fill="black"/>
<path d="M39.152 28.4106C39.4329 28.5971 39.8197 28.6846 39.8058 29.1358C39.8358 29.2601 39.8772 29.373 40.0453 29.3338V29.3108C40.6254 31.2953 42.1863 32.474 43.6827 33.6895C44.7532 34.5598 46.0217 35.1076 47.2373 35.7408C47.136 35.8236 47.037 35.9065 46.9357 35.9871C43.8278 34.7761 41.2608 32.893 39.5204 29.9921C39.2326 29.5133 38.8435 29.0391 39.152 28.4106Z" fill="black"/>
<path d="M74.7575 25.8853C75.5563 24.9828 76.643 24.3705 77.3175 23.3436C77.969 23.91 78.3488 24.5108 77.5455 25.2498C77.435 24.976 77.3222 24.702 77.1955 24.3866C76.3782 24.923 75.8442 25.8668 74.7575 25.8853Z" fill="black"/>
<path d="M46.9358 35.9895C47.0371 35.9067 47.136 35.8238 47.2373 35.7432C48.3493 36.1577 49.5556 36.2912 50.5985 36.9082C49.2471 37.1177 48.1191 36.4408 46.9358 35.9895Z" fill="black"/>
<path d="M52.9075 37.5874C54.229 37.1982 55.5435 37.2212 56.8558 37.6357C55.532 38.2527 54.2244 37.516 52.9075 37.5874Z" fill="black"/>
<path d="M60.5002 1.76523C58.9715 2.09904 57.4405 2.08753 55.9095 1.77213C57.4405 1.64091 58.9715 1.62479 60.5002 1.76523Z" fill="black"/>
<path d="M39.8058 25.4224C43.3397 26.0417 46.7976 26.958 50.2094 28.0699C50.7366 28.2425 51.3467 28.1919 51.9176 28.1897C55.783 28.185 59.6483 28.1644 63.5137 28.1527C64.1238 28.1505 64.7408 28.1159 65.3347 28.3162C65.3347 28.4199 65.337 28.5234 65.337 28.627C63.1568 28.6409 60.9767 28.6317 58.7988 28.6754C56.8558 28.7145 54.9128 28.5602 52.9674 28.8527C50.7918 29.1772 48.7498 28.4175 46.6894 27.8512C44.7463 27.3149 42.8654 26.5527 40.851 26.2604C40.4021 26.1959 39.8012 26.1337 39.8058 25.4224Z" fill="black"/>
<path d="M65.3348 28.627C65.3348 28.5235 65.3325 28.4198 65.3325 28.3163C65.9357 28.2058 66.4858 28.0123 66.9947 27.6301C68.1503 26.76 69.5615 26.7438 70.9152 26.6471C71.8983 26.5781 72.8837 26.5896 73.846 26.3386C73.4362 26.988 72.681 27.1996 72.0802 27.2043C69.946 27.2205 68.0053 27.987 66.0047 28.535C65.7883 28.5948 65.558 28.5995 65.3348 28.627Z" fill="black"/>
<path d="M39.1198 24.4994C39.3362 24.5869 39.3707 24.7664 39.3569 24.9714C39.1474 24.8769 39.1152 24.6974 39.1198 24.4994Z" fill="#3C2315"/>
<path d="M74.2972 26.1178C74.3915 25.9175 74.5618 25.8668 74.7645 25.8807C74.677 26.097 74.4973 26.127 74.2972 26.1178Z" fill="#3F2616"/>
<path d="M73.8367 26.3457C73.9288 26.1385 74.113 26.1108 74.3087 26.1108C74.2212 26.3318 74.0393 26.3572 73.8367 26.3457Z" fill="#3F2616"/>
<path d="M39.3454 24.9597C39.4928 24.9736 39.5664 25.0587 39.5803 25.2016C39.502 25.1186 39.4237 25.0404 39.3454 24.9597Z" fill="#3C2315"/>
<path d="M39.5733 25.1924C39.6515 25.2705 39.7298 25.3489 39.8104 25.4294C39.7321 25.3512 39.6515 25.2729 39.5733 25.1924Z" fill="#3C2315"/>
<path d="M75.9017 22.2937C75.4182 23.401 74.5433 24.0342 73.5282 24.4877C72.3357 25.0195 71.074 25.2912 69.7757 25.4453C68.072 25.6503 66.3983 25.6088 64.7568 26.6033C62.8575 27.7545 60.5807 27.202 58.488 26.7208C57.5003 26.4928 56.621 26.44 55.608 26.7117C52.9743 27.4183 50.4396 27.2618 48.3814 25.1485C47.9832 24.741 47.5112 24.7387 47.007 24.734C45.4807 24.7225 43.9428 24.886 42.4349 24.4923C41.5371 24.2575 40.6968 23.9052 40.0406 23.2168C39.8818 23.0512 39.7022 22.8647 39.815 22.616C39.9347 22.3535 40.2271 22.3997 40.4182 22.448C41.4127 22.7058 42.3958 23.0005 43.3811 23.286C49.5325 25.0655 55.8128 25.8068 62.1945 25.4017C66.4397 25.1323 70.5837 24.2528 74.548 22.639C74.9578 22.4778 75.3308 22.1463 75.9017 22.2937Z" fill="#BCBCBC"/>
<path d="M75.7015 20.383C75.6668 20.2057 75.7107 20.093 75.9225 20.1275C76.0537 20.3877 75.812 20.3279 75.7015 20.383Z" fill="#FCFCFC"/>
<path d="M56.7268 20.33C53.0618 20.2955 49.3737 20.5695 45.7616 19.6808C43.9981 19.2456 42.3429 18.5873 40.9938 17.3026C40.1259 16.4761 39.9118 15.6312 40.3837 14.4318C45.4623 1.535 59.31 0.137574 67.1073 4.46106C71.5413 6.91979 74.0922 10.8657 75.5333 15.6105C75.8303 16.5913 75.248 17.1875 74.4583 17.648C72.506 18.783 70.342 19.2548 68.1642 19.6876C64.384 20.4381 60.5553 20.383 56.7268 20.33ZM55.4837 13.725C55.4883 12.1872 55.0487 10.9924 54.0218 10.0692C52.8869 9.04701 51.4687 9.34169 50.7988 10.7023C49.9585 12.4036 50.6054 14.9774 52.1502 16.0802C53.2253 16.8468 54.4178 16.5797 55.0647 15.431C55.3938 14.8439 55.5228 14.22 55.4837 13.725ZM64.6832 12.7904C64.6578 11.8419 64.5013 10.8082 63.4308 10.2695C62.6043 9.85278 61.8607 10.1843 61.23 10.7713C60.118 11.8096 59.6713 13.953 60.2585 15.3481C60.8478 16.7501 62.1715 17.0863 63.3112 16.0802C64.2503 15.2491 64.6533 14.1532 64.6832 12.7904ZM48.8281 8.02484C48.5657 8.13074 48.1144 8.05016 48.1421 8.45996C48.1674 8.81909 48.568 8.84211 48.8718 8.83751C49.1734 8.83291 49.5786 8.81219 49.5602 8.43003C49.5441 8.06628 49.1182 8.09851 48.8281 8.02484ZM70.0703 8.33794C69.923 7.88211 69.679 7.49074 69.2047 7.33879C68.9745 7.26513 68.8478 7.44239 68.9238 7.67491C69.0712 8.12384 69.3037 8.52211 69.8148 8.62111C69.9805 8.65334 70.0887 8.52441 70.0703 8.33794ZM66.007 5.46251C65.7975 5.02971 65.5052 4.65676 64.9802 4.56006C64.8052 4.52783 64.697 4.69819 64.7453 4.85244C64.9042 5.34971 65.238 5.68813 65.7583 5.78943C65.954 5.82626 65.984 5.64209 66.007 5.46251ZM54.5237 4.47258C54.6825 4.35516 55.1613 4.46106 55.0855 4.02826C55.0302 3.70826 54.6227 3.63689 54.3211 3.68063C54.0518 3.71976 53.5936 3.70826 53.665 4.12494C53.7225 4.44726 54.1208 4.47028 54.5237 4.47258ZM68.0328 11.119C68.1872 10.4145 67.8602 10.0531 67.3285 9.81825C67.181 9.75378 66.9832 9.82974 66.9992 10.0116C67.0498 10.6125 67.4252 10.9325 68.0328 11.119ZM49.4405 6.05418C49.8342 5.85849 50.2462 5.62828 50.3498 5.13331C50.3936 4.91689 50.2186 4.77646 49.9815 4.88698C49.5579 5.08496 49.1642 5.33819 49.0859 5.84698C49.056 6.03806 49.2494 6.06108 49.4405 6.05418ZM44.6289 10.4652C44.919 10.4237 45.3104 10.479 45.2989 10.0508C45.2897 9.70774 44.919 9.71234 44.6796 9.69853C44.3941 9.68241 43.9843 9.68011 43.959 10.06C43.9314 10.479 44.3458 10.4191 44.6289 10.4652ZM60.7303 4.02596C60.1825 3.69214 59.729 3.53789 59.2247 3.89703C59.0682 4.00754 59.1212 4.19171 59.25 4.27919C59.7588 4.61761 60.2123 4.51633 60.7303 4.02596ZM61.4878 7.98341C61.7755 7.93966 62.2083 8.05248 62.2313 7.66571C62.2543 7.29966 61.847 7.27433 61.55 7.27203C61.2507 7.26743 60.8455 7.26973 60.8178 7.62426C60.781 8.06858 61.2368 7.90513 61.4878 7.98341ZM54.7907 7.04871C55.0832 7.02569 55.509 7.06944 55.5228 6.71029C55.5367 6.34886 55.1177 6.34656 54.823 6.34424C54.5306 6.34194 54.1185 6.30511 54.1024 6.68498C54.084 7.09706 54.5076 7.01418 54.7907 7.04871Z" fill="#B7B7B7"/>
<path d="M41.201 18.5092C43.0727 19.5612 45.0203 20.3923 47.1659 20.74C48.2641 20.9195 49.3852 20.9448 50.4673 20.9702C54.899 21.0737 59.3353 21.159 63.7715 20.9357C66.7622 20.7837 69.6652 20.2842 72.4762 19.2503C73.1553 18.9995 73.8367 18.7555 74.5182 18.5092C74.5527 18.546 74.5848 18.5828 74.6195 18.6197C74.3892 19.0755 73.9218 19.1975 73.5098 19.3702C70.6735 20.5558 67.6807 21.0577 64.6395 21.3132C59.3513 21.3108 54.0633 21.3085 48.7729 21.3063C47.9395 21.2188 47.0761 21.2463 46.2819 21.0208C44.4355 20.4958 42.4649 20.1897 41.0951 18.6197C41.1296 18.5852 41.1665 18.546 41.201 18.5092Z" fill="black"/>
<path d="M74.5182 18.5089C74.7162 18.1476 75.0477 18.0439 75.4298 18.0439L75.4805 18.1014C75.3078 18.4653 74.9578 18.5321 74.6195 18.6218C74.5872 18.5849 74.5527 18.5458 74.5182 18.5089Z" fill="black"/>
<path d="M75.432 18.044C75.4688 17.7723 75.6255 17.6226 75.8948 17.5858L75.934 17.625C75.9108 17.9035 75.7613 18.0623 75.485 18.1015L75.432 18.044Z" fill="black"/>
<path d="M75.4827 18.1015C75.759 18.0623 75.9087 17.9035 75.9317 17.625C76.4773 17.6687 76.2632 17.9842 76.1712 18.2718C75.5702 20.132 74.205 21.2532 72.4692 21.9277C69.8908 22.9315 67.1812 23.3528 64.4323 23.6083C61.6927 23.8615 58.96 24.1355 56.2043 24.0365C51.7657 23.8777 47.3915 23.263 43.1049 22.1073C40.3837 21.3752 39.2925 19.8697 39.6976 17.4777C40.142 17.9473 40.4366 18.539 41.0974 18.6218C42.4672 20.1942 44.4378 20.5003 46.2842 21.0253C47.0761 21.2508 47.9418 21.2233 48.7751 21.3108C49.0514 21.6032 49.4152 21.5225 49.7513 21.5225C54.3879 21.5272 59.0268 21.5272 63.6633 21.5225C63.9995 21.5225 64.3608 21.6055 64.6418 21.32C67.6853 21.0622 70.6758 20.5625 73.512 19.377C73.9242 19.2043 74.3915 19.0822 74.6217 18.6263C74.9578 18.532 75.31 18.463 75.4827 18.1015Z" fill="#686868"/>
<path d="M55.4837 13.7252C55.5228 14.2202 55.3938 14.8464 55.0647 15.4288C54.4154 16.5799 53.2252 16.847 52.1501 16.078C50.6053 14.9753 49.9584 12.4015 50.7987 10.7001C51.4709 9.33956 52.8868 9.04488 54.0218 10.067C55.0462 10.9925 55.4883 12.1851 55.4837 13.7252ZM52.2813 11.3471C51.6574 11.3977 51.3144 11.7315 51.3075 12.3669C51.3006 12.9862 51.6114 13.4236 52.2399 13.4282C52.8016 13.4328 53.1262 13.0415 53.1607 12.4705C53.2022 11.8512 52.9282 11.4553 52.2813 11.3471Z" fill="#040302"/>
<path d="M64.6832 12.7905C64.651 14.1534 64.2503 15.2492 63.3112 16.078C62.1715 17.0864 60.8478 16.7502 60.2583 15.3459C59.6713 13.9508 60.118 11.8075 61.23 10.7692C61.8585 10.1821 62.602 9.85061 63.4308 10.2673C64.5013 10.8083 64.6578 11.8443 64.6832 12.7905ZM62.9267 11.8282C62.4777 11.9249 62.13 12.2242 62.1323 12.802C62.1347 13.3154 62.404 13.6953 62.929 13.7436C63.5322 13.7989 63.859 13.3937 63.8912 12.8504C63.9258 12.3047 63.6288 11.9203 62.9267 11.8282Z" fill="#040302"/>
<path d="M48.8281 8.0249C49.1182 8.09857 49.5441 8.06635 49.5625 8.43009C49.5809 8.81225 49.1734 8.83527 48.8741 8.83757C48.5702 8.84219 48.1674 8.81915 48.1443 8.46002C48.1144 8.05024 48.5656 8.1308 48.8281 8.0249Z" fill="white"/>
<path d="M70.0727 8.33807C70.0887 8.52454 69.9805 8.65347 69.817 8.62124C69.306 8.52224 69.0735 8.12395 68.9262 7.67504C68.8502 7.44252 68.9767 7.26525 69.207 7.33892C69.6788 7.49085 69.923 7.88224 70.0727 8.33807Z" fill="white"/>
<path d="M66.007 5.46265C65.9817 5.64221 65.9517 5.8264 65.7583 5.78956C65.238 5.68826 64.9018 5.34753 64.7453 4.85256C64.697 4.70063 64.8052 4.52796 64.9802 4.5602C65.505 4.65688 65.7998 5.02983 66.007 5.46265Z" fill="white"/>
<path d="M54.5236 4.47269C54.1208 4.47039 53.7202 4.44737 53.6672 4.12506C53.5982 3.70837 54.054 3.71987 54.3233 3.68074C54.6226 3.63701 55.0325 3.70837 55.0877 4.02837C55.1613 4.46117 54.6825 4.35527 54.5236 4.47269Z" fill="white"/>
<path d="M68.0328 11.1191C67.4252 10.9327 67.0498 10.6127 66.9992 10.0118C66.9832 9.82991 67.1812 9.75394 67.3285 9.81841C67.8603 10.0532 68.1872 10.417 68.0328 11.1191Z" fill="white"/>
<path d="M49.4405 6.05432C49.2494 6.06123 49.056 6.0382 49.0859 5.84482C49.1642 5.33603 49.5579 5.0851 49.9815 4.88482C50.2186 4.7743 50.3936 4.91473 50.3498 5.13115C50.2462 5.62842 49.8341 5.85863 49.4405 6.05432Z" fill="white"/>
<path d="M44.6289 10.4652C44.3457 10.4192 43.9313 10.479 43.959 10.06C43.9843 9.68016 44.3941 9.68246 44.6795 9.69858C44.919 9.71239 45.2896 9.70779 45.2988 10.0508C45.3103 10.479 44.9167 10.4238 44.6289 10.4652Z" fill="white"/>
<path d="M60.7303 4.02587C60.2147 4.51854 59.7588 4.61754 59.2523 4.27682C59.1235 4.18934 59.0705 4.00516 59.227 3.89466C59.7267 3.53782 60.1825 3.69206 60.7303 4.02587Z" fill="white"/>
<path d="M61.4878 7.98338C61.2368 7.90741 60.7833 8.07086 60.8178 7.62425C60.8455 7.2674 61.2507 7.2674 61.5498 7.27201C61.8468 7.27661 62.2543 7.30193 62.2313 7.66568C62.206 8.05245 61.7755 7.93965 61.4878 7.98338Z" fill="white"/>
<path d="M54.7885 7.05104C54.5076 7.0142 54.0817 7.09709 54.1001 6.68731C54.1162 6.30744 54.5283 6.34427 54.8207 6.34657C55.1153 6.34889 55.5343 6.35119 55.5205 6.71262C55.509 7.07177 55.0832 7.02572 54.7885 7.05104Z" fill="white"/>
<path d="M64.6395 21.3153C64.3585 21.6008 63.9972 21.518 63.661 21.518C59.0243 21.5225 54.3855 21.5225 49.7489 21.518C49.4128 21.518 49.0514 21.6008 48.7728 21.3062C54.0632 21.3108 59.3513 21.313 64.6395 21.3153Z" fill="black"/>
<path d="M52.2814 11.347C52.9283 11.4552 53.2022 11.8512 53.1631 12.4705C53.1263 13.0414 52.804 13.4328 52.2422 13.4282C51.6137 13.4236 51.3029 12.9862 51.3098 12.3669C51.3144 11.7315 51.6598 11.3977 52.2814 11.347Z" fill="white"/>
<path d="M62.9267 11.828C63.6288 11.9201 63.9235 12.3046 63.8913 12.8502C63.859 13.3935 63.5322 13.7964 62.929 13.7434C62.404 13.6951 62.1323 13.3152 62.1323 12.8018C62.1302 12.224 62.4777 11.9247 62.9267 11.828Z" fill="white"/>
</svg>
