<svg width="120" height="40" viewBox="0 0 120 40" fill="none" xmlns="http://www.w3.org/2000/svg">
<path d="M0.683237 17.7106C1.11476 18.3418 1.69012 18.7566 2.42731 18.9911C3.16449 19.2075 4.0635 19.3338 5.1423 19.3338H10.3206C10.9858 19.3338 11.5432 19.2797 11.9747 19.1534C12.4242 19.0452 12.8378 18.7927 13.2333 18.3959C13.6469 17.9811 13.9166 17.5482 14.0424 17.0793C14.1683 16.6104 14.2222 15.9971 14.2222 15.2036V10.6405H9.74521V15.402H4.58492V8.83687H14.0604V4.83289H4.65684C3.16449 4.83289 2.0677 5.15753 1.33052 5.78879C0.863038 6.20362 0.539397 6.69059 0.377576 7.23167C0.215755 7.77275 0.125854 8.45811 0.125854 9.2517V14.9511C0.125854 15.6004 0.161815 16.1414 0.233735 16.5563C0.305655 16.9711 0.449496 17.3679 0.683237 17.7106Z" fill="url(#paint0_linear_8864_2155)"/>
<path d="M20.4254 13.5983H25.1721V19.2616H29.793V8.74666C29.793 8.04326 29.7211 7.44807 29.5772 6.97913C29.4334 6.5102 29.1457 6.09537 28.7142 5.69858C28.3366 5.3559 27.959 5.12143 27.5635 4.99518C27.1679 4.86893 26.6824 4.81482 26.1251 4.81482H20.2096C18.6453 4.81482 17.5845 5.12143 16.9912 5.73465C16.6496 6.09537 16.4158 6.43806 16.254 6.78074C16.0922 7.12342 15.9663 7.53825 15.9663 8.00718L16.0023 19.2616H20.4254V13.5983ZM20.4434 8.8188H25.1362V10.5322H20.4434V8.8188V8.8188Z" fill="url(#paint1_linear_8864_2155)"/>
<path d="M36.0141 10.7667L38.0279 19.2436H41.534L43.5298 10.6946L43.5478 19.2797H48.0608V4.88699H42.0914L39.8619 14.0673L37.7762 4.83289H31.5551V19.2797H36.0141V10.7667Z" fill="url(#paint2_linear_8864_2155)"/>
<path d="M80.8385 14.0673L78.7528 4.83289H72.5497V19.2797H77.0087V10.7667L79.0225 19.2436H82.5286L84.5424 10.6765L84.5244 19.2797H89.0554V4.88699H83.068L80.8385 14.0673Z" fill="url(#paint3_linear_8864_2155)"/>
<path fill-rule="evenodd" clip-rule="evenodd" d="M72.4598 4.74292H78.8247L80.8417 13.6734L82.9975 4.79703H89.1454V19.3701H84.4344L84.4509 11.4591L82.5999 19.334H78.9516L77.0987 11.5344V19.3701H72.4598V4.74292ZM72.6396 4.92328V19.1897H76.9189V9.99947L79.0936 19.1537H82.4575L84.634 9.89439L84.6146 19.1897H88.9656V4.97739H83.1387L80.8354 14.4616L78.6811 4.92328H72.6396Z" fill="#717070"/>
<path d="M103.565 5.71665C103.188 5.37396 102.81 5.1395 102.415 5.01325C102.019 4.88699 101.534 4.83289 100.976 4.83289H95.0608C93.4965 4.83289 92.4357 5.1395 91.8423 5.75272C91.5187 6.11344 91.267 6.45612 91.1052 6.79881C90.9433 7.14149 90.8354 7.55632 90.8354 8.02525V19.2436H95.2585V13.5984H100.005V19.2617H104.626V8.74669C104.626 8.04329 104.59 7.4481 104.428 6.9972C104.267 6.52827 103.997 6.11344 103.565 5.71665ZM99.9873 10.5142H95.2945V8.8008H99.9873V10.5142Z" fill="url(#paint4_linear_8864_2155)"/>
<path fill-rule="evenodd" clip-rule="evenodd" d="M91.7778 5.69013C92.3975 5.04966 93.4902 4.74292 95.0607 4.74292H100.976C101.538 4.74292 102.034 4.79737 102.442 4.92752C102.853 5.05864 103.241 5.30105 103.626 5.64999L103.626 5.65038C104.068 6.05636 104.346 6.48346 104.513 6.96743C104.681 7.43469 104.716 8.04415 104.716 8.7469V19.3521H99.9153V13.6888H95.3484V19.334H90.7455V8.02547C90.7455 7.5425 90.8566 7.11453 91.0238 6.76041C91.1909 6.40664 91.4489 6.05655 91.7754 5.69261L91.7766 5.69134L91.7778 5.69013ZM91.9079 5.81454C91.5878 6.17155 91.3427 6.50642 91.1863 6.83762C91.0299 7.16887 90.9253 7.57057 90.9253 8.02547V19.1537H95.1686V13.5084H100.095V19.1717H104.536V8.7469C104.536 8.04313 104.5 7.46243 104.344 7.02796L104.343 7.02691C104.187 6.5733 103.926 6.17097 103.505 5.78357C103.134 5.44724 102.768 5.22076 102.387 5.09939C102.004 4.97705 101.529 4.92328 100.976 4.92328H95.0607C93.5037 4.92328 92.4752 5.22934 91.9079 5.81454ZM95.2045 8.71083H100.077V10.6046H95.2045V8.71083ZM95.3843 8.89119V10.4242H99.8973V8.89119H95.3843Z" fill="#717070"/>
<path d="M119.873 4.83289H106.388V8.72865H110.883L110.847 19.2797H115.486L115.468 8.74669H119.909L119.873 4.83289Z" fill="url(#paint5_linear_8864_2155)"/>
<path fill-rule="evenodd" clip-rule="evenodd" d="M106.298 4.74292H119.962L120 8.83708H115.558L115.576 19.3701H110.757L110.793 8.81905H106.298V4.74292ZM106.478 4.92328V8.63869H110.973L110.938 19.1897H115.396L115.378 8.65672H119.819L119.784 4.92328H106.478Z" fill="#717070"/>
<path fill-rule="evenodd" clip-rule="evenodd" d="M1.38996 5.85671C0.933499 6.26181 0.620146 6.73483 0.463742 7.2578C0.305076 7.78833 0.215812 8.46455 0.215812 9.25191V14.9513C0.215812 15.5979 0.251675 16.1333 0.322363 16.541C0.392511 16.9456 0.532321 17.3297 0.75749 17.6599C1.17783 18.2747 1.73627 18.6945 2.45262 18.9048L2.45454 18.9053C3.17983 19.136 4.06881 19.2438 5.14236 19.2438H10.3206C10.9815 19.2438 11.5117 19.19 11.95 19.067C12.3657 18.9453 12.7845 18.7011 13.1706 18.3316C13.5753 17.9254 13.8349 17.5061 13.9557 17.0561C14.0785 16.5986 14.1324 15.9767 14.1324 15.2038V10.7309H9.83516V15.5104H4.49507V8.7469H13.9706V4.92328H4.6569C3.17521 4.92328 2.08594 5.24595 1.38996 5.85671ZM1.27138 5.72114C2.01381 5.06949 3.15402 4.74292 4.6569 4.74292H14.1504V8.92726H4.67488V15.33H9.65536V10.5505H14.3122V15.2038C14.3122 15.9819 14.2583 16.6226 14.1293 17.103C13.9985 17.5905 13.7189 18.0367 13.297 18.4599L13.2955 18.4614C12.8908 18.8489 12.447 19.1094 12 19.2402L11.999 19.2405C11.5385 19.3698 10.99 19.4242 10.3206 19.4242H5.14236C4.05874 19.4242 3.15003 19.3156 2.40112 19.0776C1.64361 18.855 1.05166 18.4091 0.609151 17.7618C0.366837 17.4065 0.218913 16.997 0.145221 16.5719C0.0720677 16.15 0.0360107 15.6032 0.0360107 14.9513V9.25191C0.0360107 8.45211 0.126548 7.7576 0.291524 7.20597C0.45874 6.64685 0.792609 6.14598 1.27101 5.72146L1.27138 5.72114ZM31.4652 4.74292H37.848L39.8651 13.6734L42.0208 4.79703H48.1507V19.3701H43.4581L43.4416 11.4752L41.6235 19.334H37.9749L36.1041 11.4587V19.3701H31.4652V4.74292ZM31.645 4.92328V19.1897H35.9243V10.6768H36.1032L38.1169 19.1537H41.4806L43.6181 9.91434L43.6376 19.1897H47.9709V4.97739H42.1621L39.8588 14.4616L37.7044 4.92328H31.645ZM20.2097 4.94132C18.6516 4.94132 17.6227 5.2478 17.0558 5.83378L17.0548 5.83474C16.7212 6.16941 16.4932 6.52138 16.3353 6.85566C16.1777 7.18932 16.0563 7.5908 16.0563 8.04321C16.0563 8.04331 16.0563 8.04341 16.0563 8.0435L16.092 19.1717H20.3355V13.5445H25.2621V19.2078H29.7032V8.78298C29.7032 8.06775 29.6319 7.50069 29.4918 7.04344C29.3352 6.59041 29.0745 6.18851 28.6537 5.80151C28.2831 5.46523 27.9165 5.23879 27.5363 5.11743L27.5351 5.11706C27.1707 4.99522 26.6963 4.94132 26.1251 4.94132H20.2097ZM16.9272 5.70766C17.547 5.06753 18.6396 4.76096 20.2097 4.76096H26.1251C26.7044 4.76096 27.2007 4.81522 27.5914 4.94575C28.002 5.07691 28.3903 5.31925 28.7746 5.66803L28.775 5.66842C29.2167 6.07453 29.4952 6.50178 29.6623 6.98595L29.6628 6.98743L29.6632 6.98893C29.8106 7.46929 29.883 8.05609 29.883 8.78298V19.3881H25.0823V13.7248H20.5153V19.3521H15.9127L15.8765 8.04379V8.0435C15.8765 7.55815 16.0068 7.13009 16.1728 6.77845C16.3385 6.42752 16.5779 6.05822 16.9272 5.70766ZM20.3535 8.71083H25.2261V10.6046H20.4434V10.5144H20.3535V8.71083ZM20.5333 10.4242H25.0463V8.89119H20.5333V10.4242Z" fill="black"/>
<path fill-rule="evenodd" clip-rule="evenodd" d="M72.4418 4.74292H78.8246L80.8417 13.6734L82.9974 4.79703H89.1453V19.3881H84.4525V11.4686L82.5997 19.334H78.9335L77.0806 11.5344V19.3701H72.4418V4.74292ZM72.6216 4.92328V19.1897H76.9008V9.99947L79.0755 19.1537H82.4575L84.6323 9.92097V19.2078H88.9655V4.97739H83.1386L80.8353 14.4616L78.681 4.92328H72.6216ZM106.298 4.74292H119.963L119.982 8.85512H115.558V19.3701H110.757L110.793 8.83708H106.298V4.74292ZM106.478 4.92328V8.65672H110.973L110.937 19.1897H115.378V8.67476H119.801L119.784 4.92328H106.478ZM95.0607 4.94132C93.5027 4.94132 92.4738 5.2478 91.9068 5.83378L91.9059 5.83474C91.5722 6.16941 91.3442 6.52138 91.1864 6.85566C91.0299 7.18691 90.9253 7.5886 90.9253 8.0435V19.1717H95.1686V13.5264H100.095V19.1897H104.536V8.7469C104.536 8.04681 104.482 7.48015 104.342 7.02394C104.204 6.57413 103.928 6.17287 103.506 5.80277L103.505 5.80177C103.134 5.46535 102.768 5.23882 102.387 5.11743L102.386 5.11706C102.022 4.99522 101.547 4.94132 100.976 4.94132H95.0607ZM91.7783 5.70766C92.3981 5.06753 93.4907 4.76096 95.0607 4.76096H100.976C101.555 4.76096 102.052 4.81522 102.442 4.94575C102.853 5.07684 103.241 5.319 103.625 5.66748C104.066 6.05477 104.365 6.48302 104.514 6.9709C104.662 7.45255 104.716 8.0402 104.716 8.7469V19.3701H99.9154V13.7068H95.3484V19.3521H90.7455V8.0435C90.7455 7.56053 90.8566 7.13257 91.0239 6.77845C91.1896 6.42752 91.4289 6.05822 91.7783 5.70766ZM95.2046 8.72887H100.077V10.6226H95.2046V8.72887ZM95.3844 8.90923V10.4423H99.8974V8.90923H95.3844Z" fill="#727070"/>
<path d="M60.4851 20.362C65.0927 20.362 68.8279 16.6152 68.8279 11.9933C68.8279 7.37142 65.0927 3.62463 60.4851 3.62463C55.8775 3.62463 52.1423 7.37142 52.1423 11.9933C52.1423 16.6152 55.8775 20.362 60.4851 20.362Z" fill="url(#paint6_linear_8864_2155)"/>
<path d="M55.8463 20.7406C51.0456 18.1795 49.2116 12.1735 51.7648 7.33984C54.318 2.52424 60.3053 0.684568 65.124 3.24567C69.9247 5.80678 71.7587 11.8128 69.2055 16.6464C66.6523 21.48 60.647 23.3017 55.8463 20.7406ZM64.3329 4.74266C60.3413 2.61442 55.3608 4.14747 53.2392 8.15146C51.1175 12.1554 52.6458 17.1514 56.6374 19.2796C60.629 21.4079 65.6095 19.8748 67.7311 15.8708C69.8528 11.8488 68.3245 6.8709 64.3329 4.74266Z" fill="url(#paint7_linear_8864_2155)"/>
<path fill-rule="evenodd" clip-rule="evenodd" d="M65.0817 3.32552C60.3068 0.787763 54.374 2.61086 51.8441 7.38236C49.3142 12.1721 51.1317 18.1235 55.8884 20.6612C60.6455 23.199 66.5962 21.3937 69.126 16.6044C71.656 11.8146 69.8385 5.86322 65.0817 3.32552ZM51.6854 7.29772C54.2619 2.4381 60.3037 0.581869 65.1661 3.16622L65.1662 3.16628C70.0107 5.7508 71.8612 11.8113 69.2849 16.6888C66.7083 21.5668 60.6483 23.4048 55.804 20.8204C50.9594 18.2359 49.109 12.1753 51.6853 7.29785L51.6854 7.29772ZM53.1597 8.10936C55.3046 4.06148 60.3395 2.51159 64.375 4.66326C68.4104 6.81485 69.9554 11.8473 67.8105 15.9133L67.8105 15.9134C65.6655 19.9613 60.6307 21.5112 56.5952 19.3595C52.5598 17.2079 51.0147 12.1574 53.1597 8.10936ZM64.2906 4.82252C60.343 2.71769 55.4169 4.23392 53.3185 8.19401C51.2202 12.1539 52.7317 17.0953 56.6796 19.2002C60.6272 21.305 65.5532 19.7889 67.6516 15.8289C69.7501 11.8508 68.2384 6.92741 64.2906 4.82252Z" fill="#6F6F6E"/>
<path d="M60.4851 19.4603C64.5962 19.4603 67.9289 16.1172 67.9289 11.9934C67.9289 7.86953 64.5962 4.52649 60.4851 4.52649C56.3741 4.52649 53.0414 7.86953 53.0414 11.9934C53.0414 16.1172 56.3741 19.4603 60.4851 19.4603Z" fill="url(#paint8_radial_8864_2155)"/>
<path d="M60.4851 4.52649V5.06757C61.5999 5.06757 62.7326 5.35614 63.7215 5.87919C67.0838 7.68278 68.3604 11.8852 66.5804 15.2579C65.3757 17.5304 63.0383 18.9372 60.4671 18.9372C59.3524 18.9372 58.2196 18.6486 57.2307 18.1256C55.5945 17.2599 54.4078 15.799 53.8684 14.0314C53.329 12.2639 53.5088 10.3882 54.3719 8.7469C55.5766 6.47437 57.914 5.06757 60.4851 5.06757V4.52649ZM60.4851 4.52649C57.8241 4.52649 55.2349 5.96937 53.9044 8.4944C51.9805 12.1377 53.347 16.6647 56.979 18.5945C58.0938 19.1897 59.2984 19.4783 60.4671 19.4783C63.1282 19.4783 65.7173 18.0354 67.0479 15.5104C68.9717 11.8671 67.6052 7.3401 63.9733 5.41025C62.8585 4.79703 61.6718 4.52649 60.4851 4.52649Z" fill="url(#paint9_radial_8864_2155)"/>
<path opacity="0.73" d="M62.0674 5.21176C63.4339 6.34803 62.8945 8.58449 60.8627 10.1897C58.831 11.7949 56.098 12.1736 54.7315 11.0374C53.365 9.90111 53.9044 7.66466 55.9362 6.05946C57.9499 4.45425 60.7009 4.0755 62.0674 5.21176Z" fill="url(#paint10_linear_8864_2155)"/>
<path opacity="0.65" d="M61.8336 5.32003C63.1641 6.43826 62.6966 8.5665 60.7907 10.0635C58.8848 11.5605 56.2777 11.8671 54.9472 10.7308C53.6167 9.59455 54.0842 7.48434 55.99 5.98736C57.8959 4.49037 60.5031 4.2018 61.8336 5.32003Z" fill="url(#paint11_radial_8864_2155)"/>
<path d="M5.14231 28.1897C5.14231 28.0093 5.03443 27.847 4.81867 27.6847C4.6029 27.5224 4.38714 27.4322 4.17138 27.4142C3.38026 27.3059 2.58913 27.1797 1.78003 27.0534C1.72609 27.0354 1.63619 27.0174 1.51033 26.9633C1.38447 26.9091 1.33053 26.8911 1.31255 26.8911C1.16871 26.8911 1.02487 26.9633 0.899005 27.1436C0.773144 27.3059 0.701224 27.4683 0.665264 27.6126C0.791124 27.7208 0.934965 27.7929 1.09679 27.8109C1.34851 27.847 1.47437 27.8651 1.49235 27.8651C1.49235 27.8651 1.36649 27.9372 1.13275 28.0635C0.988905 28.1536 0.881025 28.2258 0.827084 28.316C0.773144 28.6406 0.719204 28.857 0.701224 28.9833C0.611323 29.3801 0.539403 29.831 0.449502 30.336C0.377582 30.841 0.305662 31.2197 0.269701 31.4722C0.107881 31.5985 0.0179801 31.7789 0.0179801 31.9773C0.0179801 31.9953 0.0899005 32.0855 0.233741 32.2117L0 35.9452C0 36.5043 0 36.9191 0.0179801 37.2077C0.107881 37.2618 0.161821 37.2798 0.215761 37.2798C0.287682 37.2798 0.413542 37.2257 0.611323 37.0995C0.809104 36.9732 0.899005 36.883 0.899005 36.8289C0.899005 36.4141 0.899005 36.0895 0.899005 35.873C0.899005 35.6025 0.952945 34.6466 1.07881 33.0053C1.15073 32.1576 1.20467 31.6165 1.25861 31.364C2.53519 30.6246 3.3443 30.1376 3.68592 29.8851C4.65685 29.1636 5.14231 28.5865 5.14231 28.1897ZM3.54208 29.4161C3.1645 29.7228 2.82288 29.9572 2.48125 30.1376C2.12165 30.354 1.72609 30.5705 1.31255 30.7688C1.31255 30.4081 1.40245 29.7769 1.56427 28.8931C1.61821 28.5865 1.69013 28.334 1.78003 28.0995C1.76205 28.0454 1.74407 27.9552 1.72609 27.8651C2.35539 27.9552 2.69701 27.9913 2.78692 27.9913C2.9847 27.9913 3.2544 28.0454 3.57804 28.1356C4.02754 28.2618 4.2433 28.4242 4.2433 28.6045C4.2433 28.7669 4.00956 29.0374 3.54208 29.4161Z" fill="#6F6F6E"/>
<path d="M7.51563 26.4402C7.24593 26.4402 6.9942 26.5123 6.74248 26.6386C6.43682 26.8009 6.23904 26.9813 6.14914 27.2157C6.05924 27.4863 6.07722 27.7027 6.20308 27.829C6.31096 27.8109 6.47278 27.7027 6.67056 27.5043C6.86834 27.2879 7.06613 27.1977 7.26391 27.1977C7.35381 27.1977 7.42573 27.2157 7.51563 27.2518C8.18089 27.4322 8.50453 27.8831 8.50453 28.6225C8.50453 28.6586 8.48655 28.7308 8.46857 28.8209C8.12695 28.3881 7.78533 28.1716 7.47967 28.1716C6.85036 28.1716 6.14914 28.6586 5.39398 29.6326C4.63881 30.6065 4.26123 31.4181 4.26123 32.0854C4.26123 32.1937 4.27921 32.3019 4.29719 32.3921C4.33315 32.5544 4.44103 32.6806 4.60285 32.8069C4.76467 32.9331 4.92649 32.9872 5.05235 32.9872C5.51984 32.9872 6.14914 32.6626 6.92228 31.9953C7.37179 31.5804 7.69543 31.2558 7.91119 31.0394C7.92917 31.1115 7.94715 31.1836 7.96513 31.2558C7.98311 31.3279 8.03705 31.364 8.10897 31.364C8.37867 31.364 8.64837 30.8229 8.91807 29.7408C9.06192 29.1456 9.13384 28.6766 9.13384 28.352C9.13384 27.865 9.02596 27.4502 8.81019 27.1616C8.43261 26.6566 8.01907 26.4402 7.51563 26.4402ZM7.82129 30.5163C7.71341 30.6065 7.60553 30.7147 7.51563 30.8229C6.86834 31.4361 6.275 31.8149 5.71762 31.9592C5.25014 31.9231 5.01639 31.7067 5.01639 31.3279C5.01639 30.877 5.26812 30.4081 5.78954 29.8851C6.29298 29.38 6.76046 29.1095 7.19199 29.1095C7.44371 29.1095 7.64149 29.2538 7.76735 29.5243C7.87523 29.7227 7.92917 29.9572 7.92917 30.2097C7.92917 30.336 7.89321 30.4261 7.82129 30.5163Z" fill="#6F6F6E"/>
<path d="M13.8267 29.5062C13.557 29.2718 13.1974 29.0914 12.7658 28.9471C12.1365 28.7307 11.7589 28.5864 11.6511 28.5323C11.1117 28.2618 10.842 28.0093 10.842 27.7567C10.842 27.6305 11.0397 27.4862 11.4353 27.36C11.7589 27.2337 11.9747 27.1796 12.0826 27.1796C12.1006 27.1976 12.1365 27.2337 12.1905 27.2878C12.2264 27.3419 12.2804 27.36 12.3523 27.36C12.3703 27.36 12.4602 27.3239 12.604 27.2698C12.7478 27.2157 12.8378 27.1616 12.8557 27.1435C13.1434 26.8369 13.2873 26.6566 13.2873 26.5483C13.2873 26.4401 13.1974 26.386 13.0355 26.4041C12.9097 26.4221 12.7838 26.4401 12.6579 26.4582C12.4602 26.4762 12.1725 26.5483 11.7949 26.6926C11.705 26.7467 11.4533 26.855 11.0397 27.0353C10.4464 27.3059 10.0688 27.5584 9.90699 27.8109C9.83507 27.9371 9.83507 28.1355 9.90699 28.406C9.96093 28.6585 10.3565 28.9111 11.0757 29.1636C11.4173 29.2898 11.687 29.3619 11.8848 29.4161C12.6939 29.6145 13.0895 29.885 13.0895 30.2096C13.0895 30.4441 12.9097 30.6786 12.5321 30.877C12.2804 30.9852 12.0286 31.0934 11.7949 31.2016C11.5252 31.2918 11.3274 31.3279 11.2195 31.3459C11.4173 31.1475 11.6331 30.9672 11.8309 30.8048C11.8488 30.7868 11.8488 30.7507 11.8488 30.6966C10.8959 31.0032 10.1587 31.4181 9.65527 31.905C9.70921 32.0313 9.74517 32.0854 9.78113 32.0854C10.0508 32.0673 10.3745 32.0132 10.7521 31.905C10.788 31.905 11.0757 31.8148 11.6151 31.6525C13.2333 31.1655 14.0604 30.6064 14.0604 29.9752C14.0244 29.7768 13.9705 29.6145 13.8267 29.5062Z" fill="#6F6F6E"/>
<path d="M16.8653 28.9471C16.236 28.7307 15.8584 28.5864 15.7506 28.5323C15.2111 28.2618 14.9414 28.0093 14.9414 27.7567C14.9414 27.6305 15.1392 27.4862 15.5348 27.36C15.8584 27.2337 16.0742 27.1796 16.1821 27.1796C16.2001 27.1976 16.236 27.2337 16.29 27.2878C16.3259 27.3419 16.3799 27.36 16.4518 27.36C16.4698 27.36 16.5597 27.3239 16.7035 27.2698C16.8473 27.2157 16.9372 27.1616 16.9552 27.1435C17.2429 26.8369 17.3867 26.6566 17.3867 26.5483C17.3867 26.4401 17.2968 26.386 17.135 26.4041C17.0092 26.4221 16.8833 26.4401 16.7574 26.4582C16.5597 26.4762 16.272 26.5483 15.8944 26.6926C15.8045 26.7467 15.5528 26.855 15.1392 27.0353C14.5459 27.3059 14.1683 27.5584 14.0065 27.8109C13.9346 27.9371 13.9346 28.1355 14.0065 28.406C14.0604 28.6585 14.456 28.9111 15.1752 29.1636C15.5168 29.2898 15.7865 29.3619 15.9843 29.4161C16.7934 29.6145 17.189 29.885 17.189 30.2096C17.189 30.4441 17.0092 30.6786 16.6316 30.877C16.3799 30.9852 16.1281 31.0934 15.8944 31.2016C15.6247 31.2918 15.4269 31.3279 15.319 31.3459C15.5168 31.1475 15.7326 30.9672 15.9304 30.8048C15.9483 30.7868 15.9483 30.7507 15.9483 30.6966C14.9954 31.0032 14.2582 31.4181 13.7548 31.905C13.8087 32.0313 13.8447 32.0854 13.8806 32.0854C14.1503 32.0673 14.474 32.0132 14.8515 31.905C14.8875 31.905 15.1752 31.8148 15.7146 31.6525C17.3328 31.1655 18.1599 30.6064 18.1599 29.9752C18.1599 29.7768 18.088 29.6145 17.9621 29.5062C17.6564 29.2718 17.2968 29.0914 16.8653 28.9471Z" fill="#6F6F6E"/>
<path d="M21.8458 24.3661C21.8278 24.3841 21.8098 24.5284 21.8098 24.7989C21.8098 24.9973 21.9177 25.0334 22.1514 24.9071C22.4571 24.7268 22.6189 24.5464 22.6189 24.3661C22.6189 24.348 22.6189 24.312 22.6189 24.2939C22.6369 24.2759 22.6369 24.2578 22.6369 24.2398C22.6369 24.0234 22.547 23.9152 22.3672 23.9152C22.1874 23.9152 22.0256 24.0594 21.8458 24.3661Z" fill="#6F6F6E"/>
<path d="M21.0368 26.7828C21.0368 26.5844 20.9648 26.5123 20.821 26.5484C20.6232 26.6025 20.4794 26.7107 20.3535 26.8369C20.1917 27.1255 20.0658 27.3961 19.9759 27.6305C19.4365 28.7307 19.041 29.6145 18.7892 30.2818C18.6454 30.6606 18.5735 30.9852 18.5735 31.2557C18.5735 31.5984 18.7173 31.7608 19.023 31.7608C19.0769 31.7608 19.1309 31.7427 19.1848 31.7247C19.2387 31.6886 19.3107 31.6345 19.3826 31.5263C19.4545 31.4181 19.5264 31.3459 19.5984 31.2738C19.5444 31.0934 19.5085 30.877 19.5085 30.6065C19.5085 30.3359 19.6523 29.885 19.922 29.2538C20.1018 28.875 20.2816 28.5143 20.4614 28.1355C20.839 27.1796 21.0368 26.7287 21.0368 26.7828Z" fill="#6F6F6E"/>
<path d="M24.0214 26.5484C24.0754 26.4041 24.1293 26.2959 24.1473 26.2418C24.0394 26.1696 23.9495 26.1335 23.8776 26.1335C23.7517 26.1335 23.6259 26.1516 23.5 26.2057C23.3022 26.2959 23.1764 26.368 23.0865 26.4402C22.4032 26.855 21.8818 27.378 21.5402 28.0273C21.1266 28.8389 20.9109 29.6325 20.9109 30.4081C20.9109 30.8229 20.9828 31.1295 21.1087 31.2738C21.4323 31.6525 21.8279 31.8509 22.2774 31.8509C22.7269 31.8509 23.1944 31.6706 23.6978 31.3099C24.0214 31.0754 24.3091 30.8049 24.5788 30.5343C24.9384 30.1556 25.1542 29.7948 25.2081 29.4882C25.316 28.9291 25.37 28.5504 25.37 28.388C25.37 27.7929 25.1003 27.2698 24.5788 26.8189C24.3271 26.6566 24.1473 26.5844 24.0214 26.5484ZM24.417 29.9572C24.1473 30.4441 23.8237 30.8049 23.4101 31.0213C23.2303 31.1115 23.0505 31.1475 22.8707 31.1475C22.637 31.1475 22.3853 31.0754 22.1335 30.9311C21.8099 30.7327 21.6481 30.4261 21.6481 30.0113C21.6481 29.5604 21.756 29.0554 21.9537 28.4963C22.2055 27.847 22.5111 27.3961 22.8887 27.1616C23.1404 26.9993 23.3202 26.9091 23.4281 26.9091C23.482 26.9091 23.554 26.9632 23.6618 27.0534C23.7517 27.0894 23.8237 27.1255 23.8776 27.1796C24.4709 27.378 24.7766 27.883 24.7766 28.6947C24.7766 29.0914 24.6687 29.5243 24.417 29.9572Z" fill="#6F6F6E"/>
<path d="M30.2605 32.7167C29.847 32.4101 29.5593 31.5804 29.3795 30.2638C29.2716 29.5063 29.2176 28.893 29.2176 28.4241C29.2176 26.9993 29.1637 26.2418 29.0558 26.1335C28.6962 26.2598 28.4625 26.4041 28.3366 26.5844C28.1029 26.9452 27.8512 27.4321 27.6174 28.0454C27.2578 29.0013 27.06 29.5063 27.0241 29.5784C27.0061 29.2538 27.06 28.7848 27.1499 28.1896C27.2398 27.5945 27.2938 27.1436 27.2938 26.855C27.2938 26.8009 27.2578 26.7107 27.1859 26.5484C27.0421 26.6205 26.8982 26.6927 26.7544 26.7648C26.6105 26.8369 26.5206 26.9632 26.4487 27.1255C26.3948 27.2878 26.3229 27.7748 26.2509 28.6045C26.179 29.4341 26.143 30.0654 26.143 30.5343C26.143 30.7147 26.1251 30.895 26.1071 31.0754C26.0891 31.2558 26.0891 31.364 26.0891 31.4181C26.0891 31.5624 26.143 31.7067 26.2329 31.869C26.3948 31.9051 26.5386 31.8509 26.6465 31.7247C27.096 31.1836 27.4376 30.5163 27.6893 29.7227C27.959 28.9652 28.1748 28.4241 28.3546 28.0814C28.4085 31.1295 28.8401 32.9151 29.6492 33.4381C29.9548 33.4561 30.1706 33.402 30.2965 33.3119C30.4223 33.2036 30.5482 33.0052 30.6561 32.6986C30.6021 32.6445 30.4763 32.6626 30.2605 32.7167Z" fill="#6F6F6E"/>
<path d="M38.2257 26.891C38.2257 26.8009 38.1718 26.7468 38.0819 26.7107C37.8481 26.7287 37.5784 26.8189 37.3087 26.9812C37.1469 27.0714 36.8772 27.3059 36.4996 27.6486C36.176 27.9191 35.8703 28.1536 35.5826 28.3339C35.5826 28.1175 35.7265 27.6666 36.0142 26.9993C36.4097 26.0614 36.8592 25.2137 37.3627 24.4742C37.974 23.5905 38.5314 23.0133 38.9989 22.7969C39.1966 22.7067 39.3585 22.6526 39.5023 22.6526C39.6102 22.6526 39.7181 22.6887 39.8259 22.7608C39.9338 22.833 40.0058 22.869 40.0237 22.869C40.1136 22.869 40.2755 22.7247 40.4732 22.4542C40.3474 22.2017 40.2755 22.0574 40.2575 22.0394C40.1856 21.9672 40.0237 21.9312 39.754 21.9312C39.0348 21.9312 38.2257 22.5263 37.3087 23.7167C36.8413 24.3119 36.3738 25.0514 35.9063 25.881C35.4388 26.7287 35.0073 27.7748 34.6117 29.0373C33.9824 29.4702 33.6588 29.8309 33.6408 30.1014C33.6228 30.2818 33.7127 30.39 33.9105 30.4081C34.0543 30.4261 34.2341 30.2638 34.4679 29.885C34.4319 30.1375 34.4139 30.2818 34.4139 30.3179V30.9491C34.4139 31.0754 34.4499 31.2377 34.5038 31.4C34.5578 31.6165 34.6477 31.7427 34.7376 31.7788C34.8814 31.7608 35.0253 31.6525 35.1511 31.4902C35.277 31.3279 35.3489 31.1836 35.3489 31.0393C35.3489 30.9852 35.3309 30.859 35.277 30.6786C35.223 30.4982 35.2051 30.372 35.2051 30.2818C35.2051 29.885 35.241 29.5243 35.3309 29.2177C36.14 28.5864 36.7873 28.0634 37.3087 27.6666C37.4706 27.6125 37.5784 27.5944 37.6683 27.6125C37.7942 27.4862 37.9201 27.378 38.0459 27.2518C38.1718 27.1255 38.2257 26.9993 38.2257 26.891Z" fill="#6F6F6E"/>
<path d="M40.9766 26.5484C41.0306 26.4041 41.0845 26.2959 41.1025 26.2418C40.9946 26.1696 40.9047 26.1335 40.8328 26.1335C40.7069 26.1335 40.5811 26.1516 40.4552 26.2057C40.2574 26.2959 40.1316 26.368 40.0417 26.4402C39.3584 26.855 38.837 27.378 38.4954 28.0273C38.0819 28.8389 37.8661 29.6325 37.8661 30.4081C37.8661 30.8229 37.938 31.1295 38.0639 31.2738C38.3875 31.6525 38.7831 31.8509 39.2326 31.8509C39.6821 31.8509 40.1496 31.6706 40.653 31.3099C40.9766 31.0754 41.2643 30.8049 41.534 30.5343C41.8936 30.1556 42.1094 29.7948 42.1633 29.4882C42.2712 28.9291 42.3252 28.5504 42.3252 28.388C42.3252 27.7929 42.0555 27.2698 41.534 26.8189C41.2823 26.6566 41.0845 26.5844 40.9766 26.5484ZM41.3542 29.9572C41.0845 30.4441 40.7609 30.8049 40.3473 31.0213C40.1675 31.1115 39.9877 31.1475 39.8079 31.1475C39.5742 31.1475 39.3225 31.0754 39.0708 30.9311C38.7471 30.7327 38.5853 30.4261 38.5853 30.0113C38.5853 29.5604 38.6932 29.0554 38.891 28.4963C39.1427 27.847 39.4483 27.3961 39.8259 27.1616C40.0776 26.9993 40.2574 26.9091 40.3653 26.9091C40.4193 26.9091 40.4912 26.9632 40.5991 27.0534C40.689 27.0894 40.7609 27.1255 40.8148 27.1796C41.4082 27.378 41.7138 27.883 41.7138 28.6947C41.7138 29.0914 41.6059 29.5243 41.3542 29.9572Z" fill="#6F6F6E"/>
<path d="M47.2517 26.8008C47.2876 26.6746 47.3056 26.5664 47.2876 26.5123C47.3056 26.5123 47.2876 26.5123 47.2157 26.4942C47.1258 26.4942 47.0179 26.4942 46.8741 26.4942C46.1549 26.6746 45.6155 26.9271 45.2379 27.2698C44.8783 27.6125 44.6086 27.8469 44.4648 28.0093C44.5187 27.1796 44.5547 26.7467 44.5547 26.6926C44.5547 26.4041 44.4468 26.2598 44.231 26.2598C44.0692 26.2598 43.9433 26.2958 43.8355 26.386C43.7096 26.5123 43.5837 26.6205 43.4579 26.7287C43.4938 26.891 43.5118 27.1255 43.4938 27.4321C43.4938 27.5584 43.4759 27.7207 43.4399 27.9551C43.4039 28.1896 43.386 28.2978 43.386 28.3159L42.7207 31.5984C42.7207 31.7247 42.8106 31.7788 42.9904 31.7788C43.1882 31.7788 43.4039 31.6886 43.6377 31.4902C43.6916 31.4361 43.7276 31.4 43.7635 31.382C44.0332 30.6605 44.285 30.0112 44.5007 29.4521C44.7884 28.9111 45.0042 28.5323 45.148 28.3159C45.2559 28.1175 45.4537 27.865 45.7234 27.5944C45.9931 27.3239 46.2268 27.1435 46.4066 27.0714C46.7842 26.9451 47.0539 26.855 47.2517 26.8008Z" fill="#6F6F6E"/>
<path d="M62.5168 26.4402C62.2471 26.4402 61.9954 26.5123 61.7437 26.6386C61.438 26.8009 61.2403 26.9813 61.1504 27.2157C61.0605 27.4863 61.0784 27.7027 61.2043 27.829C61.3122 27.8109 61.456 27.7027 61.6718 27.5043C61.8696 27.2879 62.0673 27.1977 62.2651 27.1977C62.355 27.1977 62.4269 27.2157 62.5168 27.2518C63.1821 27.4322 63.5058 27.8831 63.5058 28.6225C63.5058 28.6586 63.4878 28.7308 63.4698 28.8209C63.1282 28.3881 62.7865 28.1716 62.4809 28.1716C61.8516 28.1716 61.1504 28.6586 60.3952 29.6326C59.64 30.6065 59.2625 31.4181 59.2625 32.0854C59.2625 32.1937 59.2804 32.3019 59.2984 32.3921C59.3344 32.5544 59.4423 32.6806 59.6041 32.8069C59.7659 32.9331 59.9277 32.9872 60.0536 32.9872C60.5211 32.9872 61.1504 32.6626 61.9235 31.9953C62.373 31.5804 62.6966 31.2558 62.9124 31.0394C62.9304 31.1115 62.9304 31.1836 62.9484 31.2558C62.9664 31.3279 63.0203 31.364 63.0922 31.364C63.3619 31.364 63.6316 30.8229 63.9013 29.7408C64.0452 29.1456 64.1171 28.6766 64.1171 28.352C64.1171 27.865 64.0092 27.4502 63.7934 27.1616C63.4338 26.6566 63.0203 26.4402 62.5168 26.4402ZM62.8225 30.5163C62.7146 30.6065 62.6068 30.7147 62.5168 30.8229C61.8696 31.4361 61.2762 31.8149 60.7188 31.9592C60.2514 31.9231 60.0176 31.7067 60.0176 31.3279C60.0176 30.877 60.2693 30.4081 60.7908 29.8851C61.3122 29.38 61.7617 29.1095 62.1932 29.1095C62.4449 29.1095 62.6427 29.2538 62.7686 29.5243C62.8765 29.7227 62.9304 29.9572 62.9304 30.2097C62.9304 30.336 62.8944 30.4261 62.8225 30.5163Z" fill="#6F6F6E"/>
<path d="M70.0865 31.2017C69.9246 30.8229 69.8347 30.4622 69.8347 30.1015C69.8347 28.839 69.8887 27.9191 69.9786 27.36C69.9966 27.2518 70.0325 27.0354 70.1044 26.6927C70.1584 26.3861 70.1943 26.2418 70.1943 26.2238C70.1943 26.1696 70.1584 26.1336 70.0685 26.0795C69.9426 26.1336 69.8168 26.1696 69.6909 26.2238C69.583 26.2598 69.4572 26.35 69.3493 26.4763C69.2594 26.7829 69.1155 27.1075 68.9178 27.4863C68.738 27.847 68.5402 28.2077 68.3604 28.5504C68.0367 29.0734 67.767 29.4702 67.5693 29.7588C67.3355 29.38 67.2276 28.8029 67.2456 28.0634C67.2636 27.1797 67.2456 26.6025 67.1737 26.35C67.1557 26.2598 67.0478 26.2238 66.886 26.2057C66.5804 26.4041 66.3286 26.7829 66.1308 27.342C65.987 27.8109 65.8432 28.2799 65.7173 28.7308C65.6813 28.4963 65.6634 28.3159 65.6634 28.1897C65.6094 27.7388 65.5375 27.4682 65.4656 27.36C65.3757 27.324 65.2858 27.3059 65.2139 27.3059C64.9801 27.4322 64.8363 27.5584 64.8003 27.7207C64.7823 27.7748 64.8003 27.8831 64.8543 28.0454C64.9262 28.2438 64.9621 28.3881 64.9621 28.4422C65.0161 28.6766 65.0161 28.9472 64.9981 29.2177L64.8543 31.4001C64.8543 31.5263 64.9082 31.6706 65.0161 31.8149C65.2139 31.7969 65.3217 31.7788 65.3757 31.7608C65.4836 31.5624 65.5735 31.4181 65.6274 31.3279C65.7353 31.0213 65.8611 30.5344 66.005 29.8309C66.1309 29.1997 66.2207 28.7849 66.3106 28.5865C66.4005 28.352 66.4545 28.1716 66.4904 28.0454C66.4545 29.5965 66.6703 30.5163 67.1557 30.8229C67.4614 30.7327 67.767 30.4442 68.1087 29.9752C68.4862 29.3801 68.7559 28.9291 68.9178 28.6406V29.9933C68.9178 30.4442 68.9717 30.9131 69.0796 31.4001C69.2054 31.9953 69.5111 32.2658 70.0325 32.2297C70.1944 32.1215 70.3562 31.9953 70.518 31.851V31.7247C70.3022 31.5083 70.1584 31.346 70.0865 31.2017Z" fill="#6F6F6E"/>
<path d="M76.5952 26.5303C76.1996 26.5303 75.6422 26.7106 74.923 27.0894C74.3297 27.396 73.7903 27.7387 73.3588 28.0814C71.7945 29.3258 71.0214 30.3178 71.0214 31.0393C71.0214 31.5623 71.363 31.8328 72.0282 31.8328C72.4598 31.8328 73.2689 31.5623 74.4196 31.0393C75.6422 30.4982 76.2895 30.0653 76.3435 29.7407C76.1817 29.7407 75.5523 29.9932 74.4196 30.4801C73.5925 30.8409 73.0172 31.0032 72.6935 31.0032C72.208 31.0032 71.9563 30.8409 71.9563 30.4982C71.9563 30.2998 72.1002 30.1014 72.4058 29.9391C72.6396 29.8309 72.8913 29.7226 73.125 29.6144C74.8511 28.7848 75.9659 28.1535 76.4514 27.7387C76.8289 27.4321 77.0087 27.1615 77.0087 26.9812C77.0267 26.6746 76.8829 26.5303 76.5952 26.5303ZM74.7432 28.2437C74.096 28.5503 73.6105 28.7487 73.3228 28.8028C73.9162 28.2437 74.4915 27.8649 75.0309 27.6665C75.4445 27.5223 75.7681 27.4321 76.0019 27.414C75.9299 27.6124 75.4984 27.883 74.7432 28.2437Z" fill="#6F6F6E"/>
<path d="M80.0474 28.9471C79.4181 28.7307 79.0406 28.5864 78.9327 28.5323C78.3933 28.2618 78.1236 28.0093 78.1236 27.7567C78.1236 27.6305 78.3214 27.4862 78.7169 27.36C79.0406 27.2337 79.2563 27.1796 79.3642 27.1796C79.3822 27.1976 79.4181 27.2337 79.4721 27.2878C79.508 27.3419 79.562 27.36 79.6339 27.36C79.6519 27.36 79.7418 27.3239 79.8856 27.2698C80.0295 27.2157 80.1194 27.1616 80.1374 27.1435C80.425 26.8369 80.5689 26.6566 80.5689 26.5483C80.5689 26.4401 80.479 26.386 80.3172 26.4041C80.1913 26.4221 80.0654 26.4401 79.9396 26.4582C79.7418 26.4762 79.4541 26.5483 79.0765 26.6926C78.9866 26.7467 78.7349 26.855 78.3214 27.0353C77.728 27.3059 77.3504 27.5584 77.1886 27.8109C77.1167 27.9371 77.1167 28.1355 77.1886 28.406C77.2426 28.6585 77.6381 28.9111 78.3573 29.1636C78.6989 29.2898 78.9686 29.3619 79.1664 29.4161C79.9755 29.6145 80.3711 29.885 80.3711 30.2096C80.3711 30.4441 80.1913 30.6786 79.8137 30.877C79.562 30.9852 79.3103 31.0934 79.0765 31.2016C78.8068 31.2918 78.609 31.3279 78.5012 31.3459C78.6989 31.1475 78.9147 30.9672 79.1125 30.8048C79.1305 30.7868 79.1305 30.7507 79.1305 30.6966C78.1775 31.0032 77.4403 31.4181 76.9369 31.905C76.9908 32.0313 77.0268 32.0854 77.0628 32.0854C77.3325 32.0673 77.6561 32.0132 78.0337 31.905C78.0696 31.905 78.3573 31.8148 78.8967 31.6525C80.5149 31.1655 81.342 30.6064 81.342 29.9752C81.342 29.7768 81.2701 29.6145 81.1442 29.5062C80.8386 29.2718 80.479 29.0914 80.0474 28.9471Z" fill="#6F6F6E"/>
<path d="M58.6331 29.1095H58.6151C58.5611 29.1095 58.2015 29.1636 57.6082 29.2898H57.5722H57.5902C56.9609 28.9652 56.5114 28.7848 55.4686 28.7848C54.2639 28.7848 53.7245 28.9291 53.4188 28.9472C53.4368 28.9291 53.5267 28.8209 53.6885 28.6225C53.8863 28.352 53.9762 28.1536 53.9762 28.0093C53.9762 27.9912 53.9582 27.9552 53.9223 27.9011C53.8683 27.7387 53.8324 27.6666 53.8144 27.6666C53.7425 27.6486 53.6885 27.6666 53.6526 27.7207C53.6166 27.7748 53.6166 27.8289 53.6346 27.883C53.5627 28.0814 53.3829 28.3339 53.0772 28.6225C53.0233 28.6766 52.8255 28.857 52.4839 29.1275C51.8006 29.7227 51.1893 30.0113 50.6679 30.0113C50.3442 30.0113 50.1824 29.867 50.1824 29.5604C50.1824 29.4161 50.2184 29.2357 50.2903 29.0013C50.3622 28.7668 50.578 28.4963 50.9376 28.1716C51.1533 27.9732 51.423 27.7748 51.7647 27.5945C52.1782 27.36 52.5378 27.2518 52.8075 27.2518C52.9513 27.2518 53.0772 27.2878 53.1671 27.342C53.0053 27.5403 52.8974 27.7568 52.8435 27.9552C52.9334 28.0093 52.9873 28.0634 53.0412 28.0814L53.8863 27.2337C54.2099 26.9091 53.7784 26.6566 53.7784 26.6566C53.5806 26.5484 53.3829 26.4943 53.1851 26.4943C52.5378 26.4943 51.8366 26.7828 51.1174 27.342C50.3802 27.9011 49.8947 28.5684 49.661 29.3079C49.5711 29.6145 49.5171 29.849 49.5171 30.0473C49.607 31.1475 50.8117 30.9311 51.6927 30.5524C52.6637 30.1375 53.9942 29.3981 54.8033 29.3981C55.3966 29.3981 55.9181 29.4882 56.3496 29.6325C56.3316 29.6325 56.2956 29.6506 56.2777 29.6506C56.2237 29.6686 56.1518 29.6866 56.0979 29.7047C56.0619 29.7227 56.0259 29.7227 55.99 29.7407C53.6166 30.4802 50.0565 32.0674 46.6583 35.4942C44.7524 37.406 46.3347 37.8569 46.7122 37.911C52.1063 38.6325 56.2597 34.7547 57.0148 33.907C57.5722 33.2938 57.9858 32.7708 58.2015 32.356C58.4892 31.8509 58.6331 31.3279 58.6331 30.8229C58.6331 30.5343 58.5252 30.2457 58.2914 29.9391C58.1836 29.7948 58.0757 29.6866 57.9678 29.5784H57.9858C58.0936 29.5604 58.2015 29.5243 58.2914 29.5063C58.4173 29.4702 58.5431 29.4522 58.669 29.4341C59.1365 29.3259 58.9747 29.0193 58.6331 29.1095ZM56.9429 33.1495C56.2777 34.0513 55.3427 34.8449 54.174 35.4942C52.7715 36.2698 51.3152 36.8649 49.7868 37.2257C48.3484 37.4601 47.5034 37.4241 47.0359 37.3158C46.5324 37.2257 45.5975 36.883 47.4854 35.2056C47.7191 34.9892 47.9529 34.7908 48.1866 34.5924C48.2406 34.5383 48.3125 34.5022 48.3664 34.4481C48.5462 34.3038 48.726 34.1595 48.9238 34.0153C48.9777 33.9792 49.0317 33.9251 49.0856 33.889C49.2834 33.7447 49.4812 33.6004 49.679 33.4561C49.7149 33.4381 49.7509 33.402 49.7689 33.384C50.0745 33.1676 50.3622 32.9692 50.6679 32.7888C50.7038 32.7708 50.7218 32.7527 50.7578 32.7347C51.0275 32.5724 51.2792 32.4101 51.5489 32.2477C51.5669 32.2297 51.6028 32.2117 51.6208 32.2117C51.8905 32.0493 52.1422 31.9051 52.394 31.7788C52.4119 31.7608 52.4299 31.7608 52.4479 31.7427C52.6996 31.5984 52.9513 31.4722 53.2031 31.3459C53.221 31.3459 53.239 31.3279 53.257 31.3279C53.4907 31.2016 53.7425 31.0934 53.9582 30.9852C53.9762 30.9672 54.0122 30.9672 54.0301 30.9491C54.2459 30.859 54.4437 30.7688 54.6415 30.6786C54.6954 30.6606 54.7493 30.6425 54.8033 30.6065C54.9651 30.5343 55.1269 30.4802 55.2708 30.4081C55.4865 30.3179 55.6843 30.2457 55.8641 30.1916C55.936 30.1736 55.99 30.1556 56.0619 30.1195C56.1698 30.0834 56.2597 30.0473 56.3496 30.0113C56.3855 29.9932 56.4395 29.9752 56.4754 29.9752C56.5114 29.9572 56.5294 29.9572 56.5653 29.9391C56.6193 29.9211 56.6732 29.9031 56.7272 29.885C56.7811 29.867 56.835 29.849 56.889 29.8309C56.9789 29.885 57.0688 29.9211 57.1407 29.9932C57.4823 30.2638 57.6801 30.6065 57.734 31.0213C57.8419 31.5984 57.5542 32.3018 56.9429 33.1495Z" fill="#6F6F6E"/>
<defs>
<linearGradient id="paint0_linear_8864_2155" x1="7.17646" y1="4.83112" x2="7.17646" y2="19.3145" gradientUnits="userSpaceOnUse">
<stop/>
<stop offset="0.2584" stop-color="#7C7B7B"/>
<stop offset="0.8079" stop-color="#8C8C8C"/>
</linearGradient>
<linearGradient id="paint1_linear_8864_2155" x1="22.8665" y1="4.82954" x2="22.8665" y2="19.275" gradientUnits="userSpaceOnUse">
<stop/>
<stop offset="0.2584" stop-color="#7C7B7B"/>
<stop offset="0.8079" stop-color="#8C8C8C"/>
</linearGradient>
<linearGradient id="paint2_linear_8864_2155" x1="39.8108" y1="4.83112" x2="39.8108" y2="19.2766" gradientUnits="userSpaceOnUse">
<stop/>
<stop offset="0.2584" stop-color="#89918A"/>
<stop offset="0.8079" stop-color="#8C8C8C"/>
</linearGradient>
<linearGradient id="paint3_linear_8864_2155" x1="80.7948" y1="4.83112" x2="80.7948" y2="19.2766" gradientUnits="userSpaceOnUse">
<stop stop-color="#7C7B7B"/>
<stop offset="0.1914" stop-color="#807F7F"/>
<stop offset="0.3898" stop-color="#8C8C8C"/>
<stop offset="0.5913" stop-color="#A1A0A0"/>
<stop offset="0.7939" stop-color="#BDBDBD"/>
<stop offset="0.8867" stop-color="#CDCDCD"/>
</linearGradient>
<linearGradient id="paint4_linear_8864_2155" x1="97.7186" y1="4.83222" x2="97.7186" y2="19.2777" gradientUnits="userSpaceOnUse">
<stop stop-color="#7C7B7B"/>
<stop offset="0.1914" stop-color="#807F7F"/>
<stop offset="0.3898" stop-color="#8C8C8C"/>
<stop offset="0.5913" stop-color="#A1A0A0"/>
<stop offset="0.7939" stop-color="#BDBDBD"/>
<stop offset="0.8867" stop-color="#CDCDCD"/>
</linearGradient>
<linearGradient id="paint5_linear_8864_2155" x1="113.146" y1="4.83112" x2="113.146" y2="19.2766" gradientUnits="userSpaceOnUse">
<stop stop-color="#7C7B7B"/>
<stop offset="0.1914" stop-color="#807F7F"/>
<stop offset="0.3898" stop-color="#8C8C8C"/>
<stop offset="0.5913" stop-color="#A1A0A0"/>
<stop offset="0.7939" stop-color="#BDBDBD"/>
<stop offset="0.8867" stop-color="#CDCDCD"/>
</linearGradient>
<linearGradient id="paint6_linear_8864_2155" x1="63.3346" y1="19.86" x2="57.5977" y2="4.14676" gradientUnits="userSpaceOnUse">
<stop stop-color="white"/>
<stop offset="0.2348" stop-color="#D2D2D1"/>
<stop offset="0.5985" stop-color="#919190"/>
<stop offset="0.8635" stop-color="#686868"/>
<stop offset="1" stop-color="#595958"/>
</linearGradient>
<linearGradient id="paint7_linear_8864_2155" x1="56.3124" y1="3.01859" x2="64.7002" y2="20.9513" gradientUnits="userSpaceOnUse">
<stop offset="0.1626" stop-color="#ECECEC"/>
<stop offset="0.4089" stop-color="#6A6A6A"/>
<stop offset="0.601" stop-color="#7A7979"/>
<stop offset="0.7438" stop-color="#7A7979"/>
<stop offset="1" stop-color="#7A7979"/>
</linearGradient>
<radialGradient id="paint8_radial_8864_2155" cx="0" cy="0" r="1" gradientUnits="userSpaceOnUse" gradientTransform="translate(60.4818 11.9977) scale(7.45225 7.4754)">
<stop stop-color="#CBCCC8"/>
<stop offset="0.2104" stop-color="#B6BBAA"/>
<stop offset="0.3685" stop-color="#ACAFA4"/>
<stop offset="0.5096" stop-color="#A7A9A3"/>
<stop offset="0.6406" stop-color="#8A9481"/>
<stop offset="0.7648" stop-color="#5B625A"/>
<stop offset="0.8822" stop-color="#28382B"/>
<stop offset="0.9655" stop-color="#282A28"/>
</radialGradient>
<radialGradient id="paint9_radial_8864_2155" cx="0" cy="0" r="1" gradientUnits="userSpaceOnUse" gradientTransform="translate(60.4728 12.0067) scale(7.45141 7.48443)">
<stop stop-color="#CBCCC8"/>
<stop offset="0.2104" stop-color="#B6BBAA"/>
<stop offset="0.3685" stop-color="#ACAFA4"/>
<stop offset="0.5096" stop-color="#A7A9A3"/>
<stop offset="0.6406" stop-color="#8A9481"/>
<stop offset="0.7648" stop-color="#5B625A"/>
<stop offset="0.8822" stop-color="#28382B"/>
<stop offset="0.9655" stop-color="#282A28"/>
</radialGradient>
<linearGradient id="paint10_linear_8864_2155" x1="60.4346" y1="10.5227" x2="56.5079" y2="5.59895" gradientUnits="userSpaceOnUse">
<stop stop-color="#A7A9A3"/>
<stop offset="0.5882" stop-color="#A7A9A3" stop-opacity="0.7"/>
<stop offset="0.6366" stop-color="#A7A9A3" stop-opacity="0.7235"/>
<stop offset="0.7348" stop-color="#A7A9A3" stop-opacity="0.7712"/>
<stop offset="0.8724" stop-color="#A7A9A3" stop-opacity="0.838"/>
<stop offset="1" stop-color="white" stop-opacity="0.9"/>
</linearGradient>
<radialGradient id="paint11_radial_8864_2155" cx="0" cy="0" r="1" gradientUnits="userSpaceOnUse" gradientTransform="translate(57.8082 7.37924) rotate(1.37248) scale(5.89044 4.85003)">
<stop stop-color="white"/>
<stop offset="0.7898" stop-color="white" stop-opacity="0"/>
</radialGradient>
</defs>
</svg>
