<svg width="40" height="40" viewBox="0 0 40 40" fill="none" xmlns="http://www.w3.org/2000/svg">
<g clip-path="url(#clip0_8661_3024)">
<path d="M0 0.0202883C12.9838 0.0202883 25.9693 0.0276603 38.9532 1.56152e-05C39.7438 -0.00182737 39.965 0.158512 39.9632 0.989695C39.9318 13.6638 39.9318 26.338 39.9632 39.0103C39.965 39.8415 39.7438 40 38.9532 40C25.9693 39.9723 12.9838 39.9797 0 39.9797C0 26.6605 0 13.3395 0 0.0202883ZM31.4338 23.6012C31.8005 22.4697 32.5912 22.4548 33.428 22.4788C34.4397 22.5065 35.4533 22.4567 36.4652 22.4972C37.0015 22.5193 37.1213 22.3313 37.1193 21.8227C37.1028 15.7501 37.1028 9.67565 37.1193 3.60303C37.1213 3.05015 36.9793 2.86768 36.4007 2.86953C25.446 2.88612 14.4932 2.88612 3.53852 2.86768C2.90638 2.86585 2.77183 3.07595 2.78105 3.65833C2.81053 5.86622 2.79212 8.07595 2.79212 10.2838C2.79212 14.0877 2.78842 17.8917 2.80133 21.6955C2.80317 21.9572 2.59123 22.4253 3.03723 22.4548C4.014 22.523 5.00183 22.5212 5.98047 22.4697C6.52967 22.4402 6.6808 21.843 7.00332 21.4983C7.76078 20.6912 8.66752 20.8293 9.10432 21.8448C9.27202 22.2373 9.4084 22.6447 9.55952 23.0447C9.85255 23.8187 10.1474 24.5908 10.5142 25.5585C12.3609 20.4883 14.1191 15.6616 15.8773 10.8367C16.0708 10.3078 16.2882 9.81387 16.9702 9.75122C17.6318 9.69223 17.9598 10.0756 18.2713 10.5732C19.6683 12.805 21.1002 15.0166 22.4807 17.2577C22.794 17.7663 23.1405 17.9452 23.732 17.9267C25.1105 17.8807 26.4928 17.9285 27.8732 17.9063C28.7155 17.8935 29.2333 18.2252 29.5412 19.0398C30.1068 20.5142 30.75 21.9592 31.4338 23.6012ZM7.68522 24.049C7.27238 24.5245 6.80427 24.5577 6.30667 24.5485C5.38702 24.53 4.4637 24.5817 3.54588 24.53C2.92848 24.4968 2.77737 24.7107 2.78105 25.306C2.80685 28.9863 2.81423 32.6668 2.77552 36.3472C2.76815 37.0587 2.98562 37.2005 3.65462 37.1987C14.5153 37.1783 25.376 37.1747 36.2385 37.2042C37.0198 37.206 37.1287 36.9278 37.1213 36.2568C37.0937 32.9745 37.1083 29.694 37.1083 26.4117C37.1083 24.543 37.1065 24.5982 35.247 24.5245C33.99 24.4748 32.8787 24.4785 32.4253 25.9675C32.254 26.5333 31.8062 26.8983 31.1722 26.8522C30.5327 26.8062 30.2562 26.3288 30.0387 25.7907C29.3642 24.119 28.6528 22.4603 27.9985 20.7797C27.794 20.2525 27.5415 20.024 26.9425 20.046C25.5953 20.0977 24.2425 20.035 22.8935 20.0737C22.0973 20.0958 21.5887 19.7898 21.174 19.1098C19.9483 17.1065 18.6693 15.1364 17.4107 13.1533C17.1195 13.321 17.1195 13.5957 17.0383 13.8168C15.3428 18.439 13.662 23.0648 11.9628 27.6852C11.6992 28.4022 11.6163 29.3107 10.5289 29.3328C9.37338 29.355 9.31625 28.3855 9.0269 27.6538C8.56985 26.491 8.15333 25.3133 7.68522 24.049Z" fill="#312118"/>
</g>
<defs>
<clipPath id="clip0_8661_3024">
<rect width="40" height="40" fill="white"/>
</clipPath>
</defs>
</svg>
