<svg width="92" height="40" viewBox="0 0 92 40" fill="none" xmlns="http://www.w3.org/2000/svg">
<g clip-path="url(#clip0_8668_3017)">
<mask id="mask0_8668_3017" style="mask-type:luminance" maskUnits="userSpaceOnUse" x="0" y="-26" width="92" height="92">
<path d="M92 -25.8796H0V65.8801H92V-25.8796Z" fill="white"/>
</mask>
<g mask="url(#mask0_8668_3017)">
<path d="M2.94285 25.0741V36.3831C2.97786 37.2918 2.70375 38.1855 2.16507 38.9191C1.92218 39.2459 1.61035 39.5155 1.25158 39.709C0.848272 39.858 0.427783 39.9559 0 40.0004L0.0168667 37.8799C0.149694 37.8695 0.280538 37.8415 0.40595 37.7966C0.560019 37.7477 0.695656 37.6535 0.795033 37.5263C0.930881 37.3678 1.03428 37.1842 1.0994 36.986C1.19012 36.697 1.23019 36.3944 1.21785 36.0918V25.0741H2.94285Z" fill="black"/>
<path d="M10.1031 25.0741V36.5494C10.1084 37.001 10.0399 37.4503 9.90036 37.8799C9.75975 38.2782 9.55392 38.6504 9.29124 38.9814C9.04335 39.2855 8.73907 39.5392 8.39501 39.7285C8.0639 39.911 7.69076 40.0042 7.31248 39.9988C6.93982 40.0061 6.57213 39.9127 6.24834 39.7285C5.90403 39.5387 5.59961 39.2846 5.35173 38.9799C5.08918 38.6488 4.88348 38.2766 4.74299 37.8784C4.58945 37.4519 4.5149 37.001 4.52296 36.5479V25.0741H6.24796V36.3414C6.21624 36.7525 6.32339 37.1623 6.55233 37.5056C6.64179 37.6223 6.75698 37.7167 6.88898 37.7818C7.02097 37.8468 7.16621 37.8806 7.31344 37.8806C7.46066 37.8806 7.6059 37.8468 7.73789 37.7818C7.86989 37.7167 7.98508 37.6223 8.07454 37.5056C8.30332 37.1623 8.41045 36.7525 8.37891 36.3414V25.0741H10.1031Z" fill="black"/>
<path d="M17.1967 29.211H15.4717V28.7331C15.4847 28.2948 15.3919 27.8598 15.2011 27.4649C15.1244 27.3419 15.0242 27.2353 14.9062 27.151C14.7882 27.0667 14.6548 27.0064 14.5134 26.9736C14.3721 26.9407 14.2256 26.936 14.0824 26.9596C13.9392 26.9832 13.8021 27.0347 13.6789 27.1112C13.5273 27.2179 13.4052 27.3609 13.3239 27.5272C13.2331 27.7182 13.1704 27.9213 13.1376 28.1301C13.1453 28.5075 13.2198 28.8805 13.3576 29.232C13.8281 30.19 14.3768 31.1078 14.9983 31.976C15.8589 32.9293 16.5303 34.0367 16.9771 35.2396C17.1177 35.9026 17.1405 36.5851 17.0445 37.256C16.9615 37.7382 16.7957 38.2024 16.5542 38.6282C16.3284 39.0081 16.0079 39.3232 15.6239 39.5431C15.1951 39.7794 14.7097 39.8943 14.2201 39.8754C13.8148 39.8829 13.4139 39.7902 13.0533 39.6054C12.6958 39.421 12.3793 39.1663 12.1229 38.8568C11.8498 38.525 11.6431 38.1439 11.5142 37.7343C11.3549 37.2944 11.2747 36.8299 11.2773 36.3621V35.5722H13.0023V36.2375C12.991 36.605 13.0912 36.9673 13.2898 37.277C13.3819 37.4379 13.5188 37.5687 13.6839 37.6535C13.8491 37.7383 14.0353 37.7736 14.2201 37.755C14.4632 37.7737 14.706 37.715 14.9136 37.5875C15.0755 37.479 15.2043 37.328 15.2858 37.1513C15.3832 36.9273 15.4404 36.688 15.4548 36.4443C15.4839 36.0786 15.4379 35.7108 15.3195 35.3635C15.01 34.791 14.6595 34.2416 14.2707 33.7194C12.9867 32.3424 12.0174 30.7041 11.4295 28.9173C11.3739 28.3741 11.414 27.8253 11.5479 27.2959C11.6484 26.8342 11.838 26.3965 12.106 26.007C12.3432 25.6532 12.6548 25.3552 13.0191 25.1338C13.4017 24.9323 13.8272 24.8252 14.2598 24.8216C14.6924 24.818 15.1196 24.918 15.5054 25.1131C15.8588 25.3054 16.1695 25.567 16.4189 25.882C16.9341 26.5324 17.2088 27.34 17.1967 28.1687V29.211Z" fill="black"/>
<path d="M19.8348 39.8753V27.0699H17.8392V25.0741H23.5558V27.0699H21.5598V39.8753H19.8348Z" fill="black"/>
<path d="M27.3926 39.7507V24.9495H32.5343V26.9449H29.1176V31.4353H32.0942V33.4311H29.1176V39.7507H27.3926Z" fill="black"/>
<path d="M33.1763 28.3171C33.166 27.7796 33.2519 27.2446 33.4301 26.7373C33.5773 26.3152 33.8071 25.9265 34.1063 25.5938C34.3639 25.3068 34.6815 25.0797 35.0367 24.9285C35.3611 24.7818 35.7124 24.7037 36.0686 24.6991C36.4299 24.7055 36.7862 24.7835 37.117 24.9285C37.4673 25.0882 37.7833 25.3141 38.0474 25.5938C38.3352 25.9317 38.5586 26.3192 38.7067 26.7373C38.8849 27.2446 38.9708 27.7796 38.9605 28.3171V36.1347C38.9742 36.6792 38.8882 37.2217 38.7067 37.7355C38.5586 38.141 38.3349 38.5149 38.0474 38.8374C37.7895 39.1292 37.4724 39.363 37.117 39.5233C36.7863 39.6685 36.4299 39.7465 36.0686 39.7527C35.7124 39.7482 35.361 39.6701 35.0367 39.5233C34.6763 39.3717 34.3573 39.1365 34.1063 38.8374C33.8076 38.5202 33.5774 38.1451 33.4301 37.7355C33.2486 37.2217 33.1626 36.6792 33.1763 36.1347V28.3171ZM34.9013 36.1335C34.8822 36.3348 34.9038 36.5379 34.9649 36.7307C35.0259 36.9235 35.1252 37.1022 35.2567 37.256C35.3555 37.3748 35.4797 37.4701 35.6202 37.5349C35.7606 37.5996 35.9138 37.6323 36.0686 37.6303C36.2255 37.6307 36.3806 37.5974 36.5235 37.5328C36.6664 37.4683 36.7938 37.3739 36.897 37.256C37.1495 36.9387 37.2706 36.5371 37.2355 36.1335V28.3171C37.2665 27.9076 37.1461 27.5009 36.897 27.1739C36.7898 27.0625 36.6612 26.9738 36.5189 26.9131C36.3765 26.8523 36.2234 26.8207 36.0686 26.8203C35.916 26.8192 35.7648 26.8501 35.6249 26.911C35.4851 26.9719 35.3596 27.0615 35.2567 27.1739C34.9943 27.4947 34.8669 27.9045 34.9013 28.3171V36.1335Z" fill="black"/>
<path d="M41.8527 26.9449V31.56H42.8337C43.0868 31.5685 43.3378 31.5112 43.562 31.3937C43.7423 31.2923 43.8889 31.1405 43.9837 30.9571C44.0819 30.7256 44.1447 30.4807 44.17 30.2306C44.2065 29.9063 44.2234 29.5801 44.2206 29.2538C44.2227 28.9204 44.2058 28.5873 44.17 28.2559C44.142 28.0044 44.0734 27.7591 43.9668 27.5294C43.8399 27.3273 43.6581 27.1653 43.4425 27.0622C43.2269 26.9591 42.9864 26.9192 42.749 26.9471L41.8527 26.9449ZM40.1277 39.7507V24.9495H42.9011C44.9328 24.9495 45.9456 26.4046 45.9456 29.2943C45.9669 30.0486 45.8583 30.801 45.6243 31.5187C45.4055 32.1235 44.9961 32.6413 44.4575 32.9945L46.3178 39.7507H44.4912L42.8843 33.4311H41.8527V39.7507H40.1277Z" fill="black"/>
<path d="M51.7669 39.7507V26.9449H49.7712V24.9495H55.4879V26.9449H53.4923V39.7507H51.7669Z" fill="black"/>
<path d="M56.2488 39.7507V24.9495H57.9738V31.2897H60.1067V24.9495H61.8317V39.7507H60.1067V33.1608H57.9757V39.7507H56.2488Z" fill="black"/>
<path d="M63.4536 39.7507V24.9495H68.5952V26.9449H65.1789V31.2897H68.1567V33.2855H65.1801V37.6303H68.5963V39.7507H63.4536Z" fill="black"/>
<path d="M81.5139 24.9495L79.7214 39.7507H78.0976L76.7782 30.1465H76.7433L75.44 39.7507H73.8185L72.0256 24.9495H73.8522L74.7151 34.3457H74.75L76.1032 24.9495H77.4222L78.826 34.5743H78.8597L79.6885 24.9495H81.5139Z" fill="black"/>
<path d="M84.372 24.9491H82.647V39.7507H84.372V24.9491Z" fill="black"/>
<path d="M85.979 39.7507V24.9495H87.6365L90.2409 33.8677H90.275V24.9495H92V39.7507H90.3762L87.7377 30.8534H87.704V39.7507H85.979Z" fill="black"/>
<path fill-rule="evenodd" clip-rule="evenodd" d="M40.7939 0.96539C40.8205 0.849894 40.8206 0.729907 40.7943 0.61436C40.7679 0.498814 40.7158 0.390683 40.6417 0.298015C40.5677 0.205348 40.4736 0.13053 40.3666 0.0791318C40.2595 0.0277331 40.1422 0.00107662 40.0234 0.00114673C38.2015 0.00114673 34.4019 0.00114673 33.0571 0.00114673C32.9103 0.0011553 32.7665 0.0418911 32.6415 0.118797C32.5166 0.195703 32.4157 0.305747 32.3499 0.436624C30.7336 3.19177 29.8807 6.32596 29.8786 9.51809C29.8765 12.7102 30.7253 15.8455 32.338 18.6028C32.4081 18.7202 32.5076 18.8175 32.6268 18.885C32.7459 18.9526 32.8806 18.9881 33.0176 18.9882C34.321 18.9882 38.1455 18.9882 39.9855 18.9882C40.1051 18.9882 40.2232 18.9612 40.3309 18.9092C40.4386 18.8571 40.533 18.7814 40.6071 18.6877C40.6812 18.594 40.7331 18.4848 40.7587 18.3682C40.7844 18.2516 40.7832 18.1308 40.7552 18.0147C39.4605 12.4035 39.4737 6.57074 40.7939 0.96539ZM49.2242 0C49.4062 0.000163267 49.5825 0.06282 49.7236 0.177432C49.8647 0.292043 49.9619 0.451618 49.9989 0.629319C51.2697 6.47356 51.2817 12.5203 50.0342 18.3695C49.9948 18.5444 49.897 18.7007 49.7568 18.8127C49.6165 18.9247 49.4422 18.9858 49.2625 18.9859H42.3288C42.1529 18.9858 41.982 18.9273 41.8432 18.8196C41.7043 18.7118 41.6054 18.561 41.5621 18.391C40.1236 12.5481 40.1337 6.44369 41.5917 0.605615C41.6331 0.43323 41.7316 0.279789 41.8712 0.170001C42.0107 0.060212 42.1833 0.000465222 42.361 0.000382852L49.2242 0ZM51.5464 0C51.4294 7.3129e-05 51.3139 0.0260182 51.2081 0.0759669C51.1024 0.125916 51.0091 0.198626 50.9349 0.288865C50.8607 0.379104 50.8074 0.484627 50.779 0.597839C50.7506 0.711051 50.7477 0.829136 50.7706 0.943596C51.9361 6.57946 51.9521 12.3917 50.8177 18.0339C50.7932 18.1488 50.7947 18.2677 50.8221 18.382C50.8496 18.4962 50.9023 18.6029 50.9764 18.6943C51.0505 18.7856 51.1441 18.8592 51.2505 18.9098C51.3568 18.9604 51.4731 18.9866 51.5909 18.9866C53.4309 18.9866 57.3233 18.9866 58.6646 18.9866C58.8067 18.9866 58.9462 18.9484 59.0685 18.876C59.1907 18.8036 59.2911 18.6997 59.3592 18.5752C60.9447 15.8113 61.7785 12.6822 61.7779 9.49788C61.7774 6.31357 60.9425 3.18469 59.3561 0.42133C59.2888 0.294334 59.1881 0.188054 59.0648 0.113942C58.9414 0.0398305 58.8001 0.000699462 58.6561 0.000765703C57.2999 1.03846e-06 53.3815 0 51.5464 0ZM44.845 8.13603C44.8362 8.13608 44.8274 8.13811 44.8195 8.142C44.8115 8.14588 44.8046 8.15151 44.7991 8.15847C44.7936 8.16542 44.7898 8.17351 44.788 8.18214C44.7861 8.19077 44.7862 8.19971 44.7883 8.20829L45.6837 11.876C45.6866 11.8885 45.6936 11.8997 45.7036 11.9078C45.7136 11.9159 45.7261 11.9205 45.7389 11.9207C45.7518 11.9211 45.7645 11.9171 45.7749 11.9096C45.7854 11.9021 45.7931 11.8914 45.7968 11.8791L46.8951 8.20141C46.8978 8.19256 46.8985 8.18319 46.897 8.17405C46.8954 8.1649 46.8917 8.15625 46.8862 8.1488C46.8807 8.14135 46.8734 8.1353 46.8651 8.13116C46.8568 8.12701 46.8476 8.12488 46.8383 8.12495L44.845 8.13603ZM33.8817 8.13603C33.8729 8.13608 33.8642 8.13813 33.8562 8.14204C33.8483 8.14595 33.8414 8.15161 33.8361 8.15859C33.8305 8.16548 33.8267 8.17356 33.8248 8.18218C33.823 8.19081 33.8231 8.19975 33.8253 8.20829L34.7204 11.876C34.7234 11.8885 34.7305 11.8997 34.7406 11.9078C34.7506 11.9159 34.7631 11.9204 34.776 11.9207C34.7888 11.9211 34.8014 11.9172 34.8118 11.9097C34.8222 11.9021 34.8299 11.8914 34.8335 11.8791L35.9317 8.20141C35.9346 8.19238 35.9352 8.1828 35.9335 8.17348C35.9318 8.16416 35.928 8.15538 35.9222 8.14788C35.9166 8.14067 35.9095 8.13482 35.9013 8.13077C35.8931 8.12673 35.8841 8.12461 35.875 8.12456L33.8817 8.13603ZM55.9433 8.13603C55.9344 8.13608 55.9256 8.13813 55.9177 8.14204C55.9097 8.14594 55.9027 8.1516 55.8973 8.15859C55.8919 8.16557 55.8882 8.17365 55.8863 8.18225C55.8845 8.19084 55.8845 8.19973 55.8865 8.20829L56.782 11.876C56.7843 11.8893 56.7912 11.9015 56.8014 11.9103C56.8117 11.9192 56.8247 11.9242 56.8382 11.9246C56.8518 11.925 56.8651 11.9206 56.8758 11.9123C56.8865 11.904 56.894 11.8923 56.897 11.8791L57.9953 8.20141C57.9978 8.19223 57.9981 8.18256 57.9961 8.17324C57.9941 8.16391 57.9899 8.15521 57.9838 8.14788C57.9782 8.14067 57.9711 8.13482 57.9629 8.13077C57.9547 8.12673 57.9457 8.12461 57.9366 8.12456L55.9433 8.13603ZM45.481 11.8447C45.4841 11.8573 45.4828 11.8707 45.4775 11.8826C45.4721 11.8945 45.4628 11.9043 45.4512 11.9104C45.4396 11.9164 45.4263 11.9185 45.4135 11.9161C45.4006 11.9138 45.3888 11.9072 45.3801 11.8974L42.1283 8.24653C42.1204 8.23813 42.1151 8.22757 42.1131 8.21619C42.1112 8.2048 42.1127 8.1931 42.1174 8.18255C42.1221 8.172 42.1299 8.16308 42.1396 8.15691C42.1494 8.15074 42.1608 8.1476 42.1724 8.14788L44.5288 8.13603C44.542 8.13599 44.5548 8.14038 44.5653 8.14849C44.5757 8.1566 44.5831 8.16796 44.5863 8.18077L45.481 11.8447ZM34.5176 11.8447C34.5207 11.8573 34.5195 11.8707 34.5141 11.8826C34.5087 11.8945 34.4995 11.9043 34.4879 11.9104C34.4763 11.9164 34.463 11.9185 34.4501 11.9161C34.4372 11.9138 34.4255 11.9072 34.4168 11.8974L31.165 8.24653C31.1575 8.23812 31.1526 8.22774 31.1508 8.21663C31.149 8.20552 31.1505 8.19413 31.155 8.18383C31.1594 8.17322 31.1669 8.16415 31.1764 8.15775C31.186 8.15136 31.1972 8.14792 31.2087 8.14788L33.5654 8.13603C33.5786 8.13599 33.5915 8.14038 33.6019 8.14849C33.6124 8.1566 33.6197 8.16796 33.6229 8.18077L34.5176 11.8447ZM56.5788 11.8447C56.582 11.8573 56.5808 11.8707 56.5754 11.8826C56.5701 11.8945 56.5609 11.9043 56.5493 11.9104C56.5377 11.9163 56.5244 11.9183 56.5115 11.9159C56.4986 11.9136 56.4868 11.9071 56.478 11.8974L53.227 8.245C53.2196 8.2365 53.2148 8.22611 53.2131 8.21502C53.2114 8.20393 53.2129 8.19259 53.2174 8.1823C53.222 8.17204 53.2295 8.16333 53.2389 8.15722C53.2484 8.15111 53.2594 8.14787 53.2707 8.14788L55.6274 8.13603C55.6406 8.13601 55.6534 8.14041 55.6637 8.14852C55.6741 8.15664 55.6814 8.168 55.6845 8.18077L56.5788 11.8447ZM49.3101 8.11233C49.3214 8.11226 49.3326 8.11547 49.3421 8.12159C49.3517 8.1277 49.3592 8.13645 49.3639 8.14678C49.3686 8.1571 49.3701 8.16855 49.3684 8.17974C49.3667 8.19093 49.3617 8.20138 49.3542 8.20982L46.1234 11.8393C46.1147 11.8493 46.1027 11.856 46.0896 11.8582C46.0764 11.8604 46.0629 11.8581 46.0514 11.8515C46.0397 11.8451 46.0306 11.8349 46.0255 11.8226C46.0205 11.8103 46.0197 11.7966 46.0234 11.7839L47.1044 8.16471C47.1079 8.15273 47.1152 8.1422 47.1252 8.1347C47.1353 8.12719 47.1474 8.1231 47.16 8.12304L49.3101 8.11233ZM38.3467 8.11233C38.3581 8.11226 38.3692 8.11547 38.3788 8.12159C38.3883 8.1277 38.3959 8.13645 38.4006 8.14678C38.4052 8.1571 38.4068 8.16855 38.4051 8.17974C38.4033 8.19093 38.3984 8.20138 38.3908 8.20982L35.1601 11.8393C35.1512 11.8492 35.1392 11.8558 35.1261 11.8581C35.113 11.8603 35.0995 11.858 35.0878 11.8515C35.0762 11.8451 35.0671 11.8349 35.062 11.8226C35.057 11.8103 35.0563 11.7966 35.06 11.7839L36.1407 8.16471C36.1443 8.15269 36.1517 8.14216 36.1617 8.13466C36.1718 8.12715 36.184 8.12308 36.1966 8.12304L38.3467 8.11233ZM60.4083 8.11233C60.4197 8.11226 60.4308 8.11547 60.4404 8.12159C60.4499 8.1277 60.4575 8.13645 60.4622 8.14678C60.4668 8.1571 60.4684 8.16855 60.4667 8.17974C60.4649 8.19093 60.46 8.20138 60.4524 8.20982L57.2217 11.8393C57.2128 11.8492 57.2008 11.8558 57.1877 11.8581C57.1746 11.8603 57.1611 11.858 57.1494 11.8515C57.1378 11.8451 57.1287 11.8349 57.1236 11.8226C57.1186 11.8103 57.1179 11.7966 57.1216 11.7839L58.2023 8.16471C58.2059 8.15269 58.2133 8.14216 58.2233 8.13466C58.2334 8.12715 58.2456 8.12308 58.2582 8.12304L60.4083 8.11233ZM44.4061 7.85387C44.4125 7.86263 44.4163 7.87297 44.4172 7.88376C44.4181 7.89455 44.416 7.90538 44.4111 7.91505C44.4062 7.9247 44.3988 7.93282 44.3896 7.93849C44.3804 7.94416 44.3698 7.94717 44.3589 7.94716L42.1739 7.95825C42.1626 7.95832 42.1515 7.9551 42.1419 7.94899C42.1323 7.94287 42.1248 7.93413 42.1201 7.9238C42.1154 7.91348 42.1139 7.90203 42.1156 7.89083C42.1173 7.87964 42.1223 7.86919 42.1299 7.86075L43.3239 6.51953C43.3297 6.51294 43.3368 6.50772 43.3448 6.50428C43.3529 6.50084 43.3616 6.49925 43.3703 6.49965C43.379 6.50008 43.3875 6.50243 43.3952 6.50653C43.4029 6.51063 43.4096 6.51637 43.4148 6.52335L44.4061 7.85387ZM33.4428 7.85387C33.4492 7.86255 33.4531 7.87284 33.454 7.8836C33.455 7.89436 33.4529 7.90517 33.4481 7.91483C33.4432 7.92449 33.4358 7.93262 33.4266 7.93833C33.4174 7.94403 33.4068 7.94709 33.396 7.94716L31.211 7.95825C31.1996 7.95832 31.1885 7.9551 31.179 7.94899C31.1694 7.94287 31.1618 7.93413 31.1572 7.9238C31.1525 7.91348 31.1509 7.90203 31.1527 7.89083C31.1544 7.87964 31.1593 7.86919 31.1669 7.86075L32.3606 6.51953C32.3664 6.51297 32.3736 6.50778 32.3816 6.50435C32.3897 6.50091 32.3984 6.49932 32.4071 6.49968C32.4159 6.50005 32.4244 6.50237 32.4322 6.50646C32.4399 6.51056 32.4466 6.51633 32.4518 6.52335L33.4428 7.85387ZM55.5044 7.85387C55.5108 7.86255 55.5147 7.87284 55.5156 7.8836C55.5166 7.89436 55.5145 7.90517 55.5097 7.91483C55.5048 7.92449 55.4974 7.93262 55.4882 7.93833C55.479 7.94403 55.4684 7.94709 55.4576 7.94716L53.2726 7.95825C53.2612 7.9584 53.25 7.95523 53.2404 7.94915C53.2308 7.94306 53.2232 7.93432 53.2184 7.92398C53.2137 7.91364 53.2121 7.90216 53.2139 7.89093C53.2156 7.87971 53.2205 7.86922 53.2281 7.86075L54.4222 6.51953C54.4279 6.51297 54.4351 6.50779 54.4431 6.50435C54.4511 6.50092 54.4598 6.49933 54.4686 6.49969C54.4773 6.50006 54.4858 6.50238 54.4935 6.50647C54.5012 6.51057 54.5079 6.51634 54.5131 6.52335L55.5044 7.85387ZM44.8615 7.85387C44.8558 7.86272 44.8525 7.87294 44.8521 7.88347C44.8518 7.89399 44.8542 7.90442 44.8593 7.91366C44.8644 7.9229 44.8718 7.93061 44.8809 7.93597C44.89 7.94132 44.9004 7.94413 44.9109 7.9441L46.7157 7.93531C46.7265 7.93524 46.7371 7.93218 46.7463 7.92647C46.7555 7.92077 46.7629 7.91263 46.7677 7.90297C46.7726 7.89331 46.7747 7.88251 46.7737 7.87175C46.7728 7.86099 46.7689 7.8507 46.7624 7.84202L45.8014 6.55012C45.7957 6.54257 45.7883 6.53651 45.7798 6.53245C45.7712 6.52839 45.7618 6.52645 45.7524 6.5268C45.7429 6.52697 45.7336 6.52952 45.7254 6.53419C45.7171 6.53887 45.7102 6.54553 45.7052 6.55356L44.8615 7.85387ZM33.8982 7.85387C33.8925 7.8628 33.8893 7.87307 33.889 7.88363C33.8887 7.89418 33.8912 7.90463 33.8962 7.9139C33.9013 7.92314 33.9088 7.93083 33.9179 7.93615C33.927 7.94147 33.9374 7.94422 33.948 7.9441L35.7527 7.93531C35.7636 7.93524 35.7741 7.93218 35.7833 7.92647C35.7925 7.92077 35.8 7.91263 35.8048 7.90297C35.8096 7.89331 35.8117 7.88251 35.8108 7.87175C35.8098 7.86099 35.8059 7.8507 35.7995 7.84202L34.8373 6.55203C34.8316 6.54449 34.8241 6.53843 34.8156 6.53437C34.807 6.5303 34.7976 6.52836 34.7881 6.5287C34.7786 6.52903 34.7694 6.53164 34.7611 6.53631C34.7529 6.54097 34.7459 6.54754 34.7407 6.55547L33.8982 7.85387ZM55.9598 7.85387C55.954 7.86272 55.9508 7.87294 55.9504 7.88347C55.95 7.89399 55.9525 7.90442 55.9576 7.91366C55.9626 7.9229 55.9701 7.93061 55.9792 7.93597C55.9883 7.94132 55.9986 7.94413 56.0092 7.9441L57.8139 7.93531C57.8248 7.93538 57.8355 7.93241 57.8448 7.92673C57.8541 7.92105 57.8616 7.9129 57.8664 7.90318C57.8713 7.89347 57.8734 7.8826 57.8723 7.87179C57.8713 7.86098 57.8673 7.85066 57.8607 7.84202L56.8997 6.55012C56.894 6.54257 56.8866 6.53651 56.8781 6.53245C56.8695 6.52838 56.8601 6.52644 56.8507 6.52677C56.8412 6.52711 56.832 6.52972 56.8238 6.53439C56.8156 6.53905 56.8086 6.54563 56.8035 6.55356L55.9598 7.85387ZM48.0654 6.56083C48.0703 6.55323 48.0769 6.54687 48.0846 6.54224C48.0924 6.53761 48.1011 6.53484 48.1102 6.53413C48.1192 6.53343 48.1282 6.53482 48.1366 6.53819C48.145 6.54156 48.1525 6.54682 48.1585 6.55356L49.2905 7.82558C49.2981 7.83392 49.3031 7.84429 49.3049 7.8554C49.3066 7.86652 49.3051 7.87791 49.3006 7.8882C49.296 7.89848 49.2885 7.90722 49.279 7.91334C49.2695 7.91947 49.2585 7.92271 49.2472 7.92269L47.2838 7.93225C47.2732 7.93237 47.2628 7.92962 47.2537 7.92431C47.2446 7.919 47.2371 7.91133 47.2321 7.9021C47.227 7.89288 47.2245 7.88245 47.2249 7.87194C47.2253 7.86142 47.2286 7.85122 47.2343 7.8424L48.0654 6.56083ZM37.1021 6.56083C37.1069 6.55323 37.1135 6.54687 37.1213 6.54224C37.1291 6.53761 37.1378 6.53484 37.1468 6.53413C37.1558 6.53343 37.1649 6.53482 37.1733 6.53819C37.1817 6.54156 37.1892 6.54682 37.1952 6.55356L38.3272 7.82558C38.3346 7.83401 38.3395 7.84439 38.3411 7.85548C38.3428 7.86657 38.3412 7.87792 38.3366 7.88815C38.332 7.89839 38.3246 7.90708 38.3152 7.91321C38.3057 7.91933 38.2947 7.92262 38.2835 7.92269L36.3201 7.93225C36.3096 7.93224 36.2993 7.92942 36.2902 7.92408C36.2812 7.91874 36.2738 7.91108 36.2687 7.9019C36.2637 7.89272 36.2612 7.88236 36.2615 7.87189C36.2618 7.86143 36.265 7.85124 36.2706 7.8424L37.1021 6.56083ZM59.1637 6.56083C59.1685 6.55323 59.1751 6.54687 59.1829 6.54224C59.1907 6.53761 59.1994 6.53484 59.2084 6.53413C59.2174 6.53343 59.2265 6.53482 59.2349 6.53819C59.2433 6.54156 59.2508 6.54682 59.2568 6.55356L60.3888 7.82558C60.3962 7.83401 60.4011 7.84439 60.4027 7.85548C60.4044 7.86657 60.4029 7.87792 60.3982 7.88815C60.3936 7.89839 60.3862 7.90708 60.3768 7.91321C60.3673 7.91933 60.3563 7.92262 60.3451 7.92269L58.3817 7.93225C58.3711 7.93237 58.3607 7.92962 58.3516 7.92431C58.3425 7.919 58.335 7.91133 58.3299 7.9021C58.3249 7.89288 58.3224 7.88245 58.3228 7.87194C58.3232 7.86142 58.3264 7.85122 58.3322 7.8424L59.1637 6.56083ZM44.6852 7.77703C44.6801 7.78501 44.6731 7.79163 44.6648 7.79631C44.6566 7.80099 44.6473 7.8036 44.6379 7.80391C44.6284 7.80421 44.619 7.80219 44.6104 7.79804C44.6019 7.79389 44.5945 7.78772 44.5889 7.78008L43.6218 6.48015C43.6153 6.47145 43.6114 6.46112 43.6105 6.45033C43.6096 6.43954 43.6117 6.4287 43.6166 6.41903C43.6215 6.40936 43.6289 6.40123 43.6382 6.39555C43.6474 6.38987 43.6581 6.38686 43.6689 6.38686H45.479C45.4896 6.3869 45.4999 6.38976 45.5089 6.39515C45.518 6.40053 45.5254 6.40824 45.5304 6.41747C45.5354 6.4267 45.5378 6.4371 45.5374 6.44759C45.537 6.45808 45.5338 6.46828 45.5281 6.47709L44.6852 7.77703ZM47.0499 7.77703C47.0448 7.78494 47.0379 7.79151 47.0297 7.79617C47.0214 7.80083 47.0122 7.80344 47.0028 7.80379C46.9933 7.80403 46.9839 7.802 46.9754 7.79788C46.9668 7.79375 46.9594 7.78765 46.9537 7.78008L45.9866 6.48015C45.9801 6.47145 45.9762 6.46112 45.9753 6.45033C45.9744 6.43954 45.9765 6.4287 45.9813 6.41903C45.9862 6.40936 45.9937 6.40123 46.003 6.39555C46.0122 6.38987 46.0229 6.38686 46.0337 6.38686H47.8438C47.8544 6.38681 47.8647 6.38964 47.8738 6.39503C47.8828 6.40042 47.8902 6.40817 47.8952 6.41745C47.9002 6.42668 47.9026 6.43709 47.9022 6.44759C47.9018 6.45808 47.8986 6.46827 47.8929 6.47709L47.0499 7.77703ZM33.7218 7.77703C33.7167 7.78501 33.7097 7.79162 33.7014 7.7963C33.6931 7.80098 33.6838 7.80359 33.6743 7.80389C33.6648 7.80419 33.6554 7.80218 33.6468 7.79803C33.6383 7.79388 33.6309 7.78772 33.6252 7.78008L32.6585 6.48015C32.6527 6.47154 32.6493 6.46154 32.6486 6.4512C32.648 6.44085 32.6501 6.43051 32.6548 6.42125C32.6595 6.41199 32.6666 6.40414 32.6753 6.3985C32.684 6.39286 32.6941 6.38964 32.7045 6.38916H34.5142C34.5247 6.38912 34.5351 6.39194 34.5442 6.39729C34.5533 6.40265 34.5608 6.41036 34.5658 6.4196C34.5709 6.42884 34.5734 6.43927 34.573 6.44979C34.5726 6.46032 34.5694 6.47054 34.5636 6.47939L33.7218 7.77703ZM36.0866 7.77703C36.0815 7.78501 36.0745 7.79162 36.0662 7.7963C36.0579 7.80098 36.0486 7.80359 36.0391 7.80389C36.0296 7.80419 36.0202 7.80218 36.0116 7.79803C36.0031 7.79388 35.9956 7.78772 35.99 7.78008L35.0232 6.48015C35.0175 6.47154 35.0141 6.46154 35.0134 6.4512C35.0128 6.44085 35.0149 6.43051 35.0196 6.42125C35.0243 6.41199 35.0313 6.40414 35.0401 6.3985C35.0488 6.39286 35.0589 6.38964 35.0692 6.38916H36.879C36.8895 6.38912 36.8999 6.39194 36.909 6.39729C36.9181 6.40265 36.9255 6.41036 36.9306 6.4196C36.9357 6.42884 36.9381 6.43927 36.9377 6.44979C36.9374 6.46032 36.9341 6.47054 36.9284 6.47939L36.0866 7.77703ZM55.7834 7.77703C55.7783 7.78501 55.7713 7.79162 55.763 7.7963C55.7547 7.80098 55.7454 7.80359 55.7359 7.80389C55.7264 7.80419 55.717 7.80218 55.7084 7.79803C55.6999 7.79388 55.6925 7.78772 55.6868 7.78008L54.7201 6.48015C54.7136 6.47147 54.7097 6.46118 54.7088 6.45042C54.7078 6.43966 54.7099 6.42886 54.7147 6.4192C54.7196 6.40954 54.727 6.4014 54.7362 6.3957C54.7454 6.38999 54.756 6.38693 54.7668 6.38686H56.5769C56.5875 6.38683 56.5979 6.38964 56.6069 6.395C56.616 6.40036 56.6235 6.40806 56.6286 6.4173C56.6336 6.42654 56.6361 6.43697 56.6357 6.4475C56.6353 6.45802 56.6321 6.46825 56.6264 6.47709L55.7834 7.77703ZM58.1482 7.77703C58.1431 7.78501 58.1361 7.79162 58.1278 7.7963C58.1195 7.80098 58.1102 7.80359 58.1007 7.80389C58.0912 7.80419 58.0818 7.80218 58.0732 7.79803C58.0647 7.79388 58.0572 7.78772 58.0516 7.78008L57.0848 6.48015C57.0784 6.47145 57.0745 6.46112 57.0736 6.45033C57.0726 6.43954 57.0747 6.4287 57.0796 6.41903C57.0845 6.40936 57.092 6.40123 57.1012 6.39555C57.1105 6.38987 57.1211 6.38686 57.132 6.38686H58.9417C58.9523 6.38682 58.9627 6.38965 58.9718 6.39504C58.9809 6.40042 58.9884 6.40817 58.9935 6.41745C58.9984 6.42671 59.0008 6.4371 59.0004 6.44758C59 6.45806 58.9968 6.46825 58.9912 6.47709L58.1482 7.77703Z" fill="black"/>
</g>
</g>
<defs>
<clipPath id="clip0_8668_3017">
<rect width="92" height="40" fill="white"/>
</clipPath>
</defs>
</svg>
