<svg width="130" height="18" viewBox="0 0 130 18" fill="none" xmlns="http://www.w3.org/2000/svg">
<g clip-path="url(#clip0_8669_3405)">
<path d="M29.1992 17.991L26.9503 13.4921L33.6667 0.114876L38.1541 0.122568L29.1992 17.991Z" fill="black"/>
<path d="M15.7031 0.117676H20.1764V17.9828H15.7031V0.117676Z" fill="black"/>
<path d="M13.4294 13.5288H4.47337V0.117676H0.00012207V17.9828L11.3134 17.9821L13.4294 13.5288Z" fill="black"/>
<path d="M26.9385 4.57936L24.6839 0.105592L22.446 4.57197L24.6984 9.04907L26.9385 4.57936Z" fill="black"/>
<path d="M44.8938 14.0471V10.771H48.5683L50.2812 7.32792H44.8938V4.02941H51.9564L53.879 0.114258H43.5391V0.117735H40.4205V17.9829L51.6144 17.9822L53.88 14.0471H44.8938Z" fill="black"/>
<path d="M61.0833 7.35177C59.9972 7.35177 58.9014 6.97478 58.0406 6.21137L58.9731 5.10127C59.6184 5.63074 60.2945 5.967 61.114 5.967C61.7594 5.967 62.1486 5.7122 62.1486 5.29498V5.27461C62.1486 4.87751 61.9028 4.67387 60.704 4.36815C59.2599 4.00185 58.3277 3.60474 58.3277 2.18943V2.16906C58.3277 0.875933 59.3723 0.0203857 60.8374 0.0203857C61.8823 0.0203857 62.7735 0.346462 63.5008 0.926844L62.6813 2.10797C62.0462 1.67014 61.4213 1.4054 60.8169 1.4054C60.2126 1.4054 59.895 1.68032 59.895 2.02651V2.04688C59.895 2.51501 60.2023 2.66799 61.4418 2.98363C62.8964 3.36037 63.7159 3.87966 63.7159 5.12188V5.14224C63.7159 6.55756 62.6298 7.35177 61.0833 7.35177Z" fill="black"/>
<path d="M72.0235 3.68593C72.0235 2.46407 71.122 1.44586 69.8518 1.44586C68.5816 1.44586 67.7006 2.44371 67.7006 3.66557V3.68593C67.7006 4.90803 68.6021 5.92625 69.8723 5.92625C71.1425 5.92625 72.0235 4.9284 72.0235 3.70629V3.68593ZM69.8518 7.37211C67.6392 7.37211 66.0514 5.73254 66.0514 3.70629V3.68593C66.0514 1.65993 67.6597 0 69.8723 0C72.0849 0 73.673 1.63957 73.673 3.66557V3.68593C73.673 5.71217 72.0644 7.37211 69.8518 7.37211Z" fill="black"/>
<path d="M76.3564 7.24968V0.122192H77.9337V5.82418H81.509V7.24968H76.3564Z" fill="black"/>
<path d="M86.7642 7.36193C84.8384 7.36193 83.6604 6.29256 83.6604 4.19529V0.122437H85.2379V4.15456C85.2379 5.31532 85.8221 5.91607 86.7847 5.91607C87.7479 5.91607 88.3315 5.33569 88.3315 4.20547V0.122437H89.9091V4.14438C89.9091 6.30274 88.6901 7.36193 86.7642 7.36193Z" fill="black"/>
<path d="M96.0447 1.56805V7.24968H94.4672V1.56805H92.285V0.122192H98.2264V1.56805H96.0447Z" fill="black"/>
<path d="M102.365 0.122192H100.788V7.24968H102.365V0.122192Z" fill="black"/>
<path d="M111.093 3.68593C111.093 2.46407 110.192 1.44586 108.921 1.44586C107.651 1.44586 106.77 2.44371 106.77 3.66557V3.68593C106.77 4.90803 107.672 5.92625 108.942 5.92625C110.212 5.92625 111.093 4.9284 111.093 3.70629V3.68593ZM108.921 7.37211C106.709 7.37211 105.121 5.73254 105.121 3.70629V3.68593C105.121 1.65993 106.729 0 108.942 0C111.155 0 112.743 1.63957 112.743 3.66557V3.68593C112.743 5.71217 111.134 7.37211 108.921 7.37211Z" fill="black"/>
<path d="M120.455 7.24968L116.982 2.71863V7.24968H115.425V0.122192H116.88L120.24 4.51069V0.122192H121.797V7.24968H120.455Z" fill="black"/>
<path d="M127.35 7.35177C126.264 7.35177 125.168 6.97478 124.307 6.21137L125.239 5.10127C125.885 5.63074 126.561 5.967 127.38 5.967C128.026 5.967 128.415 5.7122 128.415 5.29498V5.27461C128.415 4.87751 128.169 4.67387 126.97 4.36815C125.526 4.00185 124.594 3.60474 124.594 2.18943V2.16906C124.594 0.875933 125.639 0.0203857 127.104 0.0203857C128.149 0.0203857 129.04 0.346462 129.767 0.926844L128.948 2.10797C128.313 1.67014 127.688 1.4054 127.083 1.4054C126.479 1.4054 126.161 1.68032 126.161 2.02651V2.04688C126.161 2.51501 126.469 2.66799 127.708 2.98363C129.163 3.36037 129.982 3.87966 129.982 5.12188V5.14224C129.982 6.55756 128.896 7.35177 127.35 7.35177Z" fill="black"/>
</g>
<defs>
<clipPath id="clip0_8669_3405">
<rect width="130" height="18" fill="white"/>
</clipPath>
</defs>
</svg>
