<svg width="129" height="24" viewBox="0 0 129 24" fill="none" xmlns="http://www.w3.org/2000/svg">
<g clip-path="url(#clip0_8661_4365)">
<path fill-rule="evenodd" clip-rule="evenodd" d="M0.342302 0.518173C0.213599 0.550653 0.0617983 0.682558 0.010383 0.806668C-0.0337343 0.913116 0.0417284 2.1738 0.652543 11.5327C1.42392 23.3523 1.40856 23.1325 1.47377 23.2603C1.6251 23.5567 2.0343 23.6296 2.2488 23.3985C2.29123 23.3528 3.86935 20.4104 5.75569 16.8599L9.18538 10.4044L6.67961 10.3859C4.40791 10.3693 4.1632 10.3617 4.06015 10.3048C3.93689 10.2367 3.82716 10.044 3.82716 9.89561C3.82716 9.84445 4.59073 7.71643 5.52398 5.16665C6.45722 2.61689 7.2208 0.521815 7.2208 0.510964C7.2208 0.486061 0.441338 0.493161 0.342302 0.518173ZM12.986 0.702714C12.9427 0.81906 12.4713 2.10601 11.9385 3.56263C11.4056 5.01926 10.9618 6.23175 10.9523 6.25702C10.9386 6.29351 11.4075 6.303 13.2214 6.303C15.7446 6.303 15.6525 6.29472 15.7975 6.53473C15.8946 6.69506 15.8872 6.85787 15.7727 7.08584C15.7196 7.1914 14.5045 9.48407 13.0723 12.1807C11.6402 14.8773 10.4685 17.0912 10.4685 17.1004C10.4685 17.1097 11.7534 17.1173 13.3239 17.1172C16.1234 17.1171 16.1816 17.1156 16.3 17.0428C16.3665 17.002 16.4428 16.9152 16.4696 16.8499C16.4964 16.7846 17.1268 14.0662 17.8704 10.809C20.1211 0.950306 20.1082 1.00798 20.0834 0.894246C20.0513 0.747187 19.929 0.601782 19.7869 0.541936C19.6876 0.500112 19.0882 0.491211 16.3655 0.491211H13.0645L12.986 0.702714ZM27.984 8.80428V17.1173H32.5271H37.0702V15.1127V13.1079H34.4976H31.925V6.79955V0.491211H29.9545H27.984V8.80428ZM63.1246 4.02666C61.4579 4.2184 60.028 4.92557 59.0626 6.03551C58.2337 6.98851 57.7028 8.25779 57.543 9.66866C57.4942 10.0995 57.4945 11.1746 57.5434 11.6289C57.7099 13.1724 58.311 14.4775 59.3269 15.5013C60.0248 16.2046 60.7547 16.6523 61.7184 16.9684C62.5148 17.2295 62.8916 17.2819 63.9819 17.2824C64.8316 17.2828 64.9748 17.2739 65.3504 17.1973C66.5009 16.9627 67.4807 16.4924 68.3015 15.7807C68.9993 15.1756 69.6386 14.2289 69.9269 13.3746L70.0167 13.1079H67.8663C66.484 13.1079 65.7153 13.1209 65.7153 13.144C65.7153 13.1639 65.6091 13.2938 65.4791 13.4328C65.0677 13.872 64.5722 14.0648 63.8575 14.0638C63.1221 14.0627 62.6363 13.8688 62.1563 13.385C61.7393 12.9646 61.5381 12.5129 61.4308 11.7562L61.4086 11.5998H65.8585C69.0414 11.5998 70.3157 11.5883 70.3333 11.5596C70.3829 11.4794 70.3973 9.97015 70.3521 9.57671C70.0601 7.00168 68.5986 5.1153 66.2968 4.34186C65.3862 4.03578 64.1301 3.91097 63.1246 4.02666ZM76.1012 4.02603C74.2045 4.22764 72.7851 5.07576 72.137 6.39497C71.8424 6.99345 71.7947 7.22585 71.7953 8.05021C71.7953 8.70682 71.8016 8.76901 71.8958 9.07879C72.044 9.56658 72.2199 9.87358 72.5553 10.2314C73.3008 11.0256 73.952 11.3242 76.2186 11.9117C78.3653 12.468 78.744 12.685 78.7415 13.355C78.7409 13.6307 78.6511 13.8259 78.4388 14.0142C78.1631 14.2588 77.9313 14.3304 77.356 14.3493C76.5992 14.3741 76.1665 14.2376 75.7319 13.8371C75.5504 13.6699 75.3124 13.2897 75.3124 13.1671C75.3124 13.1135 75.1284 13.1079 73.3378 13.1079H71.3633L71.3877 13.2459C71.7652 15.3885 73.579 16.9075 76.1628 17.245C76.7211 17.3179 77.807 17.3183 78.3565 17.2457C80.4535 16.9686 81.9301 15.8752 82.3634 14.279C82.4344 14.0153 82.4463 13.8849 82.4457 13.3471C82.4451 12.817 82.4325 12.6741 82.3628 12.409C82.0789 11.3267 81.2442 10.4578 80.0478 9.99839C79.438 9.76402 78.6529 9.52599 77.6299 9.26465C76.1558 8.88837 75.7413 8.70043 75.5548 8.3232C75.3162 7.84023 75.5196 7.3349 76.0516 7.09129C76.2582 6.99662 76.3254 6.98547 76.772 6.9723C77.3341 6.95571 77.5966 7.00535 77.9508 7.19508C78.3245 7.39505 78.6661 7.85808 78.7277 8.24772L78.7522 8.39963H80.5716H82.3917V8.30427C82.3917 8.12778 82.246 7.48726 82.1317 7.1605C81.9062 6.51567 81.5759 5.97287 81.1249 5.50491C80.3122 4.66139 79.3312 4.21002 77.9395 4.03938C77.4854 3.98369 76.5628 3.97696 76.1012 4.02603ZM90.8759 4.02496C89.6029 4.19954 88.505 4.8417 87.7658 5.84379L87.6848 5.95356L87.6842 5.06156L87.6829 4.16956H85.6939H83.7056V12.4826V20.7957H85.6939H87.6829V18.0829L87.6836 15.3701L87.7803 15.4989C87.9712 15.7536 88.5459 16.2989 88.814 16.4807C89.3988 16.8765 90.0318 17.1282 90.7428 17.2473C91.2948 17.3399 92.3292 17.3068 92.8649 17.1795C94.4721 16.7976 95.7508 15.7442 96.5446 14.1472C96.8637 13.5069 97.1218 12.6189 97.2248 11.8095C97.2895 11.3003 97.2983 10.1084 97.2405 9.5845C97.1331 8.60221 96.8103 7.55742 96.382 6.80899C95.5592 5.37139 94.295 4.42325 92.7619 4.09437C92.3518 4.00635 91.2948 3.96744 90.8759 4.02496ZM122.608 4.02768C121.242 4.17162 120.029 4.71561 119.279 5.52003C118.969 5.85288 118.84 6.04526 118.643 6.46355C118.253 7.29374 118.193 8.34302 118.485 9.22532C118.62 9.63554 118.792 9.92202 119.092 10.2431C119.546 10.7281 120.065 11.0643 120.759 11.3238C121.188 11.4839 122.076 11.7448 122.71 11.8971C123.788 12.1564 124.602 12.4308 124.908 12.6386C125.239 12.8631 125.365 13.2119 125.254 13.5978C125.155 13.9384 124.86 14.184 124.404 14.3036C124.124 14.377 123.418 14.3763 123.132 14.3023C122.528 14.146 122.039 13.7367 121.87 13.2459L121.823 13.1079H119.859H117.896L117.913 13.1907C118.132 14.2836 118.481 14.947 119.208 15.658C120.107 16.5377 121.332 17.0817 122.823 17.2636C123.293 17.3209 124.435 17.3102 124.911 17.2439C127.025 16.9491 128.488 15.8564 128.906 14.2581C128.985 13.9548 128.999 13.8185 129 13.3838C129.001 12.8067 128.942 12.4565 128.767 11.9991C128.499 11.2979 127.859 10.6237 127.074 10.2146C126.573 9.95362 125.351 9.55664 124.101 9.24875C122.445 8.84126 122.007 8.56377 122.007 7.92147C122.007 7.46167 122.275 7.15733 122.805 7.01498C123.057 6.94716 123.776 6.95096 124.044 7.02144C124.656 7.18209 125.126 7.64025 125.251 8.19738L125.292 8.38127L127.125 8.39077L128.957 8.40033L128.935 8.26203C128.77 7.25352 128.504 6.57557 128.02 5.92406C127.199 4.82199 125.98 4.18931 124.361 4.02419C123.922 3.97942 123.05 3.98119 122.608 4.02768ZM111.04 4.06399C109.898 4.20186 108.92 4.6775 108.179 5.45511L107.826 5.82669V4.99811V4.16956H105.855H103.885V10.6435V17.1173H105.854H107.823L107.835 13.2643C107.847 9.44303 107.848 9.4089 107.926 9.13642C108.098 8.53623 108.433 8.04698 108.872 7.75277C109.547 7.30165 110.659 7.24086 111.429 7.61276C111.909 7.84441 112.324 8.308 112.52 8.83379C112.717 9.35907 112.715 9.32291 112.715 13.3686V17.1173H114.688H116.659L116.646 12.8596C116.633 8.69409 116.631 8.59322 116.555 8.19738C116.329 7.01878 115.949 6.21049 115.288 5.50182C114.733 4.9071 114.185 4.55097 113.44 4.30102C113.232 4.23117 112.914 4.14782 112.734 4.11578C112.319 4.04232 111.442 4.01551 111.04 4.06399ZM38.3109 10.6435V17.1173H40.2996H42.2883V10.6435V4.16956H40.2996H38.3109V10.6435ZM43.6385 4.20487C43.6385 4.22462 44.6339 7.06767 45.8506 10.5227C47.0672 13.9778 48.0868 16.8751 48.1164 16.961L48.1702 17.1173H50.6083H53.0464L53.1185 16.9058C53.1582 16.7895 54.1778 13.8916 55.3843 10.4662C56.5908 7.04063 57.5779 4.2226 57.5779 4.20377C57.5779 4.18306 56.7527 4.16959 55.4888 4.16963L53.3997 4.16975L52.0141 8.76552C51.252 11.2933 50.6227 13.3555 50.6157 13.3484C50.6086 13.3414 49.9822 11.2774 49.2236 8.76172L47.8444 4.18795L45.7414 4.17846C44.3918 4.17235 43.6385 4.18181 43.6385 4.20487ZM98.5569 10.6435V17.1173H100.528H102.498V10.6435V4.16956H100.528H98.5569V10.6435ZM64.7851 7.295C65.6933 7.58401 66.3358 8.37209 66.3358 9.19822V9.39282H63.8889H61.4426L61.4662 9.2549C61.5083 9.00863 61.6899 8.51419 61.8157 8.30382C62.1032 7.82313 62.7405 7.36877 63.3067 7.24073C63.6641 7.16012 64.4516 7.189 64.7851 7.295ZM91.2094 7.55546C91.9229 7.73827 92.5754 8.27584 92.9164 8.96202C93.1959 9.52479 93.243 9.76383 93.243 10.625C93.243 11.4816 93.1965 11.7208 92.9214 12.2803C92.7192 12.6906 92.4636 13.0073 92.1226 13.2679C91.8104 13.5068 91.5881 13.6229 91.2213 13.7387C90.8659 13.8509 90.1003 13.8597 89.726 13.7559C88.9755 13.5477 88.3122 12.9754 87.9731 12.2436C87.5799 11.3946 87.5467 10.1753 87.8914 9.23717C88.1263 8.59873 88.7387 7.94401 89.3447 7.68255C89.9043 7.44128 90.5839 7.39505 91.2094 7.55546Z" fill="black"/>
</g>
<defs>
<clipPath id="clip0_8661_4365">
<rect width="129" height="24" fill="white"/>
</clipPath>
</defs>
</svg>
