<svg width="120" height="40" viewBox="0 0 120 40" fill="none" xmlns="http://www.w3.org/2000/svg">
<path d="M79.1946 28.5361V26.7873H76.6414V26.3836V26.347H79.1946H81.6275V25.9433H79.1946V24.9729H85.8305V24.5311H79.1946H74.1796H42.2921H41.1968H36.8049V24.9729H41.1968V26.5466H43.4834V26.9883H41.1968H32.8472V27.4286H41.1968V28.7082H44.0943V29.1485H41.1968V30.2819H37.1492V30.7222H41.1968V30.7374H42.1764V31.1777H41.1968V32.6843H45.473V33.0849V33.1245H41.1968H38.6589V33.5267H50.3097V33.5176H70.816V33.5267H82.4668V33.1245H79.1946H77.7855V33.0849V32.6843H79.1946V31.1777H78.3507V30.7374H79.1946V29.4105H74.5072V28.9703H75.5827H79.1946H86.158V28.9764H87.2335V28.5361H79.1946Z" fill="black"/>
<path d="M49.8268 29.9331V27.5048C49.8268 27.3372 49.8862 27.194 50.0035 27.0752C50.1208 26.9564 50.264 26.897 50.4316 26.897H53.457V27.3113H50.4316C50.3767 27.3113 50.331 27.3311 50.2929 27.3692C50.2549 27.4073 50.2366 27.4545 50.2366 27.5078V29.927C50.2366 29.9818 50.2564 30.0275 50.2945 30.0656C50.3325 30.1037 50.3782 30.1235 50.4316 30.1235H53.457V30.5379H50.4316C50.264 30.5379 50.1208 30.4784 50.0035 30.3596C49.8862 30.2408 49.8268 30.0976 49.8268 29.93V29.9331Z" fill="white"/>
<path d="M53.9933 30.5409V27.5048C53.9933 27.3372 54.0527 27.194 54.17 27.0752C54.2873 26.9564 54.432 26.897 54.6011 26.897H57.0294C57.197 26.897 57.3402 26.9564 57.4575 27.0752C57.5748 27.194 57.6342 27.3372 57.6342 27.5048V30.5409H57.2244V29.2095H54.4031V30.5409H53.9933ZM54.4031 28.7951H57.2244V27.5094C57.2244 27.4561 57.2046 27.4088 57.1665 27.3707C57.1284 27.3327 57.0827 27.3129 57.0294 27.3129H54.6011C54.5463 27.3129 54.5006 27.3327 54.461 27.3707C54.4229 27.4088 54.4031 27.4561 54.4031 27.5094V28.7951Z" fill="white"/>
<path d="M58.1855 29.933V29.7929H58.5953V29.9315C58.5953 29.9848 58.6151 30.0305 58.6532 30.0686C58.6913 30.1067 58.7385 30.1265 58.7934 30.1265H61.2217C61.2765 30.1265 61.3222 30.1067 61.3618 30.0686C61.3999 30.0305 61.4197 29.9833 61.4197 29.93V29.1211C61.4197 29.0662 61.3999 29.022 61.3618 28.984C61.3237 28.9474 61.2765 28.9291 61.2217 28.9291H58.7934C58.6258 28.9291 58.4826 28.8697 58.3638 28.7509C58.245 28.632 58.1855 28.4889 58.1855 28.3213V27.5063C58.1855 27.3387 58.245 27.1955 58.3638 27.0767C58.4826 26.9578 58.6258 26.8984 58.7934 26.8984H61.2217C61.3892 26.8984 61.5324 26.9578 61.6512 27.0767C61.7701 27.1955 61.8295 27.3387 61.8295 27.5063V27.6495H61.4197V27.5078C61.4197 27.4545 61.3999 27.4088 61.3618 27.3707C61.3237 27.3326 61.2765 27.3128 61.2217 27.3128H58.7934C58.7385 27.3128 58.6928 27.3326 58.6532 27.3707C58.6151 27.4088 58.5953 27.456 58.5953 27.5093V28.3213C58.5953 28.3761 58.6151 28.4203 58.6532 28.4584C58.6913 28.4949 58.7385 28.5132 58.7934 28.5132H61.2217C61.3892 28.5132 61.5324 28.5726 61.6512 28.6899C61.7701 28.8072 61.8295 28.952 61.8295 29.1211V29.933C61.8295 30.1006 61.7701 30.2438 61.6528 30.3626C61.5355 30.4814 61.3907 30.5408 61.2217 30.5408H58.7934C58.6258 30.5408 58.4826 30.4814 58.3638 30.3626C58.245 30.2438 58.1855 30.1006 58.1855 29.933Z" fill="white"/>
<path d="M62.3749 30.5408V26.8984H62.7847V30.5408H62.3749Z" fill="white"/>
<path d="M63.4808 30.5408V26.8984H64.043L66.7119 30.0762V26.8984H67.1217V30.5408H66.5611L63.8906 27.3661V30.5408H63.4808Z" fill="white"/>
<path d="M67.6779 29.9331V27.5048C67.6779 27.3372 67.7373 27.194 67.8546 27.0752C67.9719 26.9564 68.1151 26.897 68.2826 26.897H70.7109C70.8785 26.897 71.0217 26.9564 71.1405 27.0752C71.2593 27.194 71.3187 27.3372 71.3187 27.5048V29.9331C71.3187 30.1006 71.2593 30.2438 71.142 30.3627C71.0247 30.4815 70.88 30.5409 70.7109 30.5409H68.2826C68.1151 30.5409 67.9719 30.4815 67.8546 30.3627C67.7373 30.2438 67.6779 30.1006 67.6779 29.9331ZM68.0876 29.9285C68.0876 29.9833 68.1074 30.029 68.1471 30.0671C68.1867 30.1052 68.2324 30.125 68.2857 30.125H70.7109C70.7658 30.125 70.8115 30.1052 70.8511 30.0671C70.8891 30.029 70.909 29.9818 70.909 29.9285V27.5094C70.909 27.4545 70.8891 27.4088 70.8511 27.3707C70.813 27.3327 70.7658 27.3129 70.7109 27.3129H68.2857C68.2308 27.3129 68.1851 27.3327 68.1471 27.3707C68.109 27.4088 68.0892 27.4561 68.0892 27.5094V29.9285H68.0876Z" fill="white"/>
<path d="M17.8922 18.7378H15.016V15.9713H15.7168V14.5485H15.016V11.5063L14.4372 11.9496H14.4615L14.2955 12.0684C14.0121 12.271 13.7684 12.4462 13.5658 12.594C13.3236 12.7692 13.1362 12.9032 13.0052 12.9962C12.9915 13.016 12.9686 13.0358 12.9427 13.0586C12.9214 13.0799 12.8803 13.1119 12.8254 13.1561C12.7919 13.182 12.7538 13.2125 12.7096 13.249C12.5695 13.3633 12.3912 13.5004 12.1963 13.6451L12.117 13.7061C11.9099 13.8645 11.6524 14.0625 11.3432 14.2941L11.3264 14.3078H10.9318L10.9151 14.2941C10.5937 14.0534 10.2722 13.8127 9.95841 13.5705C9.27593 13.0464 8.60716 12.5407 7.97344 12.0669L7.23155 11.5048V14.547H6.53841V15.9698H7.23155V18.7363H4.36149V16.7147H3.67597V15.1533H4.36149V9.25777H3.49316V7.92786H7.23002V8.52959L8.7397 9.67213H7.76321V9.78791H8.88747L10.9745 11.3722H11.2807L15.0176 8.52959V7.92786H17.2661V8.59205H17.3179V13.9132H17.3681V7.92786H18.762V9.25777H17.8937V13.5202H18.5792V15.0817H17.8937V18.7378H17.8922ZM15.1486 18.6068H17.7612V14.9507H18.4467V13.6512H17.7612V9.12524H18.6295V8.06039H17.4992V14.0442H17.1853V8.72459H17.1335V8.06039H15.1486V8.59662L11.3249 11.5048H10.9303L8.84329 9.92044H7.6322V9.54112H8.34819L7.09901 8.59662V8.06039H3.62418V9.12524H4.4925V15.2858H3.80698V16.5852H4.4925V18.6068H7.09749V16.1039H6.40435V14.4175H7.09749V11.2412L8.04961 11.9633C8.68333 12.4371 9.3521 12.9428 10.0346 13.4669C10.3423 13.703 10.6576 13.9391 10.973 14.1753H11.2792C11.5808 13.9498 11.8322 13.7563 12.0348 13.6009L12.1155 13.54C12.3532 13.3633 12.5177 13.2338 12.6152 13.1546L12.5908 13.1287C12.5908 13.1287 12.6091 13.1104 12.6365 13.0921C12.6639 13.0708 12.6959 13.0479 12.734 13.0251C12.7447 13.0175 12.7614 13.0053 12.7797 12.9931C12.7919 12.9855 12.8026 12.9779 12.8148 12.9703L12.8254 12.9626H12.8269C12.9579 12.8712 13.1773 12.7128 13.4896 12.4873C13.6526 12.37 13.84 12.2345 14.0533 12.0821H14.0487L15.1486 11.2412V14.4175H15.8493V16.1039H15.1486V18.6068ZM5.06987 14.0442H4.75605V8.48999H5.06987V14.0442ZM4.88706 13.9132H4.93733V8.62252H4.88706V13.9132Z" fill="white"/>
<path d="M30.7587 18.7225H19.8041V15.985H19.2861V13.3282H19.8041V7.97197H22.4243V7.59265H24.5997V7.97197H30.7587V10.3591H22.5766V11.8916H30.3718V14.3153H22.0876V15.723H22.5766V16.2333H30.7587V18.7225ZM19.9351 18.5915H30.6262V16.3658H22.4441V15.8555H21.9551V14.1843H30.2393V12.0242H22.4441V10.2281H30.6262V8.10451H24.4672V7.72519H22.5553V8.10451H19.9351V13.4607H19.4171V15.854H19.9351V18.5915Z" fill="white"/>
<path d="M38.4441 18.7225H35.5756V15.9424H34.8977V14.3809H35.5756V10.8192H35.4522V10.4688H34.0446V10.8192H31.2858V7.95068H42.0576V10.8192H38.4457V14.5561H37.7525V15.9637H38.4457V18.7225H38.4441ZM35.7066 18.5915H38.3116V16.0962H37.6185V14.4251H38.3116V10.6867H41.9236V8.08169H31.4153V10.6867H33.9106V10.3363H35.5817V10.6867H35.7051V14.5119H35.0272V15.8113H35.7051V18.5915H35.7066ZM36.2901 14.0457H35.9686V10.6867H36.2901V14.0442V14.0457ZM36.0997 13.9147H36.1576V10.8192H36.0997V13.9132V13.9147ZM41.4924 8.6682H39.9812V8.34676H41.4924V8.6682ZM40.1138 8.53719H41.3614V8.4793H40.1138V8.53719Z" fill="white"/>
<path d="M56.4749 18.7377H53.2225L51.661 16.3003H50.5367V15.336H51.041L50.9831 15.2491H54.1989L56.4749 18.7377ZM53.2956 18.6067H56.2327L54.1289 15.3817H51.2299L51.2878 15.4685H50.6693V16.1693H51.7341L53.2956 18.6067ZM43.418 18.7377H40.5784L41.6661 17.0665H41.1969L44.0502 12.7828H44.466L45.0952 11.82H43.9664L43.322 11.0096H45.6269L47.5814 8.01915V7.93689H49.4719V8.01915L53.8851 14.7754H50.6769L48.5228 11.4224L47.5524 12.9062L46.742 12.9214L44.2604 16.6659H44.9627L43.4195 18.7392L43.418 18.7377ZM40.8206 18.6067H43.3525L44.6991 16.7969H44.0136L46.6689 12.7904L47.4793 12.7752L48.5228 11.1787L50.747 14.6428H53.6399L49.3454 8.0679H47.7048L47.7002 8.07399L45.6954 11.1406H43.5916L44.0273 11.6875H45.3359L44.5346 12.9138H44.1187L41.4406 16.934H41.9068L40.8191 18.6051L40.8206 18.6067Z" fill="white"/>
<path d="M61.6438 18.7515H59.7533V18.6753L57.7988 15.6788H55.5015L56.1383 14.876H57.2748L56.638 13.9056H56.2221L53.3688 9.62794H53.8441L52.7488 7.95679H55.5899L57.1331 10.0225H56.4308L58.9124 13.767L59.7228 13.7822L60.7008 15.266L62.8549 11.9191H66.0555L61.6423 18.6845V18.75L61.6438 18.7515ZM59.8736 18.6205H61.5235L65.8133 12.0516H62.928L60.7039 15.5067L59.6528 13.9117L58.8423 13.8965L58.8225 13.8675L56.1855 9.88996H56.8695L55.5229 8.0878H52.9925L54.0878 9.75895H53.6141L56.2922 13.7731H56.7081L57.517 15.007H56.2008L55.7727 15.5463H57.8689L59.8736 18.619V18.6205ZM66.3724 11.4392H63.1565L63.2144 11.3524H62.7102V10.3881H63.8421L65.4035 7.95831H68.6483L66.3724 11.4392ZM63.4018 11.3082H66.3008L68.4046 8.08932H65.4751L63.9137 10.5191H62.8412V11.2199H63.4597L63.4018 11.3067V11.3082Z" fill="white"/>
<path d="M80.5902 18.7225H69.6355V15.985H69.1176V13.3282H69.6355V7.97197H72.2557V7.59265H74.4311V7.97197H80.5902V10.3591H72.4081V11.8916H80.2032V14.3153H71.9191V15.723H72.4081V16.2333H80.5902V18.7225ZM69.7665 18.5915H80.4576V16.3658H72.2755V15.8555H71.7865V14.1843H80.0707V12.0242H72.2755V10.2281H80.4576V8.10451H74.2986V7.72519H72.3867V8.10451H69.7665V13.4607H69.2486V15.854H69.7665V18.5915Z" fill="white"/>
<path d="M93.6257 18.6722H90.7099L89.7837 16.9934H89.3907L88.0516 14.6946H88.5147L88.2664 14.2422H84.0147V18.6722H81.1172V17.1473H81.6717V14.8119H81.1172V7.8988H90.78C91.2675 7.8988 91.7276 8.02524 92.1495 8.27203C92.5593 8.5173 92.8899 8.8494 93.1352 9.25766C93.3789 9.66288 93.5023 10.1245 93.5023 10.6272V11.5168C93.5023 12.2085 93.2707 12.8178 92.8137 13.3266C92.439 13.7379 91.9835 14.0152 91.4564 14.1508L92.1206 15.2964H91.7748L92.5563 16.7192H93.7064V17.5875H93.0361L93.6272 18.6676L93.6257 18.6722ZM90.7876 18.5412H93.4033L92.8122 17.4611H93.5724V16.8563H92.4755L91.5493 15.1699H91.889L91.3528 14.2437H91.0359L90.9704 14.1096L91.0618 14.0975C91.7276 14.0121 92.2684 13.7318 92.7147 13.2428C93.155 12.7523 93.3682 12.1887 93.3682 11.5214V10.6318C93.3682 10.1534 93.2509 9.71468 93.0194 9.33078C92.7848 8.9408 92.4694 8.62393 92.0779 8.38933C91.6773 8.15321 91.2401 8.03438 90.777 8.03438H81.2452V14.6794H81.7997V17.2783H81.2452V18.5412H83.8791V14.1112H88.3411L88.7341 14.8272H88.2771L89.4623 16.8624H89.8568L90.7831 18.5412H90.7876ZM81.9246 14.2726H81.5955V9.64308H81.9246V14.2711V14.2726ZM81.7281 14.1416H81.7936V9.77561H81.7281V14.1401V14.1416ZM90.0838 11.9601H83.8806V10.6896H84.5235V10.0696H90.0853C90.2712 10.0696 90.4251 10.1336 90.5546 10.2646C90.684 10.3956 90.7496 10.5495 90.7496 10.7338V11.296C90.7496 11.4818 90.6856 11.6341 90.5546 11.7652C90.4235 11.8962 90.2697 11.9601 90.0853 11.9601H90.0838ZM84.0116 11.8291H90.0838C90.2331 11.8291 90.355 11.7789 90.4601 11.6737C90.5652 11.5686 90.6155 11.4452 90.6155 11.2975V10.7353C90.6155 10.5861 90.5652 10.4642 90.4601 10.3591C90.355 10.254 90.2316 10.2037 90.0838 10.2037H84.6545V10.8237H84.0116V11.8307V11.8291Z" fill="white"/>
<path d="M102.821 18.6722H94.2305V16.8761H96.0037V16.3582H101.857C101.879 16.3582 101.905 16.3582 101.93 16.3582V14.0457H101.069V14.6657H94.4559V13.2063H94.3249V10.4093H94.2366L94.2457 10.3347C94.3127 9.80303 94.5138 9.32774 94.8444 8.92252L94.8642 8.89814H98.0405V8.66507H95.0668L95.2024 8.54929C95.7158 8.11208 96.2931 7.8988 96.968 7.8988H103.88V8.19739H105.558V10.2113H97.9323C97.9064 10.2113 97.8835 10.2128 97.8592 10.2159V12.0866H100.903V11.4803H102.312V12.0866H104.794V13.0859H105.545V16.2241C105.481 16.7085 105.33 17.1153 105.083 17.4717H105.523V17.8145H104.807C104.554 18.0765 104.26 18.2852 103.931 18.4361C103.589 18.593 103.228 18.6676 102.824 18.6676L102.821 18.6722ZM94.363 18.5412H102.821C103.205 18.5412 103.549 18.4696 103.873 18.3203C104.196 18.1725 104.484 17.9668 104.728 17.7079L104.748 17.6865H105.389V17.6073H104.818L104.9 17.5007C105.179 17.1381 105.347 16.7192 105.412 16.218V13.22H104.66V12.2206H102.178V11.6143H101.032V12.2206H97.7266V10.1062L97.7815 10.097C97.8272 10.0894 97.8744 10.0818 97.9308 10.0818H105.426V8.32992H103.747V8.03134H96.9665C96.3876 8.03134 95.8833 8.19586 95.4324 8.53405H98.1715V9.03068H94.9267C94.6387 9.39172 94.4575 9.81217 94.3874 10.2783H94.4575V13.0737H94.5885V14.5331H100.938V13.9131H102.449V14.1325H102.062V16.4724L102.007 16.4815C101.959 16.4892 101.905 16.4892 101.858 16.4892H96.1362V17.0071H94.363V18.5396V18.5412Z" fill="white"/>
<path d="M117.555 18.7225H106.6V15.985H106.082V13.3282H106.6V7.97197H109.221V7.59265H111.396V7.97197H117.555V10.3591H109.373V11.8916H117.168V14.3153H108.884V15.723H109.373V16.2333H117.555V18.7225ZM106.731 18.5915H117.422V16.3658H109.24V15.8555H108.751V14.1843H117.036V12.0242H109.24V10.2281H117.422V8.10451H111.263V7.72519H109.352V8.10451H106.731V13.4607H106.213V15.854H106.731V18.5915Z" fill="white"/>
<path d="M17.0375 7.33521H18.3004V8.53258H17.4321V12.926H18.1176V14.3565H17.4321V18.0126H14.6885V15.3787H15.3892V13.8248H14.6885V10.7156L13.8491 11.3585H13.8643C13.1422 11.8764 12.6822 12.2131 12.4704 12.3578C12.4415 12.3791 12.4049 12.402 12.376 12.4233C12.3394 12.4446 12.3105 12.4675 12.2815 12.4888C12.2602 12.504 12.245 12.5178 12.245 12.5178C12.245 12.5178 12.2602 12.5025 12.2967 12.4812C12.3333 12.4599 12.3912 12.4157 12.4719 12.3578C12.5161 12.3289 12.5374 12.3136 12.5527 12.306C12.5679 12.2984 12.5527 12.3136 12.5085 12.3502C12.4719 12.3867 12.3912 12.4446 12.2754 12.5406C12.1596 12.6366 11.9905 12.7676 11.7651 12.9352C11.5457 13.1027 11.2608 13.3221 10.9105 13.5841H10.5601C10.2387 13.3434 9.91722 13.1027 9.60341 12.862C8.94683 12.3578 8.28263 11.8551 7.61844 11.3585L6.77144 10.7156V13.8248H6.0783V15.3787H6.77144V18.0126H4.03239V15.9911H3.34687V14.5606H4.03239V8.53258H3.16406V7.33521H6.76991V7.90495L8.14858 8.94847H7.30157V9.19678H8.47001L10.557 10.7811H10.9074L14.6869 7.90495V7.33521H16.8029V7.9994H16.8547V13.3206H17.0375V7.33521ZM4.60823 7.89733H4.42542V13.3206H4.60823V7.89733Z" fill="black"/>
<path d="M24.1381 7.37932H30.2971V9.63393H22.115V11.2975H29.9102V13.5886H21.626V15.1288H22.115V15.6391H30.2971V17.9958H19.475V15.2583H18.957V12.7325H19.475V7.37932H22.0952V7H24.1381V7.37932Z" fill="black"/>
<path d="M35.2466 7.35803H41.596V10.094H37.9841V13.8309H37.291V15.371H37.9841V17.9989H35.2466V15.2187H34.5687V13.7882H35.2466V10.094H35.1232V9.74365H33.583V10.094H30.9552V7.35803H35.2466ZM35.6411 13.3206H35.8316V10.094H35.6411V13.3206ZM39.6552 7.94149H41.0339V7.75107H39.6552V7.94149Z" fill="black"/>
<path d="M50.3174 14.0502L48.1283 10.6424L47.1213 12.1826L46.3109 12.1978L43.7425 16.0733H44.4356L42.9899 18.0141H40.3042L41.3919 16.3429H40.9242L43.6907 12.1902H44.1066L44.8226 11.0949H43.6038L43.0646 10.4154H45.2689L47.2539 7.37933V7.34277H49.0134V7.37933L53.3703 14.0502H50.3189H50.3174ZM53.7694 14.6565L55.9585 18.0141H52.8645L51.303 15.5767H50.2077V14.7449H50.7698L50.712 14.6581H53.7694V14.6565Z" fill="black"/>
<path d="M62.4968 11.3279H65.5405L61.1836 17.9988V18.0278H59.4241V17.9988L57.4391 14.9551H55.2424L55.7756 14.2833H57.0019L56.2798 13.1819H55.864L53.0975 9.03675H53.5713L52.476 7.3656H55.1617L56.6074 9.3003H55.9142L58.4827 13.1758L59.2931 13.191L60.3077 14.7312L62.4968 11.3294V11.3279ZM65.0439 7.3656H68.1302L65.9411 10.7155H62.8837L62.9416 10.6287H62.3795V9.79692H63.4809L65.0423 7.36712L65.0439 7.3656Z" fill="black"/>
<path d="M73.9694 7.37932H80.1285V9.63393H71.9464V11.2975H79.7415V13.5886H71.4574V15.1288H71.9464V15.6391H80.1285V17.9958H69.3048V15.2583H68.7869V12.7325H69.3048V7.37932H71.925V7H73.9679V7.37932H73.9694Z" fill="black"/>
<path d="M92.1205 16.1296H93.2448V16.8669H92.5288L93.1199 17.947H90.3534L89.4272 16.2682H89.0326L87.7698 14.1004H88.2298L87.9084 13.517H83.5515V17.947H80.785V16.5531H81.3395V14.0867H80.785V7.30615H90.3824C90.8637 7.30615 91.3086 7.42955 91.7184 7.67024C92.119 7.91094 92.4404 8.23237 92.6811 8.63302C92.9218 9.03519 93.0391 9.48002 93.0391 9.96903V10.8587C93.0391 11.5442 92.8137 12.1292 92.3673 12.6243C91.9149 13.1209 91.3527 13.4119 90.6748 13.5002L90.6825 13.5155H90.9963L91.6087 14.5742H91.2659L92.1205 16.1281V16.1296ZM81.4645 9.05043H81.2679V13.5459H81.4645V9.05043ZM90.2879 10.0726C90.2879 9.90505 90.23 9.76642 90.1127 9.64912C89.9954 9.53182 89.8568 9.47393 89.6892 9.47393H84.1944V10.0939H83.5515V11.2319H89.6892C89.8568 11.2319 89.9954 11.174 90.1127 11.0567C90.23 10.9394 90.2879 10.8008 90.2879 10.6332V10.0711V10.0726Z" fill="black"/>
<path d="M103.418 7.60626H105.097V9.48916H97.5362C97.4844 9.48916 97.4418 9.49678 97.3976 9.5044V11.497H100.572V10.8907H101.849V11.497H104.331V12.4963H105.082V15.569C105.016 16.0656 104.848 16.5028 104.556 16.8821H105.06V17.0939H104.381C104.132 17.3559 103.842 17.5677 103.505 17.7215C103.17 17.8754 102.812 17.947 102.425 17.947H93.8999V16.2835H95.6731V15.7655H101.46C101.505 15.7655 101.555 15.7655 101.599 15.7579V13.4073H101.986V13.3205H100.607V13.9405H94.1269V12.4811H93.9959V9.68568H93.9151C93.9806 9.16011 94.1772 8.70005 94.4986 8.30702H97.7099V7.9414H94.849C95.3456 7.5179 95.9138 7.30615 96.5719 7.30615H103.418V7.60474V7.60626Z" fill="black"/>
<path d="M110.934 7.37932H117.093V9.63393H108.911V11.2975H116.706V13.5886H108.422V15.1288H108.911V15.6391H117.093V17.9958H106.27V15.2583H105.752V12.7325H106.27V7.37932H108.89V7H110.933V7.37932H110.934Z" fill="black"/>
<path d="M17.4321 7.8623H18.6949V9.05968H17.8266V13.4531H18.5121V14.8836H17.8266V18.5397H15.083V15.9058H15.7838V14.3519H15.083V11.2412L14.2436 11.884H14.2588C13.5368 12.402 13.0767 12.7387 12.8649 12.8834C12.836 12.9047 12.7994 12.9276 12.7705 12.9489C12.7339 12.9702 12.705 12.9931 12.676 13.0144C12.6547 13.0296 12.6395 13.0433 12.6395 13.0433C12.6395 13.0433 12.6547 13.0281 12.6913 13.0068C12.7278 12.9854 12.7857 12.9413 12.8665 12.8834C12.9106 12.8544 12.932 12.8392 12.9472 12.8316C12.9624 12.824 12.9472 12.8392 12.903 12.8758C12.8665 12.9123 12.7857 12.9702 12.67 13.0662C12.5542 13.1622 12.3851 13.2932 12.1596 13.4607C11.9403 13.6283 11.6554 13.8477 11.305 14.1097H10.9546C10.6332 13.869 10.3118 13.6283 9.99794 13.3876C9.34136 12.8834 8.67716 12.3807 8.01297 11.884L7.16597 11.2412V14.3504H6.47283V15.9042H7.16597V18.5382H4.42692V16.5166H3.7414V15.0862H4.42692V9.05968H3.55859V7.8623H7.16444V8.43205L8.54311 9.47557H7.6961V9.72388H8.86454L10.9516 11.3082H11.302L15.083 8.43205V7.8623H17.199V8.5265H17.2508V13.8477H17.4336V7.8623H17.4321ZM5.00276 8.42443H4.81996V13.8477H5.00276V8.42443Z" fill="black"/>
<path d="M24.5341 7.90642H30.6932V10.161H22.5111V11.8246H30.3062V14.1157H22.0221V15.6559H22.5111V16.1662H30.6932V18.5229H19.8695V15.7854H19.3516V13.2596H19.8695V7.90642H22.4897V7.5271H24.5326V7.90642H24.5341Z" fill="black"/>
<path d="M35.6411 7.88513H41.9906V10.6211H38.3786V14.358H37.6855V15.8981H38.3786V18.526H35.6411V15.7458H34.9632V14.3153H35.6411V10.6211H35.5177V10.2708H33.9776V10.6211H31.3497V7.88513H35.6411ZM36.0357 13.8477H36.2261V10.6211H36.0357V13.8477ZM40.0498 8.46859H41.4284V8.27816H40.0498V8.46859Z" fill="black"/>
<path d="M50.7119 14.5773L48.5228 11.1695L47.5159 12.7097L46.7054 12.7249L44.137 16.6004H44.8301L43.3845 18.5412H40.6987L41.7864 16.87H41.3187L44.0852 12.7173H44.5011L45.2171 11.622H43.9984L43.4591 10.9425H45.6634L47.6484 7.90643V7.86987H49.4079V7.90643L53.7648 14.5773H50.7135H50.7119ZM54.1639 15.1836L56.353 18.5412H53.259L51.6976 16.1038H50.6023V15.272H51.1644L51.1065 15.1852H54.1639V15.1836Z" fill="black"/>
<path d="M62.8929 11.855H65.9366L61.5797 18.5259V18.5549H59.8202V18.5259L57.8353 15.4822H55.6385L56.1717 14.8104H57.398L56.676 13.709H56.2601L53.4936 9.56385H53.9674L52.8721 7.8927H55.5578L57.0035 9.8274H56.3103L58.8788 13.7029L59.6892 13.7181L60.7038 15.2583L62.8929 11.8565V11.855ZM65.44 7.8927H68.5264L66.3373 11.2426H63.2798L63.3377 11.1558H62.7756V10.324H63.877L65.4385 7.89422L65.44 7.8927Z" fill="black"/>
<path d="M74.3655 7.90642H80.5246V10.161H72.3425V11.8246H80.1376V14.1157H71.8535V15.6559H72.3425V16.1662H80.5246V18.5229H69.7009V15.7854H69.183V13.2596H69.7009V7.90642H72.3212V7.5271H74.364V7.90642H74.3655Z" fill="black"/>
<path d="M92.5151 16.6567H93.6393V17.394H92.9233L93.5144 18.4741H90.7479L89.8217 16.7953H89.4272L88.1643 14.6275H88.6243L88.3029 14.0441H83.946V18.4741H81.1796V17.0802H81.7341V14.6138H81.1796V7.83325H90.7769C91.2583 7.83325 91.7031 7.95665 92.1129 8.19734C92.5135 8.43804 92.835 8.75947 93.0757 9.16012C93.3164 9.56229 93.4337 10.0071 93.4337 10.4961V11.3858C93.4337 12.0713 93.2082 12.6563 92.7618 13.1514C92.3094 13.648 91.7473 13.939 91.0694 14.0273L91.077 14.0426H91.3908L92.0032 15.1013H91.6604L92.5151 16.6552V16.6567ZM81.859 9.57753H81.6625V14.073H81.859V9.57753ZM90.6824 10.5997C90.6824 10.4321 90.6245 10.2935 90.5072 10.1762C90.3899 10.0589 90.2513 10.001 90.0837 10.001H84.5889V10.621H83.946V11.759H90.0837C90.2513 11.759 90.3899 11.7011 90.5072 11.5838C90.6245 11.4665 90.6824 11.3279 90.6824 11.1603V10.5982V10.5997Z" fill="black"/>
<path d="M103.813 8.13184H105.491V10.0147H97.9308C97.879 10.0147 97.8363 10.0224 97.7921 10.03V12.0226H100.967V11.4163H102.243V12.0226H104.725V13.0219H105.476V16.0946C105.411 16.5912 105.243 17.0284 104.951 17.4077H105.455V17.6195H104.775C104.527 17.8815 104.236 18.0932 103.899 18.2471C103.564 18.401 103.206 18.4726 102.819 18.4726H94.2944V16.809H96.0677V16.2911H101.855C101.899 16.2911 101.949 16.2911 101.994 16.2835V13.9329H102.381V13.846H101.002V14.4661H94.5214V13.0067H94.3904V10.2128H94.3097C94.3752 9.68721 94.5717 9.22715 94.8931 8.83412H98.1044V8.4685H95.2435C95.7401 8.045 96.3084 7.83325 96.9665 7.83325H103.813V8.13184Z" fill="black"/>
<path d="M111.33 7.90642H117.489V10.161H109.307V11.8246H117.102V14.1157H108.818V15.6559H109.307V16.1662H117.489V18.5229H106.666V15.7854H106.148V13.2596H106.666V7.90642H109.286V7.5271H111.329V7.90642H111.33Z" fill="black"/>
<path d="M17.8922 18.2106H15.016V15.4442H15.7168V14.0213H15.016V10.9791L14.4372 11.4224H14.4615L14.2955 11.5413C14.0121 11.7439 13.7684 11.9191 13.5658 12.0668C13.3236 12.242 13.1362 12.3761 13.0052 12.469C12.9915 12.4888 12.9686 12.5086 12.9427 12.5315C12.9214 12.5528 12.8803 12.5848 12.8254 12.629C12.7919 12.6548 12.7538 12.6853 12.7096 12.7219C12.5695 12.8361 12.3912 12.9732 12.1963 13.118L12.117 13.1789C11.9099 13.3373 11.6524 13.5354 11.3432 13.7669L11.3264 13.7806H10.9318L10.9151 13.7669C10.5937 13.5262 10.2722 13.2855 9.95841 13.0433C9.27593 12.5193 8.60716 12.0135 7.97344 11.5397L7.23155 10.9776V14.0198H6.53841V15.4426H7.23155V18.2091H4.36149V16.1876H3.67597V14.6261H4.36149V8.73061H3.49316V7.40222H7.23002V8.00396L8.7397 9.1465H7.76321V9.26227H8.88747L10.9745 10.8466H11.2807L15.016 8.00396V7.40222H17.2646V8.06642H17.3164V13.3861H17.3666V7.40222H18.7605V8.73061H17.8922V12.993H18.5777V14.5545H17.8922V18.2106ZM15.1486 18.0796H17.7612V14.4235H18.4467V13.1241H17.7612V8.59808H18.6295V7.53323H17.4992V13.5186H17.1853V8.19743H17.1335V7.53323H15.1486V8.06946L11.3249 10.9776H10.9303L8.84329 9.39328H7.6322V9.01396H8.34819L7.09901 8.06946V7.53323H3.62418V8.59808H4.4925V14.7586H3.80698V16.0581H4.4925V18.0796H7.09749V15.5767H6.40435V13.8903H7.09749V10.7141L8.04961 11.4361C8.68333 11.9099 9.3521 12.4157 10.0346 12.9397C10.3423 13.1758 10.6576 13.412 10.973 13.6481H11.2792C11.5808 13.4226 11.8322 13.2292 12.0348 13.0738L12.1155 13.0128C12.3532 12.8361 12.5177 12.7066 12.6152 12.6274L12.5908 12.6015C12.5908 12.6015 12.6091 12.5833 12.6365 12.565C12.6639 12.5436 12.6959 12.5208 12.734 12.4979C12.7447 12.4903 12.7614 12.4781 12.7797 12.466C12.7919 12.4583 12.8026 12.4507 12.8148 12.4431L12.8254 12.4355H12.8269C12.9579 12.3441 13.1773 12.1856 13.4896 11.9602C13.6526 11.8429 13.84 11.7073 14.0533 11.555H14.0487L15.1486 10.7141V13.8903H15.8493V15.5767H15.1486V18.0796ZM5.06987 13.5186H4.75605V7.96435H5.06987V13.5186ZM4.88706 13.3876H4.93733V8.09536H4.88706V13.3861V13.3876Z" fill="white"/>
<path d="M30.7587 18.1954H19.8041V15.4579H19.2861V12.8011H19.8041V7.44487H22.4243V7.06555H24.5997V7.44487H30.7587V9.83202H22.5766V11.3645H30.3718V13.7882H22.0876V15.1959H22.5766V15.7062H30.7587V18.1954ZM19.9351 18.0644H30.6262V15.8387H22.4441V15.3284H21.9551V13.6572H30.2393V11.4971H22.4441V9.70101H30.6262V7.57741H24.4672V7.19809H22.5553V7.57741H19.9351V12.9336H19.4171V15.3269H19.9351V18.0644Z" fill="white"/>
<path d="M38.4441 18.1954H35.5756V15.4153H34.8977V13.8538H35.5756V10.2921H35.4522V9.94174H34.0446V10.2921H31.2858V7.42358H42.0576V10.2921H38.4457V14.029H37.7525V15.4366H38.4457V18.1954H38.4441ZM35.7066 18.0644H38.3116V15.5691H37.6185V13.898H38.3116V10.1611H41.9236V7.5546H31.4153V10.1611H33.9106V9.81073H35.5817V10.1611H35.7051V13.9863H35.0272V15.2858H35.7051V18.0659L35.7066 18.0644ZM36.2901 13.5186H35.9686V10.1611H36.2901V13.5186ZM36.0997 13.3876H36.1576V10.2921H36.0997V13.3861V13.3876ZM41.494 8.13957H39.9828V7.81814H41.494V8.13957ZM40.1153 8.00856H41.363V7.95067H40.1153V8.00856Z" fill="white"/>
<path d="M56.4749 18.2106H53.2225L51.661 15.7732H50.5367V14.8089H51.041L50.9831 14.722H54.1989L56.4749 18.2106ZM53.2956 18.0796H56.2327L54.1289 14.8546H51.2299L51.2878 14.9414H50.6693V15.6422H51.7341L53.2956 18.0796ZM43.418 18.2106H40.5784L41.6661 16.5394H41.1969L44.0502 12.2557H44.466L45.0952 11.2929H43.9664L43.322 10.4825H45.6269L47.5814 7.49205V7.40979H49.4719V7.49205L53.8851 14.2483H50.6769L48.5228 10.8953L47.5524 12.3791L46.742 12.3943L44.2604 16.1388H44.9627L43.4195 18.2121L43.418 18.2106ZM40.8206 18.0796H43.3525L44.6991 16.2698H44.0136L46.6689 12.2633L47.4793 12.2481L48.5228 10.6516L50.747 14.1157H53.6399L49.3454 7.5408H47.7048L47.7002 7.54689L45.6954 10.6135H43.5916L44.0273 11.1604H45.3359L44.5346 12.3867H44.1187L41.4406 16.4069H41.9068L40.8191 18.078L40.8206 18.0796Z" fill="white"/>
<path d="M61.6438 18.2259H59.7533V18.1497L57.7988 15.1532H55.5015L56.1383 14.3504H57.2748L56.638 13.38H56.2221L53.3688 9.1023H53.8441L52.7488 7.43115H55.5899L57.1331 9.49686H56.4308L58.9124 13.2413L59.7228 13.2566L60.7008 14.7403L62.8549 11.3935H66.0555L61.6423 18.1588V18.2243L61.6438 18.2259ZM59.8736 18.0948H61.5235L65.8133 11.526H62.928L60.7039 14.981L59.6528 13.3861L58.8423 13.3708L58.8225 13.3419L56.1855 9.36433H56.8695L55.5229 7.56216H52.9925L54.0878 9.23332H53.6141L56.2922 13.2474H56.7081L57.517 14.4814H56.2008L55.7727 15.0207H57.8689L59.8736 18.0933V18.0948ZM66.3724 10.9136H63.1565L63.2144 10.8268H62.7102V9.86247H63.8421L65.4035 7.43268H68.6483L66.3724 10.9136ZM63.4018 10.7826H66.3008L68.4046 7.56369H65.4751L63.9137 9.99348H62.8412V10.6942H63.4597L63.4018 10.7811V10.7826Z" fill="white"/>
<path d="M80.5902 18.1954H69.6355V15.4579H69.1176V12.8011H69.6355V7.44487H72.2557V7.06555H74.4311V7.44487H80.5902V9.83202H72.4081V11.3645H80.2032V13.7882H71.9191V15.1959H72.4081V15.7062H80.5902V18.1954ZM69.7665 18.0644H80.4576V15.8387H72.2755V15.3284H71.7865V13.6572H80.0707V11.4971H72.2755V9.70101H80.4576V7.57741H74.2986V7.19809H72.3867V7.57741H69.7665V12.9336H69.2486V15.3269H69.7665V18.0644Z" fill="white"/>
<path d="M93.6257 18.1451H90.7099L89.7837 16.4663H89.3907L88.0516 14.1675H88.5147L88.2664 13.7151H84.0147V18.1451H81.1172V16.6202H81.6717V14.2848H81.1172V7.3717H90.78C91.2675 7.3717 91.7276 7.49814 92.1495 7.74493C92.5593 7.9902 92.8899 8.3223 93.1352 8.73056C93.3789 9.13578 93.5023 9.59737 93.5023 10.1001V10.9897C93.5023 11.6814 93.2707 12.2907 92.8137 12.7995C92.439 13.2108 91.9835 13.4881 91.4564 13.6237L92.1206 14.7693H91.7748L92.5563 16.1921H93.7064V17.0604H93.0361L93.6272 18.1405L93.6257 18.1451ZM90.7876 18.0141H93.4033L92.8122 16.934H93.5724V16.3292H92.4755L91.5493 14.6428H91.889L91.3528 13.7166H91.0359L90.9704 13.5825L91.0618 13.5704C91.7276 13.485 92.2684 13.2047 92.7147 12.7157C93.155 12.2252 93.3682 11.6616 93.3682 10.9943V10.1047C93.3682 9.62631 93.2509 9.18758 93.0194 8.80369C92.7848 8.4137 92.4694 8.09683 92.0779 7.86223C91.6773 7.62611 91.2401 7.50729 90.777 7.50729H81.2452V14.1523H81.7997V16.7512H81.2452V18.0141H83.8791V13.5841H88.3411L88.7341 14.3001H88.2771L89.4623 16.3353H89.8568L90.7831 18.0141H90.7876ZM81.9246 13.7455H81.5955V9.11598H81.9246V13.744V13.7455ZM81.7281 13.6145H81.7936V9.24851H81.7281V13.613V13.6145ZM90.0838 11.433H83.8806V10.1625H84.5235V9.54253H90.0853C90.2712 9.54253 90.4251 9.60651 90.5546 9.73752C90.684 9.86853 90.7496 10.0224 90.7496 10.2067V10.7689C90.7496 10.9547 90.6856 11.107 90.5546 11.2381C90.4235 11.3691 90.2697 11.433 90.0853 11.433H90.0838ZM84.0116 11.302H90.0838C90.2331 11.302 90.355 11.2518 90.4601 11.1466C90.5652 11.0415 90.6155 10.9181 90.6155 10.7704V10.2082C90.6155 10.059 90.5652 9.93708 90.4601 9.83197C90.355 9.72686 90.2316 9.67658 90.0838 9.67658H84.6545V10.2966H84.0116V11.3036V11.302Z" fill="white"/>
<path d="M102.821 18.1451H94.2305V16.3491H96.0037V15.8311H101.857C101.879 15.8311 101.905 15.8311 101.93 15.8311V13.5186H101.069V14.1386H94.4559V12.6792H94.3249V9.88383H94.2366L94.2457 9.80918C94.3127 9.27752 94.5138 8.80223 94.8444 8.39701L94.8642 8.37263H98.0405V8.13955H95.0668L95.2024 8.02378C95.7158 7.58656 96.2931 7.37329 96.968 7.37329H103.88V7.67187H105.558V9.68579H97.9323C97.9064 9.68579 97.8835 9.68731 97.8592 9.69036V11.5611H100.903V10.9548H102.312V11.5611H104.794V12.5604H105.545V15.6986C105.481 16.183 105.33 16.5898 105.083 16.9462H105.523V17.289H104.807C104.554 17.551 104.26 17.7597 103.931 17.9105C103.589 18.0674 103.228 18.1421 102.824 18.1421L102.821 18.1451ZM94.363 18.0141H102.821C103.205 18.0141 103.549 17.9425 103.873 17.7932C104.196 17.6455 104.484 17.4398 104.728 17.1808L104.748 17.1595H105.389V17.0803H104.818L104.9 16.9737C105.179 16.6111 105.347 16.1922 105.412 15.691V12.6929H104.66V11.6936H102.178V11.0873H101.032V11.6936H97.7266V9.57915L97.7815 9.57001C97.8272 9.56239 97.8744 9.55478 97.9308 9.55478H105.426V7.80289H103.747V7.5043H96.9665C96.3876 7.5043 95.8833 7.66883 95.4324 8.00702H98.1715V8.50364H94.9267C94.6387 8.86468 94.4575 9.28514 94.3874 9.75129H94.4575V12.5467H94.5885V14.0061H100.938V13.3861H102.449V13.6055H102.062V15.9454L102.007 15.9545C101.959 15.9621 101.905 15.9621 101.858 15.9621H96.1362V16.4801H94.363V18.0126V18.0141Z" fill="white"/>
<path d="M117.555 18.1954H106.6V15.4579H106.082V12.8011H106.6V7.44487H109.221V7.06555H111.396V7.44487H117.555V9.83202H109.373V11.3645H117.168V13.7882H108.884V15.1959H109.373V15.7062H117.555V18.1954ZM106.731 18.0644H117.422V15.8387H109.24V15.3284H108.751V13.6572H117.036V11.4971H109.24V9.70101H117.422V7.57741H111.263V7.19809H109.352V7.57741H106.731V12.9336H106.213V15.3269H106.731V18.0644Z" fill="white"/>
<path d="M5.81171 17.1458H0V17.3179H5.81171V17.1458Z" fill="black"/>
<path d="M37.6596 12.3303H31.8479V12.5025H37.6596V12.3303Z" fill="black"/>
<path d="M53.7435 17.2327H47.9318V17.4048H53.7435V17.2327Z" fill="black"/>
<path d="M66.2702 16.6766H60.4585V16.8488H66.2702V16.6766Z" fill="black"/>
<path d="M91.9423 10.6349H86.1306V10.807H91.9423V10.6349Z" fill="black"/>
<path d="M120 17.2327H114.188V17.4048H120V17.2327Z" fill="black"/>
<path d="M54.6895 8.78394H48.8778V8.95608H54.6895V8.78394Z" fill="black"/>
<path d="M16.2697 9.078H10.458V9.25015H16.2697V9.078Z" fill="black"/>
</svg>
