<svg width="120" height="40" viewBox="0 0 120 40" fill="none" xmlns="http://www.w3.org/2000/svg">
<g clip-path="url(#clip0_8669_3314)">
<rect width="120" height="40" fill="white"/>
<path d="M14.8299 5C6.63946 5 0 11.7259 0 20.0506C0 21.5391 0.217687 23.0001 0.653061 24.4059C0.92517 24.02 1.19728 23.6341 1.44218 23.2206C2.47619 21.6769 3.48299 20.1333 4.4898 18.5621L5.22449 17.3768C5.46939 16.9909 5.71429 16.5774 5.93197 16.1915C6.42177 15.3921 6.88435 14.5927 7.31973 13.7933C7.53742 13.3798 7.7551 12.9939 8 12.5804C8.2449 12.1669 8.43537 11.781 8.65306 11.3676C8.87075 10.9541 9.08844 10.5406 9.27891 10.1547L9.87755 8.91426L9.93197 8.83156C10.2585 8.17 11.0476 7.89434 11.7279 8.19756C12.2177 8.47321 12.517 8.99695 12.4898 9.57582C12.4898 10.2925 12.3537 11.0368 12.2993 11.7535C12.2449 12.4702 12.2177 13.2144 12.1633 13.9587C12.1088 15.4196 12.0816 16.9082 12.0816 18.3691C12.0816 19.8301 12.1633 21.291 12.2993 22.6968C12.381 23.386 12.4898 24.0751 12.6259 24.7642C12.7347 25.3707 12.9252 25.9771 13.1973 26.5284C13.2789 26.6938 13.3878 26.8592 13.5238 26.997C13.6054 27.0521 13.551 27.0246 13.6054 27.0246C13.6599 27.0246 13.6327 27.0246 13.6599 27.0246L13.7143 26.997H13.7415L13.8231 26.9694C13.8503 26.9419 13.9048 26.9143 13.932 26.8868C14.1497 26.7214 14.3401 26.5284 14.5306 26.3079C14.966 25.7841 15.3742 25.2604 15.7279 24.6815C16.1088 24.1027 16.4626 23.4687 16.8163 22.8347C17.5238 21.5667 18.1769 20.2711 18.8027 18.948C19.102 18.2864 19.4286 17.6249 19.7279 16.9357C20.0272 16.2742 20.3265 15.585 20.5986 14.9235C20.8707 14.2343 21.6599 13.9036 22.3401 14.1792C22.7755 14.3446 23.0748 14.7305 23.1565 15.1991C23.1565 15.3645 23.1837 15.585 23.2109 15.8056L23.2925 16.4396C23.3469 16.853 23.4014 17.2665 23.483 17.68C23.619 18.5069 23.7823 19.3339 24 20.1333C24.2177 20.9327 24.4898 21.7321 24.8163 22.5039C25.1429 23.2757 25.551 23.9924 26.068 24.654C26.1769 24.8194 26.1497 25.0399 26.0136 25.1501C25.8776 25.2604 25.6871 25.2604 25.5782 25.1501C24.898 24.5437 24.2993 23.8546 23.7823 23.1103C23.2653 22.3661 22.8299 21.5667 22.4218 20.7673C22.1497 20.216 21.932 19.6647 21.6871 19.1134C21.5238 19.4442 21.3878 19.7749 21.2245 20.0782C20.5714 21.4288 19.9184 22.7795 19.1565 24.1302C18.7755 24.8469 18.3946 25.5085 17.9592 26.1701C17.5238 26.8592 17.034 27.5208 16.517 28.1272C16.2177 28.4855 15.8639 28.7888 15.5102 29.092C15.4014 29.1747 15.2925 29.2574 15.1565 29.3125L14.9116 29.4503L14.7755 29.5054H14.7483L14.6667 29.533H14.6122L14.5034 29.5606C14.4218 29.5881 14.3673 29.6157 14.2857 29.6157C14.1224 29.6433 13.9592 29.6708 13.7959 29.6984C13.4422 29.726 13.0612 29.6708 12.7347 29.5606C12.4082 29.4503 12.1088 29.2574 11.8367 29.0368C11.4286 28.6785 11.0748 28.2374 10.8299 27.7413C10.449 26.9694 10.1769 26.1425 10.0136 25.288C9.85034 24.5161 9.7415 23.7168 9.65986 22.9449C9.4966 21.4013 9.44218 19.8852 9.41497 18.3415C9.41497 17.6249 9.41497 16.8806 9.41497 16.1639C9.14286 16.6876 8.87075 17.2114 8.59864 17.7075C8.38095 18.121 8.16327 18.5345 7.91837 18.948L7.2381 20.1884C6.31293 21.8423 5.36054 23.4687 4.35374 25.095C3.72789 26.1425 3.07483 27.19 2.42177 28.2099C6.91156 35.1563 16.1088 37.0859 22.966 32.5376C29.8231 27.9894 31.7279 18.6723 27.2381 11.7259C24.4898 7.56356 19.8367 5 14.8299 5Z" fill="black"/>
<path d="M42.5034 25.4534V15.4748H42.2585L39.1021 25.481H38.313L35.1565 15.4748H34.9116V25.4534H33.6055V14.4274H35.9184L38.7211 23.1931L41.4694 14.4274H43.8096V25.481H42.5034V25.4534Z" fill="black"/>
<path d="M45.7142 15.8608V14.4274H47.1292V15.8608H45.7142ZM45.7414 25.4534V16.9358H47.1292V25.4534H45.7414Z" fill="black"/>
<path d="M55.5374 22.6693C55.5374 24.3232 54.9115 25.5912 52.1905 25.5912C48.7619 25.5912 48.5714 23.6066 48.5714 21.1808C48.5714 18.7551 48.7619 16.7704 52.1905 16.7704C54.9115 16.7704 55.5374 18.0384 55.5374 19.6923H54.2313C54.2313 18.3416 53.7687 17.68 52.1905 17.68C50.068 17.68 49.9592 18.8378 49.9592 21.1532C49.9592 23.4687 50.068 24.6265 52.1905 24.6265C53.7687 24.6265 54.2313 23.9649 54.2313 22.6142L55.5374 22.6693Z" fill="black"/>
<path d="M58.2313 17.8452C58.8844 17.4318 59.7279 16.8804 60.517 16.8529C60.6803 16.8253 60.8435 16.8253 61.0068 16.8253C61.2245 16.8253 61.415 16.8253 61.6599 16.8529L61.551 17.8728C61.3333 17.8452 61.1429 17.8452 60.9524 17.8452C60.7891 17.8452 60.6259 17.8452 60.4354 17.8728C59.7007 17.9004 58.9116 18.4517 58.3401 18.7824V25.4808H56.9524V16.9356H58.0408L58.2313 17.8452Z" fill="black"/>
<path d="M69.4422 21.2083C69.4422 23.634 69.2517 25.6187 65.7687 25.6187C62.2857 25.6187 62.0952 23.634 62.0952 21.2083C62.0952 18.7825 62.2857 16.7979 65.7687 16.7979C69.2517 16.7979 69.4422 18.7825 69.4422 21.2083ZM63.483 21.2083C63.483 23.5238 63.5918 24.6815 65.7687 24.6815C67.9456 24.6815 68.0544 23.5513 68.0544 21.2083C68.0544 18.8652 67.9456 17.7351 65.7687 17.7351C63.5918 17.7351 63.483 18.8652 63.483 21.2083Z" fill="black"/>
<path d="M71.9728 27.438C72.4898 27.4931 73.17 27.5207 73.9319 27.5207C76.0544 27.5207 76.3265 26.9418 76.3537 24.6815C75.7279 25.0398 74.8571 25.4533 73.9592 25.4809C70.8843 25.536 70.6938 23.8545 70.6938 21.2083C70.6938 18.562 70.8571 16.7979 73.8231 16.7979C74.8299 16.7979 75.7551 17.2665 76.4898 17.7351L76.6258 16.9632H77.7143V24.5161C77.7143 27.5758 77.034 28.5131 74.2585 28.5131C73.4421 28.5131 72.6258 28.4304 71.8367 28.3201L71.9728 27.438ZM76.3537 18.5069C75.7551 18.121 74.9932 17.7351 74.2585 17.7351C72.2177 17.7351 72.0816 18.8928 72.0816 21.2083C72.0816 23.4686 72.2177 24.5437 74.2585 24.5437C74.9932 24.5437 75.7823 24.1302 76.3537 23.827V18.5069Z" fill="black"/>
<path d="M85.2517 25.4533L85.1156 24.6815C84.4353 25.1225 83.5374 25.6187 82.5578 25.6187C79.483 25.6738 79.2925 23.9097 79.2925 21.2083C79.2925 18.5069 79.4558 16.7979 82.5034 16.7979C83.5102 16.7979 84.4081 17.2665 85.0884 17.6799L85.2245 16.9357H86.3129V25.4533H85.2517ZM84.9796 18.4518C84.4081 18.121 83.619 17.7351 82.8843 17.7351C80.8435 17.7351 80.7074 18.8928 80.7074 21.2083C80.7074 23.5238 80.8435 24.6815 82.8843 24.6815C83.619 24.6815 84.3809 24.268 84.9796 23.9097V18.4518Z" fill="black"/>
<path d="M89.2517 17.68C89.8776 17.2941 90.7211 16.8255 91.6191 16.7979C93.034 16.7428 93.7687 17.1287 94.1225 17.7352C94.7755 17.3217 95.6463 16.8255 96.5987 16.7979C99.483 16.7153 99.6735 18.2038 99.6735 20.2712V25.4534H98.2857V20.3539C98.2857 18.5897 98.1769 17.7352 96.2993 17.7352C95.6191 17.7352 94.9116 18.1486 94.3402 18.507C94.4762 19.1134 94.5306 19.7474 94.5034 20.3814V25.481H93.3061V20.3539C93.3061 18.5897 93.1973 17.7352 91.3197 17.7352C90.6667 17.7352 89.9592 18.1486 89.415 18.4519V25.4534H88.0272V16.9358H89.1157L89.2517 17.68Z" fill="black"/>
<path d="M101.388 15.8608V14.4274H102.803V15.8608H101.388ZM101.415 25.4534V16.9358H102.803V25.4534H101.415Z" fill="black"/>
<path d="M105.741 17.68C106.422 17.2941 107.32 16.8255 108.299 16.798C111.374 16.7153 111.565 18.2038 111.565 20.2712V25.4534H110.177V20.3539C110.177 18.5897 110.041 17.7352 108 17.7352C107.265 17.7352 106.476 18.1487 105.905 18.4794V25.481H104.517V16.9358H105.605L105.741 17.68Z" fill="black"/>
<path d="M114.259 27.438C114.776 27.4931 115.456 27.5207 116.218 27.5207C118.34 27.5207 118.612 26.9418 118.639 24.6815C118.014 25.0398 117.143 25.4533 116.245 25.4809C113.17 25.536 112.98 23.8545 112.98 21.2083C112.98 18.562 113.143 16.7979 116.109 16.7979C117.116 16.7979 118.041 17.2665 118.776 17.7351L118.912 16.9632H120V24.5161C120 27.5758 119.32 28.5131 116.544 28.5131C115.728 28.5131 114.912 28.4304 114.122 28.3201L114.259 27.438ZM118.612 18.5069C118.014 18.121 117.252 17.7351 116.517 17.7351C114.476 17.7351 114.34 18.8928 114.34 21.2083C114.34 23.4686 114.476 24.5437 116.517 24.5437C117.252 24.5437 118.041 24.1302 118.612 23.827V18.5069Z" fill="black"/>
</g>
<defs>
<clipPath id="clip0_8669_3314">
<rect width="120" height="40" fill="white"/>
</clipPath>
</defs>
</svg>
