<svg width="130" height="40" viewBox="0 0 130 40" fill="none" xmlns="http://www.w3.org/2000/svg">
<g clip-path="url(#clip0_8672_4050)">
<path d="M10.0522 7.4522C10.4045 7.77436 10.7939 8.05102 11.2031 8.28643C11.4116 8.40649 11.6257 8.51574 11.8443 8.61397C12.0577 8.7099 12.3006 8.89646 12.424 8.60367C12.5623 8.27528 12.6522 7.92702 12.8014 7.60092C12.8897 7.40787 12.9858 7.21882 13.0898 7.03456C13.1517 6.92452 13.3789 6.68085 13.2919 6.55303C13.2478 6.48858 13.0019 6.43729 12.9272 6.40553C12.8173 6.359 12.7082 6.3111 12.5983 6.2647C12.19 6.09264 11.8956 5.7195 11.7839 5.27445C11.7282 5.05192 11.7174 4.81718 11.7491 4.58963C11.765 4.47593 11.7852 4.34037 11.8336 4.23644C12.3407 3.14497 13.7668 3.41431 14.5468 3.9648C15.5641 4.68285 16.4942 4.23726 17.1524 3.28188C17.8382 2.28675 17.7175 1.10017 16.8335 0.360405C16.7199 0.265424 16.603 0.172751 16.4721 0.107078C16.1306 -0.0642947 15.7031 -0.0275256 15.3923 0.199886C15.1436 0.381978 14.6999 1.07426 14.9838 1.3961C15.2471 1.69462 15.6037 1.28565 15.8663 1.32419C16.3557 1.3961 16.5931 2.12379 16.18 2.61254C15.5782 3.32435 14.2609 2.38445 13.6624 2.06599C13.5086 1.9649 13.3463 1.8782 13.1765 1.80737L13.1158 1.77494C13.1158 1.77494 13.1163 1.77847 13.1171 1.78336C12.793 1.65649 12.4444 1.58607 12.0802 1.58607C10.3812 1.58607 9.00385 3.08961 9.00385 4.94432C9.00385 5.89047 9.36131 6.82098 10.0522 7.4522Z" fill="black"/>
<path d="M22.844 3.9648C23.6241 3.41431 25.0502 3.14497 25.5573 4.23644C25.6056 4.34037 25.626 4.47593 25.6418 4.58963C25.6737 4.81718 25.6628 5.05192 25.607 5.27445C25.4952 5.7195 25.2008 6.09264 24.7926 6.2647C24.6827 6.3111 24.5735 6.359 24.4637 6.40553C24.3889 6.43729 24.1431 6.48858 24.099 6.55303C24.0118 6.68085 24.2392 6.92452 24.3013 7.03456C24.405 7.21882 24.5012 7.40787 24.5895 7.60092C24.7387 7.92702 24.8285 8.27528 24.9668 8.60367C25.0901 8.89646 25.3332 8.7099 25.5465 8.61397C25.7652 8.51574 25.9794 8.40649 26.1879 8.28643C26.597 8.05102 26.9863 7.77436 27.3387 7.4522C28.0295 6.82098 28.3871 5.89047 28.3871 4.94432C28.3871 3.08961 27.0097 1.58607 25.3106 1.58607C24.9465 1.58607 24.5978 1.65649 24.2738 1.78336C24.2745 1.77847 24.2751 1.77494 24.2751 1.77494L24.2145 1.80737C24.0446 1.8782 23.8822 1.9649 23.7284 2.06599C23.13 2.38445 21.8127 3.32435 21.211 2.61254C20.7979 2.12379 21.0352 1.3961 21.5245 1.32419C21.7873 1.28565 22.1438 1.69462 22.4071 1.3961C22.691 1.07426 22.2473 0.381978 21.9985 0.199886C21.6879 -0.0275256 21.2603 -0.0642947 20.9188 0.107078C20.788 0.172751 20.671 0.265424 20.5574 0.360405C19.6734 1.10017 19.5527 2.28675 20.2384 3.28188C20.8966 4.23726 21.8268 4.68285 22.844 3.9648Z" fill="black"/>
<path d="M24.1657 37.5449C24.1645 37.5482 24.1624 37.5511 24.1612 37.5544L24.1622 37.5558C24.1635 37.5522 24.1643 37.5486 24.1657 37.5449Z" fill="black"/>
<path d="M24.1618 37.556C24.1531 37.5844 24.1468 37.6138 24.1357 37.6426C24.1715 37.6115 24.1759 37.5825 24.1618 37.556Z" fill="black"/>
<path d="M37.1717 23.7945C37.0544 23.274 36.8654 22.7743 36.5957 22.3396C36.348 21.9405 35.9501 21.6624 35.5383 21.4816C34.7936 21.1549 33.9659 21.0799 33.1715 21.1731C32.7808 21.2188 32.3879 21.2632 32.0048 21.3636C31.7657 21.4263 31.5282 21.4963 31.2904 21.5654C30.8155 21.7033 30.3383 21.8396 29.8494 21.9105C29.5996 21.9468 29.3435 21.9647 29.0862 21.964C28.2392 21.9189 27.396 21.6578 26.7331 21.1081C26.6274 21.0204 26.5336 20.8675 26.4622 20.748C26.2953 20.4697 26.2715 20.118 26.3245 19.7936C26.3754 19.4833 26.4946 19.2329 26.6473 19.0069C26.6617 18.9871 26.6761 18.9672 26.6891 18.9463C26.901 18.6503 27.1679 18.3926 27.4108 18.0907C27.54 17.9303 27.6512 17.726 27.7609 17.5484C28.0214 17.1265 28.2288 16.6686 28.3778 16.1904C28.6732 15.2422 28.7375 14.2163 28.5548 13.2366C28.4192 12.5111 28.2793 11.5934 29.1122 11.0856C29.4317 10.8907 29.7678 10.8534 30.1174 10.8204C30.6026 10.7747 31.096 10.9462 31.4709 11.1971C32.1951 11.6815 32.7881 12.2586 32.8703 13.1934C32.9074 13.6142 32.8124 14.0597 32.5944 14.4521C32.3649 14.8653 31.9532 15.1168 31.5417 15.3202C30.4915 15.8389 29.4561 16.4359 28.8719 17.5084C28.5186 18.1574 28.5746 19.0111 28.8278 19.6862C29.0913 20.3894 29.695 21.1218 30.4367 21.2096C31.0861 21.2867 31.7857 21.016 32.2609 20.5441C32.7014 20.1063 32.934 19.447 32.5447 18.8862C32.3956 18.6719 31.9921 18.4885 31.7483 18.5682C31.7234 18.5763 31.6975 18.5884 31.6844 18.6122C31.6611 18.6549 31.6903 18.7073 31.7196 18.7455C31.8479 18.9128 32.011 19.0896 31.9903 19.3035C31.9661 19.553 31.6997 19.6957 31.4624 19.7149C30.9855 19.7534 29.9722 19.1834 30.3727 18.6122C30.764 18.054 31.9412 17.7355 32.5423 17.5132C33.2988 17.2333 34.0873 16.9577 34.7134 16.4487C35.4565 15.8449 36.0983 15.3157 36.3593 14.3698C36.5617 13.6359 36.6047 12.8791 36.4943 12.1594C36.3948 11.5104 36.1684 10.8846 35.8223 10.3371C34.8747 8.83874 33.1585 8.10766 31.5183 7.9253C30.9973 7.86733 30.4708 7.86504 29.9493 7.91717C28.9947 8.01277 28.0116 8.23454 27.2803 8.92071C26.6919 9.47264 26.2851 10.23 26.1161 11.0507C26.0304 11.4671 26.0024 11.8958 26.0225 12.321C26.0436 12.7693 25.9953 13.1996 25.9469 13.6486C25.7756 15.2383 25.1129 16.7547 24.1292 17.973C23.924 18.2271 23.7131 18.4884 23.4872 18.7221C23.3392 18.8754 23.1766 19.013 23.0047 19.1353C22.9414 19.1805 22.5382 19.5145 22.3645 19.5157C22.3211 19.5159 22.2911 19.4964 22.2854 19.4451C22.2744 19.3469 22.3555 19.2554 22.4142 19.1902C22.948 18.5956 23.1336 17.6668 23.1366 16.871C23.1376 16.6342 23.1615 16.3953 23.2136 16.1648C23.0302 16.3422 22.8184 16.4904 22.575 16.6044C22.456 16.6601 22.3344 16.7105 22.198 16.7448C22.2294 16.6793 22.2308 16.6814 22.2776 16.6471C22.5677 16.4341 22.842 16.1768 23.0525 15.8762C23.1792 15.6955 23.2503 15.5092 23.3091 15.2957C23.3587 15.1143 23.3586 15.0185 23.3505 14.8284C23.1694 14.9282 22.8207 14.9319 22.686 15.1037C22.6632 15.1328 22.6599 15.1733 22.6552 15.2109C22.5959 15.7026 22.0683 16.1917 21.5972 15.9776C21.4141 15.8945 21.2938 15.6928 21.2427 15.495C21.2118 15.7098 21.1831 15.9251 21.1567 16.1406C21.1067 16.5496 21.197 16.9813 21.3222 17.3648C21.3911 17.5756 21.5384 17.7326 21.6286 17.925C21.3982 17.863 21.1583 17.589 21.0274 17.39C20.7629 16.988 20.6516 16.5465 20.6921 16.0544C20.7292 15.6029 20.9303 15.2442 21.2309 14.9484C21.6342 14.5517 22.1391 14.366 22.6696 14.2497C23.1036 14.1547 23.7545 14.1833 24.046 13.7602C24.307 13.3816 24.3603 12.8679 24.4041 12.418C24.4667 11.7785 24.4641 11.1321 24.4123 10.4919C24.355 9.78825 24.2382 9.08707 24.0423 8.4112C23.916 7.97566 23.7392 7.52353 23.5 7.13697C23.2602 6.74956 22.964 6.40586 22.668 6.07045C22.3244 5.68157 21.8827 5.34004 21.4713 5.03569C20.6887 4.45658 19.8149 3.92252 18.8417 3.87964C18.8362 3.87991 18.8307 3.88045 18.825 3.88072C18.8195 3.88045 18.8139 3.87991 18.8083 3.88181C18.7671 3.88344 18.7263 3.8871 18.6855 3.89077C18.6448 3.8871 18.604 3.88344 18.5628 3.88181C18.5571 3.87991 18.5516 3.88045 18.546 3.88072C18.5404 3.88045 18.5348 3.87991 18.5292 3.87964C17.5562 3.92252 16.6823 4.45658 15.8996 5.03569C15.4883 5.34004 15.0465 5.68157 14.7031 6.07045C14.407 6.40586 14.1108 6.74956 13.8711 7.13697C13.6318 7.52353 13.4551 7.97566 13.3288 8.4112C13.1329 9.08707 13.0161 9.78825 12.9589 10.4919C12.9068 11.1321 12.9043 11.7785 12.9669 12.418C13.0108 12.8679 13.0641 13.3816 13.3249 13.7602C13.6165 14.1833 14.2675 14.1547 14.7014 14.2497C15.2319 14.366 15.7368 14.5517 16.1401 14.9484C16.4408 15.2442 16.6419 15.6029 16.6789 16.0544C16.7194 16.5465 16.6082 16.988 16.3436 17.39C16.2127 17.589 15.9729 17.863 15.7424 17.925C15.8327 17.7326 15.98 17.5756 16.0488 17.3648C16.1739 16.9813 16.2643 16.5496 16.2144 16.1406C16.188 15.9251 16.1593 15.7098 16.1284 15.495C16.0773 15.6928 15.9569 15.8945 15.7739 15.9776C15.3027 16.1917 14.7752 15.7026 14.7157 15.2109C14.7112 15.1733 14.7079 15.1328 14.6851 15.1037C14.5504 14.9319 14.2017 14.9282 14.0206 14.8284C14.0124 15.0185 14.0122 15.1143 14.062 15.2957C14.1206 15.5092 14.1919 15.6955 14.3185 15.8762C14.529 16.1768 14.8034 16.4341 15.0935 16.6471C15.1403 16.6814 15.1416 16.6793 15.1731 16.7448C15.0366 16.7105 14.9151 16.6601 14.7961 16.6044C14.5526 16.4904 14.3409 16.3422 14.1574 16.1648C14.2094 16.3953 14.2335 16.6342 14.2344 16.871C14.2375 17.6668 14.423 18.5956 14.9568 19.1902C15.0154 19.2554 15.0966 19.3467 15.0855 19.445C15.0646 19.6334 14.8182 19.4479 14.758 19.4077C14.6285 19.321 14.5061 19.2258 14.3791 19.1353C14.2072 19.013 14.0448 18.8754 13.8966 18.7221C13.6707 18.4884 13.46 18.2271 13.2548 17.973C12.2709 16.7547 11.6083 15.2383 11.437 13.6486C11.3886 13.1996 11.3403 12.7693 11.3614 12.321C11.3813 11.8958 11.3534 11.4671 11.2677 11.0507C11.0988 10.2301 10.692 9.47264 10.1036 8.92071C9.37225 8.23454 8.38904 8.01277 7.43451 7.91717C6.91301 7.86504 6.38655 7.86733 5.86558 7.9253C4.22529 8.10766 2.50906 8.83874 1.56165 10.3371C1.21543 10.8846 0.989151 11.5104 0.889592 12.1594C0.779117 12.8791 0.822098 13.6359 1.02461 14.3698C1.28558 15.3157 1.92747 15.8449 2.67042 16.4487C3.29668 16.9577 4.08515 17.2333 4.84162 17.5132C5.44263 17.7355 6.61999 18.054 7.01123 18.6122C7.41162 19.1835 6.3983 19.7534 5.92139 19.7149C5.6841 19.6957 5.41765 19.553 5.39351 19.3035C5.37284 19.0896 5.53602 18.9128 5.66419 18.7455C5.69355 18.7073 5.72272 18.6549 5.69939 18.6122C5.68637 18.5884 5.66047 18.5763 5.63557 18.5682C5.39185 18.4885 4.98821 18.6719 4.83927 18.8862C4.44986 19.447 4.68248 20.1063 5.12308 20.5441C5.59822 21.016 6.29778 21.2867 6.94716 21.2096C7.68891 21.1218 8.29251 20.3894 8.55612 19.6862C8.80933 19.0111 8.86532 18.1574 8.51195 17.5086C7.9277 16.4359 6.8923 15.8389 5.84235 15.3202C5.43066 15.1168 5.01893 14.8653 4.78949 14.4521C4.5715 14.0597 4.47661 13.6142 4.51362 13.1934C4.59589 12.2586 5.18879 11.6815 5.91305 11.1971C6.28796 10.9463 6.78127 10.7747 7.26638 10.8204C7.61601 10.8534 7.95214 10.8907 8.27179 11.0856C9.10466 11.5934 8.96471 12.5111 8.8293 13.2366C8.64637 14.2163 8.71062 15.2422 9.00601 16.1904C9.15511 16.6686 9.36249 17.1266 9.62305 17.5485C9.73271 17.726 9.84392 17.9303 9.97293 18.0907C10.2158 18.3926 10.483 18.6503 10.6947 18.9463C10.7078 18.9672 10.7221 18.9871 10.7366 19.0069C10.8893 19.2329 11.0086 19.4833 11.0593 19.7936C11.1123 20.118 11.0886 20.4697 10.9218 20.748C10.8502 20.8675 10.7565 21.0204 10.6507 21.1081C9.71996 21.8801 8.43333 22.0853 7.28031 21.918C6.21611 21.7635 5.21439 21.2985 4.14513 21.1731C3.00558 21.0393 1.74478 21.2606 0.957217 22.1389C0.549052 22.5941 0.302857 23.1882 0.15859 23.7958C-0.225126 25.412 0.0974957 27.1989 1.01772 28.5535C1.92636 29.891 3.40147 30.7816 4.95497 30.9363C6.30904 31.0713 7.67243 30.637 8.9422 30.1936C10.2564 29.7345 11.5673 29.1923 12.9493 29.0079C13.4074 28.9467 13.8715 28.9282 14.3318 28.9707C14.8137 29.0154 15.306 29.165 15.6402 29.5588C16.1469 30.1559 16.3442 31.1685 15.9166 31.8684C15.5703 32.4351 14.9588 32.751 14.4001 33.0338C14.3689 33.0496 14.3341 33.0699 14.3269 33.1057C14.3205 33.137 14.3384 33.1677 14.3558 33.1941C14.8059 33.8801 15.4578 34.4145 16.1958 34.7141C16.6232 34.5653 17.0077 34.3007 17.3181 33.9581C18.4814 32.6738 18.5668 30.4547 17.858 28.9309C17.7444 28.6866 17.6067 28.4574 17.4494 28.2437C17.4359 28.2249 17.4229 28.2056 17.409 28.1871C17.3526 28.1132 17.2939 28.0412 17.2339 27.9692C17.1082 27.8214 16.9763 27.6793 16.8316 27.5502C16.4283 27.1903 15.9647 26.9867 15.4907 26.7635C14.9944 26.53 14.463 26.3804 13.9228 26.3195C11.9242 26.0938 10.0408 26.7725 8.2522 27.6237C7.045 28.1981 5.54979 28.5975 4.46313 27.7993C3.60049 27.1656 2.99854 25.9498 3.6808 24.9102C4.3674 23.864 6.09839 23.9262 7.12649 24.1259C7.95494 24.287 8.724 24.6787 9.51221 24.9926C10.4152 25.3521 11.2898 25.5053 12.2469 25.5068C13.241 25.5082 14.2455 25.5244 15.2225 25.7376C15.7494 25.8526 16.2672 26.0498 16.7238 26.3534C16.9419 26.4984 17.1998 26.6699 17.3705 26.8745C17.4808 27.0067 17.5772 27.3707 17.7503 27.1333C17.8707 26.9682 17.9911 26.8029 18.1116 26.6379C18.2896 26.3936 18.5331 26.1215 18.8195 26.1833C18.9896 26.2202 19.1149 26.368 19.2266 26.5084C19.8727 27.321 20.6658 28.0885 21.3624 28.8745C22.1166 29.7257 22.7172 30.6561 23.2973 31.6548C23.4756 31.962 23.5969 32.3105 23.6308 32.6699C23.6306 32.7401 23.6264 32.8113 23.618 32.8827C23.6036 33.0042 23.5747 33.1191 23.5355 33.2293C23.5343 33.2341 23.532 33.2387 23.5308 33.2437C23.4067 33.5825 23.1796 33.8719 22.935 34.135C22.6499 34.4417 22.2808 34.6383 21.9383 34.8642C21.6693 35.0416 21.404 35.2498 21.1648 35.4867C20.706 35.941 20.3445 36.5002 20.2429 37.147C20.1366 37.8239 20.2884 38.5367 20.7377 39.0511C21.1405 39.512 21.7394 39.794 22.3535 39.9248C22.7707 40.0135 23.2526 40.0675 23.6355 39.8283C23.9002 39.6627 24.1252 39.4299 24.2695 39.1443C24.4424 38.8018 24.2472 38.2307 23.7784 38.5785C23.6118 38.702 23.5135 38.8942 23.3421 39.012C22.493 39.5957 22.4986 38.3477 22.7681 37.9299C23.1395 37.3541 23.8796 37.0136 24.4671 36.6703C25.7644 35.912 26.7207 34.6156 26.8736 33.0427C26.9211 32.6981 26.9285 32.3431 26.8857 31.9777C26.8806 31.9339 26.8727 31.8906 26.8665 31.8468C26.8626 31.8178 26.8582 31.7891 26.8537 31.7602C26.8473 31.7206 26.8407 31.6811 26.8332 31.6418C26.8211 31.5762 26.807 31.5115 26.7917 31.4469C26.7874 31.4292 26.7841 31.4109 26.7794 31.3933C26.5711 30.5622 26.126 29.813 25.6867 29.0729C25.382 28.5596 25.0563 28.0585 24.6813 27.5989C24.3866 27.2379 23.9969 26.7829 24.0498 26.2544C24.08 25.9536 24.2746 25.6892 24.554 25.6092C24.7748 25.5462 25.0031 25.5273 25.2319 25.5102C26.1487 25.5534 27.0245 25.3299 27.8717 24.9926C28.6599 24.6787 29.429 24.287 30.2575 24.1259C30.612 24.057 31.05 24.0056 31.4997 24.0095C32.3344 24.0267 33.1976 24.2426 33.6357 24.9102C34.3181 25.9498 33.716 27.1656 32.8534 27.7993C32.8211 27.823 32.7879 27.8444 32.7547 27.8661C32.7374 27.8774 32.7202 27.8894 32.7025 27.9002C32.6647 27.9234 32.6263 27.9452 32.5877 27.966C32.5704 27.9752 32.5527 27.9838 32.5352 27.9924C32.4576 28.0313 32.3785 28.0656 32.298 28.0947C32.2897 28.0978 32.2817 28.1012 32.2736 28.1039C32.2259 28.1205 32.1776 28.1359 32.1289 28.1493C32.1265 28.15 32.1237 28.1507 32.1212 28.1513C31.9694 28.1931 31.8138 28.22 31.6556 28.2342C30.8022 28.3084 29.8718 28.006 29.0684 27.6237C28.4141 27.3121 27.7483 27.0246 27.0637 26.7949C26.7115 26.6767 26.3625 26.5456 26.0014 26.4601C25.8592 26.4265 25.24 26.2547 25.1707 26.4559C25.1447 26.5314 25.2572 26.6503 25.2877 26.7056C25.3714 26.8581 25.4728 26.9922 25.5745 27.1348C25.8034 27.4559 26.0149 27.7909 26.2169 28.1315C26.374 28.3965 26.5314 28.6612 26.6789 28.9321C26.7546 29.0711 26.8357 29.2071 26.9257 29.3366C27.1686 29.6856 27.5469 29.9602 27.93 30.1018C28.4391 30.2901 28.9608 30.4389 29.4825 30.5845C30.0176 30.7335 30.5604 30.8591 31.1112 30.9216C31.508 30.9664 31.9085 30.9781 32.3064 30.9434C33.8816 30.8056 35.3827 29.9079 36.3027 28.5535C36.3751 28.4471 36.4437 28.3379 36.5087 28.2263C37.0081 27.3681 37.2854 26.3698 37.3173 25.3641C37.3337 24.8491 37.288 24.3115 37.1717 23.7945Z" fill="black"/>
<path d="M16.1087 35.4866C15.8696 35.2497 15.604 35.0415 15.3351 34.8641C14.9927 34.6382 14.6234 34.4416 14.3384 34.1349C14.0114 33.7831 13.7149 33.384 13.6556 32.8826C13.5875 32.308 13.7942 31.7742 14.092 31.3019C14.2492 31.0526 14.4132 30.8084 14.5796 30.5659C14.6852 30.412 14.8972 30.2175 14.8767 30.0125C14.8467 29.7118 14.4434 29.6967 14.2272 29.6765C13.7667 29.6339 13.3028 29.6526 12.8446 29.7138C12.3986 29.7733 11.7318 29.8137 11.3505 30.0715C11.0684 30.2622 10.7907 30.5876 10.6551 30.9095C10.5127 31.2474 10.4307 31.6116 10.3878 31.9776C10.2435 33.2098 10.6574 34.3265 11.3292 35.311C11.6931 35.8439 12.2623 36.3521 12.8065 36.6702C13.394 37.0135 14.134 37.3541 14.5054 37.9298C14.7749 38.3476 14.7806 39.5956 13.9313 39.0119C13.76 38.8941 13.6617 38.7019 13.4951 38.5784C13.0264 38.2306 12.8311 38.8017 13.004 39.1442C13.1483 39.4298 13.3733 39.6626 13.6381 39.8282C14.0208 40.0674 14.5028 40.0134 14.9201 39.9247C15.5342 39.7939 16.1331 39.5119 16.5358 39.051C16.9852 38.5366 17.137 37.8238 17.0306 37.1469C16.9289 36.5001 16.5675 35.9409 16.1087 35.4866Z" fill="black"/>
<path d="M11.4595 36.6301C11.3131 36.485 11.1961 36.3023 11.0711 36.1347C11.0635 36.1246 11.0559 36.1143 11.0483 36.1044C10.9686 36 10.9058 35.8897 10.8315 35.7839C10.7184 35.6227 10.6213 35.5465 10.4239 35.5522C10.1974 35.5587 9.98518 35.6628 9.76462 35.7056C9.33997 35.788 8.83807 35.7674 8.49279 35.4602C8.17096 35.1739 8.07611 34.573 8.33692 34.2084C8.45379 34.0448 8.65284 33.9413 8.84448 33.9739C9.03618 34.0065 9.20251 34.1916 9.19641 34.3961C9.19349 34.4915 9.15561 34.584 9.09664 34.6564C9.05615 34.706 9.00166 34.7606 9.01609 34.8244C9.02138 34.8478 9.03606 34.868 9.05173 34.8858C9.36081 35.2364 9.71199 34.8232 9.85151 34.5328C10.0331 34.1549 10.0344 33.6706 9.82694 33.3037C9.78663 33.2325 9.73992 33.1654 9.68767 33.1034C9.61851 33.0216 9.54075 32.9479 9.45597 32.8846C9.18963 32.6853 8.8637 32.5973 8.53994 32.592C8.19584 32.5863 7.87874 32.6825 7.58771 32.8778C7.45111 32.9693 7.32317 33.0752 7.20753 33.1946C6.97714 33.4329 6.79788 33.7268 6.70688 34.0546C6.69985 34.08 6.69375 34.1057 6.68772 34.1315C6.68641 34.1382 6.68505 34.1447 6.68374 34.1513C6.49067 35.0238 6.87868 36.1229 7.42424 36.6973C8.02747 37.3324 9.27945 37.6987 10.1225 37.6054C10.5189 37.5614 10.9076 37.4444 11.2645 37.257C11.3858 37.1935 11.6132 37.1294 11.6419 36.9535C11.6633 36.8219 11.5402 36.7101 11.4595 36.6301Z" fill="black"/>
<path d="M25.8035 36.6742C25.9498 36.5292 26.0668 36.3463 26.192 36.1788C26.1996 36.1686 26.207 36.1586 26.2147 36.1485C26.2944 36.044 26.3571 35.9339 26.4314 35.828C26.5445 35.667 26.6416 35.5906 26.8391 35.5963C27.0655 35.6028 27.2779 35.707 27.4983 35.7497C27.923 35.8321 28.4251 35.8114 28.7701 35.5043C29.092 35.218 29.187 34.617 28.926 34.2524C28.8093 34.089 28.6102 33.9854 28.4185 34.0179C28.2269 34.0505 28.0606 34.2357 28.0667 34.4404C28.0695 34.5356 28.1073 34.6282 28.1664 34.7006C28.2069 34.7501 28.2613 34.8047 28.247 34.8684C28.2416 34.892 28.2271 34.9122 28.2113 34.9299C27.9021 35.2806 27.5509 34.8674 27.4116 34.5769C27.2299 34.199 27.2285 33.7147 27.436 33.3478C27.4764 33.2766 27.5231 33.2095 27.5753 33.1475C27.6444 33.0657 27.7222 32.992 27.807 32.9287C28.0733 32.7295 28.3993 32.6414 28.7231 32.6361C29.0673 32.6304 29.3842 32.7267 29.6754 32.9219C29.8118 33.0135 29.9398 33.1193 30.0554 33.2387C30.2858 33.477 30.4651 33.7709 30.556 34.0987C30.5631 34.1242 30.5692 34.1499 30.5753 34.1756C30.5766 34.1821 30.5779 34.1888 30.5792 34.1954C30.7723 35.068 30.3843 36.167 29.8388 36.7416C29.2357 37.3765 27.9836 37.7429 27.1404 37.6495C26.7441 37.6055 26.3554 37.4884 25.9985 37.3012C25.8774 37.2375 25.6498 37.1735 25.621 36.9977C25.5997 36.866 25.7227 36.7542 25.8035 36.6742Z" fill="black"/>
<path d="M20.9504 34.7585C21.1401 34.7646 21.3009 34.5745 21.4639 34.4669C21.8433 34.2166 22.3066 33.999 22.5592 33.5956C22.7016 33.3682 22.163 32.9345 22.0278 32.7494C21.6564 32.2408 21.2811 31.6593 21.1964 31.0088C21.1562 30.6985 21.2515 30.4407 21.28 30.1441C21.3018 29.9168 21.0837 29.6795 20.9438 29.5217C20.6572 29.1982 20.3609 28.8846 20.0655 28.5703C19.9802 28.4794 19.861 28.329 19.718 28.3857C19.616 28.4263 19.5812 28.596 19.5395 28.688C19.4517 28.8826 19.3718 29.0811 19.3059 29.2852C19.1781 29.6822 19.1081 30.097 19.1085 30.5168C19.1091 31.268 19.2301 31.9668 19.5021 32.66C19.701 33.1669 19.9671 33.6436 20.2829 34.0792C20.3886 34.2251 20.5006 34.3659 20.6173 34.5019C20.6705 34.564 20.7399 34.6781 20.8097 34.7173C20.8584 34.7447 20.9053 34.7572 20.9504 34.7585Z" fill="black"/>
<path d="M49.4175 24.9957C48.7226 24.9957 48.0839 24.8255 47.5013 24.4852C46.9258 24.1448 46.4661 23.6712 46.1221 23.0644C45.7852 22.4503 45.6168 21.7621 45.6168 20.9999C45.6168 20.2378 45.7852 19.5534 46.1221 18.9465C46.4661 18.3398 46.9258 17.8662 47.5013 17.5258C48.0839 17.1855 48.7226 17.0153 49.4175 17.0153C50.1124 17.0153 50.7476 17.1855 51.3232 17.5258C51.9058 17.8662 52.362 18.3398 52.6919 18.9465C53.0288 19.5534 53.1973 20.2378 53.1973 20.9999C53.1973 21.7621 53.0288 22.4503 52.6919 23.0644C52.355 23.6712 51.8987 24.1448 51.3232 24.4852C50.7476 24.8255 50.1124 24.9957 49.4175 24.9957ZM49.4175 23.2642C50.0071 23.2642 50.4774 23.057 50.8283 22.6427C51.1863 22.2282 51.3653 21.6807 51.3653 20.9999C51.3653 20.3118 51.1863 19.7642 50.8283 19.3572C50.4774 18.9429 50.0071 18.7357 49.4175 18.7357C48.8209 18.7357 48.3437 18.9391 47.9857 19.3461C47.6347 19.7531 47.4592 20.3044 47.4592 20.9999C47.4592 21.6881 47.6347 22.2394 47.9857 22.6538C48.3437 23.0607 48.8209 23.2642 49.4175 23.2642ZM57.5785 21.0111C57.5785 20.2415 57.7364 19.557 58.0523 18.9577C58.3681 18.3509 58.8068 17.881 59.3683 17.548C59.9369 17.2077 60.5791 17.0375 61.295 17.0375C62.1724 17.0375 62.9231 17.2817 63.5482 17.77C64.1727 18.2584 64.5907 18.9244 64.801 19.7679H62.8217C62.6743 19.4423 62.4635 19.1945 62.19 19.0242C61.9232 18.8541 61.6179 18.769 61.274 18.769C60.7195 18.769 60.2702 18.9724 59.9263 19.3795C59.5824 19.7864 59.4104 20.3303 59.4104 21.0111C59.4104 21.6918 59.5824 22.2357 59.9263 22.6427C60.2702 23.0496 60.7195 23.2531 61.274 23.2531C61.6179 23.2531 61.9232 23.168 62.19 22.9978C62.4635 22.8277 62.6743 22.5797 62.8217 22.2541H64.801C64.5907 23.0978 64.1727 23.7637 63.5482 24.252C62.9231 24.733 62.1724 24.9735 61.295 24.9735C60.5791 24.9735 59.9369 24.807 59.3683 24.474C58.8068 24.1337 58.3681 23.6638 58.0523 23.0644C57.7364 22.465 57.5785 21.7806 57.5785 21.0111ZM74.9055 17.1263V18.6469H72.9468V24.918H71.1467V18.6469H69.1886V17.1263H74.9055ZM82.9892 24.9957C82.2944 24.9957 81.6556 24.8255 81.0734 24.4852C80.4974 24.1448 80.0377 23.6712 79.6937 23.0644C79.3572 22.4503 79.1887 21.7621 79.1887 20.9999C79.1887 20.2378 79.3572 19.5534 79.6937 18.9465C80.0377 18.3398 80.4974 17.8662 81.0734 17.5258C81.6556 17.1855 82.2944 17.0153 82.9892 17.0153C83.6839 17.0153 84.3196 17.1855 84.895 17.5258C85.4778 17.8662 85.9337 18.3398 86.2634 18.9465C86.6005 19.5534 86.7691 20.2378 86.7691 20.9999C86.7691 21.7621 86.6005 22.4503 86.2634 23.0644C85.9269 23.6712 85.4703 24.1448 84.895 24.4852C84.3196 24.8255 83.6839 24.9957 82.9892 24.9957ZM82.9892 23.2642C83.5788 23.2642 84.049 23.057 84.3999 22.6427C84.7581 22.2282 84.9373 21.6807 84.9373 20.9999C84.9373 20.3118 84.7581 19.7642 84.3999 19.3572C84.049 18.9429 83.5788 18.7357 82.9892 18.7357C82.3926 18.7357 81.9156 18.9391 81.5573 19.3461C81.2065 19.7531 81.0311 20.3044 81.0311 20.9999C81.0311 21.6881 81.2065 22.2394 81.5573 22.6538C81.9156 23.0607 82.3926 23.2642 82.9892 23.2642ZM97.0882 19.6347C97.0882 20.0861 96.99 20.5004 96.7934 20.8778C96.5969 21.2478 96.2952 21.5475 95.8878 21.7769C95.481 22.0063 94.9759 22.121 94.3719 22.121H93.256V24.918H91.4553V17.1263H94.3719C94.9616 17.1263 95.4598 17.2336 95.8672 17.4482C96.274 17.6627 96.5794 17.9587 96.7828 18.3361C96.9862 18.7135 97.0882 19.1463 97.0882 19.6347ZM94.2351 20.6115C94.5791 20.6115 94.8353 20.5263 95.0039 20.3562C95.1718 20.186 95.2564 19.9455 95.2564 19.6347C95.2564 19.3239 95.1718 19.0835 95.0039 18.9133C94.8353 18.7431 94.5791 18.6579 94.2351 18.6579H93.256V20.6115H94.2351ZM103.511 23.4529H105.869V24.918H101.71V17.1263H103.511V23.4529ZM115.014 23.5417H112.255L111.813 24.918H109.928L112.603 17.1263H114.687L117.362 24.918H115.456L115.014 23.5417ZM114.551 22.0766L113.635 19.224L112.729 22.0766H114.551ZM128.199 17.1263L125.64 22.3429V24.918H123.84V22.3429L121.281 17.1263H123.324L124.756 20.3895L126.177 17.1263H128.199Z" fill="black"/>
</g>
<defs>
<clipPath id="clip0_8672_4050">
<rect width="130" height="40" fill="white"/>
</clipPath>
</defs>
</svg>
