<svg width="120" height="40" viewBox="0 0 120 40" fill="none" xmlns="http://www.w3.org/2000/svg">
<path d="M65.7 17.6C65.1 17.6 64.5 17.6 63.9 17.6C63.9 17.4 63.9 17.2 63.9 17C63.9 16.7 63.8 16.6 63.5 16.6C61 16.6 58.5 16.6 55.9 16.6C55.6 16.6 55.5 16.7 55.5 17C55.5 17.8 55.5 18.5 55.5 19.3C55.5 19.6 55.6 19.8 56 19.8C58.5 19.8 61 19.8 63.6 19.8C64.6 19.8 65.4 20.4 65.7 21.3C65.7 21.5 65.8 21.6 65.8 21.8C65.8 22.7 65.8 23.6 65.8 24.5C65.8 25.6 64.8 26.5 63.7 26.5C62.2 26.5 60.8 26.5 59.3 26.5C58.2 26.5 57.1 26.5 56 26.5C55 26.5 54.1 25.8 53.9 24.8C53.8 24.5 53.9 24.1 53.9 23.8C54.5 23.8 55.1 23.8 55.7 23.8C55.7 24 55.7 24.2 55.7 24.4C55.7 24.7 55.8 24.8 56.1 24.8C56.2 24.8 56.2 24.8 56.3 24.8C58.7 24.8 61.2 24.8 63.6 24.8C64 24.8 64.1 24.7 64.1 24.3C64.1 23.6 64.1 22.9 64.1 22.2C64.1 21.8 64 21.7 63.6 21.7C61.1 21.7 58.6 21.7 56.1 21.7C55.1 21.7 54.3 21.1 54 20.2C53.9 20 53.9 19.8 53.9 19.6C53.9 18.8 53.9 18 53.9 17.2C53.9 16 54.8 15.1 56 15.1C58.6 15.1 61.2 15.1 63.8 15.1C65 15.1 65.9 16 65.9 17.2C65.7 17.2 65.7 17.4 65.7 17.6Z" fill="black"/>
<path d="M30.3 22.4C30.3 23.7 30.3 25.1 30.3 26.4C29.7 26.4 29.1 26.4 28.5 26.4C28.5 26.3 28.5 26.3 28.5 26.2C28.5 23.2 28.5 20.1 28.5 17.1C28.5 15.8 29.6 14.9 30.7 14.9C33.2 14.9 35.8 14.9 38.3 14.9C39.3 14.9 40.2 15.6 40.4 16.6C40.4 16.7 40.4 16.9 40.4 17.1C40.4 20.2 40.4 23.2 40.4 26.3C40.4 26.4 40.4 26.4 40.4 26.5C39.8 26.5 39.2 26.5 38.6 26.5C38.6 25.2 38.6 23.8 38.6 22.5C35.9 22.4 33.1 22.4 30.3 22.4ZM38.7 20.6C38.7 20.5 38.7 20.4 38.7 20.4C38.7 19.3 38.7 18.2 38.7 17.1C38.7 16.7 38.6 16.6 38.2 16.6C35.7 16.6 33.3 16.6 30.8 16.6C30.4 16.6 30.3 16.7 30.3 17.1C30.3 18.2 30.3 19.3 30.3 20.5C30.3 20.6 30.3 20.6 30.3 20.7C33.1 20.6 35.9 20.6 38.7 20.6Z" fill="black"/>
<path d="M72.8 14.9C74.1 14.9 75.4 14.9 76.7 14.9C77.7 14.9 78.6 15.6 78.8 16.6C78.8 16.8 78.8 16.9 78.8 17.1C78.8 19.5 78.8 21.9 78.8 24.3C78.8 25.5 77.9 26.5 76.6 26.5C74 26.5 71.5 26.5 68.9 26.5C67.7 26.5 66.7 25.5 66.7 24.3C66.7 21.9 66.7 19.5 66.7 17.1C66.7 15.9 67.7 14.9 68.9 14.9C70.2 14.9 71.5 14.9 72.8 14.9ZM72.8 16.6C71.6 16.6 70.3 16.6 69.1 16.6C68.7 16.6 68.6 16.7 68.6 17.1C68.6 19.5 68.6 21.8 68.6 24.2C68.6 24.6 68.7 24.7 69.1 24.7C71.6 24.7 74 24.7 76.5 24.7C76.9 24.7 77 24.6 77 24.2C77 21.8 77 19.5 77 17.1C77 16.7 76.9 16.6 76.5 16.6C75.2 16.6 74 16.6 72.8 16.6Z" fill="black"/>
<path d="M79.9 14.8999C80.6 14.8999 81.3 14.8999 81.9 14.8999C82 14.8999 82 14.9999 82.1 14.9999C83.5 16.4999 84.8 18.0999 86.2 19.5999C87.5 20.9999 88.7 22.4999 90 23.8999C90 23.8999 90 23.9999 90.1 23.9999C90.1 23.9999 90.1 23.9999 90.2 23.9999C90.2 20.9999 90.2 17.8999 90.2 14.7999C90.8 14.7999 91.4 14.7999 92 14.7999C92 18.5999 92 22.4999 92 26.2999C91.3 26.2999 90.6 26.2999 89.9 26.2999C89.8 26.2999 89.8 26.1999 89.7 26.1999C88.3 24.5999 86.9 22.9999 85.5 21.3999C84.3 19.9999 83.1 18.5999 81.8 17.1999L81.7 17.0999C81.7 20.0999 81.7 23.1999 81.7 26.2999C81.1 26.2999 80.5 26.2999 79.9 26.2999C79.9 22.5999 79.9 18.6999 79.9 14.8999Z" fill="black"/>
<path d="M4.50001 26.4C3.90001 26.4 3.30001 26.4 2.70001 26.4C2.70001 22.6 2.70001 18.7 2.70001 14.9C2.80001 14.9 2.80001 14.9 2.90001 14.9C6.10001 14.9 9.30001 14.9 12.5 14.9C13.5 14.9 14.4 15.5 14.6 16.5C14.6 16.7 14.7 16.9 14.7 17.1C14.7 18.1 14.7 19.2 14.7 20.2C14.7 21.5 13.6 22.4 12.5 22.4C10.1 22.4 7.80001 22.4 5.40001 22.4C5.10001 22.4 4.80001 22.4 4.50001 22.4C4.50001 23.7 4.50001 25 4.50001 26.4ZM8.70001 20.6C9.90001 20.6 11.2 20.6 12.4 20.6C12.8 20.6 12.9 20.5 12.9 20.1C12.9 19.1 12.9 18.1 12.9 17.1C12.9 16.8 12.8 16.6 12.4 16.6C9.90001 16.6 7.40001 16.6 4.90001 16.6C4.60001 16.6 4.40001 16.7 4.40001 17.1C4.40001 18.1 4.40001 19.1 4.40001 20.1C4.40001 20.5 4.50001 20.6 4.90001 20.6C6.20001 20.6 7.40001 20.6 8.70001 20.6Z" fill="black"/>
<path d="M15.5 14.9C16.1 14.9 16.7 14.9 17.3 14.9C17.3 18.2 17.3 21.4 17.3 24.7C20.7 24.7 24.1 24.7 27.5 24.7C27.5 25.3 27.5 25.8 27.5 26.4C23.5 26.4 19.5 26.4 15.5 26.4C15.5 22.6 15.5 18.7 15.5 14.9Z" fill="black"/>
<path d="M40.7 14.9C41.4 14.9 42.1 14.9 42.7 14.9C42.8 14.9 42.8 15 42.9 15C44.3 16.6 45.6 18.3 47 19.9C47 20 47.1 20 47.2 20.1C47.7 19.4 48.3 18.8 48.8 18.1C49.7 17.1 50.5 16 51.4 15C51.5 14.9 51.6 14.9 51.7 14.9C52.3 14.9 53 14.9 53.6 14.9C53.3 15.3 53 15.7 52.7 16.1C51.2 18.1 49.7 20 48.2 22C48.1 22.1 48.1 22.2 48.1 22.4C48.1 23.7 48.1 25 48.1 26.3C48.1 26.4 48.1 26.4 48.1 26.5C47.5 26.5 46.9 26.5 46.3 26.5C46.3 26.4 46.3 26.4 46.3 26.3C46.3 25 46.3 23.7 46.3 22.4C46.3 22.3 46.3 22.1 46.2 22C44.4 19.7 42.7 17.4 40.9 15.1C40.8 15 40.8 15 40.7 14.9Z" fill="black"/>
<path d="M112.3 17.7C112.4 17.7 112.4 17.6999 112.5 17.7999C114.6 18.7999 116.7 19.7 118.9 20.7C118.9 20.7 119 20.6999 119.1 20.7999C116.9 21.7999 114.6 22.8 112.4 23.9C112.4 23.8 112.4 23.7 112.4 23.7C112.4 21.8 112.4 20 112.4 18.1C112.3 17.9 112.3 17.8 112.3 17.7Z" fill="black"/>
<path d="M98.9 23.8C98.9 23.7 98.9 23.7 98.9 23.6C98.9 21.7 98.9 19.7 98.9 17.8C98.9 17.7 98.9 17.7 98.9 17.6C99 17.6 99 17.7 99.1 17.7C100 18.1 100.8 18.5 101.7 18.9C102.9 19.5 104.2 20 105.4 20.6C105.5 20.6 105.5 20.7 105.6 20.7C105.5 20.7 105.4 20.8 105.4 20.8C103.4 21.7 101.3 22.7 99.3 23.6C99.2 23.6 99.2 23.7 99.1 23.7C99.1 23.7 99 23.8 98.9 23.8Z" fill="black"/>
<path d="M98.9 17.7C98.9 17.6 98.9 17.6 98.9 17.5C98.9 15.6 98.9 13.6 98.9 11.7V11.6C101.1 12.6 103.3 13.6 105.6 14.6C104.8 15 104 15.3 103.3 15.7C102 16.3 100.6 16.9 99.3 17.5L99.2 17.6C99.1 17.6 99 17.7 98.9 17.7Z" fill="black"/>
<path d="M98.9 23.7999C99 23.7999 99 23.8999 99.1 23.8999C100 24.2999 100.9 24.7999 101.9 25.1999C103.1 25.6999 104.3 26.2999 105.5 26.7999C105.5 26.7999 105.6 26.7999 105.7 26.8999C103.5 27.8999 101.2 28.8999 99 29.8999C99 29.7999 99 29.7999 99 29.6999C99 27.7999 99 25.8999 99 23.9999C98.9 23.8999 98.9 23.7999 98.9 23.7999Z" fill="black"/>
<path d="M112.3 17.7C111.2 18.2 110.1 18.7 109 19.2C108 19.7 106.9 20.1 105.9 20.6C105.8 20.6 105.8 20.7 105.7 20.7C105.7 20.6 105.7 20.6 105.7 20.5C105.7 18.6 105.7 16.7 105.7 14.7C105.7 14.7 105.7 14.6 105.7 14.5C105.8 14.5 105.8 14.5 105.9 14.6C108 15.6 110.1 16.5 112.2 17.5C112.2 17.6 112.2 17.7 112.3 17.7Z" fill="black"/>
<path d="M105.6 20.7999C107.7 21.6999 109.7 22.6999 111.8 23.5999C111.9 23.6999 112.1 23.6999 112.3 23.7999C110.1 24.7999 107.8 25.7999 105.6 26.7999C105.6 26.6999 105.6 26.6999 105.6 26.5999C105.6 24.6999 105.6 22.7999 105.6 20.8999V20.7999Z" fill="black"/>
<path d="M98.9 17.7C99 17.7 99 17.6 99.1 17.6C99.1 17.7 99.1 17.7 99.1 17.8C99.1 17.7 99 17.7 98.9 17.7Z" fill="black"/>
<path d="M99.1 23.9C99 23.9 99 23.7999 98.9 23.7999C99 23.7999 99 23.7 99.1 23.7C99.1 23.8 99.1 23.8 99.1 23.9Z" fill="black"/>
</svg>
