<svg width="98" height="23" viewBox="0 0 98 23" fill="none" xmlns="http://www.w3.org/2000/svg">
<path d="M93.5768 9.85775C92.491 7.67616 91.4297 5.47866 90.352 3.29708C89.9765 2.52477 89.6091 1.74449 89.2091 0.988104C88.7029 0.0247045 87.462 -0.142497 86.7762 0.677587C86.3271 1.219 86.4088 1.84004 86.6945 2.43718C87.217 3.52797 87.7559 4.60284 88.2865 5.68567C88.8662 6.85608 89.4458 8.03445 90.0336 9.20486C90.4827 10.1046 90.9562 11.0043 91.397 11.904C92.0502 13.2177 92.6788 14.5394 93.3238 15.8611C93.781 16.7926 94.2463 17.7162 94.7117 18.6398C94.8831 18.9822 95.0382 19.3325 95.2178 19.6749C95.4791 20.1685 95.9853 20.3277 96.4833 20.3198C97.0384 20.3039 97.5364 20.0809 97.7895 19.5236C97.8385 19.4121 97.863 19.3803 97.912 19.221C97.9691 19.0459 98.0426 18.8389 97.9691 18.6717C97.3568 17.4296 96.769 16.2273 96.1485 14.9853C95.2913 13.2575 94.4259 11.5616 93.5768 9.85775Z" fill="black"/>
<path d="M8.84171 13.9496C8.18042 13.9098 7.28237 14.6344 7.37217 15.3032C7.39666 15.4704 7.33952 15.6455 7.2987 15.8127C7.11092 16.6885 6.35166 17.3892 5.51076 17.4609C4.31064 17.5644 3.4779 17.1185 3.11868 16.1232C2.99622 15.7968 2.97989 15.4306 2.91458 15.0802C2.77579 14.3238 1.87774 13.8063 1.11848 14.0133C0.571486 14.1566 0.285743 14.5547 0 14.9688C0 15.343 0.00816409 15.3907 0.0571486 15.9003C0.0816409 16.1471 0.0979691 16.2347 0.114297 16.3223C0.685783 18.9259 3.19216 20.7412 6.04959 20.2476C6.3435 20.1998 6.4333 20.2953 6.5476 20.4944C6.88233 21.1074 7.21705 21.7285 7.56811 22.3336C7.911 22.9148 8.47432 23.0741 9.10296 22.9705C9.69077 22.883 9.99284 22.461 10.1725 21.9435C10.3112 21.5454 10.1888 21.195 10.0092 20.8447C9.63362 20.152 9.25808 19.4514 8.88253 18.7666C9.81323 17.8032 10.2296 16.6487 10.2541 15.3748C10.2704 14.5866 9.60913 13.9974 8.84171 13.9496Z" fill="black"/>
<path d="M54.3076 0.374337C54.177 0.270831 54.03 0.119554 53.8912 0.0717818C53.5075 -0.0317239 53.3932 -0.0158 53.0748 0.0717818C52.6911 0.215097 52.5196 0.414147 52.3482 0.660968C51.0174 2.4763 49.7112 4.30755 48.3886 6.13085C47.0334 8.00987 45.67 9.88094 44.3066 11.752C43.8657 12.3571 44.0045 13.3126 44.6005 13.7425C45.2863 14.2361 46.1598 14.1008 46.666 13.4161C47.2048 12.6915 47.7355 11.959 48.2661 11.2185C49.2213 9.8889 50.1684 8.55129 51.1236 7.22164C52.3155 5.57351 53.532 3.93334 54.7076 2.26929C55.1975 1.58456 55.026 0.947599 54.3076 0.374337Z" fill="black"/>
<path d="M97.8222 1.00417C97.3976 0.20001 96.4751 -0.0786597 95.6914 0.399059C95.1444 0.733462 94.9974 1.25895 94.9892 1.83222C94.9811 4.66668 94.9811 7.50911 94.9892 10.3436C94.9892 10.5426 95.0546 10.7576 95.1444 10.9407C96.0832 12.8436 97.0303 14.7386 97.9773 16.6335C97.9773 11.514 97.9691 6.56959 97.9691 1.44208C97.9528 1.24303 97.8957 1.15545 97.8222 1.00417Z" fill="black"/>
<path d="M1.69815 6.52163C2.53905 6.3385 2.94725 5.85282 2.99624 4.97701C3.06155 3.70309 4.09022 3.05021 4.93929 2.99447C6.1639 2.91485 7.14359 3.6792 7.31504 4.80184C7.35586 5.1044 7.37219 5.41491 7.48649 5.69358C7.70692 6.24296 8.44168 6.64902 8.95602 6.55348C9.70712 6.41016 10.2868 5.8369 10.2623 5.15217C10.2051 3.68717 9.70712 2.42121 8.52333 1.418C7.3232 0.406831 5.96797 0.0326186 4.44944 0.19982C2.52272 0.398869 0.718455 1.9833 0.204117 3.8464C0.155132 4.02953 0.122476 4.15692 0.0571633 4.4754C0.00817871 4.9372 0.00817871 5.16809 0.00817871 5.56619C0.13064 5.71747 0.236773 5.87671 0.367399 6.02002C0.726619 6.39424 1.15932 6.6331 1.69815 6.52163Z" fill="black"/>
<path d="M2.97174 13.5356C2.97174 11.3301 2.97174 9.18835 2.97174 7.01473C1.94307 7.51634 0.955213 7.65169 0.00817871 6.91919C0.00817871 9.12466 0.00817871 11.3222 0.00817871 13.5276C0.979705 12.8907 1.9594 12.8668 2.97174 13.5356Z" fill="black"/>
<path d="M77.1833 1.29056C76.4322 0.701374 75.5995 0.255503 74.6606 0.207731C73.1176 0.128112 71.5583 0.167921 70.0153 0.191807C69.4193 0.199769 68.8396 0.80488 68.7907 1.3861C68.709 2.34154 69.305 2.9785 70.301 2.98646C71.5501 2.99442 72.7992 2.98646 74.0565 2.98646C75.0443 2.98646 76.0404 3.81451 76.1302 4.76994C76.2036 5.49448 76.2363 6.22699 76.2036 6.95153C76.1383 8.28914 75.126 9.15699 73.8116 9.11718C72.6278 9.07737 71.444 9.10126 70.2602 9.10922C69.3948 9.11718 68.7743 9.74618 68.7825 10.5742C68.7907 11.3704 69.3866 11.9118 70.2683 11.9118C70.946 11.9198 71.6318 11.9118 72.3094 11.9118C72.9054 11.9118 73.5095 11.9118 74.1055 11.9118C76.2934 11.9039 78.2365 10.4707 78.8651 8.37672C79.159 7.40536 79.0937 6.41011 79.0937 5.42283C79.0856 3.7747 78.5467 2.35747 77.1833 1.29056Z" fill="black"/>
<path d="M27.9456 0.23965C27.3986 0.040601 26.721 0.175955 26.3781 0.677559C26.1659 0.996038 26.0761 1.44191 26.0679 1.82408C26.0597 2.52474 26.0597 3.22539 26.0516 3.92605C26.0434 6.02801 26.0516 8.12201 26.0516 10.224C26.0516 12.9947 26.0516 15.7655 26.0516 18.5442C26.0516 18.7592 26.0597 18.9662 26.0761 19.1812C26.125 20.0013 26.9823 20.4312 27.717 20.2799C28.5579 20.1048 28.9498 19.5873 28.9498 18.7114C28.9498 14.0059 28.9498 9.29242 28.9498 4.58689C28.9498 3.60757 28.958 2.62028 28.9498 1.64096C28.9498 0.972152 28.5661 0.462586 27.9456 0.23965Z" fill="black"/>
<path d="M82.5634 0.176106C81.6736 0.168144 81.1102 0.749369 81.1102 1.68092C81.1102 4.53131 81.1102 7.3817 81.1102 10.24C81.1102 11.6732 81.1102 13.1064 81.1102 14.5395C81.1102 15.9727 81.1102 17.4058 81.1021 18.839C81.0939 19.7626 81.7062 20.304 82.539 20.3438C83.3799 20.3836 83.984 19.7228 83.984 18.8549C83.984 13.1382 83.984 7.42151 83.984 1.70481C83.984 0.805102 83.388 0.176106 82.5634 0.176106Z" fill="black"/>
<path d="M61.1164 0.159937C59.2632 0.191785 57.8263 0.964096 56.7976 2.46891C56.2425 3.28103 55.9567 4.18073 55.973 5.16006C55.9812 5.78109 56.3486 6.18715 56.9119 6.44194C57.4834 6.69672 57.9814 6.52952 58.4386 6.1553C58.8958 5.78109 58.8305 5.24764 58.9121 4.76992C59.1162 3.58359 60.4225 2.73962 61.6144 3.05013C62.6104 3.30492 63.2881 4.16481 63.3126 5.20783C63.3289 5.93237 63.982 6.56136 64.725 6.57729C65.3862 6.60117 66.1373 5.94829 66.1782 5.31133C66.2598 4.0613 65.8434 2.93867 65.0433 2.00712C64.0473 0.836705 62.7492 0.144013 61.1164 0.159937Z" fill="black"/>
<path d="M21.5614 13.9575C20.8756 14.0292 20.3041 14.6502 20.2878 15.3429C20.2714 16.0913 19.9612 16.7203 19.3326 17.1264C18.5896 17.6041 17.7569 17.5961 16.9732 17.214C16.2221 16.8477 15.9771 16.163 15.871 15.3907C15.822 15.0483 15.6832 14.6582 15.4546 14.4114C15.0219 13.9416 14.4505 13.8142 13.83 14.0849C13.1932 14.3636 12.9401 14.8572 12.9728 15.534C13.0299 15.9321 13.0462 16.3541 13.1605 16.7363C13.7892 18.8462 15.9118 20.5341 18.6223 20.2873C20.745 20.0962 22.786 18.3525 23.0636 16.2585C23.1207 15.8286 23.1697 15.3827 23.0881 14.9687C22.9738 14.3078 22.2553 13.8859 21.5614 13.9575Z" fill="black"/>
<path d="M64.7984 13.9577C64.1126 13.9338 63.2962 14.4991 63.3043 15.4546C63.3125 16.4578 62.3736 17.3973 61.4184 17.4689C59.8836 17.5884 59.1488 16.7364 58.9284 15.7651C58.8304 15.3431 58.8304 14.8654 58.6018 14.523C58.3079 14.0851 57.7772 13.8622 57.2057 13.9816C56.6179 14.109 56.1199 14.4195 56.0383 15.0485C55.9811 15.4864 55.9893 15.9482 56.0954 16.3782C56.8302 19.4117 59.8183 21.0678 62.888 20.0168C64.8392 19.348 66.1454 17.5406 66.1944 15.5023C66.1862 14.6186 65.6066 13.9896 64.7984 13.9577Z" fill="black"/>
<path d="M33.5625 6.49771C34.2401 6.33051 34.6647 5.78909 34.6728 5.07252C34.6891 3.97376 35.6688 2.99444 36.7628 2.98648C38.0283 2.97852 39.008 3.83841 39.0733 5.00882C39.0896 5.25564 39.1467 5.51042 39.2365 5.74132C39.4406 6.2907 40.2407 6.67287 40.8041 6.52159C41.7266 6.26681 42.0532 5.69355 41.9634 4.64257C41.7266 2.11066 39.3753 0.191824 36.9588 0.152014C34.2238 0.112204 31.8154 2.34156 31.7419 4.96901C31.7991 5.23972 31.8072 5.53431 31.9297 5.76521C32.2562 6.38624 32.9175 6.65695 33.5625 6.49771Z" fill="black"/>
<path d="M40.4856 13.9574C39.8162 13.9733 39.2774 14.4033 39.1467 15.0561C39.0896 15.3428 39.0896 15.6374 39.0079 15.9081C38.6814 17.0228 37.7343 17.596 36.4689 17.4447C35.4484 17.3253 34.6483 16.3062 34.6565 15.3587C34.6646 14.8651 34.4442 14.4351 33.987 14.1644C33.4727 13.8619 32.9665 13.8619 32.4522 14.1724C31.9297 14.4908 31.7011 14.9526 31.7909 15.502C31.7664 16.6724 32.1991 17.6597 32.893 18.4718C34.4524 20.2872 36.6077 20.741 38.763 19.9687C40.2407 19.4432 41.2122 18.3444 41.7266 16.8954C41.9389 16.2903 42.1021 15.6533 41.9389 15.0004C41.7837 14.4112 41.1306 13.9415 40.4856 13.9574Z" fill="black"/>
<path d="M86.5312 4.1402C86.5149 4.14816 86.4904 4.16408 86.4741 4.17205C86.4741 9.01293 86.4741 13.8538 86.4741 18.6947C86.4741 18.8539 86.4904 19.0132 86.4986 19.1724C86.5557 20.0164 87.4456 20.4224 88.1477 20.2712C88.9478 20.104 89.3723 19.5785 89.3723 18.7823C89.3723 16.5131 89.3152 14.2439 89.3968 11.9827C89.4458 10.5814 89.209 9.31548 88.4988 8.08138C87.7558 6.81542 87.1762 5.46189 86.5312 4.1402Z" fill="black"/>
<path d="M13.0462 13.4248C14.377 12.8834 14.5239 12.8834 15.8873 13.4805C15.8955 13.4089 15.8955 13.3452 15.8955 13.2815C15.8955 9.38011 15.8955 5.48671 15.8955 1.58534C15.8955 0.781178 15.2424 0.160144 14.4178 0.168105C13.5687 0.176067 13.0217 0.725444 13.0217 1.58534C13.0217 5.43097 13.0217 9.27661 13.0217 13.1222C13.0217 13.2178 13.0381 13.3213 13.0462 13.4248Z" fill="black"/>
<path d="M22.5737 0.414764C22.1165 0.0962848 21.6021 0.0564749 21.1123 0.303296C20.5816 0.566041 20.2877 1.01987 20.2877 1.61702C20.2877 5.4945 20.2877 9.36403 20.2877 13.2415C20.2877 13.3211 20.2877 13.3928 20.2877 13.5202C21.2348 12.9071 22.1655 12.8673 23.1452 13.4963C23.1533 13.3291 23.1615 13.2256 23.1615 13.1221C23.1615 9.28441 23.1615 5.45469 23.1615 1.61702C23.1696 1.11542 22.99 0.701395 22.5737 0.414764Z" fill="black"/>
<path d="M53.7523 16.115C52.691 13.9652 51.6297 11.8155 50.552 9.63391C50.0866 10.2629 49.6621 10.8919 49.1886 11.4811C48.8049 11.9668 48.4947 12.4206 49.009 13.0018C49.0743 13.0735 49.0743 13.2009 49.1233 13.2964C50.152 15.3745 51.1725 17.4526 52.2175 19.5306C52.3154 19.7297 52.4542 19.9287 52.6257 20.0561C53.14 20.4224 53.9891 20.3746 54.4463 20.0004C54.9606 19.5784 55.0912 18.9096 54.7892 18.2727C54.4299 17.5481 54.1034 16.8236 53.7523 16.115Z" fill="black"/>
<path d="M64.831 13.01C63.1002 10.6135 61.4103 8.27265 59.6795 5.8761C59.2223 6.95893 58.414 7.42868 57.2629 7.44461C59.01 9.86505 60.7245 12.2298 62.4634 14.6343C62.9451 13.6311 63.6962 13.0817 64.831 13.01Z" fill="black"/>
<path d="M46.6088 7.07119C46.821 6.78455 46.9353 6.48996 46.9353 6.12371C46.9108 4.61093 46.9272 3.09816 46.9272 1.58538C46.9272 0.7653 46.3149 0.176114 45.4984 0.168152C44.6575 0.168152 44.0616 0.72549 44.0534 1.55354C44.0452 4.52335 44.0534 7.49317 44.0534 10.5585C44.9351 9.34831 45.7679 8.20179 46.6088 7.07119Z" fill="black"/>
<path d="M71.1582 12.8348C70.3663 12.8667 69.5499 12.9543 68.7988 12.389C68.7825 12.5164 68.7743 12.5721 68.7743 12.6199C68.7743 14.7378 68.7743 16.8636 68.7825 18.9815C68.7825 19.1009 68.7906 19.2204 68.8233 19.3318C69.0519 20.0484 69.6315 20.351 70.3091 20.3032C71.1745 20.2395 71.6562 19.714 71.6644 18.9576C71.6725 17.0865 71.6562 15.2234 71.6725 13.3524C71.6807 12.9543 71.5909 12.8189 71.1582 12.8348Z" fill="black"/>
<path d="M7.40485 7.02264C7.40485 9.18034 7.40485 11.2982 7.40485 13.4798C8.37637 12.8827 9.31524 12.8747 10.2378 13.5196C10.2378 11.3221 10.2378 9.1883 10.2378 7.03857C9.02134 7.61183 8.33555 7.50832 7.40485 7.02264Z" fill="black"/>
<path d="M31.8155 7.03853C31.8155 9.20419 31.8155 11.3141 31.8155 13.4798C32.787 12.8985 33.7259 12.8747 34.6566 13.5116C34.6566 11.3221 34.6566 9.1803 34.6566 6.99872C33.7096 7.57198 32.7707 7.54809 31.8155 7.03853Z" fill="black"/>
<path d="M46.8863 14.459C45.9393 15.0562 45.0249 15.0562 44.0452 14.467C44.0452 16.0355 44.0371 17.5324 44.0534 19.0292C44.0534 19.2681 44.1432 19.5308 44.282 19.7299C44.6085 20.2156 45.3433 20.4305 45.8985 20.2554C46.5679 20.0404 46.919 19.5866 46.919 18.9018C46.919 17.5403 46.919 16.1709 46.919 14.8094C46.919 14.7059 46.9027 14.6103 46.8863 14.459Z" fill="black"/>
<path d="M71.2561 3.90924C70.4316 3.93313 69.5988 3.95702 68.8151 3.44745C68.8151 5.20705 68.8151 6.90295 68.8151 8.69439C69.5988 8.12113 70.4397 8.24056 71.2561 8.24852C71.5745 8.24852 71.6807 8.1689 71.6807 7.85042C71.6643 6.67205 71.6643 5.49368 71.6807 4.3153C71.6807 3.99683 71.5664 3.90128 71.2561 3.90924Z" fill="black"/>
</svg>
