<svg width="40" height="50" viewBox="0 0 40 50" fill="none" xmlns="http://www.w3.org/2000/svg">
<g clip-path="url(#clip0_8669_3610)">
<mask id="mask0_8669_3610" style="mask-type:luminance" maskUnits="userSpaceOnUse" x="0" y="0" width="40" height="50">
<path d="M39.9865 0H0V49.9083H39.9865V0Z" fill="white"/>
</mask>
<g mask="url(#mask0_8669_3610)">
<path d="M29.3857 0L28.7274 0.81L12.1587 25.2217H19.9409L10.6025 49.9083L28.4219 20.13H21.011L29.3857 0Z" fill="black"/>
<path d="M27.7705 2.21497L10.0186 25.7966H18.3848L10.6025 49.9083L28.1384 19.505H21.254L27.7705 2.21497Z" fill="black"/>
<path d="M28.7376 0.801636L11.7215 25.2216H19.9409L10.6025 49.9083L27.7705 20.13H21.011L28.7376 0.801636Z" fill="black"/>
<path d="M28.5283 1.10339L12.1587 25.2217H18.773L10.6025 49.9084L27.2844 18.9301H20.9131L28.5283 1.10339Z" fill="black"/>
<path d="M28.2211 1.55835L12.1587 25.2217H19.9409L10.6025 49.9084L26.7004 20.13H21.011L28.2211 1.55835Z" fill="black"/>
<path fill-rule="evenodd" clip-rule="evenodd" d="M-5.92417e-05 30.67V39.8716C-0.00343477 39.8966 0.0134429 39.9199 0.0387594 39.9233C0.0438227 39.9233 0.0471982 39.9233 0.0522615 39.9233H2.32062C2.34425 39.9249 2.36619 39.9066 2.36788 39.8833C2.36788 39.88 2.36788 39.875 2.36788 39.8716V37.075H3.16956C3.19151 37.0833 3.87674 38.0333 5.22695 39.9233H8.08602V39.8716L6.10796 37.075H8.21767C8.24129 37.0766 8.26324 37.0583 8.26492 37.035C8.26492 37.0316 8.26492 37.0266 8.26492 37.0233V30.67C8.2683 30.6433 8.24805 30.62 8.22104 30.6183C8.22104 30.6183 8.21935 30.6183 8.21767 30.6183H0.0522615C0.0235695 30.6183 -5.92417e-05 30.6383 -5.92417e-05 30.6666V30.67ZM5.87674 32.9533V34.7383H2.36619V32.9533H5.87674ZM9.20332 30.67V39.8716C9.19994 39.8966 9.21682 39.9199 9.24214 39.9233C9.2472 39.9233 9.25058 39.9233 9.25564 39.9233H16.2362C16.2599 39.9249 16.2818 39.9066 16.2835 39.8833C16.2835 39.88 16.2835 39.875 16.2835 39.8716V30.67C16.2869 30.6433 16.2666 30.62 16.2396 30.6183C16.2396 30.6183 16.2379 30.6183 16.2362 30.6183H9.25564C9.22695 30.6183 9.20332 30.6383 9.20332 30.6666V30.67ZM13.9426 32.9533V37.5866H11.5696V32.9533H13.9426ZM17.097 30.67V39.8716C17.0936 39.8966 17.1105 39.9199 17.1358 39.9233C17.1409 39.9233 17.1442 39.9233 17.1493 39.9233H24.1299C24.1535 39.9233 24.1755 39.9066 24.1772 39.8833C24.1772 39.88 24.1772 39.875 24.1772 39.8716V34.155C24.1805 34.1283 24.1603 34.1066 24.135 34.1033C24.135 34.1033 24.1333 34.1033 24.1316 34.1033H20.7071C20.6784 34.1033 20.6548 34.1233 20.6548 34.1516V34.155V36.3866C20.6514 36.4116 20.6683 36.435 20.6936 36.4383C20.6987 36.4383 20.7021 36.4383 20.7071 36.4383H21.8109V37.5866H19.4649V32.9533H24.1316C24.1535 32.9566 24.1738 32.9416 24.1772 32.92C24.1772 32.9166 24.1772 32.9116 24.1772 32.9083V30.67C24.1805 30.6433 24.1603 30.6216 24.135 30.6183C24.135 30.6183 24.1333 30.6183 24.1316 30.6183H17.151C17.1223 30.6183 17.0987 30.6383 17.0987 30.6666V30.67H17.097ZM25.0109 30.67V39.8716C25.0075 39.8966 25.0244 39.9199 25.0497 39.9233C25.0548 39.9233 25.0582 39.9233 25.0632 39.9233H32.0185C32.0438 39.9266 32.0675 39.91 32.0708 39.885C32.0708 39.88 32.0708 39.8766 32.0708 39.8716V30.67C32.0708 30.6416 32.0506 30.62 32.0219 30.6183C32.0219 30.6183 32.0202 30.6183 32.0185 30.6183H29.7518C29.7232 30.6183 29.6995 30.6383 29.6995 30.665C29.6995 30.665 29.6995 30.6683 29.6995 30.67V37.5866H27.3805V30.67C27.3822 30.6433 27.3637 30.62 27.3367 30.6183C27.3367 30.6183 27.3367 30.6183 27.335 30.6183H25.0683C25.0413 30.6183 25.0177 30.6383 25.016 30.665C25.016 30.6666 25.016 30.6683 25.016 30.67H25.0109ZM32.9046 30.67V39.8716C32.9012 39.8966 32.9198 39.9199 32.9451 39.9233C32.9502 39.9233 32.9535 39.9233 32.9586 39.9233H39.9392C39.9628 39.9233 39.9848 39.9066 39.9864 39.8833C39.9864 39.88 39.9864 39.875 39.9864 39.8716V37.6333C39.9864 37.6083 39.9679 37.5883 39.9426 37.5883C39.9426 37.5883 39.9426 37.5883 39.9409 37.5883H35.2725V36.44H39.9409C39.9645 36.44 39.9864 36.4233 39.9881 36.4C39.9881 36.3966 39.9881 36.3916 39.9881 36.3883V34.1566C39.9915 34.13 39.9713 34.1083 39.9459 34.105C39.9459 34.105 39.9443 34.105 39.9426 34.105H35.2742V32.9566H39.9426C39.9645 32.96 39.9848 32.945 39.9881 32.9233C39.9881 32.92 39.9881 32.915 39.9881 32.9116V30.6733C39.9915 30.6466 39.9713 30.625 39.9459 30.6216C39.9459 30.6216 39.9443 30.6216 39.9426 30.6216H32.962C32.9333 30.6216 32.9097 30.6416 32.9097 30.6683C32.9097 30.6683 32.9097 30.6716 32.9097 30.6733L32.9046 30.67Z" fill="black"/>
</g>
</g>
<defs>
<clipPath id="clip0_8669_3610">
<rect width="40" height="50" fill="white"/>
</clipPath>
</defs>
</svg>
