<svg width="144" height="26" viewBox="0 0 144 26" fill="none" xmlns="http://www.w3.org/2000/svg">
<path d="M33.1658 12.8067C32.0743 11.9986 31.3702 11.454 31.0533 11.1905C30.8773 11.0148 30.666 10.7864 30.4372 10.5229C30.2083 10.2418 30.0851 9.87293 30.0851 9.41617C30.0851 8.81887 30.2611 8.34455 30.6132 7.9932C30.9653 7.64185 31.4406 7.46617 32.0567 7.46617C33.3594 7.46617 34.134 8.23915 34.3628 9.80266H34.8381V7.46617C34.8381 7.36077 34.8205 7.2905 34.7677 7.25536C34.5213 6.97428 33.6763 6.83374 32.2328 6.83374C31.1589 6.83374 30.2611 7.09725 29.5218 7.58915C28.6768 8.16888 28.2543 8.97698 28.2543 9.9959C28.2543 10.6108 28.4127 11.1202 28.7472 11.5594C29.0641 11.981 29.6626 12.5081 30.5252 13.1229C31.8807 14.0716 32.7785 14.7918 33.201 15.3189C33.6411 15.8283 33.8523 16.4081 33.8523 17.0581C33.8523 17.7432 33.6235 18.3054 33.1658 18.7621C32.7081 19.2189 32.1271 19.4297 31.4054 19.4297C30.402 19.4297 29.6274 19.0256 29.0641 18.2175C28.8352 17.8837 28.6768 17.3391 28.5359 16.5486H28.0782V19.1135C28.0782 19.3067 28.1487 19.4297 28.2895 19.5C28.5359 19.6229 28.976 19.7459 29.5922 19.8513C30.2259 19.9567 30.7892 20.027 31.2822 20.027C32.6201 20.027 33.6939 19.7108 34.5213 19.0432C35.3487 18.3932 35.7536 17.5324 35.7536 16.4608C35.7536 15.7932 35.5599 15.1959 35.2078 14.6864C34.8381 14.1594 34.1516 13.5621 33.1658 12.8067Z" fill="black"/>
<path d="M42.6719 10.4702C41.3868 10.4702 40.3306 10.9621 39.5384 11.9635V10.4702C38.7462 10.9094 37.7076 11.1729 36.4401 11.2256V11.6824H36.8626C37.2499 11.6824 37.5139 11.7351 37.6724 11.8405C37.8132 11.9459 37.9012 12.1918 37.9012 12.5608V22.0297C37.9012 22.8202 37.8308 23.2945 37.69 23.4526C37.5491 23.6108 37.1442 23.7513 36.4225 23.8391V24.3135H41.4044V23.8391C40.489 23.7513 39.9433 23.6283 39.7848 23.4702C39.6264 23.3121 39.5384 22.8202 39.5384 22.0121V19.5526C40.2425 19.8337 40.9291 19.9743 41.598 19.9743C42.9887 19.9743 44.133 19.4824 45.0484 18.4986C45.9638 17.5148 46.4215 16.2499 46.4215 14.7391C46.4215 13.4216 46.087 12.3851 45.4005 11.6121C44.7139 10.8567 43.8161 10.4702 42.6719 10.4702ZM43.8161 18.2878C43.288 19.0256 42.5486 19.3945 41.598 19.3945C40.8763 19.3945 40.1897 19.1135 39.5384 18.5337V15.3364C39.5384 14.3702 39.5912 13.6499 39.6792 13.2108C39.9609 11.9635 40.6826 11.331 41.8445 11.331C42.6895 11.331 43.3584 11.6648 43.8513 12.3324C44.3442 12.9999 44.5907 13.931 44.5907 15.1081C44.6083 16.4959 44.3442 17.5499 43.8161 18.2878Z" fill="black"/>
<path d="M54.7658 18.7797C54.5193 18.7797 54.3609 18.6743 54.2553 18.481C54.1672 18.2702 54.1144 17.9189 54.1144 17.4094V13.3689C54.1144 12.3499 53.868 11.6121 53.3927 11.1554C52.8997 10.6986 52.1252 10.4702 51.0513 10.4702C50.1887 10.4702 49.4142 10.6283 48.7276 10.9445C48.4636 11.0499 48.3051 11.2256 48.2523 11.4716L47.9707 12.4905C47.9531 12.5783 47.9883 12.631 48.1115 12.6662L48.6748 12.8067C48.7276 12.8243 48.7804 12.8243 48.8156 12.8243C48.9037 12.8243 49.0445 12.6837 49.2029 12.3851C49.6782 11.5067 50.2416 11.0499 50.9105 11.0499C51.9315 11.0499 52.4597 11.9283 52.4773 13.7026L50.488 14.4756C49.6782 14.7743 49.0973 15.0378 48.7276 15.2486C47.8122 15.7932 47.3369 16.5486 47.3369 17.5148C47.3369 18.2526 47.5482 18.8324 47.9883 19.2891C48.4284 19.7459 48.9917 19.9743 49.6958 19.9743C50.0831 19.9743 50.5232 19.7986 51.0161 19.4648L52.4244 18.5337C52.4597 19.0432 52.6005 19.5175 52.8645 19.9743L55.4523 19.1486L55.3291 18.6391C55.1178 18.7445 54.9242 18.7797 54.7658 18.7797ZM52.4949 15.8283C52.4949 17.8486 51.8259 18.8499 50.5056 18.8499C50.0479 18.8499 49.6958 18.7094 49.4142 18.4283C49.1501 18.1472 49.0093 17.7608 49.0093 17.3216C49.0093 16.3202 49.6254 15.5648 50.8753 15.0378C51.2802 14.8621 51.8259 14.6689 52.4949 14.4229V15.8283Z" fill="black"/>
<path d="M65.3457 18.7796C64.9056 18.7796 64.6944 18.3229 64.6944 17.4094V6.35938C63.7085 6.72829 62.6699 6.90397 61.5961 6.90397V7.39586H62.089C62.4411 7.39586 62.6875 7.44856 62.8283 7.55397C62.9692 7.65937 63.0396 7.95802 63.0396 8.43235V10.7513C62.4235 10.558 61.7545 10.4526 61.0503 10.4526C59.5892 10.4526 58.4098 10.8918 57.4944 11.7878C56.579 12.6837 56.1389 13.8432 56.1389 15.2661C56.1389 16.6013 56.5261 17.708 57.3183 18.6215C58.1105 19.5175 59.0611 19.9742 60.2054 19.9742C60.6455 19.9742 61.1736 19.781 61.8073 19.4121L63.022 18.6918V18.8148C63.0572 19.2715 63.1804 19.658 63.4269 19.9742L66.0499 19.1486L65.9266 18.6391C65.6802 18.7445 65.4865 18.7796 65.3457 18.7796ZM63.0572 16.654C63.0572 17.3742 62.9516 17.8661 62.7403 18.0945C62.5291 18.3229 62.2474 18.5337 61.9129 18.7094C61.5433 18.8851 61.1912 18.9905 60.8567 18.9905C59.9237 18.9905 59.1843 18.4986 58.6562 17.5148C58.2161 16.7067 57.9873 15.7932 57.9873 14.7742C57.9873 13.7905 58.2161 12.9472 58.6738 12.2445C59.2019 11.454 59.9413 11.0675 60.8743 11.0675C61.8249 11.0675 62.5467 11.4364 63.0572 12.1742V16.654Z" fill="black"/>
<path d="M74.1653 12.7891C73.69 11.2256 72.6162 10.4702 70.9614 10.4702C69.7115 10.4702 68.7081 10.8918 67.9511 11.7351C67.1413 12.6486 66.7365 13.7554 66.7365 15.0729C66.7365 16.4256 67.1413 17.6202 67.9687 18.6216C68.7433 19.5526 69.9228 20.0094 71.5247 20.0094H72L74.3765 18.8851L74.0949 18.3405C73.2675 18.7621 72.5633 18.9554 71.9824 18.9554C71.3311 18.9554 70.7677 18.8148 70.2748 18.5337C69.113 17.8837 68.5144 16.6189 68.4968 14.7567H74.3765C74.3765 13.931 74.3061 13.281 74.1653 12.7891ZM71.6303 14.0891H68.4968C68.5497 13.5445 68.6201 13.1229 68.6905 12.8418C69.0426 11.6648 69.7467 11.0675 70.8206 11.0675C71.3839 11.0675 71.8592 11.2608 72.2289 11.6297C72.5985 11.9986 72.7922 12.4729 72.7922 13.0351C72.7922 13.7378 72.4049 14.0891 71.6303 14.0891Z" fill="black"/>
<path d="M84.3403 10.6986L84.1291 10.4702C83.3545 10.6459 82.4743 10.7337 81.5237 10.7337C81.3653 10.7337 81.2068 10.7337 81.0484 10.7162C80.5555 10.5405 80.0098 10.4702 79.4464 10.4702C78.3726 10.4702 77.4748 10.7513 76.8059 11.3135C76.1193 11.8756 75.7848 12.6135 75.7848 13.5445C75.7848 14.8621 76.4714 15.8283 77.8621 16.4432L76.1193 17.8837C76.1193 17.9013 76.1193 17.954 76.1193 18.0243C76.1017 18.0945 76.1017 18.1472 76.1017 18.1824C76.1017 18.727 76.489 19.0959 77.2812 19.2716L75.3623 20.3081C75.2215 20.3959 75.1335 20.6067 75.1335 20.9581C75.1335 21.6959 75.3271 22.3283 75.7144 22.8378C76.0489 23.277 76.5594 23.6459 77.2107 23.927C77.8797 24.2081 78.5839 24.331 79.3584 24.331C80.5379 24.331 81.5061 24.0499 82.2631 23.5054C83.2313 22.8026 83.7066 21.9418 83.7066 20.9229C83.7066 19.904 83.2313 19.1837 82.2631 18.7445C81.823 18.5513 81.154 18.3932 80.2386 18.2526C79.288 18.1121 78.6367 17.9891 78.2846 17.8486C78.0381 17.7608 77.9149 17.6026 77.9149 17.4094C77.9149 17.1986 78.0733 16.9526 78.4254 16.6891C78.7599 16.6891 79.0063 16.6891 79.1472 16.6891C80.1682 16.6891 81.0132 16.3905 81.6997 15.7932C82.3863 15.1959 82.7208 14.4581 82.7208 13.5797C82.7208 12.754 82.4567 12.0513 81.9286 11.454H83.8122L84.3403 10.6986ZM78.1085 19.4121L79.9041 19.7283C80.3266 19.7986 80.6963 19.8864 81.0132 19.9743C81.8582 20.2378 82.2983 20.7648 82.2983 21.5905C82.2983 22.2054 82.0342 22.7324 81.5237 23.1364C80.9956 23.5405 80.3266 23.7337 79.5169 23.7337C78.6895 23.7337 78.0029 23.5229 77.4572 23.0837C76.9115 22.6445 76.6474 22.0999 76.6474 21.4324C76.6474 21.0108 76.753 20.677 76.9643 20.3959C77.1403 20.1148 77.5276 19.781 78.1085 19.4121ZM79.4993 16.1797C78.9359 16.1797 78.4782 15.8986 78.1261 15.354C77.7741 14.8094 77.5804 14.1067 77.5804 13.2635C77.5804 12.5256 77.7389 11.9635 78.0557 11.5594C78.3726 11.1378 78.8127 10.9445 79.376 10.9445C79.9041 10.9445 80.309 11.1905 80.6083 11.6824C80.9076 12.1743 81.066 12.877 81.066 13.7554C81.0484 15.3716 80.5203 16.1797 79.4993 16.1797Z" fill="black"/>
<path d="M91.7516 18.7797C91.5051 18.7797 91.3467 18.6743 91.2411 18.481C91.153 18.2702 91.1002 17.9189 91.1002 17.4094V13.3689C91.1002 12.3499 90.8538 11.6121 90.3785 11.1554C89.8856 10.6986 89.111 10.4702 88.0371 10.4702C87.1746 10.4702 86.4 10.6283 85.6958 10.9445C85.4494 11.0499 85.2909 11.2256 85.2205 11.4716L84.9565 12.4905C84.9389 12.5783 84.9741 12.631 85.0973 12.6662L85.6606 12.8067C85.7134 12.8243 85.7486 12.8243 85.8014 12.8243C85.9071 12.8243 86.0303 12.6837 86.1887 12.3851C86.664 11.5067 87.2274 11.0499 87.8787 11.0499C88.9173 11.0499 89.4279 11.9283 89.4455 13.7026L87.4562 14.4756C86.6464 14.7743 86.0655 15.0378 85.6958 15.2486C84.7804 15.7932 84.3051 16.5486 84.3051 17.5148C84.3051 18.2526 84.5164 18.8324 84.9565 19.2891C85.3966 19.7459 85.9599 19.9743 86.664 19.9743C87.0513 19.9743 87.509 19.7986 88.0019 19.4648L89.4102 18.5337C89.4455 19.0432 89.5863 19.5175 89.8503 19.9743L92.4381 19.1486L92.3325 18.6391C92.1036 18.7445 91.8924 18.7797 91.7516 18.7797ZM89.4631 15.8283C89.4631 17.8486 88.7941 18.8499 87.4738 18.8499C87.0337 18.8499 86.664 18.7094 86.3824 18.4283C86.1183 18.1472 85.9775 17.7608 85.9775 17.3216C85.9775 16.3202 86.5936 15.5648 87.8435 15.0378C88.266 14.8621 88.7941 14.6689 89.4631 14.4229V15.8283Z" fill="black"/>
<path d="M107.683 17.5148V13.7026C107.683 13.0526 107.648 12.5783 107.578 12.227C107.313 11.0499 106.486 10.4702 105.095 10.4702C103.863 10.4702 102.754 10.9972 101.803 12.0689C101.539 11.4716 101.222 11.0675 100.888 10.8216C100.536 10.5756 100.061 10.4702 99.4269 10.4702C98.089 10.4702 96.98 10.9972 96.0998 12.0689V10.4702C95.29 10.927 94.2513 11.1905 93.0015 11.2432V11.6999H93.424C93.8289 11.6999 94.0929 11.7526 94.2513 11.8756C94.3922 11.981 94.4626 12.227 94.4626 12.5959V17.5148C94.4626 18.3229 94.3922 18.8148 94.2689 18.9729C94.1457 19.131 93.7232 19.254 93.0015 19.3243V19.7986H97.5785V19.3243C96.8567 19.254 96.4166 19.131 96.2934 18.9729C96.1702 18.8148 96.0998 18.3405 96.0998 17.5148V15.3891C96.0998 13.7905 96.3286 12.7189 96.7687 12.2094C97.1736 11.7175 97.7369 11.4716 98.4939 11.4716C99.1628 11.4716 99.6205 11.6824 99.8846 12.0689C100.131 12.4729 100.254 13.1756 100.254 14.177V17.4972C100.254 18.3053 100.201 18.7972 100.061 18.9554C99.9374 19.1135 99.5149 19.2364 98.7932 19.3067V19.781H103.37V19.3067C102.648 19.2364 102.208 19.1135 102.085 18.9554C101.962 18.7972 101.891 18.3229 101.891 17.4972V15.3891C101.891 14.5986 101.909 14.054 101.944 13.7554C102.032 13.1229 102.226 12.6135 102.508 12.2445C102.912 11.7351 103.493 11.4716 104.25 11.4716C104.902 11.4716 105.377 11.6824 105.641 12.0864C105.905 12.4905 106.046 13.1932 106.046 14.1945V17.5148C106.046 18.3229 105.976 18.8148 105.852 18.9729C105.729 19.131 105.307 19.254 104.585 19.3243V19.7986H109.144V19.3243C108.422 19.254 107.982 19.1486 107.859 18.9905C107.754 18.8148 107.683 18.3405 107.683 17.5148Z" fill="black"/>
<path d="M111.82 9.258C112.119 9.258 112.383 9.15259 112.577 8.95935C112.788 8.76611 112.894 8.50259 112.894 8.20395C112.894 7.9053 112.788 7.65935 112.577 7.44854C112.366 7.23773 112.119 7.13232 111.838 7.13232C111.538 7.13232 111.292 7.23773 111.081 7.44854C110.869 7.65935 110.764 7.9053 110.764 8.16881C110.764 8.46746 110.869 8.73097 111.081 8.94178C111.274 9.17016 111.521 9.258 111.82 9.258Z" fill="black"/>
<path d="M112.806 17.4094V10.3823C111.996 10.8391 110.957 11.1026 109.708 11.1553V11.6121H110.13C110.535 11.6121 110.799 11.6648 110.957 11.7702C111.098 11.8756 111.169 12.1215 111.169 12.4904V17.4094C111.169 18.2175 111.098 18.7094 110.975 18.8675C110.852 19.0256 110.429 19.1485 109.708 19.2188V19.6931H114.267V19.2188C113.545 19.1485 113.105 19.0256 113 18.8499C112.859 18.6918 112.806 18.1999 112.806 17.4094Z" fill="black"/>
<path d="M124.354 17.4094V13.5796C124.354 12.7891 124.301 12.2445 124.196 11.9283C123.826 10.8918 122.981 10.3823 121.661 10.3823C120.217 10.3823 119.002 10.9094 118.017 11.9634V10.3823C117.224 10.8215 116.186 11.085 114.918 11.1377V11.5945H115.341C115.728 11.5945 115.992 11.6472 116.151 11.7526C116.309 11.858 116.379 12.1039 116.379 12.4729V17.4094C116.379 18.1823 116.309 18.6566 116.186 18.8323C116.045 18.9904 115.64 19.131 114.936 19.2188V19.6931H119.513V19.2188C118.791 19.1134 118.351 18.9904 118.228 18.8323C118.105 18.6742 118.034 18.1999 118.034 17.4094V15.1783C118.034 14.3702 118.087 13.7377 118.175 13.2985C118.457 11.9985 119.302 11.3485 120.675 11.3485C121.449 11.3485 121.978 11.5594 122.277 11.9458C122.576 12.3499 122.734 13.0526 122.734 14.0364V17.4094C122.734 18.1823 122.682 18.6566 122.594 18.7972C122.453 19.008 122.03 19.1485 121.273 19.2188V19.6931H125.833V19.2188C125.093 19.1485 124.653 19.0256 124.53 18.8323C124.407 18.7094 124.354 18.235 124.354 17.4094Z" fill="black"/>
<path d="M135.638 10.6107L135.427 10.3823C134.652 10.558 133.79 10.6458 132.822 10.6458C132.663 10.6458 132.487 10.6458 132.346 10.6283C131.836 10.4526 131.308 10.3823 130.744 10.3823C129.67 10.3823 128.79 10.6634 128.104 11.2256C127.417 11.7877 127.083 12.5256 127.083 13.4566C127.083 14.7742 127.769 15.7404 129.16 16.3553L127.417 17.7958C127.417 17.8134 127.417 17.8661 127.417 17.9364C127.4 18.0066 127.4 18.0594 127.4 18.0945C127.4 18.6391 127.804 19.008 128.579 19.1837L126.66 20.2202C126.519 20.308 126.449 20.5188 126.449 20.8702C126.449 21.608 126.643 22.2404 127.03 22.7499C127.364 23.1891 127.875 23.558 128.526 23.8391C129.195 24.1202 129.899 24.2431 130.674 24.2431C131.853 24.2431 132.822 23.9621 133.578 23.4175C134.529 22.7148 135.022 21.8539 135.022 20.835C135.022 19.8161 134.547 19.0958 133.578 18.6566C133.138 18.4634 132.469 18.3053 131.554 18.1648C130.603 18.0242 129.952 17.9012 129.6 17.7607C129.354 17.6729 129.23 17.5148 129.23 17.3215C129.23 17.1107 129.406 16.8648 129.741 16.6012C130.075 16.6012 130.322 16.6012 130.445 16.6012C131.466 16.6012 132.329 16.3026 132.998 15.7053C133.684 15.108 134.019 14.3702 134.019 13.4918C134.019 12.6661 133.755 11.9634 133.226 11.3661H135.11L135.638 10.6107ZM129.406 19.3242L131.202 19.6404C131.624 19.7107 131.994 19.7985 132.311 19.8864C133.156 20.1499 133.596 20.6769 133.596 21.5026C133.596 22.1175 133.332 22.6445 132.804 23.0485C132.276 23.4526 131.607 23.6458 130.797 23.6458C129.97 23.6458 129.283 23.435 128.755 22.9958C128.209 22.5566 127.945 22.0121 127.945 21.3445C127.945 20.9229 128.051 20.5891 128.262 20.308C128.438 20.0269 128.825 19.6931 129.406 19.3242ZM130.797 16.0918C130.234 16.0918 129.776 15.8107 129.424 15.2661C129.072 14.7215 128.878 14.0188 128.878 13.1756C128.878 12.4377 129.037 11.8756 129.354 11.4715C129.67 11.0499 130.111 10.8566 130.656 10.8566C131.184 10.8566 131.589 11.1026 131.889 11.5945C132.188 12.0864 132.329 12.7891 132.329 13.6675C132.329 15.2837 131.818 16.0918 130.797 16.0918Z" fill="black"/>
<path d="M13.4318 18.6567L13.467 18.3405L13.7839 18.4283C13.8191 18.4283 17.0582 19.2891 18.6778 17.8486C20.2445 16.4608 20.8078 13.2108 18.801 9.9432C16.8998 6.81617 12.3052 3.58374 11.4074 2.96887C10.5096 3.58374 5.91493 6.81617 4.01371 9.9432C2.00686 13.2108 2.58779 16.4608 4.13693 17.8486C5.75649 19.2891 8.99561 18.4283 9.03082 18.4283L9.34769 18.3405L9.3829 18.6567C9.3829 18.727 9.54134 20.5716 8.18583 22.0648C7.05918 23.2945 5.26359 23.9094 2.86945 23.9094V25.0162C5.59806 25.0162 7.67532 24.2783 9.01322 22.8027C10.6856 20.9756 10.5272 18.7972 10.5096 18.5513L10.3511 16.9351L8.78437 17.3567C8.08021 17.5324 5.87972 17.8837 4.91151 17.0229C3.67923 15.9337 3.29195 13.2635 4.98192 10.5054C6.49586 8.02833 9.91102 5.41076 11.4426 4.30401C12.9741 5.3932 16.3717 8.01076 17.9032 10.5054C19.5932 13.2635 19.2059 15.9337 17.9736 17.0229C17.0054 17.8837 14.8049 17.55 14.1007 17.3567L12.5164 16.9351L12.3756 18.5689C12.358 18.8148 12.1995 20.9932 13.8719 22.8202C15.2098 24.2783 17.2871 25.0337 20.0157 25.0337V23.927C17.6039 23.927 15.8259 23.2945 14.6993 22.0824C13.2734 20.5716 13.4318 18.7445 13.4318 18.6567Z" fill="black"/>
<path d="M19.7692 19.0783C21.8817 17.1986 22.7091 13.1581 20.2093 9.0824C17.9208 5.32294 12.4108 1.63375 12.1643 1.47565L11.4074 0.966187L10.6504 1.47565C10.4215 1.63375 4.89391 5.30538 2.6054 9.06483C0.105644 13.1405 0.933027 17.1811 3.0455 19.0608C4.29537 20.1851 6.03816 20.3783 7.39366 20.3081C7.28804 20.5365 7.1296 20.7473 6.93596 20.9581C6.14379 21.8189 4.77068 22.2405 2.86946 22.2405V23.3473C5.10515 23.3473 6.75992 22.7851 7.78095 21.6783C8.66115 20.7121 8.83718 19.5527 8.85479 19.0081C7.92178 19.2013 5.3164 19.5878 3.80247 18.2175C2.02447 16.6365 1.39073 13.1756 3.57361 9.60943C5.7389 6.06078 11.0729 2.51213 11.2841 2.37159L11.4426 2.26619L11.601 2.37159C11.8298 2.5297 17.1462 6.06078 19.3115 9.60943C21.4944 13.1756 20.8431 16.6365 19.0827 18.2175C17.5687 19.5702 14.9633 19.2013 14.0303 19.0081C14.0479 19.5527 14.224 20.7121 15.1042 21.6783C16.1252 22.7851 17.7624 23.3473 20.0157 23.3473V22.2405C18.1144 22.2405 16.7413 21.8013 15.9492 20.9581C15.7555 20.7473 15.5971 20.5189 15.4915 20.3081C16.7765 20.3959 18.5193 20.2027 19.7692 19.0783Z" fill="black"/>
<path d="M138.279 11.2432H137.416V10.9094H139.511V11.2432H138.648V13.5621H138.279V11.2432Z" fill="black"/>
<path d="M140.127 10.9094H140.673L141.535 12.9297H141.553L142.398 10.9094H142.944V13.5621H142.574V11.3837L141.659 13.5621H141.412L140.497 11.3837V13.5621H140.127V10.9094Z" fill="black"/>
</svg>
