<svg width="40" height="40" viewBox="0 0 40 40" fill="none" xmlns="http://www.w3.org/2000/svg">
<g clip-path="url(#clip0_8665_4808)">
<mask id="mask0_8665_4808" style="mask-type:luminance" maskUnits="userSpaceOnUse" x="0" y="0" width="40" height="40">
<path d="M40 0H0V40H40V0Z" fill="white"/>
</mask>
<g mask="url(#mask0_8665_4808)">
<path fill-rule="evenodd" clip-rule="evenodd" d="M26.2827 29.5795C26.2445 29.6043 26.203 29.6313 26.1312 29.6241C26.1312 29.552 26.1313 29.4798 26.1313 29.4081C26.1315 29.1461 26.1318 28.8873 26.129 28.6296C26.1285 28.5641 26.151 28.521 26.2093 28.4923C26.2338 28.48 26.257 28.4656 26.2802 28.4513C26.2935 28.443 26.307 28.4346 26.3207 28.4266C26.4358 28.3603 26.551 28.2941 26.6663 28.228C26.7812 28.162 26.896 28.096 27.0108 28.0298C27.1185 27.9676 27.1612 27.9485 27.1778 27.916C27.1938 27.8848 27.1855 27.8411 27.1877 27.7348C27.1882 27.7061 27.1877 27.6773 27.1877 27.6486V24.7831C27.1877 24.4366 27.1878 24.0903 27.1878 23.744C27.188 22.4745 27.1883 21.2051 27.1855 19.9356C27.185 19.8126 27.2192 19.7196 27.3013 19.6281C27.5417 19.3603 27.7788 19.0903 28.0162 18.8201C28.1438 18.675 28.2715 18.5296 28.3995 18.3848C28.493 18.279 28.5203 18.2363 28.5587 18.22C28.5968 18.204 28.6457 18.2136 28.7803 18.2136C30.2905 18.2126 31.8012 18.2126 33.3115 18.2128C33.6898 18.2128 34.068 18.2128 34.4463 18.2128C34.5875 18.2128 34.7288 18.2126 34.87 18.2126C35.1525 18.2125 35.4348 18.2121 35.7173 18.2128C35.7875 18.2128 35.8445 18.202 35.8723 18.1266C35.8803 18.1045 35.8937 18.0843 35.9068 18.0641C35.9135 18.0541 35.9202 18.044 35.9262 18.0336L36.292 17.4006C37.4945 15.3196 38.697 13.2387 39.898 11.1567C39.9662 11.0384 40.0002 11.0012 40 10.964C39.9998 10.9273 39.9665 10.8907 39.9003 10.776C39.2673 9.68012 38.6322 8.58514 37.9973 7.49032C37.8512 7.23854 37.7052 6.98675 37.5592 6.73497C37.5482 6.71599 37.538 6.69565 37.528 6.67525C37.5015 6.62232 37.475 6.56897 37.4325 6.53785C37.383 6.50129 37.3172 6.50745 37.2522 6.51354C37.2278 6.51582 37.2035 6.51809 37.1802 6.51809C34.3362 6.5172 31.4927 6.5163 28.6487 6.51944C28.493 6.51944 28.3592 6.48622 28.2232 6.40719C25.5478 4.8583 22.8702 3.313 20.1927 1.76769C20.1755 1.75785 20.1573 1.74605 20.14 1.73464C20.088 1.70074 20.0348 1.66596 19.983 1.66664C19.9322 1.66695 19.8812 1.70125 19.8308 1.73512C19.8122 1.74765 19.7935 1.76012 19.7752 1.7708C19.4762 1.94397 19.1772 2.11714 18.8782 2.2903C16.514 3.65942 14.1499 5.02857 11.7878 6.4009C11.6455 6.48352 11.5063 6.51944 11.3424 6.51944C8.49127 6.51585 5.64055 6.51675 2.78938 6.51765C2.65212 6.51765 2.60072 6.50789 2.56653 6.52774C2.53197 6.54782 2.515 6.59822 2.44455 6.7197C1.66014 8.07254 0.877085 9.42629 0.0944753 10.7805C0.0310492 10.89 -0.000278027 10.9297 1.85878e-06 10.9693C0.000286657 11.0096 0.0332975 11.0496 0.0985162 11.1626C1.41813 13.4489 2.7382 15.7352 4.05962 18.0206C4.12395 18.1316 4.13938 18.1793 4.17177 18.199C4.20448 18.219 4.2545 18.2106 4.38963 18.2106C5.54737 18.2113 6.70483 18.2111 7.86245 18.2111C8.24878 18.211 8.63515 18.211 9.02153 18.211C9.14463 18.211 9.26773 18.211 9.39085 18.211C10.0074 18.211 10.6241 18.2108 11.2405 18.2123C11.3557 18.2126 11.4003 18.2053 11.4357 18.2201C11.4724 18.2355 11.4991 18.2748 11.5844 18.3713C11.7034 18.506 11.8217 18.6411 11.94 18.7761C12.1812 19.0516 12.4223 19.3271 12.6688 19.598C12.7729 19.713 12.8124 19.8278 12.812 19.9818C12.8083 22.059 12.8086 24.1363 12.8088 26.2136C12.8088 26.693 12.8089 27.1721 12.8089 27.6513C12.8089 27.6666 12.8093 27.6821 12.8098 27.6975C12.8108 27.7326 12.8119 27.7678 12.8075 27.8021C12.7958 27.8928 12.8282 27.9511 12.9121 27.9898C12.9619 28.013 13.009 28.0416 13.0561 28.0701C13.0766 28.0826 13.0971 28.095 13.1178 28.107C13.1804 28.1431 13.243 28.1793 13.3055 28.2156C13.4602 28.3051 13.615 28.3948 13.7706 28.4823C13.8254 28.5133 13.8604 28.547 13.86 28.6145C13.8593 28.7603 13.8593 28.9061 13.8592 29.052C13.8592 29.222 13.8591 29.3921 13.8582 29.5623C13.8582 29.6283 13.825 29.6416 13.7576 29.6035C13.6302 29.5313 13.5033 29.4586 13.3764 29.386C13.2917 29.3375 13.2071 29.2891 13.1223 29.2408C13.1175 29.238 13.1127 29.2353 13.1079 29.2326C13.0754 29.214 13.0426 29.1953 13.0078 29.1823C12.9925 29.177 12.9629 29.1851 12.9512 29.1976C12.9312 29.2186 12.9162 29.2443 12.9012 29.2698C12.898 29.2751 12.8947 29.2806 12.8915 29.2861C12.315 30.2456 11.7389 31.2051 11.1628 32.1646C11.1593 32.1705 11.1553 32.1763 11.1514 32.1823C11.1319 32.2111 11.1117 32.2413 11.1296 32.289C11.1446 32.298 11.1601 32.3075 11.1761 32.3173C11.2118 32.3391 11.2496 32.3621 11.2881 32.3841C12.0548 32.826 12.8215 33.2676 13.5882 33.7093C15.6622 34.9041 17.736 36.099 19.8102 37.2936C19.9135 37.353 19.952 37.3855 19.992 37.3873C20.0332 37.3891 20.0757 37.3585 20.1927 37.291C21.2775 36.6665 22.362 36.0416 23.4467 35.4168C23.8475 35.1858 24.2485 34.955 24.6495 34.724L28.6958 32.3928C28.7515 32.3605 28.8072 32.3276 28.8615 32.2926C28.8805 32.281 28.8877 32.2571 28.8763 32.2365C28.853 32.1925 28.8275 32.1493 28.8013 32.1063C28.4575 31.5346 28.1135 30.9631 27.7695 30.3916C27.5547 30.035 27.34 29.6783 27.1253 29.3216C27.1068 29.2906 27.0898 29.2591 27.07 29.2291C27.0297 29.168 27.0117 29.1621 26.948 29.1985C26.8567 29.2501 26.7658 29.3025 26.6748 29.3546C26.5543 29.4238 26.4338 29.4931 26.3127 29.5608C26.3025 29.5665 26.2927 29.5728 26.2827 29.5795ZM18.1938 3.6265C18.2062 3.80332 18.2043 3.98052 18.2025 4.15772C18.2017 4.24379 18.2007 4.32984 18.2015 4.41585C18.203 4.5999 18.2027 4.78394 18.2022 4.96782L18.2018 5.21284V6.00982V6.80679V7.60377V8.38817C18.2472 8.41274 18.2748 8.39564 18.3003 8.37977L18.3132 8.37202C18.391 8.32727 18.4685 8.28205 18.5458 8.23682C18.6787 8.15922 18.8125 8.08115 18.9468 8.00607C19.0232 7.96342 19.073 7.91717 19.0582 7.82154C19.0528 7.78784 19.0542 7.75305 19.0555 7.71825C19.0562 7.70255 19.0568 7.68674 19.0568 7.67112L19.0567 6.5821C19.0565 5.49455 19.0563 4.40662 19.0577 3.31939C19.0578 3.2786 19.057 3.2456 19.0563 3.21852C19.0547 3.15507 19.054 3.12412 19.0673 3.10147C19.08 3.07989 19.1055 3.06585 19.1553 3.03844C19.179 3.0254 19.2082 3.00935 19.244 2.98804C19.3502 2.92489 19.4572 2.86317 19.564 2.80147C19.6745 2.73767 19.785 2.6739 19.8947 2.60862C19.9615 2.56867 20.0172 2.55744 20.0903 2.60144C20.324 2.7422 20.5612 2.87717 20.7982 3.01209L20.8537 3.0437C20.9157 3.07917 20.9515 3.12184 20.943 3.19772C20.9393 3.23197 20.9403 3.26665 20.9413 3.30134C20.9417 3.3171 20.9422 3.33287 20.9422 3.34859V4.44102C20.942 5.53435 20.942 6.6284 20.9427 7.72185C20.9427 7.75805 20.942 7.78797 20.9415 7.81302C20.94 7.87635 20.9393 7.90867 20.9528 7.93302C20.967 7.95842 20.9967 7.97517 21.0573 8.00937C21.0785 8.02132 21.1035 8.03542 21.133 8.05277C21.3058 8.15469 21.4797 8.25572 21.6543 8.35495C21.6615 8.35905 21.6685 8.36384 21.6757 8.36874C21.7037 8.38795 21.7338 8.4086 21.7853 8.39357C21.7928 8.29889 21.7918 8.20115 21.7908 8.1028C21.7905 8.05984 21.79 8.01675 21.7903 7.97375C21.7913 7.8711 21.7912 7.76845 21.7908 7.6658V7.5427V7.0901V6.65907V6.22802V5.79699V5.36594V4.9349V4.4823L21.7907 4.33862C21.7905 4.24284 21.7905 4.14705 21.7908 4.05127C21.7908 4.00382 21.7908 3.95635 21.7907 3.90922V3.9075C21.7903 3.81444 21.79 3.72222 21.7922 3.63414C21.8422 3.611 21.8698 3.62894 21.8945 3.64499L21.9067 3.65255C22.081 3.75297 22.2555 3.8537 22.4298 3.95447C22.802 4.16942 23.1743 4.3847 23.5482 4.5968C23.6415 4.64979 23.6735 4.7122 23.6735 4.81772C23.6708 6.19214 23.671 7.56625 23.6712 8.94057V8.9436V9.8591C23.6712 9.88784 23.6707 9.91659 23.6703 9.94532C23.6693 9.98617 23.6528 10.0136 23.6083 10.0145C23.558 10.0158 23.5077 10.0163 23.4575 10.0163L21.1523 10.0164H21.1432C19.6093 10.0165 18.0757 10.0166 16.5419 10.0163C16.5171 10.0163 16.495 10.0165 16.4755 10.0168C16.3976 10.0177 16.3587 10.0182 16.3396 9.99904C16.3205 9.97994 16.3209 9.94135 16.3219 9.86437C16.3221 9.84542 16.3224 9.82415 16.3224 9.80029C16.3219 8.15559 16.3219 6.51135 16.3224 4.86665L16.3222 4.8189C16.3217 4.74027 16.3215 4.70327 16.338 4.67657C16.3526 4.65287 16.3804 4.63729 16.4328 4.60787L16.4809 4.58064L16.728 4.43769C17.161 4.18714 17.5938 3.93664 18.0282 3.68802C18.0397 3.6819 18.0508 3.67457 18.0622 3.6671C18.0983 3.64337 18.1365 3.61832 18.1938 3.6265ZM13.5911 18.4925L13.5888 18.399C13.5874 18.3456 13.5861 18.2961 13.5861 18.247C13.5858 16.0888 13.5859 13.9307 13.586 11.7725V11.7708L13.5861 8.53182V6.46372C13.5861 6.4136 13.5866 6.36349 13.587 6.31339C13.5875 6.27432 13.6041 6.2446 13.6378 6.22485L13.7118 6.18129L13.9519 6.04257C14.4121 5.77669 14.8724 5.5107 15.3336 5.24602C15.3417 5.24135 15.3496 5.23575 15.3576 5.23007C15.3843 5.21117 15.4121 5.19142 15.4522 5.20247C15.4787 5.22455 15.4764 5.2533 15.474 5.282C15.4731 5.29414 15.4721 5.30625 15.4733 5.31787C15.4758 5.34269 15.4752 5.36797 15.4747 5.39322L15.4742 5.42562L15.474 6.92697V6.93215C15.4738 8.18199 15.4737 9.4318 15.4746 10.6816C15.4747 10.7225 15.474 10.7575 15.4735 10.7874C15.4718 10.8772 15.471 10.9218 15.4925 10.9428C15.5132 10.963 15.5545 10.962 15.6354 10.9601C15.665 10.9594 15.7001 10.9586 15.7413 10.9587C18.5848 10.96 21.428 10.9596 24.2715 10.9591C24.305 10.9591 24.3342 10.9596 24.3595 10.96C24.446 10.9614 24.489 10.9621 24.5097 10.9411C24.53 10.9205 24.5293 10.8793 24.5278 10.7977C24.5275 10.7732 24.527 10.7449 24.527 10.7126C24.5277 9.39439 24.5275 8.07617 24.5275 6.75794L24.5273 5.43505V5.211C24.5802 5.1892 24.6113 5.21062 24.6397 5.23007C24.6463 5.23464 24.6528 5.23912 24.6593 5.24289C25.1252 5.51034 25.5902 5.77945 26.0552 6.04852L26.2808 6.17905L26.2963 6.18812C26.316 6.19949 26.3357 6.2109 26.3548 6.2226C26.3948 6.24685 26.4155 6.28052 26.4137 6.32902C26.4125 6.36254 26.4128 6.39607 26.4133 6.42959L26.4137 6.47989V18.2626V18.466C26.3737 18.4928 26.3487 18.4788 26.3245 18.4651L26.323 18.4641L25.8217 18.1751C25.4235 17.9453 25.0253 17.7156 24.6262 17.4871C24.5557 17.4468 24.5185 17.4001 24.527 17.3175C24.5303 17.2831 24.5295 17.2483 24.5287 17.2135C24.5282 17.1978 24.5278 17.1821 24.5278 17.1666V15.913C24.528 14.6578 24.528 13.4027 24.5273 12.1476C24.5273 12.1152 24.528 12.087 24.5283 12.0626C24.5298 11.9839 24.5305 11.9442 24.511 11.9243C24.491 11.9041 24.45 11.9047 24.367 11.9058C24.3445 11.9062 24.319 11.9065 24.2898 11.9065H24.2882H24.2863H24.2845H24.2827H24.281C21.4263 11.9061 18.5713 11.9056 15.7166 11.9065C15.6826 11.9065 15.6533 11.906 15.628 11.9055C15.5492 11.904 15.5098 11.9032 15.4905 11.9225C15.4713 11.9418 15.472 11.981 15.4733 12.0592C15.4737 12.0828 15.4742 12.1102 15.4742 12.1414C15.4737 12.985 15.4737 13.8287 15.4737 14.6724C15.4737 15.516 15.4737 16.3597 15.4733 17.2035C15.4733 17.2415 15.4741 17.2728 15.4748 17.2986C15.4765 17.3611 15.4773 17.3931 15.4639 17.4173C15.4498 17.4428 15.4199 17.4596 15.3583 17.494C15.3377 17.5055 15.3135 17.5191 15.2851 17.5356C14.8672 17.779 14.4483 18.0198 14.0295 18.2608L14.0279 18.2616L14.0263 18.2626L14.0248 18.2635L14.0232 18.2643L13.7945 18.396C13.7809 18.4035 13.7675 18.4115 13.754 18.4195C13.7064 18.4478 13.6572 18.4771 13.5911 18.4925ZM2.03962 12.7613L1.96733 12.7633C1.9684 12.8293 1.997 12.8741 2.02448 12.9171C2.03138 12.9279 2.03825 12.9387 2.04457 12.9496C2.3409 13.4655 2.63903 13.981 2.93763 14.496C2.95373 14.5238 2.96715 14.5478 2.9787 14.5685C3.01592 14.6351 3.03407 14.6676 3.06165 14.6829C3.08778 14.6974 3.12242 14.6966 3.18985 14.6949C3.2164 14.6943 3.24832 14.6935 3.2865 14.6935C5.13758 14.6942 6.9884 14.6941 8.83935 14.694L10.6959 14.694L10.7337 14.6941C10.7714 14.6942 10.8091 14.6944 10.8468 14.6931C10.9361 14.6895 10.9474 14.6787 10.9505 14.5943C10.9518 14.5591 10.9515 14.5239 10.9512 14.4887L10.951 14.4434L10.951 13.3997C10.9511 12.3548 10.9512 11.3099 10.9505 10.265C10.9505 10.2342 10.9509 10.2072 10.9513 10.1835C10.9526 10.1004 10.9533 10.0583 10.9326 10.0372C10.9112 10.0155 10.8671 10.0161 10.7776 10.0173C10.7534 10.0177 10.7259 10.0181 10.6946 10.0181C8.43835 10.0174 6.18212 10.0175 3.92588 10.0176L1.66965 10.0176C1.65815 10.0176 1.64661 10.018 1.63507 10.0183C1.61054 10.0191 1.586 10.0199 1.56188 10.0172C1.48196 10.0082 1.42988 10.0351 1.38857 10.1092C1.24578 10.366 1.09806 10.6206 0.948098 10.8734C0.910382 10.9372 0.909035 10.9879 0.9472 11.0517C1.0155 11.1659 1.08165 11.2814 1.1478 11.3969C1.20646 11.4993 1.26511 11.6017 1.32526 11.7032C1.34699 11.7399 1.36389 11.7702 1.37779 11.7951C1.41125 11.855 1.42737 11.8839 1.45192 11.8972C1.47473 11.9096 1.50482 11.9085 1.56286 11.9065C1.59116 11.9055 1.6261 11.9043 1.6701 11.9043C3.54613 11.9054 5.42245 11.9053 7.29883 11.9053H7.30293L8.71313 11.9052L8.76342 11.905C8.79695 11.9048 8.83047 11.9046 8.864 11.9052C8.9865 11.9074 8.98793 11.9075 8.98927 12.0211C8.99062 12.1643 8.99107 12.308 8.98927 12.4516C8.98875 12.4979 8.98915 12.5373 8.98948 12.5709C8.99047 12.6682 8.99097 12.7164 8.96713 12.7397C8.94382 12.7624 8.8972 12.7613 8.80498 12.7591C8.77073 12.7583 8.73013 12.7574 8.68215 12.7574C7.33162 12.7583 5.98108 12.7582 4.63055 12.7582L2.19902 12.7583C2.14627 12.7583 2.09325 12.7598 2.03962 12.7613ZM38.0317 12.7578C38.025 12.832 37.9978 12.875 37.973 12.9143C37.967 12.9238 37.9612 12.933 37.9557 12.9424C37.7373 13.3221 37.5182 13.7014 37.299 14.0807L37.2982 14.0821L37.2952 14.0872L37.2942 14.0891L37.0415 14.5264C37.0355 14.5368 37.0293 14.5469 37.023 14.5571C37.0103 14.5775 36.9978 14.5978 36.9877 14.6194C36.9588 14.6805 36.9105 14.698 36.8472 14.6939C36.8175 14.6921 36.7878 14.6926 36.7582 14.693L36.7178 14.6935C34.2407 14.6935 31.763 14.6935 29.286 14.693C29.2605 14.693 29.2378 14.6933 29.2175 14.6935C29.1317 14.6945 29.089 14.6949 29.0678 14.6738C29.0468 14.6527 29.0473 14.6101 29.0483 14.525L29.0488 14.4814V14.4479C29.048 13.0479 29.0483 11.6474 29.0488 10.2475L29.0485 10.1838C29.0477 10.0968 29.0473 10.0544 29.0682 10.034C29.0882 10.0146 29.1277 10.0153 29.2045 10.0164C29.2258 10.0167 29.25 10.0171 29.2773 10.0171C32.3005 10.0167 35.3232 10.0167 38.3463 10.0167C38.3575 10.0167 38.3687 10.0171 38.3798 10.0174C38.4047 10.0183 38.4297 10.0192 38.4542 10.0158C38.5308 10.005 38.5713 10.0454 38.6063 10.1065C38.755 10.3687 38.9053 10.6296 39.0575 10.8895C39.0858 10.938 39.0917 10.9766 39.0617 11.0274C38.9053 11.2932 38.7508 11.5603 38.5992 11.8288C38.5663 11.8872 38.5242 11.9083 38.46 11.9043C38.42 11.9018 38.3797 11.9023 38.3393 11.9029L38.2875 11.9034L36.5282 11.9033C34.7667 11.9032 33.005 11.9031 31.2435 11.9038C31.2145 11.9038 31.189 11.9035 31.1665 11.9032C31.0822 11.902 31.0403 11.9014 31.0198 11.922C30.9997 11.9422 31.0002 11.9828 31.0008 12.0632C31.001 12.0863 31.0013 12.1126 31.0012 12.1427C31.0005 12.2337 31.0007 12.3247 31.0008 12.4157L31.0012 12.5522L31.001 12.5923C31.0005 12.6715 31.0003 12.7129 31.0208 12.7345C31.0435 12.7582 31.0913 12.7578 31.1915 12.7571L31.2162 12.7569H31.324H37.7865C37.8642 12.7578 37.9427 12.7578 38.0317 12.7578ZM13.3013 30.262L13.2605 30.2393C13.206 30.2696 13.182 30.3155 13.1591 30.3591C13.1522 30.3721 13.1454 30.3851 13.138 30.3973L13.0272 30.5811C12.7867 30.9805 12.5455 31.3805 12.3082 31.7816C12.2868 31.818 12.268 31.8475 12.2524 31.872C12.2163 31.9288 12.1975 31.9583 12.203 31.9823C12.209 32.0085 12.2439 32.028 12.3167 32.0686L12.335 32.079L12.3855 32.1076C14.8635 33.539 17.3415 34.9695 19.8205 36.3991C19.8513 36.417 19.8762 36.4323 19.8967 36.445C19.9435 36.4741 19.9685 36.4895 19.9938 36.4903C20.0225 36.4913 20.0518 36.4738 20.1142 36.4366C20.1333 36.4251 20.1558 36.4118 20.1823 36.3965C22.1827 35.2425 24.183 34.0881 26.1828 32.9338C26.6983 32.6365 27.2137 32.3383 27.7287 32.0398C27.8078 31.994 27.81 31.9841 27.7647 31.9081C27.4482 31.3788 27.1307 30.85 26.8132 30.321C26.8012 30.3008 26.7862 30.2821 26.7705 30.2626C26.7628 30.2531 26.755 30.2431 26.7472 30.233L26.6482 30.2886C26.5975 30.317 26.5477 30.345 26.4985 30.3731L24.4012 31.5816L24.3882 31.589C22.9913 32.394 21.5945 33.199 20.1972 34.0033C20.161 34.0241 20.132 34.0418 20.1082 34.0565C20.0532 34.0903 20.0257 34.1071 19.9983 34.1071C19.971 34.107 19.9437 34.0903 19.8892 34.0568C19.8647 34.0416 19.8347 34.0233 19.7967 34.0015C18.3588 33.1741 16.9215 32.346 15.4842 31.5176L15.4816 31.5161L15.4789 31.5146L13.4581 30.3501C13.4059 30.32 13.3519 30.2901 13.3013 30.262ZM23.6712 25.51C23.6283 25.5291 23.605 25.5156 23.5813 25.502L23.5773 25.4996L23.3975 25.3955C22.8988 25.1068 22.4 24.8181 21.8998 24.5316C21.8302 24.4916 21.792 24.445 21.7997 24.3623C21.8028 24.3278 21.802 24.2928 21.8013 24.258L21.8007 24.2283V24.2115V22.9255C21.8007 21.638 21.8008 20.3501 21.8002 19.0628C21.8002 19.0245 21.801 18.9935 21.8018 18.9676C21.8035 18.9091 21.8045 18.8786 21.7918 18.8553C21.7782 18.8298 21.748 18.813 21.685 18.7776C21.6632 18.7653 21.6375 18.751 21.6072 18.7331C21.388 18.605 21.1682 18.478 20.9482 18.351C20.6712 18.191 20.394 18.0308 20.1182 17.8685C20.0333 17.8186 19.9705 17.8171 19.8843 17.868C19.3715 18.1706 18.8573 18.4705 18.3378 18.7615C18.2243 18.8253 18.1997 18.9011 18.2 19.0191C18.2028 19.7636 18.2027 20.508 18.2025 21.2525L18.2023 21.8628V24.2325L18.202 24.3015C18.2018 24.336 18.2015 24.3705 18.2018 24.405C18.2023 24.4526 18.1835 24.4866 18.1398 24.5078C18.1198 24.5176 18.1005 24.5291 18.081 24.5405L18.0648 24.55L16.4822 25.4668L16.4624 25.4785C16.4381 25.493 16.4137 25.5075 16.3879 25.518C16.3565 25.5311 16.3304 25.5158 16.3273 25.4826C16.3232 25.4415 16.3234 25.4001 16.3236 25.3588L16.3237 25.3321V18.115L16.3236 18.0725C16.3232 17.9853 16.3231 17.9475 16.3406 17.9215C16.3541 17.9013 16.3781 17.8883 16.4205 17.8653C16.4381 17.8558 16.4589 17.8445 16.4835 17.8303C17.0728 17.4888 17.6633 17.1486 18.2537 16.8085L18.7762 16.5075L18.8005 16.4935C18.8237 16.4804 18.8467 16.4673 18.8687 16.4527C18.9172 16.4208 18.9612 16.4284 19.0087 16.4572C19.0842 16.5019 19.1602 16.5454 19.2363 16.5889C19.2787 16.613 19.3208 16.6371 19.363 16.6615L19.5125 16.7475C19.643 16.8225 19.7737 16.8973 19.9022 16.9753C19.9713 17.0171 20.0288 17.0175 20.0988 16.9758C20.2922 16.8611 20.4873 16.7491 20.6823 16.6371L20.881 16.5227C20.8918 16.5165 20.9028 16.5108 20.914 16.5052C20.9352 16.4944 20.9562 16.4837 20.9745 16.4693C21.0422 16.4145 21.1055 16.4275 21.1702 16.4738C21.1862 16.4852 21.2035 16.4947 21.2207 16.5041L21.2443 16.5173L21.848 16.8655L21.8545 16.8693C22.403 17.1856 22.9515 17.502 23.5 17.8181L23.5227 17.8318C23.5397 17.8421 23.5565 17.8526 23.5747 17.8608C23.646 17.894 23.6873 17.943 23.6778 18.0273C23.6745 18.0568 23.6753 18.0866 23.6762 18.1165C23.6767 18.1298 23.677 18.1433 23.677 18.1566V18.1816C23.677 20.5503 23.677 22.919 23.6765 25.2876C23.6763 25.3346 23.6748 25.3816 23.6733 25.4268C23.6725 25.4555 23.6717 25.4833 23.6712 25.51ZM20.9452 30.3788V24.9746C20.9447 23.1805 20.9447 21.3863 20.9452 19.5916C20.9452 19.5275 20.9452 19.4626 20.943 19.3981C20.9417 19.3568 20.9183 19.3321 20.8765 19.3303C20.8195 19.328 20.7622 19.328 20.7047 19.328L20.2843 19.3278C19.9578 19.3275 19.6315 19.3271 19.305 19.3285C19.2722 19.3286 19.2435 19.3281 19.2187 19.3278C19.137 19.3266 19.0955 19.326 19.0745 19.3465C19.053 19.3676 19.0535 19.4116 19.0547 19.501C19.055 19.5245 19.0553 19.5511 19.0553 19.5813C19.0548 23.184 19.0548 26.7868 19.0548 30.3896C19.0548 30.405 19.0552 30.4203 19.0555 30.4356C19.0562 30.4706 19.0568 30.5058 19.054 30.5405C19.0487 30.6065 19.0765 30.6446 19.1335 30.677C19.3957 30.8251 19.6562 30.976 19.9157 31.1286C19.9695 31.1606 20.013 31.1691 20.0728 31.1336C20.3313 30.9796 20.5932 30.8305 20.855 30.682C20.9165 30.647 20.955 30.606 20.9462 30.5293C20.9422 30.4955 20.9432 30.461 20.9442 30.4263C20.9447 30.4105 20.9452 30.3946 20.9452 30.3788ZM15.467 28.5205C15.416 28.5323 15.3879 28.5145 15.3626 28.4983L15.3498 28.4903C15.1701 28.387 14.9907 28.2831 14.8113 28.1795C14.4446 27.9675 14.078 27.7555 13.7096 27.5465C13.6157 27.4936 13.5834 27.4316 13.5838 27.3256C13.5867 26.593 13.5864 25.8606 13.5862 25.1283L13.5861 24.527L13.586 23.3268V23.3231C13.5858 22.1241 13.5856 20.9251 13.587 19.7263C13.5871 19.6838 13.586 19.65 13.5851 19.6225C13.5833 19.5646 13.5824 19.5353 13.5947 19.5131C13.6076 19.4903 13.6347 19.4753 13.6902 19.4448C13.7134 19.432 13.7418 19.4163 13.776 19.3963C14.2771 19.1031 14.7791 18.8111 15.282 18.5211C15.295 18.5136 15.3076 18.505 15.3203 18.4963C15.36 18.4693 15.4005 18.4418 15.4535 18.4453C15.4809 18.642 15.4926 27.8905 15.467 28.5205ZM24.6608 18.4888C24.6273 18.4663 24.5915 18.4423 24.53 18.4521C24.53 21.8056 24.53 25.1521 24.5305 28.4976C24.5305 28.5048 24.5305 28.5138 24.5345 28.5183C24.5372 28.5213 24.542 28.5225 24.5487 28.5241C24.552 28.525 24.5558 28.526 24.5602 28.5273C24.6102 28.5183 24.6538 28.4903 24.6978 28.4621C24.7132 28.4523 24.7287 28.4425 24.7442 28.4335L24.8507 28.3725C25.3068 28.111 25.763 27.8493 26.217 27.584C26.2488 27.5653 26.2755 27.5505 26.298 27.538C26.3578 27.5046 26.3877 27.4881 26.4022 27.4628C26.4165 27.4375 26.4155 27.4036 26.4138 27.3361C26.4132 27.3083 26.4123 27.2748 26.4123 27.2336C26.413 25.3593 26.4128 23.4845 26.4128 21.6096L26.4127 19.7366C26.4127 19.7208 26.4125 19.705 26.4122 19.689C26.4117 19.6545 26.411 19.62 26.4132 19.5858C26.4172 19.528 26.3893 19.4916 26.3418 19.4655C26.327 19.4573 26.3125 19.4485 26.298 19.4396L26.2677 19.4215L25.7402 19.1155C25.3888 18.9116 25.0367 18.7073 24.685 18.5041C24.6768 18.4995 24.6688 18.4941 24.6608 18.4888ZM1.9394 9.16445L1.9828 9.08567C1.997 9.0597 2.00797 9.03962 2.01933 9.01987C2.32375 8.49185 2.62862 7.96382 2.9335 7.43625L2.94318 7.41957C2.958 7.39414 2.97285 7.36864 2.98648 7.34285C3.00533 7.30784 3.03542 7.29167 3.07358 7.29032C3.1113 7.28897 3.14902 7.28914 3.18673 7.2893L3.22445 7.28942H10.7192L10.7772 7.28915C10.8689 7.28849 10.9129 7.28817 10.9336 7.30997C10.9527 7.33004 10.9522 7.36884 10.951 7.44335C10.9507 7.46482 10.9504 7.48927 10.9504 7.51707C10.9514 7.85545 10.9512 8.19382 10.951 8.53237L10.9509 8.9386L10.9504 9.01404L10.95 9.08947C10.9504 9.14515 10.9167 9.1631 10.8682 9.164C10.8251 9.1649 10.782 9.1649 10.7389 9.1649H2.14595C2.08892 9.16445 2.0319 9.16445 1.9394 9.16445ZM37.9105 9.16537C37.9492 9.1679 37.9897 9.17057 38.0302 9.14064C38.0282 9.09682 38.0045 9.06044 37.9813 9.02454C37.9743 9.01372 37.9673 9.00294 37.961 8.99202L37.8122 8.73254C37.5765 8.32149 37.3408 7.91055 37.1012 7.50179C37.0775 7.46134 37.0597 7.42844 37.0452 7.4017C37.0143 7.3449 36.9985 7.31584 36.9742 7.3014C36.9487 7.28635 36.9138 7.28717 36.8427 7.28885C36.8147 7.2895 36.7808 7.2903 36.7398 7.2903C34.8768 7.28962 33.0143 7.2897 31.1518 7.28979L29.2903 7.28985C29.2257 7.28985 29.161 7.28985 29.0968 7.29524C29.0812 7.29659 29.061 7.31724 29.0537 7.33385C29.0475 7.34795 29.0482 7.3652 29.0488 7.3822L29.0493 7.3976V9.05532L29.0488 9.07122C29.0482 9.08805 29.0475 9.10512 29.0533 9.11909C29.0605 9.1357 29.0793 9.1559 29.0955 9.1586C29.1328 9.16462 29.1717 9.16454 29.2103 9.16445L29.224 9.16444C32.1088 9.16489 34.994 9.16489 37.8788 9.16399C37.8892 9.16399 37.8998 9.16467 37.9105 9.16537ZM3.58863 15.5399H3.7844L5.51312 15.5399C7.2398 15.5398 8.9665 15.5397 10.6932 15.5404C10.7226 15.5404 10.7487 15.5401 10.7719 15.5398C10.865 15.5387 10.9102 15.5382 10.9319 15.5605C10.9524 15.5816 10.9518 15.6232 10.9507 15.704C10.9503 15.7281 10.9499 15.7557 10.95 15.7873C10.951 16.1306 10.9508 16.4736 10.9506 16.8166L10.9505 17.2295V17.2385C10.9505 17.2858 10.9505 17.333 10.9442 17.3795C10.9419 17.3948 10.9181 17.4171 10.9024 17.419C10.8458 17.4253 10.7879 17.4258 10.7309 17.4258C10.1666 17.426 9.60218 17.426 9.03778 17.4258H8.19135H4.87682C4.8612 17.4258 4.84553 17.4253 4.82988 17.425C4.79515 17.4241 4.76045 17.4233 4.7264 17.4266C4.65097 17.4338 4.6101 17.3983 4.57418 17.336C4.3821 17.0011 4.18907 16.667 3.99602 16.3329C3.86282 16.1023 3.72962 15.8717 3.59672 15.6409C3.58255 15.6175 3.56657 15.5911 3.58863 15.5399ZM33.6355 15.5399L32.7577 15.5398H29.2895C29.232 15.5398 29.1747 15.5402 29.1172 15.5416C29.074 15.5425 29.0525 15.5685 29.0502 15.6089C29.0482 15.6466 29.0485 15.6844 29.0487 15.7221L29.0488 15.7598V16.1211C29.0487 16.4817 29.0487 16.8425 29.0493 17.203L29.0492 17.2401L29.0488 17.272C29.048 17.3496 29.0475 17.3885 29.0667 17.4076C29.0858 17.4268 29.1247 17.4265 29.202 17.4256L29.2627 17.4251H35.1647L35.184 17.425L35.2057 17.4246C35.2352 17.424 35.2648 17.4235 35.294 17.4256C35.3523 17.4296 35.3875 17.4005 35.4122 17.3525C35.4205 17.336 35.4295 17.3203 35.4387 17.3043L35.4435 17.2958L35.7523 16.7618C35.958 16.4059 36.1638 16.0498 36.3703 15.6942C36.4557 15.547 36.4368 15.5389 36.2688 15.5389C35.391 15.5402 34.5132 15.5401 33.6355 15.5399ZM25.3577 29.1118L25.3575 29.325C25.3575 29.5386 25.3573 29.7536 25.358 29.969C25.358 30.017 25.3397 30.0516 25.2992 30.075L25.2338 30.1123L25.1687 30.1495L20.1757 33.0335C20.1697 33.037 20.1635 33.0401 20.1572 33.0435C20.1442 33.0503 20.1312 33.0571 20.12 33.0661C20.0338 33.1376 19.9557 33.1146 19.8663 33.0626C19.17 32.6578 18.4723 32.255 17.7748 31.8525L17.7723 31.851L17.166 31.501L16.5501 31.1456L16.548 31.1445C15.984 30.8193 15.4187 30.4935 14.8564 30.1661C14.8158 30.1425 14.7824 30.1241 14.755 30.1091C14.6905 30.074 14.659 30.0565 14.644 30.03C14.6297 30.0045 14.6304 29.9706 14.6319 29.9041C14.6327 29.869 14.6337 29.8248 14.6328 29.7678C14.6299 29.5966 14.6312 29.4258 14.6324 29.2548L14.6328 29.208C14.6336 29.08 14.6476 29.0731 14.7679 29.1396C14.8056 29.1603 14.8433 29.181 14.8806 29.2025C16.5141 30.1455 18.1475 31.0883 19.7805 32.0316L19.7962 32.0403L19.8048 32.0448C19.8222 32.0538 19.8398 32.0631 19.8547 32.0753C19.9517 32.1538 20.0378 32.1381 20.1438 32.0766C21.3403 31.3821 22.5387 30.6908 23.7372 29.9995L23.7387 29.9986L24.4282 29.6008L25.2485 29.1285L25.2575 29.123C25.2787 29.1098 25.3018 29.0953 25.3577 29.1118ZM27.2592 11.2006L27.259 12.6033V18.2261C27.259 18.2908 27.2603 18.3555 27.264 18.4196C27.2645 18.4251 27.2878 18.435 27.299 18.4331C27.3112 18.4313 27.3242 18.4206 27.3332 18.4103L27.6092 18.096C27.7872 17.8933 27.965 17.6905 28.1437 17.488C28.1787 17.4481 28.1965 17.4055 28.1943 17.352C28.1928 17.3171 28.1932 17.2823 28.1935 17.2475L28.1938 17.2011V7.5287C28.1938 7.51559 28.1935 7.50242 28.1933 7.48927C28.1927 7.45917 28.192 7.42907 28.1948 7.39939C28.202 7.31902 28.1723 7.26784 28.0997 7.22787C27.9413 7.14034 27.7852 7.04914 27.629 6.95785L27.4845 6.8736L27.4503 6.85369C27.3555 6.7984 27.3077 6.77039 27.2833 6.78415C27.2583 6.7983 27.2585 6.85652 27.2587 6.97454V7.00247C27.2593 8.40185 27.2592 9.80125 27.2592 11.2006ZM12.7145 18.4691L12.5907 18.328L12.4667 18.1866L12.3095 18.0063C12.1688 17.8446 12.028 17.6825 11.8843 17.5235C11.8273 17.4606 11.7955 17.397 11.8031 17.312C11.8058 17.283 11.805 17.2536 11.8043 17.2241C11.8039 17.2103 11.8035 17.1965 11.8035 17.1826L11.8035 15.2515V15.2461C11.8034 12.6765 11.8034 10.1069 11.8044 7.53724C11.8044 7.49329 11.8036 7.45722 11.803 7.42729C11.8013 7.34975 11.8005 7.31334 11.8166 7.28739C11.8308 7.26442 11.8583 7.24964 11.9101 7.22177C11.9391 7.20614 11.9758 7.18637 12.0222 7.15874C12.145 7.08544 12.269 7.01442 12.3931 6.94337C12.4681 6.90039 12.5432 6.8574 12.618 6.8139C12.6232 6.81094 12.6282 6.80772 12.6333 6.80452C12.6581 6.78875 12.6826 6.77324 12.7155 6.78965C12.7365 6.95309 12.7401 18.2128 12.7145 18.4691ZM21.7917 25.7076V27.7973C21.7917 28.4936 21.7917 29.1901 21.7922 29.886C21.7922 29.943 21.7922 30.001 21.7957 30.058C21.7975 30.0926 21.8203 30.1073 21.8537 30.0966C21.8715 30.091 21.8885 30.0808 21.9053 30.071L21.9107 30.0678L22.3082 29.8383C22.7282 29.5956 23.149 29.3521 23.5707 29.1123C23.6513 29.0666 23.6748 29.0123 23.6743 28.9233C23.6712 28.169 23.6712 27.4151 23.6748 26.6613C23.6752 26.5701 23.6455 26.5198 23.5665 26.475C23.1473 26.2365 22.7298 25.9955 22.3122 25.7545L21.925 25.5311L21.9118 25.5235C21.8975 25.5151 21.8832 25.507 21.8685 25.4996C21.8258 25.4786 21.7957 25.4925 21.7938 25.5351C21.7917 25.5926 21.7917 25.6501 21.7917 25.7076ZM18.1852 25.4956C18.2063 25.663 18.2095 29.889 18.1883 30.0965C18.1542 30.1106 18.1277 30.0946 18.1012 30.0786L18.0895 30.0718L17.6252 29.8036C17.2335 29.5773 16.8418 29.351 16.4485 29.1275C16.3564 29.075 16.3205 29.013 16.3209 28.9066C16.324 28.3411 16.3237 27.7756 16.3234 27.2101L16.3232 26.6881L16.3234 26.6666C16.3236 26.6523 16.3238 26.6378 16.3232 26.6235C16.3214 26.5686 16.3393 26.526 16.3914 26.5008C16.4114 26.491 16.4309 26.4796 16.4502 26.4681L16.4664 26.4586L16.7903 26.2716C17.2102 26.029 17.63 25.7865 18.0505 25.5455C18.0605 25.5396 18.0702 25.5325 18.08 25.5255C18.1103 25.5033 18.1413 25.4806 18.1852 25.4956ZM20.9423 14.6543L20.9427 14.3877L20.9423 14.1231C20.9422 13.8882 20.9418 13.6534 20.9435 13.4183C20.9443 13.3474 20.9265 13.298 20.8608 13.2603C20.5995 13.1108 20.34 12.9577 20.0813 12.8032C20.0267 12.7704 19.9817 12.7632 19.9233 12.7983C19.6588 12.9568 19.3927 13.1126 19.126 13.2675C19.0775 13.2958 19.0558 13.3312 19.0563 13.3878C19.0577 13.5333 19.0573 13.6789 19.057 13.8247L19.0568 14.0124L19.057 14.3802C19.0573 14.7173 19.0577 15.0544 19.0555 15.3913C19.055 15.4725 19.082 15.5219 19.1525 15.5619C19.4088 15.7065 19.663 15.8546 19.9162 16.0037C19.97 16.0356 20.0137 16.0441 20.0733 16.0086C20.332 15.8542 20.5933 15.7042 20.855 15.5551C20.9178 15.5192 20.9453 15.4752 20.9443 15.4002C20.9413 15.1515 20.9418 14.9029 20.9423 14.6543ZM22.7332 16.3911L22.4938 16.2532C22.2855 16.133 22.079 16.0139 21.872 15.8959C21.8163 15.864 21.7888 15.8236 21.7912 15.758C21.7933 15.6921 21.7928 15.6262 21.7925 15.5604L21.792 15.4783L21.7922 15.2013C21.7923 14.9706 21.7925 14.7399 21.7917 14.5094C21.7912 14.4407 21.8015 14.3877 21.8702 14.3486C22.2605 14.1262 22.6502 13.9022 23.0397 13.6782L23.624 13.3424C23.6273 13.3406 23.6322 13.3416 23.6383 13.3429C23.6415 13.3435 23.645 13.3442 23.6487 13.3447C23.6788 13.3601 23.6758 13.388 23.6732 13.4144C23.6727 13.4183 23.6723 13.4222 23.672 13.4259C23.6718 13.4294 23.6715 13.4329 23.6715 13.4363C23.672 13.6975 23.6722 13.9587 23.6722 14.2199C23.6723 14.7052 23.6725 15.1905 23.6752 15.6759C23.6757 15.7729 23.6465 15.8312 23.5615 15.882C23.3558 16.0031 23.1538 16.1291 22.95 16.2562C22.8783 16.301 22.8055 16.3463 22.7332 16.3911ZM16.3833 13.3453L16.3264 13.3155L16.3249 13.4188C16.324 13.479 16.3232 13.5301 16.3232 13.5808V15.2812C16.3232 15.3231 16.3235 15.365 16.3238 15.4069C16.3244 15.5086 16.3251 15.6104 16.3219 15.7118C16.3196 15.7868 16.3538 15.8299 16.4135 15.8663L16.4636 15.897C16.7033 16.0438 16.9437 16.1912 17.1803 16.3431C17.2455 16.3848 17.2948 16.3754 17.3555 16.3399L17.4325 16.2947C17.6538 16.1646 17.8755 16.0343 18.1008 15.9112C18.1843 15.8658 18.2037 15.8079 18.2028 15.7212C18.1997 15.3265 18.1983 14.9319 18.2037 14.5372C18.2055 14.4317 18.1705 14.3706 18.078 14.3181C17.6677 14.0852 17.2592 13.8491 16.8505 13.6129L16.4382 13.3747C16.4233 13.3661 16.408 13.3581 16.3833 13.3453Z" fill="black"/>
</g>
</g>
<defs>
<clipPath id="clip0_8665_4808">
<rect width="40" height="40" fill="white"/>
</clipPath>
</defs>
</svg>
