<svg width="40" height="40" viewBox="0 0 40 40" fill="none" xmlns="http://www.w3.org/2000/svg">
<path d="M21.1455 40C21.1277 39.9162 21.0465 39.8994 20.9902 39.859C20.209 39.2965 19.434 38.7255 18.7043 38.0962C18.7468 37.9684 18.7508 37.837 18.7508 37.7035C18.75 29.6567 18.7505 21.6099 18.7508 13.5631C19.5197 13.7703 20.2875 13.9805 21.0577 14.1824C21.168 14.2112 21.2035 14.2627 21.1928 14.3669C21.1885 14.4108 21.192 14.4556 21.192 14.5C21.192 22.8969 21.192 31.2932 21.192 39.69C21.192 39.7934 21.1902 39.8967 21.1893 40C21.1752 40 21.16 40 21.1455 40Z" fill="black"/>
<path d="M8.80827 27.5079C8.17613 26.6547 7.61898 25.753 7.0738 24.8435C6.3503 23.6362 5.69733 22.3914 5.11002 21.1125C5.08073 21.0487 5.07275 20.9689 5 20.9302C5 20.9005 5 20.8712 5 20.8415C5.45423 20.208 5.78383 19.5072 6.08503 18.7934C7.15188 16.2667 7.57418 13.6246 7.4269 10.8943C7.28097 8.1928 6.56233 5.6337 5.4254 3.18639C5.38503 3.09945 5.34378 3.01294 5.3043 2.92555C5.29543 2.90604 5.29145 2.88475 5.27015 2.81554C5.54783 2.81554 5.80867 2.82354 6.06907 2.81422C6.99928 2.78139 7.92905 2.7428 8.85883 2.70642C8.85883 10.8428 8.85838 18.9797 8.86017 27.1162C8.86017 27.2497 8.85173 27.3805 8.80827 27.5079Z" fill="black"/>
<path d="M18.7508 13.5631C18.7505 21.6099 18.75 29.6567 18.7508 37.7035C18.7508 37.837 18.7468 37.9684 18.7043 38.0962C17.8017 37.3895 16.9438 36.6322 16.1134 35.8425C16.2256 35.7587 16.1755 35.6372 16.1755 35.5339C16.1786 27.9737 16.1786 20.4135 16.179 12.8533C17.0423 13.0675 17.9 13.3009 18.7508 13.5631Z" fill="black"/>
<path d="M16.179 12.8532C16.1786 20.4135 16.1786 27.9737 16.1755 35.5338C16.1755 35.6372 16.2256 35.7587 16.1134 35.8425C15.2533 35.0672 14.4259 34.2583 13.6451 33.403C13.6757 33.1995 13.6962 32.9958 13.6962 32.7887C13.6935 26.0163 13.6939 19.2435 13.6962 12.4711C13.6962 12.374 13.6514 12.2613 13.756 12.1832C14.531 12.3926 15.306 12.6015 16.0805 12.8114C16.1142 12.8207 16.1458 12.8395 16.179 12.8532Z" fill="black"/>
<path d="M8.80827 27.5078C8.85174 27.3805 8.86017 27.2497 8.86017 27.1162C8.85839 18.9797 8.85884 10.8428 8.85884 2.70642C9.58322 2.6483 10.3081 2.5898 11.0325 2.53125C11.0325 3.93078 11.0325 5.33077 11.0325 6.73032C10.7251 6.65357 10.4159 6.58348 10.1116 6.49698C9.97141 6.45705 9.91772 6.46327 9.91862 6.63317C9.92439 8.07352 9.92439 9.51387 9.91817 10.9547C9.91772 11.0908 9.97496 11.1299 10.0867 11.16C10.4492 11.2576 10.8098 11.3632 11.1709 11.4652C11.1265 11.6001 11.1194 11.738 11.1194 11.8791C11.1208 18.1045 11.1203 24.3299 11.1203 30.5554C10.2952 29.5807 9.52112 28.5675 8.80827 27.5078Z" fill="black"/>
<path d="M11.1203 30.5553C11.1203 24.3298 11.1207 18.1045 11.1194 11.8791C11.1194 11.738 11.1265 11.6001 11.1709 11.4652C12.0359 11.6914 12.9017 11.9184 13.756 12.1832C13.6513 12.2613 13.6961 12.374 13.6961 12.4711C13.6939 19.2435 13.6935 26.0163 13.6961 32.7887C13.6961 32.9958 13.6757 33.1995 13.6451 33.403C12.9611 32.7288 12.3355 31.9998 11.7083 31.2742C11.5065 31.0398 11.3164 30.7948 11.1203 30.5553Z" fill="black"/>
<path d="M19.1055 0.979013C19.8112 0.70088 20.5143 0.417423 21.1583 0C21.2122 0.061216 21.1917 0.121989 21.1917 0.175663C21.193 3.17392 21.1912 6.17173 21.197 9.16998C21.1975 9.35897 21.1468 9.38868 20.9765 9.34122C20.3528 9.16645 19.7265 9.00187 19.101 8.8333C19.1023 6.2152 19.1037 3.59712 19.1055 0.979013Z" fill="black"/>
<path d="M19.1055 0.979004C19.1037 3.59711 19.1023 6.21519 19.101 8.83329C18.4202 8.65807 17.7392 8.48291 17.0582 8.30769C17.0605 8.21187 17.0645 8.11561 17.0645 8.01979C17.0648 5.87722 17.0648 3.73466 17.0648 1.59166C17.6545 1.41511 18.244 1.239 18.8335 1.06245C18.924 1.03539 19.0145 1.00695 19.1055 0.979004Z" fill="black"/>
<path d="M17.0648 1.59167C17.0648 3.73467 17.0648 5.87724 17.0645 8.01981C17.0645 8.11562 17.0605 8.21189 17.0582 8.30771C16.3791 8.12761 15.6995 7.94749 15.0204 7.76739C15.0217 5.84574 15.023 3.92409 15.0244 2.00244C15.7048 1.86537 16.3853 1.72831 17.0648 1.59167Z" fill="black"/>
<path d="M15.0244 2.00244C15.023 3.92409 15.0217 5.84574 15.0204 7.76739C14.3465 7.62146 13.6851 7.43016 13.0197 7.25184C13.0224 7.14848 13.0277 7.04513 13.0277 6.94178C13.0281 5.39761 13.0281 3.85346 13.0281 2.30886C13.694 2.20684 14.359 2.10491 15.0244 2.00244Z" fill="black"/>
<path d="M13.0281 2.30884C13.0281 3.85344 13.0281 5.39759 13.0277 6.94175C13.0277 7.0451 13.0224 7.14845 13.0197 7.25182C12.3574 7.07794 11.6948 6.90417 11.0325 6.73029C11.0325 5.33074 11.0325 3.93075 11.0325 2.53122C11.6974 2.45714 12.3627 2.38292 13.0281 2.30884Z" fill="black"/>
<path d="M31.2147 12.1049C30.4548 12.3457 29.6825 12.5422 28.9123 12.7481C28.8653 12.6066 28.8623 12.4606 28.8623 12.3125C28.864 10.8832 28.8632 9.45394 28.8632 8.02469C29.6323 7.82109 30.4012 7.61792 31.1703 7.41431C31.2235 7.51456 31.1685 7.61437 31.1703 7.71417C31.1965 9.17759 31.1148 10.6423 31.2147 12.1049Z" fill="black"/>
<path d="M32.7185 24.7769C33.4075 24.5916 34.0968 24.4079 34.7843 24.2194C34.9267 24.1804 34.941 24.2437 34.94 24.3614C34.9357 24.8999 34.9383 25.4384 34.9383 25.9769C34.9383 26.8694 34.9338 27.7624 34.9423 28.6549C34.9437 28.8087 34.8992 28.8714 34.7502 28.9096C34.0728 29.0821 33.399 29.2671 32.7238 29.4471C32.7217 27.8906 32.7198 26.3336 32.7185 24.7769Z" fill="black"/>
<path d="M32.7185 24.7769C32.7198 26.3335 32.7217 27.8905 32.7238 29.447C32.0363 29.6649 31.3393 29.8527 30.6385 30.0235C30.6287 29.8927 30.5905 29.7667 30.591 29.6322C30.5953 28.1977 30.594 26.7627 30.594 25.328C31.2993 25.1334 32.004 24.9357 32.7185 24.7769Z" fill="black"/>
<path d="M26.5573 26.3863C27.232 26.188 27.9117 26.008 28.5978 25.8536C28.5978 27.3218 28.5978 28.7898 28.597 30.258C28.597 30.3693 28.5943 30.4795 28.652 30.5805C27.9555 30.7726 27.2587 30.9651 26.5622 31.1571C26.5605 29.567 26.5587 27.9766 26.5573 26.3863Z" fill="black"/>
<path d="M26.8178 17.4118C27.4935 17.2153 28.1735 17.037 28.8588 16.8782C28.8602 17.0552 28.8628 17.2322 28.8633 17.4092C28.8655 18.81 28.8672 20.2108 28.869 21.6122C28.2018 21.7963 27.5347 21.9803 26.8675 22.165C26.829 22.0523 26.8218 21.936 26.8218 21.8172C26.8223 20.3488 26.8197 18.8805 26.8178 17.4118Z" fill="black"/>
<path d="M28.8632 8.02466C28.8632 9.45391 28.864 10.8832 28.8623 12.3124C28.8623 12.4606 28.8653 12.6065 28.9123 12.748C28.231 12.9335 27.5502 13.1193 26.8687 13.3047C26.8102 13.2107 26.8235 13.106 26.8235 13.0035C26.8235 11.5215 26.8235 10.0394 26.8235 8.55779C27.4978 8.35862 28.1768 8.17947 28.8632 8.02466Z" fill="black"/>
<path d="M28.869 21.6121C28.8672 20.2108 28.8655 18.81 28.8633 17.4091C28.8628 17.2321 28.8602 17.0551 28.8588 16.8781C29.534 16.6825 30.214 16.5045 30.899 16.3448C30.9007 17.8016 30.9025 19.2583 30.9033 20.7151C30.9033 20.8256 30.8953 20.9365 30.9553 21.0368C30.2602 21.2293 29.5645 21.4205 28.869 21.6121Z" fill="black"/>
<path d="M30.9553 21.0368C30.8953 20.9365 30.9033 20.8256 30.9033 20.7151C30.9025 19.2583 30.9007 17.8016 30.899 16.3448C31.579 16.167 32.2593 15.9893 32.9393 15.8114C32.9412 17.3688 32.943 18.9263 32.9447 20.4841C32.2882 20.6913 31.6215 20.8651 30.9553 21.0368Z" fill="black"/>
<path d="M28.652 30.5805C28.5943 30.4795 28.597 30.3693 28.597 30.258C28.5978 28.7898 28.5978 27.3218 28.5978 25.8537C29.2575 25.6553 29.9252 25.4895 30.594 25.328C30.594 26.7627 30.5953 28.1977 30.591 29.6322C30.5905 29.7667 30.6287 29.8927 30.6385 30.0235C29.9837 30.2363 29.316 30.4013 28.652 30.5805Z" fill="black"/>
<path d="M31.2147 12.1049C31.1148 10.6423 31.1965 9.17759 31.1703 7.71417C31.1685 7.61437 31.2235 7.51456 31.1703 7.41431C31.8338 7.24264 32.4975 7.07096 33.161 6.89929C33.1623 8.33166 33.1642 9.76447 33.1658 11.1968C33.1658 11.321 33.1455 11.4523 33.2715 11.538C32.5923 11.75 31.9062 11.9367 31.2147 12.1049Z" fill="black"/>
<path d="M32.9447 20.4842C32.943 18.9264 32.9412 17.3689 32.9393 15.8115C33.5582 15.6456 34.1783 15.4826 34.7958 15.3127C34.9945 15.2581 34.9363 15.4005 34.9363 15.4861C34.939 16.7344 34.9382 17.9827 34.9382 19.2309C34.9382 19.423 34.9337 19.615 34.94 19.8072C34.943 19.9004 34.9235 19.9567 34.8228 19.9829C34.196 20.1474 33.5707 20.3165 32.9447 20.4842Z" fill="black"/>
<path d="M26.5573 26.3864C26.5587 27.9767 26.5605 29.567 26.5622 31.1572C25.9708 31.3205 25.3797 31.4842 24.7883 31.6474C24.7865 31.2784 24.7843 30.9097 24.7833 30.5407C24.7803 29.3089 24.7772 28.0769 24.7742 26.8447C25.3663 26.6845 25.9563 26.5137 26.5573 26.3864Z" fill="black"/>
<path d="M26.8178 17.4119C26.8197 18.8805 26.8223 20.3489 26.8218 21.8172C26.8218 21.936 26.829 22.0524 26.8675 22.165C26.2652 22.3429 25.665 22.5282 25.0488 22.6545C25.0488 21.1589 25.0497 19.6625 25.047 18.1667C25.047 18.0709 25.09 17.9534 24.9618 17.8939C25.5807 17.7334 26.1995 17.5724 26.8178 17.4119Z" fill="black"/>
<path d="M33.2715 11.5379C33.1455 11.4523 33.1658 11.321 33.1658 11.1968C33.1642 9.76441 33.1623 8.33159 33.161 6.89923C33.708 6.75328 34.256 6.61039 34.8017 6.45869C34.9133 6.42763 34.9395 6.44848 34.9395 6.56159C34.9368 8.02946 34.9373 9.49731 34.9392 10.9652C34.9392 11.0503 34.9183 11.1022 34.8287 11.1257C34.3097 11.261 33.7905 11.3999 33.2715 11.5379Z" fill="black"/>
<path d="M26.8235 8.55774C26.8235 10.0394 26.8235 11.5214 26.8235 13.0035C26.8235 13.1059 26.8102 13.2106 26.8687 13.3047C26.2987 13.4901 25.7188 13.6427 25.1368 13.7855C25.1368 12.3083 25.1365 10.8307 25.1382 9.35354C25.1382 9.23466 25.1307 9.11844 25.093 9.00532C25.666 8.84164 26.2407 8.68284 26.8235 8.55774Z" fill="black"/>
<path d="M25.093 9.00537C25.1307 9.11849 25.1382 9.2347 25.1382 9.35359C25.1365 10.8308 25.1368 12.3084 25.1368 13.7855C24.6698 13.9186 24.2027 14.0519 23.7365 14.1863C23.6265 14.2183 23.5798 14.197 23.5803 14.0674C23.5838 12.5552 23.583 11.043 23.5812 9.53034C23.5812 9.43807 23.5993 9.3804 23.7018 9.35555C24.1668 9.24244 24.6293 9.12292 25.093 9.00537Z" fill="black"/>
<path d="M24.9618 17.8938C25.09 17.9533 25.047 18.0708 25.047 18.1666C25.0497 19.6625 25.0488 21.1588 25.0488 22.6545C24.61 22.8288 24.1447 22.9121 23.6958 23.0523C23.6035 23.0811 23.5792 23.0336 23.5827 22.9503C23.5862 22.8691 23.5832 22.788 23.5832 22.7068C23.5832 21.289 23.5858 19.8718 23.5792 18.454C23.5782 18.2921 23.6238 18.2225 23.7832 18.187C24.178 18.0991 24.5688 17.9928 24.9618 17.8938Z" fill="black"/>
<path d="M24.7742 26.8447C24.7772 28.0769 24.7803 29.3089 24.7833 30.5407C24.7843 30.9097 24.7865 31.2784 24.7883 31.6474C24.441 31.7446 24.0902 31.8332 23.7472 31.9441C23.5822 31.9974 23.5808 31.9272 23.5813 31.8031C23.584 30.8142 23.5827 29.8256 23.5827 28.8367C23.5827 28.3351 23.5867 27.8329 23.58 27.3316C23.5782 27.2021 23.6083 27.1334 23.7445 27.1022C24.0892 27.0237 24.4312 26.9312 24.7742 26.8447Z" fill="black"/>
</svg>
