<svg width="96" height="40" viewBox="0 0 96 40" fill="none" xmlns="http://www.w3.org/2000/svg">
<g clip-path="url(#clip0_8661_2995)">
<path d="M19.6636 21.569L0.389658 2.2729C-0.439497 1.42644 0.139347 0 1.32832 0H20.6023C21.3375 0 21.932 0.595656 21.932 1.33239V20.6285C21.932 21.8042 20.5084 22.3998 19.6636 21.569Z" fill="black"/>
<path d="M26.4533 21.569L45.7272 2.2729C46.5563 1.44212 45.9775 0 44.7885 0H25.5146C24.7793 0 24.1848 0.595656 24.1848 1.33239V20.6285C24.1848 21.8042 25.6241 22.3998 26.4533 21.569Z" fill="black"/>
<path d="M50.1546 21.569L69.4285 2.2729C70.2577 1.44212 69.6789 0 68.4899 0H49.2159C48.4807 0 47.8862 0.595656 47.8862 1.33239V20.6285C47.8862 21.8042 49.3255 22.3998 50.1546 21.569Z" fill="black"/>
<path d="M36.4741 39.9813C36.5486 39.5894 38.5415 34.7187 39.1748 32.9458C39.1748 32.9458 41.149 37.7232 42.0989 39.9813H45.3583V38.6936V27.366H43.1233H43.0116V36.3422L40.3109 29.6054H38.1877L35.487 36.1556V27.366H33.1589V38.6936V39.9813H36.4741Z" fill="black"/>
<path d="M49.9401 27.366L46.4013 39.9999H49.1392L50.0518 36.8275H53.274L54.1866 39.9999H57.0549L53.4788 27.366H49.9401ZM50.6106 34.8493L51.6536 31.2289L52.6966 34.8493H50.6106Z" fill="black"/>
<path d="M79.4423 27.366L75.9035 39.9999H78.6414L79.554 36.8275H82.7762L83.6888 39.9999H86.5571L82.981 27.366H79.4423ZM80.1128 34.8493L81.1558 31.2289L82.1988 34.8493H80.1128Z" fill="black"/>
<path d="M71.0424 27.366H67.5036V39.9999H70.8561C74.5998 39.9999 75.9035 37.6859 75.9035 33.431C75.8849 29.4374 74.5253 27.366 71.0424 27.366ZM70.8189 38.1338H69.9435V29.2321H70.8375C72.7931 29.2321 73.3705 30.5198 73.3705 33.4124C73.3705 36.8088 72.7186 38.1338 70.8189 38.1338Z" fill="black"/>
<path d="M65.9763 38.0218V37.7046H61.2828L65.6969 29.9786V29.792V27.366H57.744V29.3441V29.792H62.7728L57.744 38.0591V39.9813H65.9763V38.0218Z" fill="black"/>
<path d="M93.8395 27.366H93.5415V34.4201C93.3925 34.0095 90.4683 27.366 90.4683 27.366H90.4125H90.1145H88.0098H87.6559V39.9999H90.1145V32.7405L93.7464 39.9999H96V27.366H93.8395Z" fill="black"/>
</g>
<defs>
<clipPath id="clip0_8661_2995">
<rect width="96" height="40" fill="white"/>
</clipPath>
</defs>
</svg>
