<?xml version="1.0" encoding="utf-8"?>
<!-- Generator: Adobe Illustrator 23.0.0, SVG Export Plug-In . SVG Version: 6.00 Build 0)  -->
<svg version="1.1"
	xmlns="http://www.w3.org/2000/svg"
	xmlnsXlink="http://www.w3.org/1999/xlink" x="0px" y="0px" viewBox="0 0 106 35" style={{enableBackground: 'new 0 0 106 35'}} xmlSpace="preserve">
	<style type="text/css" dangerouslySetInnerHTML={{__html: "\n\t.st0{display:none;}\n\t.st1{display:inline;}\n\t.st2{fill:#243047;}\n\t.st3{fill:#F7A937;}\n\t.st4{fill:#FFDA65;}\n\t.st5{fill:#FFC840;}\n\t.st6{fill:#FFB842;}\n\t.st7{fill-rule:evenodd;clip-rule:evenodd;fill:#04B8BC;}\n\t.st8{fill:#08D8D5;}\n\t.st9{fill-rule:evenodd;clip-rule:evenodd;fill:#31D0AA;}\n\t.st10{fill:#56E8C2;}\n\t.st11{fill:#FFFFFF;}\n\t.st12{fill:#148C66;}\n\t.st13{fill-rule:evenodd;clip-rule:evenodd;fill:#3ABB78;}\n" }} />
<g id="logo_website" className="st0">
		<g id="_x33_" className="st1">
			<g>
				<g>
					<path className="st2" d="M95.18,26.86c0-0.08-0.01-0.16-0.02-0.24c0.02-0.13,0.03-0.26,0.03-0.39c0-0.05,0-0.09-0.01-0.14
					c0.01-0.09,0.01-0.17,0.01-0.26c0-0.01-0.01-0.67-0.01-0.71c0-0.08-0.01-0.15-0.02-0.24c0.02-0.13,0.03-0.26,0.03-0.39
					c0-0.05,0-0.1-0.01-0.15c0.01-0.08,0.01-0.17,0.01-0.25l0-0.07c-0.01-0.62-0.01-0.62-0.01-0.64c0-0.08-0.01-0.15-0.02-0.23
					c0.02-0.13,0.03-0.26,0.03-0.39c-0.01-0.91-0.56-1.76-1.51-2.35c-0.83-0.51-1.92-0.79-3.07-0.79c-0.03,0-0.06,0-0.08,0
					c-2.59,0.03-4.61,1.46-4.59,3.25c0,0.1,0.01,0.2,0.02,0.3c-0.01,0.07-0.02,0.14-0.02,0.21c-0.01,0.09,0,0.81,0,0.82
					c0,0.05,0,0.1,0.01,0.15c-0.01,0.08-0.01,0.17-0.01,0.25c0,0.1,0.01,0.2,0.02,0.3c-0.01,0.07-0.02,0.14-0.02,0.21
					c-0.01,0.09,0,0.81,0,0.82c0,0.05,0,0.1,0.01,0.15c-0.01,0.08-0.01,0.17-0.01,0.25c0,0.1,0.01,0.2,0.02,0.3
					c-0.01,0.07-0.02,0.14-0.02,0.21c-0.01,0.09,0,0.81,0,0.82c0,0.05,0,0.1,0.01,0.15c-0.01,0.08-0.01,0.17-0.01,0.25
					c0,0.1,0.01,0.2,0.02,0.3c-0.01,0.07-0.02,0.14-0.02,0.21c-0.01,0.09,0,0.81,0,0.82c0,0.05,0,0.1,0.01,0.15
					c-0.01,0.08-0.01,0.17-0.01,0.25c0,0.1,0.01,0.2,0.02,0.3c-0.01,0.07-0.02,0.14-0.02,0.21c-0.01,0.09,0,0.81,0,0.82
					c0.01,0.91,0.56,1.78,1.51,2.36c0.83,0.52,1.92,0.8,3.07,0.8c0.03,0,0.05,0,0.08,0c0.08,0,0.17,0,0.26-0.01
					c0.01,0,0.01,0,0.02,0c0.01,0,0.01,0,0.02,0c0.07,0,0.14-0.01,0.21-0.01c0.01,0,0.01,0,0.02,0c0.01,0,0.01,0,0.02,0
					c0.11-0.01,0.23-0.02,0.33-0.04c0.01,0,0.02,0,0.03,0c0.01,0,0.03,0,0.04-0.01c0.06-0.01,0.12-0.02,0.19-0.03
					c0.01,0,0.02,0,0.03,0c0.01,0,0.02,0,0.03-0.01c0.11-0.02,0.22-0.04,0.32-0.07c0.01,0,0.02,0,0.03-0.01
					c0.01,0,0.03-0.01,0.04-0.01c0.06-0.01,0.11-0.03,0.17-0.05c0.02,0,0.03-0.01,0.04-0.01c0.01,0,0.02-0.01,0.03-0.01
					c0.11-0.03,0.22-0.07,0.32-0.11c0.01,0,0.02-0.01,0.04-0.01c0.01,0,0.02-0.01,0.03-0.01c0.06-0.03,0.12-0.05,0.18-0.07
					c0.02-0.01,0.03-0.01,0.05-0.02c0.01-0.01,0.03-0.01,0.04-0.02c0.11-0.05,0.21-0.1,0.32-0.16c0.01-0.01,0.03-0.01,0.04-0.02
					c0.02-0.01,0.03-0.02,0.05-0.03c0.06-0.03,0.12-0.07,0.17-0.1c0.02-0.01,0.04-0.02,0.06-0.03c0.01-0.01,0.03-0.02,0.04-0.03
					c0.12-0.08,0.23-0.16,0.33-0.25c0.01-0.01,0.03-0.02,0.04-0.03c0.1-0.09,0.2-0.18,0.29-0.28c0.01-0.02,0.03-0.03,0.04-0.05
					c0.15-0.17,0.28-0.35,0.39-0.54c0.01-0.02,0.02-0.04,0.03-0.06c0.2-0.38,0.3-0.77,0.29-1.18c0-0.01-0.01-0.67-0.01-0.71
					c0-0.08-0.01-0.16-0.02-0.24c0.02-0.13,0.03-0.26,0.03-0.39c0-0.05,0-0.09-0.01-0.14c0.01-0.09,0.01-0.17,0.01-0.26
					c0-0.01-0.01-0.67-0.01-0.71c0-0.08-0.01-0.16-0.02-0.24c0.02-0.13,0.03-0.26,0.03-0.39c0-0.05,0-0.09-0.01-0.14
					c0.01-0.09,0.01-0.17,0.01-0.26C95.19,27.56,95.18,26.9,95.18,26.86z" />
					<g>
						<g>
							<path className="st3" d="M90.53,28.11c2.05-0.02,3.72,0.98,3.77,2.25c0,0.02,0.01,0.67,0.01,0.68c0.02,1.29-1.65,2.36-3.72,2.39
							c-2.07,0.02-3.76-1.01-3.78-2.3c0-0.04-0.01-0.71,0-0.75C86.89,29.14,88.52,28.13,90.53,28.11z" />
							<ellipse transform="matrix(0.9999 -0.0118 0.0118 0.9999 -0.3446 1.07)" className="st4" cx="90.56" cy="29.76" rx="3.75" ry="2.32" />
							<ellipse transform="matrix(0.9999 -0.0118 0.0118 0.9999 -0.3448 1.0705)" className="st5" cx="90.56" cy="29.76" rx="2.89" ry="1.79" />
						</g>
						<g>
							<path className="st3" d="M90.53,26.38c2.05-0.02,3.72,0.98,3.77,2.25c0,0.02,0.01,0.67,0.01,0.68c0.02,1.29-1.65,2.36-3.72,2.39
							c-2.07,0.02-3.76-1.01-3.78-2.3c0-0.04-0.01-0.71,0-0.75C86.89,27.41,88.52,26.4,90.53,26.38z" />
							<ellipse transform="matrix(0.9999 -0.0118 0.0118 0.9999 -0.3243 1.0702)" className="st4" cx="90.56" cy="28.02" rx="3.75" ry="2.32" />
							<ellipse transform="matrix(0.9999 -0.0118 0.0118 0.9999 -0.3242 1.07)" className="st5" cx="90.56" cy="28.02" rx="2.89" ry="1.79" />
						</g>
						<g>
							<path className="st3" d="M90.53,24.64c2.05-0.02,3.72,0.98,3.77,2.25c0,0.02,0.01,0.67,0.01,0.68c0.02,1.29-1.65,2.36-3.72,2.39
							c-2.07,0.02-3.76-1.01-3.78-2.3c0-0.04-0.01-0.71,0-0.75C86.89,25.67,88.52,24.67,90.53,24.64z" />
							<ellipse transform="matrix(0.9999 -0.0118 0.0118 0.9999 -0.3038 1.0701)" className="st4" cx="90.56" cy="26.29" rx="3.75" ry="2.32" />
							<ellipse transform="matrix(0.9999 -0.0118 0.0118 0.9999 -0.3037 1.0699)" className="st5" cx="90.56" cy="26.29" rx="2.89" ry="1.79" />
						</g>
						<g>
							<path className="st3" d="M90.53,22.91c2.05-0.02,3.72,0.98,3.77,2.25c0,0.02,0.01,0.67,0.01,0.68c0.02,1.29-1.65,2.36-3.72,2.39
							c-2.07,0.02-3.76-1-3.78-2.3c0-0.04-0.01-0.71,0-0.75C86.89,23.94,88.52,22.93,90.53,22.91z" />
							<ellipse transform="matrix(0.9999 -0.0118 0.0118 0.9999 -0.2833 1.0699)" className="st4" cx="90.56" cy="24.55" rx="3.75" ry="2.32" />
							<ellipse transform="matrix(0.9999 -0.0118 0.0118 0.9999 -0.2833 1.0697)" className="st5" cx="90.56" cy="24.55" rx="2.89" ry="1.79" />
						</g>
						<g>
							<path className="st3" d="M90.53,21.17c2.05-0.02,3.72,0.98,3.77,2.25c0,0.02,0.01,0.67,0.01,0.68c0.02,1.29-1.65,2.36-3.72,2.39
							c-2.07,0.02-3.76-1.01-3.78-2.3c0-0.04-0.01-0.71,0-0.75C86.89,22.21,88.52,21.2,90.53,21.17z" />
							<ellipse transform="matrix(0.9999 -0.0118 0.0118 0.9999 -0.2628 1.0695)" className="st4" cx="90.56" cy="22.82" rx="3.75" ry="2.32" />
							<path className="st5" d="M90.54,21.03c1.6-0.02,2.9,0.77,2.92,1.75c0.01,0.99-1.27,1.8-2.87,1.82c-1.6,0.02-2.9-0.77-2.92-1.75
							C87.66,21.87,88.94,21.05,90.54,21.03z" />
						</g>
						<g>
							<path className="st6" d="M93.03,29.37c0.08-0.04,0.15-0.09,0.22-0.13v-1.36c-0.07,0.05-0.14,0.09-0.22,0.13V29.37z" />
							<path className="st6" d="M93.25,29.62c-0.07,0.05-0.14,0.09-0.22,0.13v1.36c0.08-0.04,0.15-0.09,0.22-0.13V29.62z" />
							<path className="st6" d="M93.57,27.65V29c0.08-0.07,0.15-0.14,0.22-0.21v-1.35C93.73,27.51,93.65,27.58,93.57,27.65z" />
							<path className="st6" d="M92.15,30.11c-0.07,0.02-0.14,0.04-0.22,0.06v1.36c0.07-0.02,0.15-0.04,0.22-0.06V30.11z" />
							<path className="st6" d="M92.7,29.91c-0.07,0.03-0.14,0.06-0.22,0.09v1.36c0.07-0.03,0.15-0.06,0.22-0.09V29.91z" />
							<path className="st6" d="M91.6,30.24c-0.07,0.01-0.15,0.03-0.22,0.04v1.36c0.07-0.01,0.15-0.02,0.22-0.04V30.24z" />
							<path className="st6" d="M91.38,29.9c0.07-0.01,0.15-0.02,0.22-0.04v-1.36c-0.07,0.01-0.15,0.03-0.22,0.04V29.9z" />
							<path className="st6" d="M90.84,29.96c0.07,0,0.15-0.01,0.22-0.02v-1.36c-0.07,0.01-0.15,0.01-0.22,0.02V29.96z" />
							<path className="st6" d="M91.93,29.8c0.07-0.02,0.15-0.04,0.22-0.06v-1.36c-0.07,0.02-0.14,0.04-0.22,0.06V29.8z" />
							<path className="st6" d="M92.48,29.62c0.07-0.03,0.15-0.06,0.22-0.09v-1.36c-0.07,0.03-0.14,0.06-0.22,0.09V29.62z" />
							<path className="st6" d="M87.77,29.59c-0.08-0.05-0.15-0.11-0.22-0.16v1.35c0.07,0.06,0.14,0.11,0.22,0.17V29.59z" />
							<path className="st6" d="M87.22,29.1c-0.09-0.1-0.16-0.21-0.22-0.32v1.34c0.06,0.11,0.13,0.22,0.22,0.33V29.1z" />
							<path className="st6" d="M91.06,30.32c-0.07,0.01-0.15,0.01-0.22,0.02v1.36c0.07,0,0.15-0.01,0.22-0.02V30.32z" />
							<path className="st6" d="M88.32,29.89c-0.08-0.03-0.15-0.07-0.22-0.11v1.35c0.07,0.04,0.14,0.07,0.22,0.11V29.89z" />
							<path className="st6" d="M93.57,29.38v1.35c0.08-0.07,0.15-0.14,0.22-0.21v-1.35C93.73,29.24,93.65,29.31,93.57,29.38z" />
							<path className="st6" d="M94.31,28.63c0-0.09-0.02-0.19-0.04-0.28c-0.03,0.13-0.08,0.25-0.14,0.37v1.35
							c0.13-0.24,0.19-0.49,0.19-0.76C94.31,29.3,94.31,28.65,94.31,28.63z" />
							<path className="st6" d="M90.51,30.34c-0.07,0-0.15,0-0.22,0v1.36c0.07,0,0.15,0,0.22,0V30.34z" />
							<path className="st6" d="M88.87,30.1c-0.07-0.02-0.15-0.05-0.22-0.07v1.36c0.07,0.03,0.14,0.05,0.22,0.07V30.1z" />
							<path className="st6" d="M89.96,30.31c-0.07-0.01-0.15-0.01-0.22-0.02v1.36c0.07,0.01,0.15,0.02,0.22,0.02V30.31z" />
							<path className="st6" d="M89.41,30.24c-0.07-0.01-0.15-0.03-0.22-0.05v1.36c0.07,0.02,0.14,0.03,0.22,0.05V30.24z" />
							<path className="st6" d="M90.29,28.6v1.36c0.07,0,0.15,0,0.22,0V28.6C90.43,28.6,90.36,28.6,90.29,28.6z" />
							<path className="st6" d="M89.74,29.91c0.07,0.01,0.15,0.02,0.22,0.02v-1.36c-0.07-0.01-0.15-0.01-0.22-0.02V29.91z" />
							<path className="st6" d="M91.6,31.98c-0.07,0.01-0.15,0.03-0.22,0.04v1.36c0.07-0.01,0.15-0.02,0.22-0.04V31.98z" />
							<path className="st6" d="M90.51,32.07c-0.07,0-0.15,0-0.22,0v1.36c0.07,0,0.15,0,0.22,0V32.07z" />
							<path className="st6" d="M91.06,33.41v-1.36c-0.07,0.01-0.15,0.01-0.22,0.02v1.36C90.91,33.42,90.98,33.42,91.06,33.41z" />
							<path className="st6" d="M89.96,32.05c-0.07-0.01-0.15-0.01-0.22-0.02v1.36c0.07,0.01,0.15,0.02,0.22,0.02V32.05z" />
							<path className="st6" d="M92.7,31.64c-0.07,0.03-0.14,0.06-0.22,0.09v1.36c0.07-0.03,0.15-0.06,0.22-0.09V31.64z" />
							<path className="st6" d="M93.25,31.35c-0.07,0.05-0.14,0.09-0.22,0.13v1.36c0.08-0.04,0.15-0.09,0.22-0.13V31.35z" />
							<path className="st6" d="M94.31,30.36c0-0.09-0.02-0.19-0.04-0.28c-0.03,0.13-0.08,0.25-0.14,0.37v1.35
							c0.13-0.24,0.19-0.49,0.19-0.76C94.31,31.03,94.31,30.38,94.31,30.36z" />
							<path className="st6" d="M94.27,26.62c-0.03,0.13-0.08,0.25-0.14,0.37v1.35c0.13-0.24,0.19-0.49,0.19-0.76
							c0-0.02-0.01-0.67-0.01-0.68C94.3,26.8,94.29,26.71,94.27,26.62z" />
							<path className="st6" d="M93.79,32.26v-1.35c-0.07,0.07-0.14,0.14-0.22,0.21v1.35C93.65,32.4,93.73,32.33,93.79,32.26z" />
							<path className="st6" d="M92.15,31.84c-0.07,0.02-0.14,0.04-0.22,0.06v1.36c0.07-0.02,0.15-0.04,0.22-0.06V31.84z" />
							<path className="st6" d="M88.1,29.4c0.07,0.04,0.14,0.07,0.22,0.11v-1.35c-0.08-0.03-0.15-0.07-0.22-0.11V29.4z" />
							<path className="st6" d="M87.55,29.04c0.07,0.06,0.14,0.11,0.22,0.17v-1.35c-0.08-0.05-0.15-0.11-0.22-0.16V29.04z" />
							<path className="st6" d="M87,27.04v1.34c0.06,0.11,0.13,0.22,0.22,0.33v-1.34C87.14,27.26,87.06,27.15,87,27.04z" />
							<path className="st6" d="M89.41,31.97c-0.07-0.01-0.15-0.03-0.22-0.05v1.36c0.07,0.02,0.14,0.03,0.22,0.05V31.97z" />
							<path className="st6" d="M88.65,29.65c0.07,0.03,0.14,0.05,0.22,0.07v-1.36c-0.07-0.02-0.15-0.05-0.22-0.07V29.65z" />
							<path className="st6" d="M89.19,29.81c0.07,0.02,0.14,0.03,0.22,0.05V28.5c-0.07-0.01-0.15-0.03-0.22-0.05V29.81z" />
							<path className="st6" d="M88.32,31.63c-0.08-0.03-0.15-0.07-0.22-0.11v1.35c0.07,0.04,0.14,0.07,0.22,0.11V31.63z" />
							<path className="st6" d="M87.22,30.83c-0.09-0.1-0.16-0.21-0.22-0.32v1.34c0.06,0.11,0.13,0.22,0.22,0.33V30.83z" />
							<path className="st6" d="M88.87,31.83c-0.07-0.02-0.15-0.05-0.22-0.07v1.36c0.07,0.03,0.14,0.05,0.22,0.07V31.83z" />
							<path className="st6" d="M87.77,32.67v-1.35c-0.08-0.05-0.15-0.11-0.22-0.16v1.35C87.62,32.56,87.69,32.62,87.77,32.67z" />
						</g>
						<g>
							<path className="st6" d="M93.25,24.42c-0.07,0.05-0.14,0.09-0.22,0.13v1.36c0.08-0.04,0.15-0.09,0.22-0.13V24.42z" />
							<path className="st6" d="M92.15,24.91c-0.07,0.02-0.14,0.04-0.22,0.06v1.36c0.07-0.02,0.15-0.04,0.22-0.06V24.91z" />
							<path className="st6" d="M92.7,24.71c-0.07,0.03-0.14,0.06-0.22,0.09v1.36c0.07-0.03,0.15-0.06,0.22-0.09V24.71z" />
							<path className="st6" d="M91.6,25.04c-0.07,0.01-0.15,0.03-0.22,0.04v1.36c0.07-0.01,0.15-0.02,0.22-0.04V25.04z" />
							<path className="st6" d="M87.77,24.39c-0.08-0.05-0.15-0.11-0.22-0.16v1.35c0.07,0.06,0.14,0.11,0.22,0.17V24.39z" />
							<path className="st6" d="M87.22,23.9c-0.09-0.1-0.16-0.21-0.22-0.32v1.34c0.06,0.11,0.13,0.22,0.22,0.33V23.9z" />
							<path className="st6" d="M91.06,25.12c-0.07,0.01-0.15,0.01-0.22,0.02v1.36c0.07,0,0.15-0.01,0.22-0.02V25.12z" />
							<path className="st6" d="M88.32,24.69c-0.08-0.03-0.15-0.07-0.22-0.11v1.35c0.07,0.04,0.14,0.07,0.22,0.11V24.69z" />
							<path className="st6" d="M93.57,24.18v1.35c0.08-0.07,0.15-0.14,0.22-0.21v-1.35C93.73,24.04,93.65,24.11,93.57,24.18z" />
							<path className="st6" d="M90.51,25.14c-0.07,0-0.15,0-0.22,0v1.36c0.07,0,0.15,0,0.22,0V25.14z" />
							<path className="st6" d="M88.87,24.9c-0.07-0.02-0.15-0.05-0.22-0.07v1.36c0.07,0.03,0.14,0.05,0.22,0.07V24.9z" />
							<path className="st6" d="M89.96,25.11c-0.07-0.01-0.15-0.01-0.22-0.02v1.36c0.07,0.01,0.15,0.02,0.22,0.02V25.11z" />
							<path className="st6" d="M89.41,25.04c-0.07-0.01-0.15-0.03-0.22-0.05v1.36c0.07,0.02,0.14,0.03,0.22,0.05V25.04z" />
							<path className="st6" d="M91.6,26.78c-0.07,0.01-0.15,0.03-0.22,0.04v1.36c0.07-0.01,0.15-0.02,0.22-0.04V26.78z" />
							<path className="st6" d="M90.51,26.87c-0.07,0-0.15,0-0.22,0v1.36c0.07,0,0.15,0,0.22,0V26.87z" />
							<path className="st6" d="M91.06,28.21v-1.36c-0.07,0.01-0.15,0.01-0.22,0.02v1.36C90.91,28.22,90.98,28.22,91.06,28.21z" />
							<path className="st6" d="M89.96,26.85c-0.07-0.01-0.15-0.01-0.22-0.02v1.36c0.07,0.01,0.15,0.02,0.22,0.02V26.85z" />
							<path className="st6" d="M92.7,26.45c-0.07,0.03-0.14,0.06-0.22,0.09v1.36c0.07-0.03,0.15-0.06,0.22-0.09V26.45z" />
							<path className="st6" d="M93.25,26.16c-0.07,0.05-0.14,0.09-0.22,0.13v1.36c0.08-0.04,0.15-0.09,0.22-0.13V26.16z" />
							<path className="st6" d="M94.31,25.16c0-0.09-0.02-0.19-0.04-0.28c-0.03,0.13-0.08,0.25-0.14,0.37v1.35
							c0.13-0.24,0.19-0.49,0.19-0.76C94.31,25.83,94.31,25.18,94.31,25.16z" />
							<path className="st6" d="M93.79,27.06v-1.35c-0.07,0.07-0.14,0.14-0.22,0.21v1.35C93.65,27.2,93.73,27.13,93.79,27.06z" />
							<path className="st6" d="M92.15,26.64c-0.07,0.02-0.14,0.04-0.22,0.06v1.36c0.07-0.02,0.15-0.04,0.22-0.06V26.64z" />
							<path className="st6" d="M89.41,26.77c-0.07-0.01-0.15-0.03-0.22-0.05v1.36c0.07,0.02,0.14,0.03,0.22,0.05V26.77z" />
							<path className="st6" d="M88.32,26.43c-0.08-0.03-0.15-0.07-0.22-0.11v1.35c0.07,0.04,0.14,0.07,0.22,0.11V26.43z" />
							<path className="st6" d="M87.22,25.63c-0.09-0.1-0.16-0.21-0.22-0.32v1.34c0.06,0.11,0.13,0.22,0.22,0.33V25.63z" />
							<path className="st6" d="M88.87,26.63c-0.07-0.02-0.15-0.05-0.22-0.07v1.36c0.07,0.03,0.14,0.05,0.22,0.07V26.63z" />
							<path className="st6" d="M87.77,27.47v-1.35c-0.08-0.05-0.15-0.11-0.22-0.16v1.35C87.62,27.36,87.69,27.42,87.77,27.47z" />
						</g>
					</g>
					<g>
						<g id="tree">
							<g>
								<path className="st7" d="M94.77,15.15c0,2.31-1.87,4.18-4.18,4.18c-2.31,0-4.18-1.87-4.18-4.18c0-2.31,1.87-8.82,4.18-8.82
								C92.9,6.33,94.77,12.84,94.77,15.15z" />
								<path className="st2" d="M90.58,19.79c-2.56,0-4.63-2.08-4.63-4.63c0-1.31,0.53-3.6,1.26-5.44c0.69-1.75,1.84-3.83,3.38-3.83
								s2.69,2.08,3.38,3.83c0.73,1.84,1.26,4.13,1.26,5.44C95.22,17.71,93.14,19.79,90.58,19.79z M90.58,6.78
								c-1.78,0-3.73,5.88-3.73,8.37c0,2.06,1.68,3.73,3.73,3.73s3.73-1.68,3.73-3.73C94.32,12.66,92.37,6.78,90.58,6.78z" />
							</g>
							<g>
								<path className="st2" d="M90.64,23.12c-0.25,0-0.45-0.2-0.45-0.45v-8.11c0-0.25,0.2-0.45,0.45-0.45c0.25,0,0.45,0.2,0.45,0.45
								v8.11C91.09,22.92,90.89,23.12,90.64,23.12z" />
							</g>
							<g>
								<path className="st8" d="M90.34,8.42c0,0-3,2.79-2.53,4.88C88.28,15.4,91.62,11.76,90.34,8.42z" />
							</g>
						</g>
					</g>
				</g>
				<g>
					<path className="st2" d="M87.41,20.56c-0.01-0.61-0.01-0.62-0.01-0.64c0-0.08-0.01-0.15-0.02-0.23c0.02-0.13,0.03-0.26,0.03-0.39
					c0-0.05,0-0.1-0.01-0.15c0.01-0.08,0.01-0.17,0.01-0.25l0-0.07c-0.01-0.61-0.01-0.62-0.01-0.64c0-0.08-0.01-0.15-0.02-0.23
					c0.02-0.13,0.03-0.26,0.03-0.39c-0.01-0.91-0.56-1.76-1.51-2.35c-0.83-0.51-1.92-0.79-3.07-0.79c-0.03,0-0.06,0-0.08,0
					c-2.59,0.03-4.61,1.46-4.59,3.25c0,0.1,0.01,0.2,0.02,0.3c-0.01,0.07-0.02,0.14-0.02,0.21c-0.01,0.09,0,0.81,0,0.82
					c0,0.05,0,0.1,0.01,0.15c-0.01,0.08-0.01,0.17-0.01,0.25c0,0.1,0.01,0.2,0.02,0.3c-0.01,0.07-0.02,0.14-0.02,0.21
					c-0.01,0.09,0,0.81,0,0.82c0,0.05,0,0.1,0.01,0.15c-0.01,0.08-0.01,0.17-0.01,0.25c0,0.1,0.01,0.2,0.02,0.3
					c-0.01,0.07-0.02,0.14-0.02,0.21c-0.01,0.09,0,0.81,0,0.82c0,0.05,0,0.1,0.01,0.15c-0.01,0.08-0.01,0.17-0.01,0.25
					c0,0.1,0.01,0.2,0.02,0.3c-0.01,0.07-0.02,0.14-0.02,0.21c-0.01,0.09,0,0.81,0,0.82c0,0.05,0,0.1,0.01,0.15
					c-0.01,0.08-0.01,0.17-0.01,0.25c0,0.1,0.01,0.2,0.02,0.3c-0.01,0.07-0.02,0.14-0.02,0.21c-0.01,0.09,0,0.81,0,0.82
					c0,0.05,0,0.1,0.01,0.15c-0.01,0.08-0.01,0.17-0.01,0.25c0,0.1,0.01,0.2,0.02,0.3c-0.01,0.07-0.02,0.14-0.02,0.21
					c-0.01,0.09,0,0.81,0,0.82c0,0.05,0,0.1,0.01,0.15c-0.01,0.08-0.01,0.17-0.01,0.25c0,0.1,0.01,0.2,0.02,0.3
					c-0.01,0.07-0.02,0.14-0.02,0.21c-0.01,0.09,0,0.81,0,0.82c0,0.05,0,0.1,0.01,0.15c-0.01,0.08-0.01,0.17-0.01,0.25
					c0,0.1,0.01,0.2,0.02,0.3c-0.01,0.07-0.02,0.14-0.02,0.21c-0.01,0.09,0,0.81,0,0.82c0.01,0.91,0.56,1.78,1.51,2.36
					c0.83,0.52,1.92,0.8,3.07,0.8c0.03,0,0.05,0,0.08,0c2.59-0.03,4.61-1.47,4.59-3.27l0-0.07c-0.01-0.61-0.01-0.62-0.01-0.64
					c0-0.08-0.01-0.15-0.02-0.23c0.02-0.13,0.03-0.26,0.03-0.39c0-0.05,0-0.1-0.01-0.15c0.01-0.08,0.01-0.17,0.01-0.25l0-0.07
					c-0.01-0.61-0.01-0.62-0.01-0.64c0-0.08-0.01-0.15-0.02-0.23c0.02-0.13,0.03-0.26,0.03-0.39c0-0.05,0-0.1-0.01-0.15
					c0.01-0.08,0.01-0.17,0.01-0.25l0-0.07c-0.01-0.61-0.01-0.62-0.01-0.64c0-0.08-0.01-0.15-0.02-0.23
					c0.02-0.13,0.03-0.26,0.03-0.39c0-0.05,0-0.1-0.01-0.15c0.01-0.08,0.01-0.17,0.01-0.25l0-0.07c-0.01-0.61-0.01-0.62-0.01-0.64
					c0-0.08-0.01-0.15-0.02-0.23c0.02-0.13,0.03-0.26,0.03-0.39c0-0.05,0-0.1-0.01-0.15c0.01-0.08,0.01-0.17,0.01-0.25l0-0.07
					c-0.01-0.61-0.01-0.62-0.01-0.64c0-0.08-0.01-0.15-0.02-0.23c0.02-0.13,0.03-0.26,0.03-0.39c0-0.05,0-0.1-0.01-0.15
					c0.01-0.08,0.01-0.17,0.01-0.25l0-0.07c-0.01-0.61-0.01-0.62-0.01-0.64c0-0.08-0.01-0.15-0.02-0.23
					c0.02-0.13,0.03-0.26,0.03-0.39c0-0.05,0-0.1-0.01-0.15c0.01-0.08,0.01-0.17,0.01-0.25L87.41,20.56z" />
					<g>
						<g>
							<path className="st3" d="M82.75,28.11c2.05-0.02,3.72,0.98,3.77,2.25c0,0.02,0.01,0.67,0.01,0.68c0.02,1.29-1.65,2.36-3.72,2.39
							c-2.07,0.02-3.76-1.01-3.78-2.3c0-0.04-0.01-0.71,0-0.75C79.12,29.14,80.74,28.13,82.75,28.11z" />
							<ellipse transform="matrix(0.9999 -0.0118 0.0118 0.9999 -0.3452 0.9785)" className="st4" cx="82.79" cy="29.76" rx="3.75" ry="2.32" />
							<path className="st5" d="M82.76,27.97c1.6-0.02,2.9,0.77,2.92,1.75c0.01,0.99-1.27,1.8-2.87,1.82c-1.6,0.02-2.9-0.77-2.92-1.75
							C79.88,28.8,81.17,27.99,82.76,27.97z" />
						</g>
						<g>
							<path className="st3" d="M82.75,26.38c2.05-0.02,3.72,0.98,3.77,2.25c0,0.02,0.01,0.67,0.01,0.68c0.02,1.29-1.65,2.36-3.72,2.39
							c-2.07,0.02-3.76-1.01-3.78-2.3c0-0.04-0.01-0.71,0-0.75C79.12,27.41,80.74,26.4,82.75,26.38z" />
							<ellipse transform="matrix(0.9999 -0.0118 0.0118 0.9999 -0.3248 0.9786)" className="st4" cx="82.79" cy="28.02" rx="3.75" ry="2.32" />
							<ellipse transform="matrix(0.9999 -0.0118 0.0118 0.9999 -0.3247 0.9782)" className="st5" cx="82.79" cy="28.02" rx="2.89" ry="1.79" />
						</g>
						<g>
							<path className="st3" d="M82.75,24.64c2.05-0.02,3.72,0.98,3.77,2.25c0,0.02,0.01,0.67,0.01,0.68c0.02,1.29-1.65,2.36-3.72,2.39
							c-2.07,0.02-3.76-1.01-3.78-2.3c0-0.04-0.01-0.71,0-0.75C79.12,25.67,80.74,24.67,82.75,24.64z" />
							<ellipse transform="matrix(0.9999 -0.0118 0.0118 0.9999 -0.3044 0.9785)" className="st4" cx="82.79" cy="26.29" rx="3.75" ry="2.32" />
							<ellipse transform="matrix(0.9999 -0.0118 0.0118 0.9999 -0.3043 0.9781)" className="st5" cx="82.79" cy="26.29" rx="2.89" ry="1.79" />
						</g>
						<g>
							<path className="st3" d="M82.75,22.91c2.05-0.02,3.72,0.98,3.77,2.25c0,0.02,0.01,0.67,0.01,0.68c0.02,1.29-1.65,2.36-3.72,2.39
							c-2.07,0.02-3.76-1-3.78-2.3c0-0.04-0.01-0.71,0-0.75C79.12,23.94,80.74,22.93,82.75,22.91z" />
							<ellipse transform="matrix(0.9999 -0.0118 0.0118 0.9999 -0.2839 0.9784)" className="st4" cx="82.79" cy="24.55" rx="3.75" ry="2.32" />
							<ellipse transform="matrix(0.9999 -0.0118 0.0118 0.9999 -0.2838 0.978)" className="st5" cx="82.79" cy="24.55" rx="2.89" ry="1.79" />
						</g>
						<g>
							<path className="st3" d="M82.75,21.17c2.05-0.02,3.72,0.98,3.77,2.25c0,0.02,0.01,0.67,0.01,0.68c0.02,1.29-1.65,2.36-3.72,2.39
							c-2.07,0.02-3.76-1.01-3.78-2.3c0-0.04-0.01-0.71,0-0.75C79.12,22.21,80.74,21.2,82.75,21.17z" />
							<ellipse transform="matrix(0.9999 -0.0118 0.0118 0.9999 -0.2634 0.978)" className="st4" cx="82.79" cy="22.82" rx="3.75" ry="2.32" />
							<path className="st5" d="M82.76,21.03c1.6-0.02,2.9,0.77,2.92,1.75c0.01,0.99-1.27,1.8-2.87,1.82c-1.6,0.02-2.9-0.77-2.92-1.75
							C79.88,21.87,81.17,21.05,82.76,21.03z" />
						</g>
						<g>
							<path className="st3" d="M82.75,19.44c2.05-0.02,3.72,0.98,3.77,2.25c0,0.02,0.01,0.67,0.01,0.68c0.02,1.29-1.65,2.36-3.72,2.39
							c-2.07,0.02-3.76-1.01-3.78-2.3c0-0.04-0.01-0.71,0-0.75C79.12,20.47,80.74,19.46,82.75,19.44z" />
							<ellipse transform="matrix(0.9999 -0.0118 0.0118 0.9999 -0.2429 0.9779)" className="st4" cx="82.79" cy="21.09" rx="3.75" ry="2.32" />
							<path className="st5" d="M82.76,19.3c1.6-0.02,2.9,0.77,2.92,1.75c0.01,0.99-1.27,1.8-2.87,1.82c-1.6,0.02-2.9-0.77-2.92-1.75
							C79.88,20.13,81.17,19.32,82.76,19.3z" />
						</g>
						<g>
							<path className="st3" d="M82.75,17.71c2.05-0.02,3.72,0.98,3.77,2.25c0,0.02,0.01,0.67,0.01,0.68c0.02,1.29-1.65,2.36-3.72,2.39
							c-2.07,0.02-3.76-1.01-3.78-2.3c0-0.04-0.01-0.71,0-0.75C79.12,18.74,80.74,17.73,82.75,17.71z" />
							<ellipse transform="matrix(0.9999 -0.0118 0.0118 0.9999 -0.2225 0.978)" className="st4" cx="82.79" cy="19.35" rx="3.75" ry="2.32" />
							<path className="st5" d="M82.76,17.56c1.6-0.02,2.9,0.77,2.92,1.75c0.01,0.99-1.27,1.8-2.87,1.82c-1.6,0.02-2.9-0.77-2.92-1.75
							C79.88,18.4,81.17,17.58,82.76,17.56z" />
						</g>
						<g>
							<path className="st3" d="M82.75,15.97c2.05-0.02,3.72,0.98,3.77,2.25c0,0.02,0.01,0.67,0.01,0.68c0.02,1.29-1.65,2.36-3.72,2.39
							c-2.07,0.02-3.76-1.01-3.78-2.3c0-0.04-0.01-0.71,0-0.75C79.12,17,80.74,15.99,82.75,15.97z" />
							<ellipse transform="matrix(0.9999 -0.0118 0.0118 0.9999 -0.202 0.9774)" className="st4" cx="82.79" cy="17.62" rx="3.75" ry="2.32" />
							<ellipse transform="matrix(0.9999 -0.0118 0.0118 0.9999 -0.2021 0.9778)" className="st5" cx="82.79" cy="17.62" rx="2.89" ry="1.79" />
						</g>
						<g>
							<path className="st6" d="M85.25,29.37c0.08-0.04,0.15-0.09,0.22-0.13v-1.36c-0.07,0.05-0.14,0.09-0.22,0.13V29.37z" />
							<path className="st6" d="M85.47,29.62c-0.07,0.05-0.14,0.09-0.22,0.13v1.36c0.08-0.04,0.15-0.09,0.22-0.13V29.62z" />
							<path className="st6" d="M85.8,27.65V29c0.08-0.07,0.15-0.14,0.22-0.21v-1.35C85.95,27.51,85.88,27.58,85.8,27.65z" />
							<path className="st6" d="M84.37,30.11c-0.07,0.02-0.14,0.04-0.22,0.06v1.36c0.07-0.02,0.15-0.04,0.22-0.06V30.11z" />
							<path className="st6" d="M84.92,29.91c-0.07,0.03-0.14,0.06-0.22,0.09v1.36c0.07-0.03,0.15-0.06,0.22-0.09V29.91z" />
							<path className="st6" d="M83.83,30.24c-0.07,0.01-0.15,0.03-0.22,0.04v1.36c0.07-0.01,0.15-0.02,0.22-0.04V30.24z" />
							<path className="st6" d="M83.61,29.9c0.07-0.01,0.15-0.02,0.22-0.04v-1.36c-0.07,0.01-0.15,0.03-0.22,0.04V29.9z" />
							<path className="st6" d="M83.06,29.96c0.07,0,0.15-0.01,0.22-0.02v-1.36c-0.07,0.01-0.15,0.01-0.22,0.02V29.96z" />
							<path className="st6" d="M84.16,29.8c0.07-0.02,0.15-0.04,0.22-0.06v-1.36c-0.07,0.02-0.14,0.04-0.22,0.06V29.8z" />
							<path className="st6" d="M84.7,29.62c0.07-0.03,0.15-0.06,0.22-0.09v-1.36c-0.07,0.03-0.14,0.06-0.22,0.09V29.62z" />
							<path className="st6" d="M79.99,29.59c-0.08-0.05-0.15-0.11-0.22-0.16v1.35c0.07,0.06,0.14,0.11,0.22,0.17V29.59z" />
							<path className="st6" d="M79.45,29.1c-0.09-0.1-0.16-0.21-0.22-0.32v1.34c0.06,0.11,0.13,0.22,0.22,0.33V29.1z" />
							<path className="st6" d="M83.28,30.32c-0.07,0.01-0.15,0.01-0.22,0.02v1.36c0.07,0,0.15-0.01,0.22-0.02V30.32z" />
							<path className="st6" d="M80.54,29.89c-0.08-0.03-0.15-0.07-0.22-0.11v1.35c0.07,0.04,0.14,0.07,0.22,0.11V29.89z" />
							<path className="st6" d="M85.8,29.38v1.35c0.08-0.07,0.15-0.14,0.22-0.21v-1.35C85.95,29.24,85.88,29.31,85.8,29.38z" />
							<path className="st6" d="M86.53,28.63c0-0.09-0.02-0.19-0.04-0.28c-0.03,0.13-0.08,0.25-0.14,0.37v1.35
							c0.13-0.24,0.19-0.49,0.19-0.76C86.54,29.3,86.53,28.65,86.53,28.63z" />
							<path className="st6" d="M82.73,30.34c-0.07,0-0.15,0-0.22,0v1.36c0.07,0,0.15,0,0.22,0V30.34z" />
							<path className="st6" d="M81.09,30.1c-0.07-0.02-0.15-0.05-0.22-0.07v1.36c0.07,0.03,0.14,0.05,0.22,0.07V30.1z" />
							<path className="st6" d="M82.18,30.31c-0.07-0.01-0.15-0.01-0.22-0.02v1.36c0.07,0.01,0.15,0.02,0.22,0.02V30.31z" />
							<path className="st6" d="M81.64,30.24c-0.07-0.01-0.15-0.03-0.22-0.05v1.36c0.07,0.02,0.14,0.03,0.22,0.05V30.24z" />
							<path className="st6" d="M82.51,28.6v1.36c0.07,0,0.15,0,0.22,0V28.6C82.66,28.6,82.59,28.6,82.51,28.6z" />
							<path className="st6" d="M81.97,29.91c0.07,0.01,0.15,0.02,0.22,0.02v-1.36c-0.07-0.01-0.15-0.01-0.22-0.02V29.91z" />
							<path className="st6" d="M83.83,31.98c-0.07,0.01-0.15,0.03-0.22,0.04v1.36c0.07-0.01,0.15-0.02,0.22-0.04V31.98z" />
							<path className="st6" d="M82.73,32.07c-0.07,0-0.15,0-0.22,0v1.36c0.07,0,0.15,0,0.22,0V32.07z" />
							<path className="st6" d="M83.28,33.41v-1.36c-0.07,0.01-0.15,0.01-0.22,0.02v1.36C83.13,33.42,83.21,33.42,83.28,33.41z" />
							<path className="st6" d="M82.18,32.05c-0.07-0.01-0.15-0.01-0.22-0.02v1.36c0.07,0.01,0.15,0.02,0.22,0.02V32.05z" />
							<path className="st6" d="M84.92,31.64c-0.07,0.03-0.14,0.06-0.22,0.09v1.36c0.07-0.03,0.15-0.06,0.22-0.09V31.64z" />
							<path className="st6" d="M85.47,31.35c-0.07,0.05-0.14,0.09-0.22,0.13v1.36c0.08-0.04,0.15-0.09,0.22-0.13V31.35z" />
							<path className="st6" d="M86.53,30.36c0-0.09-0.02-0.19-0.04-0.28c-0.03,0.13-0.08,0.25-0.14,0.37v1.35
							c0.13-0.24,0.19-0.49,0.19-0.76C86.54,31.03,86.53,30.38,86.53,30.36z" />
							<path className="st6" d="M86.49,26.62c-0.03,0.13-0.08,0.25-0.14,0.37v1.35c0.13-0.24,0.19-0.49,0.19-0.76
							c0-0.02-0.01-0.67-0.01-0.68C86.53,26.8,86.51,26.71,86.49,26.62z" />
							<path className="st6" d="M86.02,32.26v-1.35c-0.07,0.07-0.14,0.14-0.22,0.21v1.35C85.88,32.4,85.95,32.33,86.02,32.26z" />
							<path className="st6" d="M84.37,31.84c-0.07,0.02-0.14,0.04-0.22,0.06v1.36c0.07-0.02,0.15-0.04,0.22-0.06V31.84z" />
							<path className="st6" d="M80.32,29.4c0.07,0.04,0.14,0.07,0.22,0.11v-1.35c-0.08-0.03-0.15-0.07-0.22-0.11V29.4z" />
							<path className="st6" d="M79.77,29.04c0.07,0.06,0.14,0.11,0.22,0.17v-1.35c-0.08-0.05-0.15-0.11-0.22-0.16V29.04z" />
							<path className="st6" d="M79.23,27.04v1.34c0.06,0.11,0.13,0.22,0.22,0.33v-1.34C79.36,27.26,79.29,27.15,79.23,27.04z" />
							<path className="st6" d="M81.64,31.97c-0.07-0.01-0.15-0.03-0.22-0.05v1.36c0.07,0.02,0.14,0.03,0.22,0.05V31.97z" />
							<path className="st6" d="M80.87,29.65c0.07,0.03,0.14,0.05,0.22,0.07v-1.36c-0.07-0.02-0.15-0.05-0.22-0.07V29.65z" />
							<path className="st6" d="M81.42,29.81c0.07,0.02,0.14,0.03,0.22,0.05V28.5c-0.07-0.01-0.15-0.03-0.22-0.05V29.81z" />
							<path className="st6" d="M80.54,31.63c-0.08-0.03-0.15-0.07-0.22-0.11v1.35c0.07,0.04,0.14,0.07,0.22,0.11V31.63z" />
							<path className="st6" d="M79.45,30.83c-0.09-0.1-0.16-0.21-0.22-0.32v1.34c0.06,0.11,0.13,0.22,0.22,0.33V30.83z" />
							<path className="st6" d="M81.09,31.83c-0.07-0.02-0.15-0.05-0.22-0.07v1.36c0.07,0.03,0.14,0.05,0.22,0.07V31.83z" />
							<path className="st6" d="M79.99,32.67v-1.35c-0.08-0.05-0.15-0.11-0.22-0.16v1.35C79.84,32.56,79.92,32.62,79.99,32.67z" />
						</g>
						<g>
							<path className="st6" d="M85.25,24.17c0.08-0.04,0.15-0.09,0.22-0.13v-1.36c-0.07,0.05-0.14,0.09-0.22,0.13V24.17z" />
							<path className="st6" d="M85.47,24.42c-0.07,0.05-0.14,0.09-0.22,0.13v1.36c0.08-0.04,0.15-0.09,0.22-0.13V24.42z" />
							<path className="st6" d="M85.8,22.45v1.35c0.08-0.07,0.15-0.14,0.22-0.21v-1.35C85.95,22.31,85.88,22.38,85.8,22.45z" />
							<path className="st6" d="M84.37,24.91c-0.07,0.02-0.14,0.04-0.22,0.06v1.36c0.07-0.02,0.15-0.04,0.22-0.06V24.91z" />
							<path className="st6" d="M84.92,24.71c-0.07,0.03-0.14,0.06-0.22,0.09v1.36c0.07-0.03,0.15-0.06,0.22-0.09V24.71z" />
							<path className="st6" d="M83.83,25.04c-0.07,0.01-0.15,0.03-0.22,0.04v1.36c0.07-0.01,0.15-0.02,0.22-0.04V25.04z" />
							<path className="st6" d="M83.61,24.7c0.07-0.01,0.15-0.02,0.22-0.04v-1.36c-0.07,0.01-0.15,0.03-0.22,0.04V24.7z" />
							<path className="st6" d="M83.06,24.76c0.07,0,0.15-0.01,0.22-0.02v-1.36c-0.07,0.01-0.15,0.01-0.22,0.02V24.76z" />
							<path className="st6" d="M84.16,24.6c0.07-0.02,0.15-0.04,0.22-0.06v-1.36c-0.07,0.02-0.14,0.04-0.22,0.06V24.6z" />
							<path className="st6" d="M84.7,24.42c0.07-0.03,0.15-0.06,0.22-0.09v-1.36c-0.07,0.03-0.14,0.06-0.22,0.09V24.42z" />
							<path className="st6" d="M79.99,24.39c-0.08-0.05-0.15-0.11-0.22-0.16v1.35c0.07,0.06,0.14,0.11,0.22,0.17V24.39z" />
							<path className="st6" d="M79.45,23.9c-0.09-0.1-0.16-0.21-0.22-0.32v1.34c0.06,0.11,0.13,0.22,0.22,0.33V23.9z" />
							<path className="st6" d="M83.28,25.12c-0.07,0.01-0.15,0.01-0.22,0.02v1.36c0.07,0,0.15-0.01,0.22-0.02V25.12z" />
							<path className="st6" d="M80.54,24.69c-0.08-0.03-0.15-0.07-0.22-0.11v1.35c0.07,0.04,0.14,0.07,0.22,0.11V24.69z" />
							<path className="st6" d="M85.8,24.18v1.35c0.08-0.07,0.15-0.14,0.22-0.21v-1.35C85.95,24.04,85.88,24.11,85.8,24.18z" />
							<path className="st6" d="M86.53,23.43c0-0.09-0.02-0.19-0.04-0.28c-0.03,0.13-0.08,0.25-0.14,0.37v1.35
							c0.13-0.24,0.19-0.49,0.19-0.76C86.54,24.1,86.53,23.45,86.53,23.43z" />
							<path className="st6" d="M82.73,25.14c-0.07,0-0.15,0-0.22,0v1.36c0.07,0,0.15,0,0.22,0V25.14z" />
							<path className="st6" d="M81.09,24.9c-0.07-0.02-0.15-0.05-0.22-0.07v1.36c0.07,0.03,0.14,0.05,0.22,0.07V24.9z" />
							<path className="st6" d="M82.18,25.11c-0.07-0.01-0.15-0.01-0.22-0.02v1.36c0.07,0.01,0.15,0.02,0.22,0.02V25.11z" />
							<path className="st6" d="M81.64,25.04c-0.07-0.01-0.15-0.03-0.22-0.05v1.36c0.07,0.02,0.14,0.03,0.22,0.05V25.04z" />
							<path className="st6" d="M82.51,23.4v1.36c0.07,0,0.15,0,0.22,0v-1.36C82.66,23.41,82.59,23.4,82.51,23.4z" />
							<path className="st6" d="M81.97,24.72c0.07,0.01,0.15,0.02,0.22,0.02v-1.36c-0.07-0.01-0.15-0.01-0.22-0.02V24.72z" />
							<path className="st6" d="M83.83,26.78c-0.07,0.01-0.15,0.03-0.22,0.04v1.36c0.07-0.01,0.15-0.02,0.22-0.04V26.78z" />
							<path className="st6" d="M82.73,26.87c-0.07,0-0.15,0-0.22,0v1.36c0.07,0,0.15,0,0.22,0V26.87z" />
							<path className="st6" d="M83.28,28.21v-1.36c-0.07,0.01-0.15,0.01-0.22,0.02v1.36C83.13,28.22,83.21,28.22,83.28,28.21z" />
							<path className="st6" d="M82.18,26.85c-0.07-0.01-0.15-0.01-0.22-0.02v1.36c0.07,0.01,0.15,0.02,0.22,0.02V26.85z" />
							<path className="st6" d="M84.92,26.45c-0.07,0.03-0.14,0.06-0.22,0.09v1.36c0.07-0.03,0.15-0.06,0.22-0.09V26.45z" />
							<path className="st6" d="M85.47,26.16c-0.07,0.05-0.14,0.09-0.22,0.13v1.36c0.08-0.04,0.15-0.09,0.22-0.13V26.16z" />
							<path className="st6" d="M86.53,25.16c0-0.09-0.02-0.19-0.04-0.28c-0.03,0.13-0.08,0.25-0.14,0.37v1.35
							c0.13-0.24,0.19-0.49,0.19-0.76C86.54,25.83,86.53,25.18,86.53,25.16z" />
							<path className="st6" d="M86.49,21.42c-0.03,0.13-0.08,0.25-0.14,0.37v1.35c0.13-0.24,0.19-0.49,0.19-0.76
							c0-0.02-0.01-0.67-0.01-0.68C86.53,21.6,86.51,21.51,86.49,21.42z" />
							<path className="st6" d="M86.02,27.06v-1.35c-0.07,0.07-0.14,0.14-0.22,0.21v1.35C85.88,27.2,85.95,27.13,86.02,27.06z" />
							<path className="st6" d="M84.37,26.64c-0.07,0.02-0.14,0.04-0.22,0.06v1.36c0.07-0.02,0.15-0.04,0.22-0.06V26.64z" />
							<path className="st6" d="M80.32,24.2c0.07,0.04,0.14,0.07,0.22,0.11v-1.35c-0.08-0.03-0.15-0.07-0.22-0.11V24.2z" />
							<path className="st6" d="M79.77,23.84c0.07,0.06,0.14,0.11,0.22,0.17v-1.35c-0.08-0.05-0.15-0.11-0.22-0.16V23.84z" />
							<path className="st6" d="M79.23,21.84v1.34c0.06,0.11,0.13,0.22,0.22,0.33v-1.34C79.36,22.06,79.29,21.95,79.23,21.84z" />
							<path className="st6" d="M81.64,26.77c-0.07-0.01-0.15-0.03-0.22-0.05v1.36c0.07,0.02,0.14,0.03,0.22,0.05V26.77z" />
							<path className="st6" d="M80.87,24.45c0.07,0.03,0.14,0.05,0.22,0.07v-1.36c-0.07-0.02-0.15-0.05-0.22-0.07V24.45z" />
							<path className="st6" d="M81.42,24.61c0.07,0.02,0.14,0.03,0.22,0.05V23.3c-0.07-0.01-0.15-0.03-0.22-0.05V24.61z" />
							<path className="st6" d="M80.54,26.43c-0.08-0.03-0.15-0.07-0.22-0.11v1.35c0.07,0.04,0.14,0.07,0.22,0.11V26.43z" />
							<path className="st6" d="M79.45,25.63c-0.09-0.1-0.16-0.21-0.22-0.32v1.34c0.06,0.11,0.13,0.22,0.22,0.33V25.63z" />
							<path className="st6" d="M81.09,26.63c-0.07-0.02-0.15-0.05-0.22-0.07v1.36c0.07,0.03,0.14,0.05,0.22,0.07V26.63z" />
							<path className="st6" d="M79.99,27.47v-1.35c-0.08-0.05-0.15-0.11-0.22-0.16v1.35C79.84,27.36,79.92,27.42,79.99,27.47z" />
						</g>
						<g>
							<path className="st6" d="M85.47,19.22c-0.07,0.05-0.14,0.09-0.22,0.13v1.36c0.08-0.04,0.15-0.09,0.22-0.13V19.22z" />
							<path className="st6" d="M84.37,19.71c-0.07,0.02-0.14,0.04-0.22,0.06v1.36c0.07-0.02,0.15-0.04,0.22-0.06V19.71z" />
							<path className="st6" d="M84.92,19.51c-0.07,0.03-0.14,0.06-0.22,0.09v1.36c0.07-0.03,0.15-0.06,0.22-0.09V19.51z" />
							<path className="st6" d="M83.83,19.84c-0.07,0.01-0.15,0.03-0.22,0.04v1.36c0.07-0.01,0.15-0.02,0.22-0.04V19.84z" />
							<path className="st6" d="M79.99,19.19c-0.08-0.05-0.15-0.11-0.22-0.16v1.35c0.07,0.06,0.14,0.11,0.22,0.17V19.19z" />
							<path className="st6" d="M79.45,18.7c-0.09-0.1-0.16-0.21-0.22-0.32v1.34c0.06,0.11,0.13,0.22,0.22,0.33V18.7z" />
							<path className="st6" d="M83.28,19.92c-0.07,0.01-0.15,0.01-0.22,0.02v1.36c0.07,0,0.15-0.01,0.22-0.02V19.92z" />
							<path className="st6" d="M80.54,19.49c-0.08-0.03-0.15-0.07-0.22-0.11v1.35c0.07,0.04,0.14,0.07,0.22,0.11V19.49z" />
							<path className="st6" d="M85.8,18.98v1.35c0.08-0.07,0.15-0.14,0.22-0.21v-1.35C85.95,18.85,85.88,18.91,85.8,18.98z" />
							<path className="st6" d="M86.53,18.23c0-0.09-0.02-0.19-0.04-0.28c-0.03,0.13-0.08,0.25-0.14,0.37v1.35
							c0.13-0.24,0.19-0.49,0.19-0.76C86.54,18.9,86.53,18.25,86.53,18.23z" />
							<path className="st6" d="M82.73,19.94c-0.07,0-0.15,0-0.22,0v1.36c0.07,0,0.15,0,0.22,0V19.94z" />
							<path className="st6" d="M81.09,19.7c-0.07-0.02-0.15-0.05-0.22-0.07v1.36c0.07,0.03,0.14,0.05,0.22,0.07V19.7z" />
							<path className="st6" d="M82.18,19.91c-0.07-0.01-0.15-0.01-0.22-0.02v1.36c0.07,0.01,0.15,0.02,0.22,0.03V19.91z" />
							<path className="st6" d="M81.64,19.84c-0.07-0.01-0.15-0.03-0.22-0.05v1.36c0.07,0.02,0.14,0.03,0.22,0.05V19.84z" />
							<path className="st6" d="M83.83,21.58c-0.07,0.01-0.15,0.03-0.22,0.04v1.36c0.07-0.01,0.15-0.02,0.22-0.04V21.58z" />
							<path className="st6" d="M82.73,21.67c-0.07,0-0.15,0-0.22,0v1.36c0.07,0,0.15,0,0.22,0V21.67z" />
							<path className="st6" d="M83.28,23.01v-1.36c-0.07,0.01-0.15,0.01-0.22,0.02v1.36C83.13,23.02,83.21,23.02,83.28,23.01z" />
							<path className="st6" d="M82.18,21.65c-0.07-0.01-0.15-0.01-0.22-0.02v1.36c0.07,0.01,0.15,0.02,0.22,0.02V21.65z" />
							<path className="st6" d="M84.92,21.25c-0.07,0.03-0.14,0.06-0.22,0.09v1.36c0.07-0.03,0.15-0.06,0.22-0.09V21.25z" />
							<path className="st6" d="M85.47,20.96c-0.07,0.05-0.14,0.09-0.22,0.13v1.36c0.08-0.04,0.15-0.09,0.22-0.13V20.96z" />
							<path className="st6" d="M86.53,19.97c0-0.09-0.02-0.19-0.04-0.28c-0.03,0.13-0.08,0.25-0.14,0.37v1.35
							c0.13-0.24,0.19-0.49,0.19-0.76C86.54,20.63,86.53,19.98,86.53,19.97z" />
							<path className="st6" d="M86.02,21.86v-1.35c-0.07,0.07-0.14,0.14-0.22,0.21v1.35C85.88,22,85.95,21.93,86.02,21.86z" />
							<path className="st6" d="M84.37,21.45c-0.07,0.02-0.14,0.04-0.22,0.06v1.36c0.07-0.02,0.15-0.04,0.22-0.06V21.45z" />
							<path className="st6" d="M81.64,21.57c-0.07-0.01-0.15-0.03-0.22-0.05v1.36c0.07,0.02,0.14,0.03,0.22,0.05V21.57z" />
							<path className="st6" d="M80.54,21.23c-0.08-0.03-0.15-0.07-0.22-0.11v1.35c0.07,0.04,0.14,0.07,0.22,0.11V21.23z" />
							<path className="st6" d="M79.45,20.43c-0.09-0.1-0.16-0.21-0.22-0.32v1.34c0.06,0.11,0.13,0.22,0.22,0.33V20.43z" />
							<path className="st6" d="M81.09,21.44c-0.07-0.02-0.15-0.05-0.22-0.07v1.36c0.07,0.03,0.14,0.05,0.22,0.07V21.44z" />
							<path className="st6" d="M79.99,22.27v-1.35c-0.08-0.05-0.15-0.11-0.22-0.16v1.35C79.84,22.16,79.92,22.22,79.99,22.27z" />
						</g>
					</g>
					<g id="tree_1_">
						<g>
							<circle className="st9" cx="82.73" cy="5.95" r="4.18" />
							<path className="st2" d="M82.73,10.58c-2.56,0-4.63-2.08-4.63-4.63c0-2.56,2.08-4.63,4.63-4.63s4.63,2.08,4.63,4.63
							C87.37,8.5,85.29,10.58,82.73,10.58z M82.73,2.21C80.67,2.21,79,3.89,79,5.95s1.68,3.73,3.73,3.73c2.06,0,3.73-1.68,3.73-3.73
							S84.79,2.21,82.73,2.21z" />
						</g>
						<g>
							<path className="st2" d="M82.79,17.3c-0.25,0-0.45-0.2-0.45-0.45V7.21c0-0.25,0.2-0.45,0.45-0.45c0.25,0,0.45,0.2,0.45,0.45v9.64
							C83.24,17.1,83.04,17.3,82.79,17.3z" />
						</g>
						<g>
							<path className="st10" d="M80.83,6.39c0-1.47,1.19-2.66,2.66-2.66c0.43,0,0.85,0.1,1.21,0.29c-0.48-0.72-1.29-1.2-2.22-1.2
							c-1.47,0-2.66,1.19-2.66,2.66c0,1.04,0.59,1.93,1.45,2.37C80.99,7.43,80.83,6.93,80.83,6.39z" />
						</g>
					</g>
					<polygon className="st11" points="85.88,18.29 86.24,17.4 86.91,16.91 86.22,16.43 85.84,15.56 85.48,16.45 84.81,16.94 85.5,17.41 
									" />
				</g>
				<g>
					<path className="st2" d="M80.94,28.59c0-0.08-0.01-0.16-0.02-0.23c0.02-0.13,0.03-0.26,0.03-0.39c0-0.05,0-0.1-0.01-0.15
					c0.01-0.08,0.01-0.17,0.01-0.25c0,0-0.01-0.67-0.01-0.71c0-0.08-0.01-0.16-0.02-0.23c0.02-0.13,0.03-0.26,0.03-0.39
					c-0.01-0.91-0.56-1.76-1.51-2.35c-0.83-0.51-1.92-0.79-3.07-0.79c-0.03,0-0.06,0-0.08,0c-2.59,0.03-4.61,1.46-4.59,3.25
					c0,0.1,0.01,0.2,0.02,0.3c-0.01,0.07-0.02,0.14-0.02,0.21c-0.01,0.09,0,0.81,0,0.82c0,0.05,0,0.1,0.01,0.15
					C71.7,27.91,71.7,28,71.7,28.08c0,0.1,0.01,0.2,0.02,0.3c-0.01,0.07-0.02,0.14-0.02,0.21c-0.01,0.09,0,0.81,0,0.82
					c0,0.05,0,0.1,0.01,0.15c-0.01,0.08-0.01,0.17-0.01,0.25c0,0.1,0.01,0.2,0.02,0.3c-0.01,0.07-0.02,0.14-0.02,0.21
					c-0.01,0.09,0,0.81,0,0.82c0.01,0.91,0.56,1.78,1.51,2.36c0.83,0.52,1.92,0.8,3.07,0.8c0.03,0,0.05,0,0.08,0
					c1.16-0.01,2.27-0.32,3.1-0.86c0.95-0.61,1.49-1.49,1.48-2.42c0-0.01-0.01-0.67-0.01-0.71c0-0.08-0.01-0.16-0.02-0.23
					c0.02-0.13,0.03-0.26,0.03-0.39c0-0.05,0-0.1-0.01-0.15c0.01-0.08,0.01-0.17,0.01-0.25C80.95,29.3,80.94,28.63,80.94,28.59z" />
					<g>
						<g>
							<path className="st3" d="M76.29,28.11c2.05-0.02,3.72,0.98,3.77,2.25c0,0.02,0.01,0.67,0.01,0.68c0.02,1.29-1.65,2.36-3.72,2.39
							c-2.07,0.02-3.76-1.01-3.78-2.3c0-0.04-0.01-0.71,0-0.75C72.66,29.14,74.28,28.13,76.29,28.11z" />
							<ellipse transform="matrix(0.9999 -0.0118 0.0118 0.9999 -0.3456 0.9022)" className="st4" cx="76.33" cy="29.76" rx="3.75" ry="2.32" />
							<ellipse transform="matrix(0.9999 -0.0118 0.0118 0.9999 -0.3458 0.9026)" className="st5" cx="76.33" cy="29.76" rx="2.89" ry="1.79" />
						</g>
						<g>
							<path className="st3" d="M76.29,26.38c2.05-0.02,3.72,0.98,3.77,2.25c0,0.02,0.01,0.67,0.01,0.68c0.02,1.29-1.65,2.36-3.72,2.39
							c-2.07,0.02-3.76-1.01-3.78-2.3c0-0.04-0.01-0.71,0-0.75C72.66,27.41,74.28,26.4,76.29,26.38z" />
							<ellipse transform="matrix(0.9999 -0.0118 0.0118 0.9999 -0.3252 0.9021)" className="st4" cx="76.33" cy="28.02" rx="3.75" ry="2.32" />
							<ellipse transform="matrix(0.9999 -0.0118 0.0118 0.9999 -0.3252 0.9021)" className="st5" cx="76.33" cy="28.02" rx="2.89" ry="1.79" />
						</g>
						<g>
							<path className="st3" d="M76.29,24.64c2.05-0.02,3.72,0.98,3.77,2.25c0,0.02,0.01,0.67,0.01,0.68c0.02,1.29-1.65,2.36-3.72,2.39
							c-2.07,0.02-3.76-1.01-3.78-2.3c0-0.04-0.01-0.71,0-0.75C72.66,25.67,74.28,24.67,76.29,24.64z" />
							<path className="st4" d="M76.3,23.97c2.07-0.02,3.76,0.99,3.78,2.27c0.02,1.28-1.65,2.34-3.72,2.36
							c-2.07,0.02-3.76-0.99-3.78-2.27C72.56,25.05,74.23,24,76.3,23.97z" />
							<ellipse transform="matrix(0.9999 -0.0118 0.0118 0.9999 -0.3048 0.9023)" className="st5" cx="76.33" cy="26.29" rx="2.89" ry="1.79" />
						</g>
						<g>
							<path className="st6" d="M78.79,29.37c0.08-0.04,0.15-0.09,0.22-0.13v-1.36c-0.07,0.05-0.14,0.09-0.22,0.13V29.37z" />
							<path className="st6" d="M79.01,29.62c-0.07,0.05-0.14,0.09-0.22,0.13v1.36c0.08-0.04,0.15-0.09,0.22-0.13V29.62z" />
							<path className="st6" d="M79.34,27.65V29c0.08-0.07,0.15-0.14,0.22-0.21v-1.35C79.49,27.51,79.42,27.58,79.34,27.65z" />
							<path className="st6" d="M77.91,30.11c-0.07,0.02-0.14,0.04-0.22,0.06v1.36c0.07-0.02,0.15-0.04,0.22-0.06V30.11z" />
							<path className="st6" d="M78.46,29.91c-0.07,0.03-0.14,0.06-0.22,0.09v1.36c0.07-0.03,0.15-0.06,0.22-0.09V29.91z" />
							<path className="st6" d="M77.37,30.24c-0.07,0.01-0.15,0.03-0.22,0.04v1.36c0.07-0.01,0.15-0.02,0.22-0.04V30.24z" />
							<path className="st6" d="M77.15,29.9c0.07-0.01,0.15-0.02,0.22-0.04v-1.36c-0.07,0.01-0.15,0.03-0.22,0.04V29.9z" />
							<path className="st6" d="M76.6,29.96c0.07,0,0.15-0.01,0.22-0.02v-1.36c-0.07,0.01-0.15,0.01-0.22,0.02V29.96z" />
							<path className="st6" d="M77.69,29.8c0.07-0.02,0.15-0.04,0.22-0.06v-1.36c-0.07,0.02-0.14,0.04-0.22,0.06V29.8z" />
							<path className="st6" d="M78.24,29.62c0.07-0.03,0.15-0.06,0.22-0.09v-1.36c-0.07,0.03-0.14,0.06-0.22,0.09V29.62z" />
							<path className="st6" d="M73.53,29.59c-0.08-0.05-0.15-0.11-0.22-0.16v1.35c0.07,0.06,0.14,0.11,0.22,0.17V29.59z" />
							<path className="st6" d="M72.98,29.1c-0.09-0.1-0.16-0.21-0.22-0.32v1.34c0.06,0.11,0.13,0.22,0.22,0.33V29.1z" />
							<path className="st6" d="M76.82,30.32c-0.07,0.01-0.15,0.01-0.22,0.02v1.36c0.07,0,0.15-0.01,0.22-0.02V30.32z" />
							<path className="st6" d="M74.08,29.89c-0.08-0.03-0.15-0.07-0.22-0.11v1.35c0.07,0.04,0.14,0.07,0.22,0.11V29.89z" />
							<path className="st6" d="M79.34,29.38v1.35c0.08-0.07,0.15-0.14,0.22-0.21v-1.35C79.49,29.24,79.42,29.31,79.34,29.38z" />
							<path className="st6" d="M80.07,28.63c0-0.09-0.02-0.19-0.04-0.28c-0.03,0.13-0.08,0.25-0.14,0.37v1.35
							c0.13-0.24,0.19-0.49,0.19-0.76C80.08,29.3,80.07,28.65,80.07,28.63z" />
							<path className="st6" d="M76.27,30.34c-0.07,0-0.15,0-0.22,0v1.36c0.07,0,0.15,0,0.22,0V30.34z" />
							<path className="st6" d="M74.63,30.1c-0.07-0.02-0.15-0.05-0.22-0.07v1.36c0.07,0.03,0.14,0.05,0.22,0.07V30.1z" />
							<path className="st6" d="M75.72,30.31c-0.07-0.01-0.15-0.01-0.22-0.02v1.36c0.07,0.01,0.15,0.02,0.22,0.02V30.31z" />
							<path className="st6" d="M75.17,30.24c-0.07-0.01-0.15-0.03-0.22-0.05v1.36c0.07,0.02,0.14,0.03,0.22,0.05V30.24z" />
							<path className="st6" d="M76.05,28.6v1.36c0.07,0,0.15,0,0.22,0V28.6C76.2,28.6,76.12,28.6,76.05,28.6z" />
							<path className="st6" d="M75.5,29.91c0.07,0.01,0.15,0.02,0.22,0.02v-1.36c-0.07-0.01-0.15-0.01-0.22-0.02V29.91z" />
							<path className="st6" d="M77.37,31.98c-0.07,0.01-0.15,0.03-0.22,0.04v1.36c0.07-0.01,0.15-0.02,0.22-0.04V31.98z" />
							<path className="st6" d="M76.27,32.07c-0.07,0-0.15,0-0.22,0v1.36c0.07,0,0.15,0,0.22,0V32.07z" />
							<path className="st6" d="M76.82,33.41v-1.36c-0.07,0.01-0.15,0.01-0.22,0.02v1.36C76.67,33.42,76.75,33.42,76.82,33.41z" />
							<path className="st6" d="M75.72,32.05c-0.07-0.01-0.15-0.01-0.22-0.02v1.36c0.07,0.01,0.15,0.02,0.22,0.02V32.05z" />
							<path className="st6" d="M78.46,31.64c-0.07,0.03-0.14,0.06-0.22,0.09v1.36c0.07-0.03,0.15-0.06,0.22-0.09V31.64z" />
							<path className="st6" d="M79.01,31.35c-0.07,0.05-0.14,0.09-0.22,0.13v1.36c0.08-0.04,0.15-0.09,0.22-0.13V31.35z" />
							<path className="st6" d="M80.07,30.36c0-0.09-0.02-0.19-0.04-0.28c-0.03,0.13-0.08,0.25-0.14,0.37v1.35
							c0.13-0.24,0.19-0.49,0.19-0.76C80.08,31.03,80.07,30.38,80.07,30.36z" />
							<path className="st6" d="M80.03,26.62c-0.03,0.13-0.08,0.25-0.14,0.37v1.35c0.13-0.24,0.19-0.49,0.19-0.76
							c0-0.02-0.01-0.67-0.01-0.68C80.06,26.8,80.05,26.71,80.03,26.62z" />
							<path className="st6" d="M79.56,32.26v-1.35c-0.07,0.07-0.14,0.14-0.22,0.21v1.35C79.42,32.4,79.49,32.33,79.56,32.26z" />
							<path className="st6" d="M77.91,31.84c-0.07,0.02-0.14,0.04-0.22,0.06v1.36c0.07-0.02,0.15-0.04,0.22-0.06V31.84z" />
							<path className="st6" d="M73.86,29.4c0.07,0.04,0.14,0.07,0.22,0.11v-1.35c-0.08-0.03-0.15-0.07-0.22-0.11V29.4z" />
							<path className="st6" d="M73.31,29.04c0.07,0.06,0.14,0.11,0.22,0.17v-1.35c-0.08-0.05-0.15-0.11-0.22-0.16V29.04z" />
							<path className="st6" d="M72.77,27.04v1.34c0.06,0.11,0.13,0.22,0.22,0.33v-1.34C72.9,27.26,72.83,27.15,72.77,27.04z" />
							<path className="st6" d="M75.17,31.97c-0.07-0.01-0.15-0.03-0.22-0.05v1.36c0.07,0.02,0.14,0.03,0.22,0.05V31.97z" />
							<path className="st6" d="M74.41,29.65c0.07,0.03,0.14,0.05,0.22,0.07v-1.36c-0.07-0.02-0.15-0.05-0.22-0.07V29.65z" />
							<path className="st6" d="M74.96,29.81c0.07,0.02,0.14,0.03,0.22,0.05V28.5c-0.07-0.01-0.15-0.03-0.22-0.05V29.81z" />
							<path className="st6" d="M74.08,31.63c-0.08-0.03-0.15-0.07-0.22-0.11v1.35c0.07,0.04,0.14,0.07,0.22,0.11V31.63z" />
							<path className="st6" d="M72.98,30.83c-0.09-0.1-0.16-0.21-0.22-0.32v1.34c0.06,0.11,0.13,0.22,0.22,0.33V30.83z" />
							<path className="st6" d="M74.63,31.83c-0.07-0.02-0.15-0.05-0.22-0.07v1.36c0.07,0.03,0.14,0.05,0.22,0.07V31.83z" />
							<path className="st6" d="M73.53,32.67v-1.35c-0.08-0.05-0.15-0.11-0.22-0.16v1.35C73.38,32.56,73.45,32.62,73.53,32.67z" />
						</g>
					</g>
					<g id="fir_1_">
						<g>
							<polygon className="st12" points="81.22,20.73 78.02,17.11 80.49,17.11 77.76,13.48 79.98,13.48 76.21,7.8 72.43,13.48 
							74.66,13.48 71.92,17.11 74.4,17.11 71.2,20.73 						" />
							<path className="st2" d="M81.22,21.18H71.2c-0.18,0-0.34-0.1-0.41-0.26c-0.07-0.16-0.04-0.35,0.07-0.48l2.54-2.88h-1.48
							c-0.17,0-0.33-0.1-0.4-0.25c-0.08-0.15-0.06-0.34,0.04-0.47l2.19-2.91h-1.32c-0.17,0-0.32-0.09-0.4-0.24
							c-0.08-0.15-0.07-0.32,0.02-0.46l3.78-5.68c0.08-0.13,0.22-0.2,0.37-0.2s0.29,0.08,0.37,0.2l3.78,5.68
							c0.09,0.14,0.1,0.32,0.02,0.46c-0.08,0.15-0.23,0.24-0.4,0.24h-1.32l2.19,2.91c0.1,0.14,0.12,0.32,0.04,0.47
							c-0.08,0.15-0.23,0.25-0.4,0.25h-1.48l2.54,2.88c0.12,0.13,0.15,0.32,0.07,0.48C81.55,21.08,81.39,21.18,81.22,21.18z
							 M72.2,20.28h8.02l-2.54-2.88c-0.12-0.13-0.15-0.32-0.07-0.48c0.07-0.16,0.23-0.26,0.41-0.26h1.57l-2.19-2.91
							c-0.1-0.14-0.12-0.32-0.04-0.47c0.08-0.15,0.23-0.25,0.4-0.25h1.39l-2.94-4.42l-2.94,4.42h1.39c0.17,0,0.33,0.1,0.4,0.25
							s0.06,0.34-0.04,0.47l-2.19,2.91h1.57c0.18,0,0.34,0.1,0.41,0.26c0.07,0.16,0.04,0.35-0.07,0.48L72.2,20.28z" />
						</g>
						<g>
							<path className="st2" d="M76.21,26.54c-0.25,0-0.45-0.2-0.45-0.45v-5.2c0-0.25,0.2-0.45,0.45-0.45c0.25,0,0.45,0.2,0.45,0.45v5.2
							C76.66,26.34,76.46,26.54,76.21,26.54z" />
						</g>
						<g>
							<polygon className="st13" points="76.21,9.48 74.17,12.36 76.38,13.25 						" />
						</g>
					</g>
				</g>
			</g>
			<g>
				<path className="st2" d="M17.22,11.9h-3.37v4.59H9.9V4.11h8.12l-0.5,3.17h-3.66v1.67h3.37V11.9z" />
				<path className="st2" d="M27.85,12.36l2.15,4.13h-4.36l-1.62-3.68h-0.86v3.68H19.2V4.11h6.24c2.84,0,4.26,1.45,4.26,4.34
				C29.7,10.43,29.08,11.73,27.85,12.36z M24.07,7.28h-0.91v2.47h0.91c0.48,0,0.83-0.05,1.05-0.15c0.21-0.1,0.32-0.32,0.32-0.68V8.1
				c0-0.35-0.11-0.58-0.32-0.68C24.9,7.33,24.55,7.28,24.07,7.28z" />
				<path className="st2" d="M30.79,10.31c0-1.13,0.1-2.11,0.29-2.93c0.19-0.82,0.52-1.49,0.97-2.02c0.46-0.53,1.06-0.92,1.81-1.17
				c0.75-0.25,1.67-0.38,2.77-0.38c1.11,0,2.04,0.13,2.78,0.38s1.34,0.64,1.8,1.17c0.46,0.53,0.78,1.2,0.97,2.02
				c0.19,0.82,0.29,1.8,0.29,2.93c0,1.08-0.09,2.02-0.26,2.83c-0.18,0.81-0.49,1.48-0.93,2.02c-0.45,0.54-1.05,0.94-1.8,1.21
				c-0.75,0.27-1.7,0.4-2.85,0.4c-1.14,0-2.09-0.14-2.85-0.4c-0.75-0.27-1.35-0.67-1.8-1.21c-0.45-0.54-0.76-1.21-0.93-2.02
				C30.87,12.34,30.79,11.39,30.79,10.31z M35.04,8.25v5.15h1.65c0.55,0,0.94-0.06,1.18-0.19c0.24-0.13,0.35-0.42,0.35-0.87V7.2
				h-1.67c-0.53,0-0.91,0.06-1.15,0.19C35.16,7.51,35.04,7.8,35.04,8.25z" />
				<path className="st2" d="M54.84,16.49h-3.73l-3.02-4.39c-0.06-0.08-0.1-0.19-0.13-0.35c-0.03-0.15-0.06-0.36-0.07-0.61h-0.08v5.35
				h-3.96V4.11h3.73L50.6,8.5c0.05,0.08,0.1,0.19,0.13,0.35C50.77,9,50.79,9.2,50.8,9.46h0.08V4.11h3.96V16.49z" />
				<path className="st2" d="M65.63,7.28h-2.87v9.21H58.8V7.28h-2.87V4.11h9.7V7.28z" />
				<path className="st2" d="M20.29,30.5h-2.57v2.99h-3.96V21.11H20c2.84,0,4.26,1.52,4.26,4.57c0,0.67-0.07,1.3-0.2,1.88
				c-0.13,0.58-0.35,1.09-0.67,1.53c-0.31,0.44-0.72,0.78-1.22,1.03C21.66,30.38,21.04,30.5,20.29,30.5z M18.63,24.28h-0.91v3.05
				h0.91c0.48,0,0.83-0.05,1.05-0.15c0.21-0.1,0.32-0.33,0.32-0.69v-1.39c0-0.35-0.11-0.58-0.32-0.68
				C19.46,24.33,19.11,24.28,18.63,24.28z" />
				<path className="st2" d="M24.85,27.32c0-1.13,0.1-2.11,0.29-2.93c0.19-0.82,0.52-1.49,0.97-2.02c0.46-0.53,1.06-0.92,1.81-1.17
				c0.75-0.25,1.67-0.38,2.77-0.38c1.11,0,2.04,0.13,2.78,0.38c0.74,0.25,1.34,0.64,1.8,1.17c0.46,0.53,0.78,1.2,0.97,2.02
				c0.19,0.82,0.29,1.8,0.29,2.93c0,1.08-0.09,2.02-0.26,2.83c-0.18,0.81-0.49,1.48-0.93,2.02c-0.45,0.54-1.05,0.94-1.8,1.21
				c-0.75,0.27-1.7,0.4-2.85,0.4c-1.14,0-2.09-0.14-2.85-0.4c-0.75-0.27-1.35-0.67-1.8-1.21c-0.45-0.54-0.76-1.21-0.93-2.02
				C24.93,29.34,24.85,28.4,24.85,27.32z M29.1,25.25v5.15h1.65c0.55,0,0.94-0.06,1.18-0.19c0.24-0.13,0.35-0.42,0.35-0.87V24.2
				h-1.67c-0.53,0-0.91,0.06-1.16,0.19C29.22,24.52,29.1,24.8,29.1,25.25z" />
				<path className="st2" d="M37.91,33.49V21.11h3.96v12.38H37.91z" />
				<path className="st2" d="M54.84,33.49h-3.73l-3.02-4.39c-0.06-0.08-0.1-0.19-0.13-0.35c-0.03-0.15-0.06-0.36-0.07-0.61h-0.08v5.35
				h-3.96V21.11h3.73l3.02,4.39c0.05,0.08,0.1,0.19,0.13,0.35c0.03,0.15,0.06,0.36,0.07,0.61h0.08v-5.35h3.96V33.49z" />
				<path className="st2" d="M65.63,24.28h-2.87v9.21H58.8v-9.21h-2.87v-3.17h9.7V24.28z" />
			</g>
		</g>
	</g>
	<g id="logo_mobile">
		<g>
			<g>
				<path className="st2" d="M35.18,26.86c0-0.08-0.01-0.16-0.02-0.24c0.02-0.13,0.03-0.26,0.03-0.39c0-0.05,0-0.09-0.01-0.14
				c0.01-0.09,0.01-0.17,0.01-0.26c0-0.01-0.01-0.67-0.01-0.71c0-0.08-0.01-0.15-0.02-0.24c0.02-0.13,0.03-0.26,0.03-0.39
				c0-0.05,0-0.1-0.01-0.15c0.01-0.08,0.01-0.17,0.01-0.25l0-0.07c-0.01-0.62-0.01-0.62-0.01-0.64c0-0.08-0.01-0.15-0.02-0.23
				c0.02-0.13,0.03-0.26,0.03-0.39c-0.01-0.91-0.56-1.76-1.51-2.35c-0.83-0.51-1.92-0.79-3.07-0.79c-0.03,0-0.06,0-0.08,0
				c-2.59,0.03-4.61,1.46-4.59,3.25c0,0.1,0.01,0.2,0.02,0.3c-0.01,0.07-0.02,0.14-0.02,0.21c-0.01,0.09,0,0.81,0,0.82
				c0,0.05,0,0.1,0.01,0.15c-0.01,0.08-0.01,0.17-0.01,0.25c0,0.1,0.01,0.2,0.02,0.3c-0.01,0.07-0.02,0.14-0.02,0.21
				c-0.01,0.09,0,0.81,0,0.82c0,0.05,0,0.1,0.01,0.15c-0.01,0.08-0.01,0.17-0.01,0.25c0,0.1,0.01,0.2,0.02,0.3
				c-0.01,0.07-0.02,0.14-0.02,0.21c-0.01,0.09,0,0.81,0,0.82c0,0.05,0,0.1,0.01,0.15c-0.01,0.08-0.01,0.17-0.01,0.25
				c0,0.1,0.01,0.2,0.02,0.3c-0.01,0.07-0.02,0.14-0.02,0.21c-0.01,0.09,0,0.81,0,0.82c0,0.05,0,0.1,0.01,0.15
				c-0.01,0.08-0.01,0.17-0.01,0.25c0,0.1,0.01,0.2,0.02,0.3c-0.01,0.07-0.02,0.14-0.02,0.21c-0.01,0.09,0,0.81,0,0.82
				c0.01,0.91,0.56,1.78,1.51,2.36c0.83,0.52,1.92,0.8,3.07,0.8c0.03,0,0.05,0,0.08,0c0.08,0,0.17,0,0.26-0.01c0.01,0,0.01,0,0.02,0
				c0.01,0,0.01,0,0.02,0c0.07,0,0.14-0.01,0.21-0.01c0.01,0,0.01,0,0.02,0c0.01,0,0.01,0,0.02,0c0.11-0.01,0.23-0.02,0.33-0.04
				c0.01,0,0.02,0,0.03,0c0.01,0,0.03,0,0.04-0.01c0.06-0.01,0.12-0.02,0.19-0.03c0.01,0,0.02,0,0.03,0c0.01,0,0.02,0,0.03-0.01
				c0.11-0.02,0.22-0.04,0.32-0.07c0.01,0,0.02,0,0.03-0.01c0.01,0,0.03-0.01,0.04-0.01c0.06-0.01,0.11-0.03,0.17-0.05
				c0.02,0,0.03-0.01,0.04-0.01c0.01,0,0.02-0.01,0.03-0.01c0.11-0.03,0.22-0.07,0.32-0.11c0.01,0,0.02-0.01,0.04-0.01
				c0.01,0,0.02-0.01,0.03-0.01c0.06-0.03,0.12-0.05,0.18-0.07c0.02-0.01,0.03-0.01,0.05-0.02c0.01-0.01,0.03-0.01,0.04-0.02
				c0.11-0.05,0.21-0.1,0.32-0.16c0.01-0.01,0.03-0.01,0.04-0.02c0.02-0.01,0.03-0.02,0.05-0.03c0.06-0.03,0.12-0.07,0.17-0.1
				c0.02-0.01,0.04-0.02,0.06-0.03c0.01-0.01,0.03-0.02,0.04-0.03c0.12-0.08,0.23-0.16,0.33-0.25c0.01-0.01,0.03-0.02,0.04-0.03
				c0.1-0.09,0.2-0.18,0.29-0.28c0.01-0.02,0.03-0.03,0.04-0.05c0.15-0.17,0.28-0.35,0.39-0.54c0.01-0.02,0.02-0.04,0.03-0.06
				c0.2-0.38,0.3-0.77,0.29-1.18c0-0.01-0.01-0.67-0.01-0.71c0-0.08-0.01-0.16-0.02-0.24c0.02-0.13,0.03-0.26,0.03-0.39
				c0-0.05,0-0.09-0.01-0.14c0.01-0.09,0.01-0.17,0.01-0.26c0-0.01-0.01-0.67-0.01-0.71c0-0.08-0.01-0.16-0.02-0.24
				c0.02-0.13,0.03-0.26,0.03-0.39c0-0.05,0-0.09-0.01-0.14c0.01-0.09,0.01-0.17,0.01-0.26C35.19,27.56,35.18,26.9,35.18,26.86z" />
				<g>
					<g>
						<path className="st3" d="M30.53,28.11c2.05-0.02,3.72,0.98,3.77,2.25c0,0.02,0.01,0.67,0.01,0.68c0.02,1.29-1.65,2.36-3.72,2.39
						c-2.07,0.02-3.76-1.01-3.78-2.3c0-0.04-0.01-0.71,0-0.75C26.89,29.14,28.52,28.13,30.53,28.11z" />
						<ellipse transform="matrix(0.9999 -0.0118 0.0118 0.9999 -0.3488 0.3625)" className="st4" cx="30.56" cy="29.76" rx="3.75" ry="2.32" />
						<ellipse transform="matrix(0.9999 -0.0118 0.0118 0.9999 -0.3489 0.3626)" className="st5" cx="30.56" cy="29.76" rx="2.89" ry="1.79" />
					</g>
					<g>
						<path className="st3" d="M30.53,26.38c2.05-0.02,3.72,0.98,3.77,2.25c0,0.02,0.01,0.67,0.01,0.68c0.02,1.29-1.65,2.36-3.72,2.39
						c-2.07,0.02-3.76-1.01-3.78-2.3c0-0.04-0.01-0.71,0-0.75C26.89,27.41,28.52,26.4,30.53,26.38z" />
						<ellipse transform="matrix(0.9999 -0.0118 0.0118 0.9999 -0.3284 0.3624)" className="st4" cx="30.56" cy="28.02" rx="3.75" ry="2.32" />
						<ellipse transform="matrix(0.9999 -0.0118 0.0118 0.9999 -0.3284 0.3624)" className="st5" cx="30.56" cy="28.02" rx="2.89" ry="1.79" />
					</g>
					<g>
						<path className="st3" d="M30.53,24.64c2.05-0.02,3.72,0.98,3.77,2.25c0,0.02,0.01,0.67,0.01,0.68c0.02,1.29-1.65,2.36-3.72,2.39
						c-2.07,0.02-3.76-1.01-3.78-2.3c0-0.04-0.01-0.71,0-0.75C26.89,25.67,28.52,24.67,30.53,24.64z" />
						<ellipse transform="matrix(0.9999 -0.0118 0.0118 0.9999 -0.308 0.3623)" className="st4" cx="30.56" cy="26.29" rx="3.75" ry="2.32" />
						<ellipse transform="matrix(0.9999 -0.0118 0.0118 0.9999 -0.3079 0.3623)" className="st5" cx="30.56" cy="26.29" rx="2.89" ry="1.79" />
					</g>
					<g>
						<path className="st3" d="M30.53,22.91c2.05-0.02,3.72,0.98,3.77,2.25c0,0.02,0.01,0.67,0.01,0.68c0.02,1.29-1.65,2.36-3.72,2.39
						c-2.07,0.02-3.76-1-3.78-2.3c0-0.04-0.01-0.71,0-0.75C26.89,23.94,28.52,22.93,30.53,22.91z" />
						<ellipse transform="matrix(0.9999 -0.0118 0.0118 0.9999 -0.2875 0.3622)" className="st4" cx="30.56" cy="24.55" rx="3.75" ry="2.32" />
						<ellipse transform="matrix(0.9999 -0.0118 0.0118 0.9999 -0.2875 0.3621)" className="st5" cx="30.56" cy="24.55" rx="2.89" ry="1.79" />
					</g>
					<g>
						<path className="st3" d="M30.53,21.17c2.05-0.02,3.72,0.98,3.77,2.25c0,0.02,0.01,0.67,0.01,0.68c0.02,1.29-1.65,2.36-3.72,2.39
						c-2.07,0.02-3.76-1.01-3.78-2.3c0-0.04-0.01-0.71,0-0.75C26.89,22.21,28.52,21.2,30.53,21.17z" />
						<ellipse transform="matrix(0.9999 -0.0118 0.0118 0.9999 -0.267 0.362)" className="st4" cx="30.56" cy="22.82" rx="3.75" ry="2.32" />
						<path className="st5" d="M30.54,21.03c1.6-0.02,2.9,0.77,2.92,1.75c0.01,0.99-1.27,1.8-2.87,1.82c-1.6,0.02-2.9-0.77-2.92-1.75
						C27.66,21.87,28.94,21.05,30.54,21.03z" />
					</g>
					<g>
						<path className="st6" d="M33.03,29.37c0.08-0.04,0.15-0.09,0.22-0.13v-1.36c-0.07,0.05-0.14,0.09-0.22,0.13V29.37z" />
						<path className="st6" d="M33.25,29.62c-0.07,0.05-0.14,0.09-0.22,0.13v1.36c0.08-0.04,0.15-0.09,0.22-0.13V29.62z" />
						<path className="st6" d="M33.57,27.65V29c0.08-0.07,0.15-0.14,0.22-0.21v-1.35C33.73,27.51,33.65,27.58,33.57,27.65z" />
						<path className="st6" d="M32.15,30.11c-0.07,0.02-0.14,0.04-0.22,0.06v1.36c0.07-0.02,0.15-0.04,0.22-0.06V30.11z" />
						<path className="st6" d="M32.7,29.91c-0.07,0.03-0.14,0.06-0.22,0.09v1.36c0.07-0.03,0.15-0.06,0.22-0.09V29.91z" />
						<path className="st6" d="M31.6,30.24c-0.07,0.01-0.15,0.03-0.22,0.04v1.36c0.07-0.01,0.15-0.02,0.22-0.04V30.24z" />
						<path className="st6" d="M31.38,29.9c0.07-0.01,0.15-0.02,0.22-0.04v-1.36c-0.07,0.01-0.15,0.03-0.22,0.04V29.9z" />
						<path className="st6" d="M30.84,29.96c0.07,0,0.15-0.01,0.22-0.02v-1.36c-0.07,0.01-0.15,0.01-0.22,0.02V29.96z" />
						<path className="st6" d="M31.93,29.8c0.07-0.02,0.15-0.04,0.22-0.06v-1.36c-0.07,0.02-0.14,0.04-0.22,0.06V29.8z" />
						<path className="st6" d="M32.48,29.62c0.07-0.03,0.15-0.06,0.22-0.09v-1.36c-0.07,0.03-0.14,0.06-0.22,0.09V29.62z" />
						<path className="st6" d="M27.77,29.59c-0.08-0.05-0.15-0.11-0.22-0.16v1.35c0.07,0.06,0.14,0.11,0.22,0.17V29.59z" />
						<path className="st6" d="M27.22,29.1c-0.09-0.1-0.16-0.21-0.22-0.32v1.34c0.06,0.11,0.13,0.22,0.22,0.33V29.1z" />
						<path className="st6" d="M31.06,30.32c-0.07,0.01-0.15,0.01-0.22,0.02v1.36c0.07,0,0.15-0.01,0.22-0.02V30.32z" />
						<path className="st6" d="M28.32,29.89c-0.08-0.03-0.15-0.07-0.22-0.11v1.35c0.07,0.04,0.14,0.07,0.22,0.11V29.89z" />
						<path className="st6" d="M33.57,29.38v1.35c0.08-0.07,0.15-0.14,0.22-0.21v-1.35C33.73,29.24,33.65,29.31,33.57,29.38z" />
						<path className="st6" d="M34.31,28.63c0-0.09-0.02-0.19-0.04-0.28c-0.03,0.13-0.08,0.25-0.14,0.37v1.35
						c0.13-0.24,0.19-0.49,0.19-0.76C34.31,29.3,34.31,28.65,34.31,28.63z" />
						<path className="st6" d="M30.51,30.34c-0.07,0-0.15,0-0.22,0v1.36c0.07,0,0.15,0,0.22,0V30.34z" />
						<path className="st6" d="M28.87,30.1c-0.07-0.02-0.15-0.05-0.22-0.07v1.36c0.07,0.03,0.14,0.05,0.22,0.07V30.1z" />
						<path className="st6" d="M29.96,30.31c-0.07-0.01-0.15-0.01-0.22-0.02v1.36c0.07,0.01,0.15,0.02,0.22,0.02V30.31z" />
						<path className="st6" d="M29.41,30.24c-0.07-0.01-0.15-0.03-0.22-0.05v1.36c0.07,0.02,0.14,0.03,0.22,0.05V30.24z" />
						<path className="st6" d="M30.29,28.6v1.36c0.07,0,0.15,0,0.22,0V28.6C30.43,28.6,30.36,28.6,30.29,28.6z" />
						<path className="st6" d="M29.74,29.91c0.07,0.01,0.15,0.02,0.22,0.02v-1.36c-0.07-0.01-0.15-0.01-0.22-0.02V29.91z" />
						<path className="st6" d="M31.6,31.98c-0.07,0.01-0.15,0.03-0.22,0.04v1.36c0.07-0.01,0.15-0.02,0.22-0.04V31.98z" />
						<path className="st6" d="M30.51,32.07c-0.07,0-0.15,0-0.22,0v1.36c0.07,0,0.15,0,0.22,0V32.07z" />
						<path className="st6" d="M31.06,33.41v-1.36c-0.07,0.01-0.15,0.01-0.22,0.02v1.36C30.91,33.42,30.98,33.42,31.06,33.41z" />
						<path className="st6" d="M29.96,32.05c-0.07-0.01-0.15-0.01-0.22-0.02v1.36c0.07,0.01,0.15,0.02,0.22,0.02V32.05z" />
						<path className="st6" d="M32.7,31.64c-0.07,0.03-0.14,0.06-0.22,0.09v1.36c0.07-0.03,0.15-0.06,0.22-0.09V31.64z" />
						<path className="st6" d="M33.25,31.35c-0.07,0.05-0.14,0.09-0.22,0.13v1.36c0.08-0.04,0.15-0.09,0.22-0.13V31.35z" />
						<path className="st6" d="M34.31,30.36c0-0.09-0.02-0.19-0.04-0.28c-0.03,0.13-0.08,0.25-0.14,0.37v1.35
						c0.13-0.24,0.19-0.49,0.19-0.76C34.31,31.03,34.31,30.38,34.31,30.36z" />
						<path className="st6" d="M34.27,26.62c-0.03,0.13-0.08,0.25-0.14,0.37v1.35c0.13-0.24,0.19-0.49,0.19-0.76
						c0-0.02-0.01-0.67-0.01-0.68C34.3,26.8,34.29,26.71,34.27,26.62z" />
						<path className="st6" d="M33.79,32.26v-1.35c-0.07,0.07-0.14,0.14-0.22,0.21v1.35C33.65,32.4,33.73,32.33,33.79,32.26z" />
						<path className="st6" d="M32.15,31.84c-0.07,0.02-0.14,0.04-0.22,0.06v1.36c0.07-0.02,0.15-0.04,0.22-0.06V31.84z" />
						<path className="st6" d="M28.1,29.4c0.07,0.04,0.14,0.07,0.22,0.11v-1.35c-0.08-0.03-0.15-0.07-0.22-0.11V29.4z" />
						<path className="st6" d="M27.55,29.04c0.07,0.06,0.14,0.11,0.22,0.17v-1.35c-0.08-0.05-0.15-0.11-0.22-0.16V29.04z" />
						<path className="st6" d="M27,27.04v1.34c0.06,0.11,0.13,0.22,0.22,0.33v-1.34C27.14,27.26,27.06,27.15,27,27.04z" />
						<path className="st6" d="M29.41,31.97c-0.07-0.01-0.15-0.03-0.22-0.05v1.36c0.07,0.02,0.14,0.03,0.22,0.05V31.97z" />
						<path className="st6" d="M28.65,29.65c0.07,0.03,0.14,0.05,0.22,0.07v-1.36c-0.07-0.02-0.15-0.05-0.22-0.07V29.65z" />
						<path className="st6" d="M29.19,29.81c0.07,0.02,0.14,0.03,0.22,0.05V28.5c-0.07-0.01-0.15-0.03-0.22-0.05V29.81z" />
						<path className="st6" d="M28.32,31.63c-0.08-0.03-0.15-0.07-0.22-0.11v1.35c0.07,0.04,0.14,0.07,0.22,0.11V31.63z" />
						<path className="st6" d="M27.22,30.83c-0.09-0.1-0.16-0.21-0.22-0.32v1.34c0.06,0.11,0.13,0.22,0.22,0.33V30.83z" />
						<path className="st6" d="M28.87,31.83c-0.07-0.02-0.15-0.05-0.22-0.07v1.36c0.07,0.03,0.14,0.05,0.22,0.07V31.83z" />
						<path className="st6" d="M27.77,32.67v-1.35c-0.08-0.05-0.15-0.11-0.22-0.16v1.35C27.62,32.56,27.69,32.62,27.77,32.67z" />
					</g>
					<g>
						<path className="st6" d="M33.25,24.42c-0.07,0.05-0.14,0.09-0.22,0.13v1.36c0.08-0.04,0.15-0.09,0.22-0.13V24.42z" />
						<path className="st6" d="M32.15,24.91c-0.07,0.02-0.14,0.04-0.22,0.06v1.36c0.07-0.02,0.15-0.04,0.22-0.06V24.91z" />
						<path className="st6" d="M32.7,24.71c-0.07,0.03-0.14,0.06-0.22,0.09v1.36c0.07-0.03,0.15-0.06,0.22-0.09V24.71z" />
						<path className="st6" d="M31.6,25.04c-0.07,0.01-0.15,0.03-0.22,0.04v1.36c0.07-0.01,0.15-0.02,0.22-0.04V25.04z" />
						<path className="st6" d="M27.77,24.39c-0.08-0.05-0.15-0.11-0.22-0.16v1.35c0.07,0.06,0.14,0.11,0.22,0.17V24.39z" />
						<path className="st6" d="M27.22,23.9c-0.09-0.1-0.16-0.21-0.22-0.32v1.34c0.06,0.11,0.13,0.22,0.22,0.33V23.9z" />
						<path className="st6" d="M31.06,25.12c-0.07,0.01-0.15,0.01-0.22,0.02v1.36c0.07,0,0.15-0.01,0.22-0.02V25.12z" />
						<path className="st6" d="M28.32,24.69c-0.08-0.03-0.15-0.07-0.22-0.11v1.35c0.07,0.04,0.14,0.07,0.22,0.11V24.69z" />
						<path className="st6" d="M33.57,24.18v1.35c0.08-0.07,0.15-0.14,0.22-0.21v-1.35C33.73,24.04,33.65,24.11,33.57,24.18z" />
						<path className="st6" d="M30.51,25.14c-0.07,0-0.15,0-0.22,0v1.36c0.07,0,0.15,0,0.22,0V25.14z" />
						<path className="st6" d="M28.87,24.9c-0.07-0.02-0.15-0.05-0.22-0.07v1.36c0.07,0.03,0.14,0.05,0.22,0.07V24.9z" />
						<path className="st6" d="M29.96,25.11c-0.07-0.01-0.15-0.01-0.22-0.02v1.36c0.07,0.01,0.15,0.02,0.22,0.02V25.11z" />
						<path className="st6" d="M29.41,25.04c-0.07-0.01-0.15-0.03-0.22-0.05v1.36c0.07,0.02,0.14,0.03,0.22,0.05V25.04z" />
						<path className="st6" d="M31.6,26.78c-0.07,0.01-0.15,0.03-0.22,0.04v1.36c0.07-0.01,0.15-0.02,0.22-0.04V26.78z" />
						<path className="st6" d="M30.51,26.87c-0.07,0-0.15,0-0.22,0v1.36c0.07,0,0.15,0,0.22,0V26.87z" />
						<path className="st6" d="M31.06,28.21v-1.36c-0.07,0.01-0.15,0.01-0.22,0.02v1.36C30.91,28.22,30.98,28.22,31.06,28.21z" />
						<path className="st6" d="M29.96,26.85c-0.07-0.01-0.15-0.01-0.22-0.02v1.36c0.07,0.01,0.15,0.02,0.22,0.02V26.85z" />
						<path className="st6" d="M32.7,26.45c-0.07,0.03-0.14,0.06-0.22,0.09v1.36c0.07-0.03,0.15-0.06,0.22-0.09V26.45z" />
						<path className="st6" d="M33.25,26.16c-0.07,0.05-0.14,0.09-0.22,0.13v1.36c0.08-0.04,0.15-0.09,0.22-0.13V26.16z" />
						<path className="st6" d="M34.31,25.16c0-0.09-0.02-0.19-0.04-0.28c-0.03,0.13-0.08,0.25-0.14,0.37v1.35
						c0.13-0.24,0.19-0.49,0.19-0.76C34.31,25.83,34.31,25.18,34.31,25.16z" />
						<path className="st6" d="M33.79,27.06v-1.35c-0.07,0.07-0.14,0.14-0.22,0.21v1.35C33.65,27.2,33.73,27.13,33.79,27.06z" />
						<path className="st6" d="M32.15,26.64c-0.07,0.02-0.14,0.04-0.22,0.06v1.36c0.07-0.02,0.15-0.04,0.22-0.06V26.64z" />
						<path className="st6" d="M29.41,26.77c-0.07-0.01-0.15-0.03-0.22-0.05v1.36c0.07,0.02,0.14,0.03,0.22,0.05V26.77z" />
						<path className="st6" d="M28.32,26.43c-0.08-0.03-0.15-0.07-0.22-0.11v1.35c0.07,0.04,0.14,0.07,0.22,0.11V26.43z" />
						<path className="st6" d="M27.22,25.63c-0.09-0.1-0.16-0.21-0.22-0.32v1.34c0.06,0.11,0.13,0.22,0.22,0.33V25.63z" />
						<path className="st6" d="M28.87,26.63c-0.07-0.02-0.15-0.05-0.22-0.07v1.36c0.07,0.03,0.14,0.05,0.22,0.07V26.63z" />
						<path className="st6" d="M27.77,27.47v-1.35c-0.08-0.05-0.15-0.11-0.22-0.16v1.35C27.62,27.36,27.69,27.42,27.77,27.47z" />
					</g>
				</g>
				<g>
					<g id="tree_3_">
						<g>
							<path className="st7" d="M34.77,15.15c0,2.31-1.87,4.18-4.18,4.18s-4.18-1.87-4.18-4.18c0-2.31,1.87-8.82,4.18-8.82
							S34.77,12.84,34.77,15.15z" />
							<path className="st2" d="M30.58,19.79c-2.56,0-4.63-2.08-4.63-4.63c0-1.31,0.53-3.6,1.26-5.44c0.69-1.75,1.84-3.83,3.38-3.83
							c1.54,0,2.69,2.08,3.38,3.83c0.73,1.84,1.26,4.13,1.26,5.44C35.22,17.71,33.14,19.79,30.58,19.79z M30.58,6.78
							c-1.78,0-3.73,5.88-3.73,8.37c0,2.06,1.68,3.73,3.73,3.73c2.06,0,3.73-1.68,3.73-3.73C34.32,12.66,32.37,6.78,30.58,6.78z" />
						</g>
						<g>
							<path className="st2" d="M30.64,23.12c-0.25,0-0.45-0.2-0.45-0.45v-8.11c0-0.25,0.2-0.45,0.45-0.45c0.25,0,0.45,0.2,0.45,0.45
							v8.11C31.09,22.92,30.89,23.12,30.64,23.12z" />
						</g>
						<g>
							<path className="st8" d="M30.34,8.42c0,0-3,2.79-2.53,4.88C28.28,15.4,31.62,11.76,30.34,8.42z" />
						</g>
					</g>
				</g>
			</g>
			<g>
				<path className="st2" d="M27.41,20.56c-0.01-0.61-0.01-0.62-0.01-0.64c0-0.08-0.01-0.15-0.02-0.23c0.02-0.13,0.03-0.26,0.03-0.39
				c0-0.05,0-0.1-0.01-0.15c0.01-0.08,0.01-0.17,0.01-0.25l0-0.07c-0.01-0.61-0.01-0.62-0.01-0.64c0-0.08-0.01-0.15-0.02-0.23
				c0.02-0.13,0.03-0.26,0.03-0.39c-0.01-0.91-0.56-1.76-1.51-2.35c-0.83-0.51-1.92-0.79-3.07-0.79c-0.03,0-0.06,0-0.08,0
				c-2.59,0.03-4.61,1.46-4.59,3.25c0,0.1,0.01,0.2,0.02,0.3c-0.01,0.07-0.02,0.14-0.02,0.21c-0.01,0.09,0,0.81,0,0.82
				c0,0.05,0,0.1,0.01,0.15c-0.01,0.08-0.01,0.17-0.01,0.25c0,0.1,0.01,0.2,0.02,0.3c-0.01,0.07-0.02,0.14-0.02,0.21
				c-0.01,0.09,0,0.81,0,0.82c0,0.05,0,0.1,0.01,0.15c-0.01,0.08-0.01,0.17-0.01,0.25c0,0.1,0.01,0.2,0.02,0.3
				c-0.01,0.07-0.02,0.14-0.02,0.21c-0.01,0.09,0,0.81,0,0.82c0,0.05,0,0.1,0.01,0.15c-0.01,0.08-0.01,0.17-0.01,0.25
				c0,0.1,0.01,0.2,0.02,0.3c-0.01,0.07-0.02,0.14-0.02,0.21c-0.01,0.09,0,0.81,0,0.82c0,0.05,0,0.1,0.01,0.15
				c-0.01,0.08-0.01,0.17-0.01,0.25c0,0.1,0.01,0.2,0.02,0.3c-0.01,0.07-0.02,0.14-0.02,0.21c-0.01,0.09,0,0.81,0,0.82
				c0,0.05,0,0.1,0.01,0.15c-0.01,0.08-0.01,0.17-0.01,0.25c0,0.1,0.01,0.2,0.02,0.3c-0.01,0.07-0.02,0.14-0.02,0.21
				c-0.01,0.09,0,0.81,0,0.82c0,0.05,0,0.1,0.01,0.15c-0.01,0.08-0.01,0.17-0.01,0.25c0,0.1,0.01,0.2,0.02,0.3
				c-0.01,0.07-0.02,0.14-0.02,0.21c-0.01,0.09,0,0.81,0,0.82c0,0.05,0,0.1,0.01,0.15c-0.01,0.08-0.01,0.17-0.01,0.25
				c0,0.1,0.01,0.2,0.02,0.3c-0.01,0.07-0.02,0.14-0.02,0.21c-0.01,0.09,0,0.81,0,0.82c0.01,0.91,0.56,1.78,1.51,2.36
				c0.83,0.52,1.92,0.8,3.07,0.8c0.03,0,0.05,0,0.08,0c2.59-0.03,4.61-1.47,4.59-3.27l0-0.07c-0.01-0.61-0.01-0.62-0.01-0.64
				c0-0.08-0.01-0.15-0.02-0.23c0.02-0.13,0.03-0.26,0.03-0.39c0-0.05,0-0.1-0.01-0.15c0.01-0.08,0.01-0.17,0.01-0.25l0-0.07
				c-0.01-0.61-0.01-0.62-0.01-0.64c0-0.08-0.01-0.15-0.02-0.23c0.02-0.13,0.03-0.26,0.03-0.39c0-0.05,0-0.1-0.01-0.15
				c0.01-0.08,0.01-0.17,0.01-0.25l0-0.07c-0.01-0.61-0.01-0.62-0.01-0.64c0-0.08-0.01-0.15-0.02-0.23
				c0.02-0.13,0.03-0.26,0.03-0.39c0-0.05,0-0.1-0.01-0.15c0.01-0.08,0.01-0.17,0.01-0.25l0-0.07c-0.01-0.61-0.01-0.62-0.01-0.64
				c0-0.08-0.01-0.15-0.02-0.23c0.02-0.13,0.03-0.26,0.03-0.39c0-0.05,0-0.1-0.01-0.15c0.01-0.08,0.01-0.17,0.01-0.25l0-0.07
				c-0.01-0.61-0.01-0.62-0.01-0.64c0-0.08-0.01-0.15-0.02-0.23c0.02-0.13,0.03-0.26,0.03-0.39c0-0.05,0-0.1-0.01-0.15
				c0.01-0.08,0.01-0.17,0.01-0.25l0-0.07c-0.01-0.61-0.01-0.62-0.01-0.64c0-0.08-0.01-0.15-0.02-0.23
				c0.02-0.13,0.03-0.26,0.03-0.39c0-0.05,0-0.1-0.01-0.15c0.01-0.08,0.01-0.17,0.01-0.25L27.41,20.56z" />
				<g>
					<g>
						<path className="st3" d="M22.75,28.11c2.05-0.02,3.72,0.98,3.77,2.25c0,0.02,0.01,0.67,0.01,0.68c0.02,1.29-1.65,2.36-3.72,2.39
						c-2.07,0.02-3.76-1.01-3.78-2.3c0-0.04-0.01-0.71,0-0.75C19.12,29.14,20.74,28.13,22.75,28.11z" />
						<ellipse transform="matrix(0.9999 -0.0118 0.0118 0.9999 -0.3494 0.2708)" className="st4" cx="22.79" cy="29.76" rx="3.75" ry="2.32" />
						<path className="st5" d="M22.76,27.97c1.6-0.02,2.9,0.77,2.92,1.75c0.01,0.99-1.27,1.8-2.87,1.82c-1.6,0.02-2.9-0.77-2.92-1.75
						C19.88,28.8,21.17,27.99,22.76,27.97z" />
					</g>
					<g>
						<path className="st3" d="M22.75,26.38c2.05-0.02,3.72,0.98,3.77,2.25c0,0.02,0.01,0.67,0.01,0.68c0.02,1.29-1.65,2.36-3.72,2.39
						c-2.07,0.02-3.76-1.01-3.78-2.3c0-0.04-0.01-0.71,0-0.75C19.12,27.41,20.74,26.4,22.75,26.38z" />
						<ellipse transform="matrix(0.9999 -0.0118 0.0118 0.9999 -0.329 0.2708)" className="st4" cx="22.79" cy="28.02" rx="3.75" ry="2.32" />
						<ellipse transform="matrix(0.9999 -0.0118 0.0118 0.9999 -0.3289 0.2707)" className="st5" cx="22.79" cy="28.02" rx="2.89" ry="1.79" />
					</g>
					<g>
						<path className="st3" d="M22.75,24.64c2.05-0.02,3.72,0.98,3.77,2.25c0,0.02,0.01,0.67,0.01,0.68c0.02,1.29-1.65,2.36-3.72,2.39
						c-2.07,0.02-3.76-1.01-3.78-2.3c0-0.04-0.01-0.71,0-0.75C19.12,25.67,20.74,24.67,22.75,24.64z" />
						<ellipse transform="matrix(0.9999 -0.0118 0.0118 0.9999 -0.3086 0.2706)" className="st4" cx="22.79" cy="26.29" rx="3.75" ry="2.32" />
						<ellipse transform="matrix(0.9999 -0.0118 0.0118 0.9999 -0.3084 0.2705)" className="st5" cx="22.79" cy="26.29" rx="2.89" ry="1.79" />
					</g>
					<g>
						<path className="st3" d="M22.75,22.91c2.05-0.02,3.72,0.98,3.77,2.25c0,0.02,0.01,0.67,0.01,0.68c0.02,1.29-1.65,2.36-3.72,2.39
						c-2.07,0.02-3.76-1-3.78-2.3c0-0.04-0.01-0.71,0-0.75C19.12,23.94,20.74,22.93,22.75,22.91z" />
						<ellipse transform="matrix(0.9999 -0.0118 0.0118 0.9999 -0.2881 0.2705)" className="st4" cx="22.79" cy="24.55" rx="3.75" ry="2.32" />
						<ellipse transform="matrix(0.9999 -0.0118 0.0118 0.9999 -0.288 0.2704)" className="st5" cx="22.79" cy="24.55" rx="2.89" ry="1.79" />
					</g>
					<g>
						<path className="st3" d="M22.75,21.17c2.05-0.02,3.72,0.98,3.77,2.25c0,0.02,0.01,0.67,0.01,0.68c0.02,1.29-1.65,2.36-3.72,2.39
						c-2.07,0.02-3.76-1.01-3.78-2.3c0-0.04-0.01-0.71,0-0.75C19.12,22.21,20.74,21.2,22.75,21.17z" />
						<ellipse transform="matrix(0.9999 -0.0118 0.0118 0.9999 -0.2676 0.2703)" className="st4" cx="22.79" cy="22.82" rx="3.75" ry="2.32" />
						<path className="st5" d="M22.76,21.03c1.6-0.02,2.9,0.77,2.92,1.75c0.01,0.99-1.27,1.8-2.87,1.82c-1.6,0.02-2.9-0.77-2.92-1.75
						C19.88,21.87,21.17,21.05,22.76,21.03z" />
					</g>
					<g>
						<path className="st3" d="M22.75,19.44c2.05-0.02,3.72,0.98,3.77,2.25c0,0.02,0.01,0.67,0.01,0.68c0.02,1.29-1.65,2.36-3.72,2.39
						c-2.07,0.02-3.76-1.01-3.78-2.3c0-0.04-0.01-0.71,0-0.75C19.12,20.47,20.74,19.46,22.75,19.44z" />
						<ellipse transform="matrix(0.9999 -0.0118 0.0118 0.9999 -0.2471 0.2702)" className="st4" cx="22.79" cy="21.09" rx="3.75" ry="2.32" />
						<path className="st5" d="M22.76,19.3c1.6-0.02,2.9,0.77,2.92,1.75c0.01,0.99-1.27,1.8-2.87,1.82c-1.6,0.02-2.9-0.77-2.92-1.75
						C19.88,20.13,21.17,19.32,22.76,19.3z" />
					</g>
					<g>
						<path className="st3" d="M22.75,17.71c2.05-0.02,3.72,0.98,3.77,2.25c0,0.02,0.01,0.67,0.01,0.68c0.02,1.29-1.65,2.36-3.72,2.39
						c-2.07,0.02-3.76-1.01-3.78-2.3c0-0.04-0.01-0.71,0-0.75C19.12,18.74,20.74,17.73,22.75,17.71z" />
						<ellipse transform="matrix(0.9999 -0.0118 0.0118 0.9999 -0.2267 0.2702)" className="st4" cx="22.79" cy="19.35" rx="3.75" ry="2.32" />
						<path className="st5" d="M22.76,17.56c1.6-0.02,2.9,0.77,2.92,1.75c0.01,0.99-1.27,1.8-2.87,1.82c-1.6,0.02-2.9-0.77-2.92-1.75
						C19.88,18.4,21.17,17.58,22.76,17.56z" />
					</g>
					<g>
						<path className="st3" d="M22.75,15.97c2.05-0.02,3.72,0.98,3.77,2.25c0,0.02,0.01,0.67,0.01,0.68c0.02,1.29-1.65,2.36-3.72,2.39
						c-2.07,0.02-3.76-1.01-3.78-2.3c0-0.04-0.01-0.71,0-0.75C19.12,17,20.74,15.99,22.75,15.97z" />
						<ellipse transform="matrix(0.9999 -0.0118 0.0118 0.9999 -0.2061 0.2699)" className="st4" cx="22.79" cy="17.62" rx="3.75" ry="2.32" />
						<ellipse transform="matrix(0.9999 -0.0118 0.0118 0.9999 -0.2063 0.27)" className="st5" cx="22.79" cy="17.62" rx="2.89" ry="1.79" />
					</g>
					<g>
						<path className="st6" d="M25.25,29.37c0.08-0.04,0.15-0.09,0.22-0.13v-1.36c-0.07,0.05-0.14,0.09-0.22,0.13V29.37z" />
						<path className="st6" d="M25.47,29.62c-0.07,0.05-0.14,0.09-0.22,0.13v1.36c0.08-0.04,0.15-0.09,0.22-0.13V29.62z" />
						<path className="st6" d="M25.8,27.65V29c0.08-0.07,0.15-0.14,0.22-0.21v-1.35C25.95,27.51,25.88,27.58,25.8,27.65z" />
						<path className="st6" d="M24.37,30.11c-0.07,0.02-0.14,0.04-0.22,0.06v1.36c0.07-0.02,0.15-0.04,0.22-0.06V30.11z" />
						<path className="st6" d="M24.92,29.91c-0.07,0.03-0.14,0.06-0.22,0.09v1.36c0.07-0.03,0.15-0.06,0.22-0.09V29.91z" />
						<path className="st6" d="M23.83,30.24c-0.07,0.01-0.15,0.03-0.22,0.04v1.36c0.07-0.01,0.15-0.02,0.22-0.04V30.24z" />
						<path className="st6" d="M23.61,29.9c0.07-0.01,0.15-0.02,0.22-0.04v-1.36c-0.07,0.01-0.15,0.03-0.22,0.04V29.9z" />
						<path className="st6" d="M23.06,29.96c0.07,0,0.15-0.01,0.22-0.02v-1.36c-0.07,0.01-0.15,0.01-0.22,0.02V29.96z" />
						<path className="st6" d="M24.16,29.8c0.07-0.02,0.15-0.04,0.22-0.06v-1.36c-0.07,0.02-0.14,0.04-0.22,0.06V29.8z" />
						<path className="st6" d="M24.7,29.62c0.07-0.03,0.15-0.06,0.22-0.09v-1.36c-0.07,0.03-0.14,0.06-0.22,0.09V29.62z" />
						<path className="st6" d="M19.99,29.59c-0.08-0.05-0.15-0.11-0.22-0.16v1.35c0.07,0.06,0.14,0.11,0.22,0.17V29.59z" />
						<path className="st6" d="M19.45,29.1c-0.09-0.1-0.16-0.21-0.22-0.32v1.34c0.06,0.11,0.13,0.22,0.22,0.33V29.1z" />
						<path className="st6" d="M23.28,30.32c-0.07,0.01-0.15,0.01-0.22,0.02v1.36c0.07,0,0.15-0.01,0.22-0.02V30.32z" />
						<path className="st6" d="M20.54,29.89c-0.08-0.03-0.15-0.07-0.22-0.11v1.35c0.07,0.04,0.14,0.07,0.22,0.11V29.89z" />
						<path className="st6" d="M25.8,29.38v1.35c0.08-0.07,0.15-0.14,0.22-0.21v-1.35C25.95,29.24,25.88,29.31,25.8,29.38z" />
						<path className="st6" d="M26.53,28.63c0-0.09-0.02-0.19-0.04-0.28c-0.03,0.13-0.08,0.25-0.14,0.37v1.35
						c0.13-0.24,0.19-0.49,0.19-0.76C26.54,29.3,26.53,28.65,26.53,28.63z" />
						<path className="st6" d="M22.73,30.34c-0.07,0-0.15,0-0.22,0v1.36c0.07,0,0.15,0,0.22,0V30.34z" />
						<path className="st6" d="M21.09,30.1c-0.07-0.02-0.15-0.05-0.22-0.07v1.36c0.07,0.03,0.14,0.05,0.22,0.07V30.1z" />
						<path className="st6" d="M22.18,30.31c-0.07-0.01-0.15-0.01-0.22-0.02v1.36c0.07,0.01,0.15,0.02,0.22,0.02V30.31z" />
						<path className="st6" d="M21.64,30.24c-0.07-0.01-0.15-0.03-0.22-0.05v1.36c0.07,0.02,0.14,0.03,0.22,0.05V30.24z" />
						<path className="st6" d="M22.51,28.6v1.36c0.07,0,0.15,0,0.22,0V28.6C22.66,28.6,22.59,28.6,22.51,28.6z" />
						<path className="st6" d="M21.97,29.91c0.07,0.01,0.15,0.02,0.22,0.02v-1.36c-0.07-0.01-0.15-0.01-0.22-0.02V29.91z" />
						<path className="st6" d="M23.83,31.98c-0.07,0.01-0.15,0.03-0.22,0.04v1.36c0.07-0.01,0.15-0.02,0.22-0.04V31.98z" />
						<path className="st6" d="M22.73,32.07c-0.07,0-0.15,0-0.22,0v1.36c0.07,0,0.15,0,0.22,0V32.07z" />
						<path className="st6" d="M23.28,33.41v-1.36c-0.07,0.01-0.15,0.01-0.22,0.02v1.36C23.13,33.42,23.21,33.42,23.28,33.41z" />
						<path className="st6" d="M22.18,32.05c-0.07-0.01-0.15-0.01-0.22-0.02v1.36c0.07,0.01,0.15,0.02,0.22,0.02V32.05z" />
						<path className="st6" d="M24.92,31.64c-0.07,0.03-0.14,0.06-0.22,0.09v1.36c0.07-0.03,0.15-0.06,0.22-0.09V31.64z" />
						<path className="st6" d="M25.47,31.35c-0.07,0.05-0.14,0.09-0.22,0.13v1.36c0.08-0.04,0.15-0.09,0.22-0.13V31.35z" />
						<path className="st6" d="M26.53,30.36c0-0.09-0.02-0.19-0.04-0.28c-0.03,0.13-0.08,0.25-0.14,0.37v1.35
						c0.13-0.24,0.19-0.49,0.19-0.76C26.54,31.03,26.53,30.38,26.53,30.36z" />
						<path className="st6" d="M26.49,26.62c-0.03,0.13-0.08,0.25-0.14,0.37v1.35c0.13-0.24,0.19-0.49,0.19-0.76
						c0-0.02-0.01-0.67-0.01-0.68C26.53,26.8,26.51,26.71,26.49,26.62z" />
						<path className="st6" d="M26.02,32.26v-1.35c-0.07,0.07-0.14,0.14-0.22,0.21v1.35C25.88,32.4,25.95,32.33,26.02,32.26z" />
						<path className="st6" d="M24.37,31.84c-0.07,0.02-0.14,0.04-0.22,0.06v1.36c0.07-0.02,0.15-0.04,0.22-0.06V31.84z" />
						<path className="st6" d="M20.32,29.4c0.07,0.04,0.14,0.07,0.22,0.11v-1.35c-0.08-0.03-0.15-0.07-0.22-0.11V29.4z" />
						<path className="st6" d="M19.77,29.04c0.07,0.06,0.14,0.11,0.22,0.17v-1.35c-0.08-0.05-0.15-0.11-0.22-0.16V29.04z" />
						<path className="st6" d="M19.23,27.04v1.34c0.06,0.11,0.13,0.22,0.22,0.33v-1.34C19.36,27.26,19.29,27.15,19.23,27.04z" />
						<path className="st6" d="M21.64,31.97c-0.07-0.01-0.15-0.03-0.22-0.05v1.36c0.07,0.02,0.14,0.03,0.22,0.05V31.97z" />
						<path className="st6" d="M20.87,29.65c0.07,0.03,0.14,0.05,0.22,0.07v-1.36c-0.07-0.02-0.15-0.05-0.22-0.07V29.65z" />
						<path className="st6" d="M21.42,29.81c0.07,0.02,0.14,0.03,0.22,0.05V28.5c-0.07-0.01-0.15-0.03-0.22-0.05V29.81z" />
						<path className="st6" d="M20.54,31.63c-0.08-0.03-0.15-0.07-0.22-0.11v1.35c0.07,0.04,0.14,0.07,0.22,0.11V31.63z" />
						<path className="st6" d="M19.45,30.83c-0.09-0.1-0.16-0.21-0.22-0.32v1.34c0.06,0.11,0.13,0.22,0.22,0.33V30.83z" />
						<path className="st6" d="M21.09,31.83c-0.07-0.02-0.15-0.05-0.22-0.07v1.36c0.07,0.03,0.14,0.05,0.22,0.07V31.83z" />
						<path className="st6" d="M19.99,32.67v-1.35c-0.08-0.05-0.15-0.11-0.22-0.16v1.35C19.84,32.56,19.92,32.62,19.99,32.67z" />
					</g>
					<g>
						<path className="st6" d="M25.25,24.17c0.08-0.04,0.15-0.09,0.22-0.13v-1.36c-0.07,0.05-0.14,0.09-0.22,0.13V24.17z" />
						<path className="st6" d="M25.47,24.42c-0.07,0.05-0.14,0.09-0.22,0.13v1.36c0.08-0.04,0.15-0.09,0.22-0.13V24.42z" />
						<path className="st6" d="M25.8,22.45v1.35c0.08-0.07,0.15-0.14,0.22-0.21v-1.35C25.95,22.31,25.88,22.38,25.8,22.45z" />
						<path className="st6" d="M24.37,24.91c-0.07,0.02-0.14,0.04-0.22,0.06v1.36c0.07-0.02,0.15-0.04,0.22-0.06V24.91z" />
						<path className="st6" d="M24.92,24.71c-0.07,0.03-0.14,0.06-0.22,0.09v1.36c0.07-0.03,0.15-0.06,0.22-0.09V24.71z" />
						<path className="st6" d="M23.83,25.04c-0.07,0.01-0.15,0.03-0.22,0.04v1.36c0.07-0.01,0.15-0.02,0.22-0.04V25.04z" />
						<path className="st6" d="M23.61,24.7c0.07-0.01,0.15-0.02,0.22-0.04v-1.36c-0.07,0.01-0.15,0.03-0.22,0.04V24.7z" />
						<path className="st6" d="M23.06,24.76c0.07,0,0.15-0.01,0.22-0.02v-1.36c-0.07,0.01-0.15,0.01-0.22,0.02V24.76z" />
						<path className="st6" d="M24.16,24.6c0.07-0.02,0.15-0.04,0.22-0.06v-1.36c-0.07,0.02-0.14,0.04-0.22,0.06V24.6z" />
						<path className="st6" d="M24.7,24.42c0.07-0.03,0.15-0.06,0.22-0.09v-1.36c-0.07,0.03-0.14,0.06-0.22,0.09V24.42z" />
						<path className="st6" d="M19.99,24.39c-0.08-0.05-0.15-0.11-0.22-0.16v1.35c0.07,0.06,0.14,0.11,0.22,0.17V24.39z" />
						<path className="st6" d="M19.45,23.9c-0.09-0.1-0.16-0.21-0.22-0.32v1.34c0.06,0.11,0.13,0.22,0.22,0.33V23.9z" />
						<path className="st6" d="M23.28,25.12c-0.07,0.01-0.15,0.01-0.22,0.02v1.36c0.07,0,0.15-0.01,0.22-0.02V25.12z" />
						<path className="st6" d="M20.54,24.69c-0.08-0.03-0.15-0.07-0.22-0.11v1.35c0.07,0.04,0.14,0.07,0.22,0.11V24.69z" />
						<path className="st6" d="M25.8,24.18v1.35c0.08-0.07,0.15-0.14,0.22-0.21v-1.35C25.95,24.04,25.88,24.11,25.8,24.18z" />
						<path className="st6" d="M26.53,23.43c0-0.09-0.02-0.19-0.04-0.28c-0.03,0.13-0.08,0.25-0.14,0.37v1.35
						c0.13-0.24,0.19-0.49,0.19-0.76C26.54,24.1,26.53,23.45,26.53,23.43z" />
						<path className="st6" d="M22.73,25.14c-0.07,0-0.15,0-0.22,0v1.36c0.07,0,0.15,0,0.22,0V25.14z" />
						<path className="st6" d="M21.09,24.9c-0.07-0.02-0.15-0.05-0.22-0.07v1.36c0.07,0.03,0.14,0.05,0.22,0.07V24.9z" />
						<path className="st6" d="M22.18,25.11c-0.07-0.01-0.15-0.01-0.22-0.02v1.36c0.07,0.01,0.15,0.02,0.22,0.02V25.11z" />
						<path className="st6" d="M21.64,25.04c-0.07-0.01-0.15-0.03-0.22-0.05v1.36c0.07,0.02,0.14,0.03,0.22,0.05V25.04z" />
						<path className="st6" d="M22.51,23.4v1.36c0.07,0,0.15,0,0.22,0v-1.36C22.66,23.41,22.59,23.4,22.51,23.4z" />
						<path className="st6" d="M21.97,24.72c0.07,0.01,0.15,0.02,0.22,0.02v-1.36c-0.07-0.01-0.15-0.01-0.22-0.02V24.72z" />
						<path className="st6" d="M23.83,26.78c-0.07,0.01-0.15,0.03-0.22,0.04v1.36c0.07-0.01,0.15-0.02,0.22-0.04V26.78z" />
						<path className="st6" d="M22.73,26.87c-0.07,0-0.15,0-0.22,0v1.36c0.07,0,0.15,0,0.22,0V26.87z" />
						<path className="st6" d="M23.28,28.21v-1.36c-0.07,0.01-0.15,0.01-0.22,0.02v1.36C23.13,28.22,23.21,28.22,23.28,28.21z" />
						<path className="st6" d="M22.18,26.85c-0.07-0.01-0.15-0.01-0.22-0.02v1.36c0.07,0.01,0.15,0.02,0.22,0.02V26.85z" />
						<path className="st6" d="M24.92,26.45c-0.07,0.03-0.14,0.06-0.22,0.09v1.36c0.07-0.03,0.15-0.06,0.22-0.09V26.45z" />
						<path className="st6" d="M25.47,26.16c-0.07,0.05-0.14,0.09-0.22,0.13v1.36c0.08-0.04,0.15-0.09,0.22-0.13V26.16z" />
						<path className="st6" d="M26.53,25.16c0-0.09-0.02-0.19-0.04-0.28c-0.03,0.13-0.08,0.25-0.14,0.37v1.35
						c0.13-0.24,0.19-0.49,0.19-0.76C26.54,25.83,26.53,25.18,26.53,25.16z" />
						<path className="st6" d="M26.49,21.42c-0.03,0.13-0.08,0.25-0.14,0.37v1.35c0.13-0.24,0.19-0.49,0.19-0.76
						c0-0.02-0.01-0.67-0.01-0.68C26.53,21.6,26.51,21.51,26.49,21.42z" />
						<path className="st6" d="M26.02,27.06v-1.35c-0.07,0.07-0.14,0.14-0.22,0.21v1.35C25.88,27.2,25.95,27.13,26.02,27.06z" />
						<path className="st6" d="M24.37,26.64c-0.07,0.02-0.14,0.04-0.22,0.06v1.36c0.07-0.02,0.15-0.04,0.22-0.06V26.64z" />
						<path className="st6" d="M20.32,24.2c0.07,0.04,0.14,0.07,0.22,0.11v-1.35c-0.08-0.03-0.15-0.07-0.22-0.11V24.2z" />
						<path className="st6" d="M19.77,23.84c0.07,0.06,0.14,0.11,0.22,0.17v-1.35c-0.08-0.05-0.15-0.11-0.22-0.16V23.84z" />
						<path className="st6" d="M19.23,21.84v1.34c0.06,0.11,0.13,0.22,0.22,0.33v-1.34C19.36,22.06,19.29,21.95,19.23,21.84z" />
						<path className="st6" d="M21.64,26.77c-0.07-0.01-0.15-0.03-0.22-0.05v1.36c0.07,0.02,0.14,0.03,0.22,0.05V26.77z" />
						<path className="st6" d="M20.87,24.45c0.07,0.03,0.14,0.05,0.22,0.07v-1.36c-0.07-0.02-0.15-0.05-0.22-0.07V24.45z" />
						<path className="st6" d="M21.42,24.61c0.07,0.02,0.14,0.03,0.22,0.05V23.3c-0.07-0.01-0.15-0.03-0.22-0.05V24.61z" />
						<path className="st6" d="M20.54,26.43c-0.08-0.03-0.15-0.07-0.22-0.11v1.35c0.07,0.04,0.14,0.07,0.22,0.11V26.43z" />
						<path className="st6" d="M19.45,25.63c-0.09-0.1-0.16-0.21-0.22-0.32v1.34c0.06,0.11,0.13,0.22,0.22,0.33V25.63z" />
						<path className="st6" d="M21.09,26.63c-0.07-0.02-0.15-0.05-0.22-0.07v1.36c0.07,0.03,0.14,0.05,0.22,0.07V26.63z" />
						<path className="st6" d="M19.99,27.47v-1.35c-0.08-0.05-0.15-0.11-0.22-0.16v1.35C19.84,27.36,19.92,27.42,19.99,27.47z" />
					</g>
					<g>
						<path className="st6" d="M25.47,19.22c-0.07,0.05-0.14,0.09-0.22,0.13v1.36c0.08-0.04,0.15-0.09,0.22-0.13V19.22z" />
						<path className="st6" d="M24.37,19.71c-0.07,0.02-0.14,0.04-0.22,0.06v1.36c0.07-0.02,0.15-0.04,0.22-0.06V19.71z" />
						<path className="st6" d="M24.92,19.51c-0.07,0.03-0.14,0.06-0.22,0.09v1.36c0.07-0.03,0.15-0.06,0.22-0.09V19.51z" />
						<path className="st6" d="M23.83,19.84c-0.07,0.01-0.15,0.03-0.22,0.04v1.36c0.07-0.01,0.15-0.02,0.22-0.04V19.84z" />
						<path className="st6" d="M19.99,19.19c-0.08-0.05-0.15-0.11-0.22-0.16v1.35c0.07,0.06,0.14,0.11,0.22,0.17V19.19z" />
						<path className="st6" d="M19.45,18.7c-0.09-0.1-0.16-0.21-0.22-0.32v1.34c0.06,0.11,0.13,0.22,0.22,0.33V18.7z" />
						<path className="st6" d="M23.28,19.92c-0.07,0.01-0.15,0.01-0.22,0.02v1.36c0.07,0,0.15-0.01,0.22-0.02V19.92z" />
						<path className="st6" d="M20.54,19.49c-0.08-0.03-0.15-0.07-0.22-0.11v1.35c0.07,0.04,0.14,0.07,0.22,0.11V19.49z" />
						<path className="st6" d="M25.8,18.98v1.35c0.08-0.07,0.15-0.14,0.22-0.21v-1.35C25.95,18.85,25.88,18.91,25.8,18.98z" />
						<path className="st6" d="M26.53,18.23c0-0.09-0.02-0.19-0.04-0.28c-0.03,0.13-0.08,0.25-0.14,0.37v1.35
						c0.13-0.24,0.19-0.49,0.19-0.76C26.54,18.9,26.53,18.25,26.53,18.23z" />
						<path className="st6" d="M22.73,19.94c-0.07,0-0.15,0-0.22,0v1.36c0.07,0,0.15,0,0.22,0V19.94z" />
						<path className="st6" d="M21.09,19.7c-0.07-0.02-0.15-0.05-0.22-0.07v1.36c0.07,0.03,0.14,0.05,0.22,0.07V19.7z" />
						<path className="st6" d="M22.18,19.91c-0.07-0.01-0.15-0.01-0.22-0.02v1.36c0.07,0.01,0.15,0.02,0.22,0.03V19.91z" />
						<path className="st6" d="M21.64,19.84c-0.07-0.01-0.15-0.03-0.22-0.05v1.36c0.07,0.02,0.14,0.03,0.22,0.05V19.84z" />
						<path className="st6" d="M23.83,21.58c-0.07,0.01-0.15,0.03-0.22,0.04v1.36c0.07-0.01,0.15-0.02,0.22-0.04V21.58z" />
						<path className="st6" d="M22.73,21.67c-0.07,0-0.15,0-0.22,0v1.36c0.07,0,0.15,0,0.22,0V21.67z" />
						<path className="st6" d="M23.28,23.01v-1.36c-0.07,0.01-0.15,0.01-0.22,0.02v1.36C23.13,23.02,23.21,23.02,23.28,23.01z" />
						<path className="st6" d="M22.18,21.65c-0.07-0.01-0.15-0.01-0.22-0.02v1.36c0.07,0.01,0.15,0.02,0.22,0.02V21.65z" />
						<path className="st6" d="M24.92,21.25c-0.07,0.03-0.14,0.06-0.22,0.09v1.36c0.07-0.03,0.15-0.06,0.22-0.09V21.25z" />
						<path className="st6" d="M25.47,20.96c-0.07,0.05-0.14,0.09-0.22,0.13v1.36c0.08-0.04,0.15-0.09,0.22-0.13V20.96z" />
						<path className="st6" d="M26.53,19.97c0-0.09-0.02-0.19-0.04-0.28c-0.03,0.13-0.08,0.25-0.14,0.37v1.35
						c0.13-0.24,0.19-0.49,0.19-0.76C26.54,20.63,26.53,19.98,26.53,19.97z" />
						<path className="st6" d="M26.02,21.86v-1.35c-0.07,0.07-0.14,0.14-0.22,0.21v1.35C25.88,22,25.95,21.93,26.02,21.86z" />
						<path className="st6" d="M24.37,21.45c-0.07,0.02-0.14,0.04-0.22,0.06v1.36c0.07-0.02,0.15-0.04,0.22-0.06V21.45z" />
						<path className="st6" d="M21.64,21.57c-0.07-0.01-0.15-0.03-0.22-0.05v1.36c0.07,0.02,0.14,0.03,0.22,0.05V21.57z" />
						<path className="st6" d="M20.54,21.23c-0.08-0.03-0.15-0.07-0.22-0.11v1.35c0.07,0.04,0.14,0.07,0.22,0.11V21.23z" />
						<path className="st6" d="M19.45,20.43c-0.09-0.1-0.16-0.21-0.22-0.32v1.34c0.06,0.11,0.13,0.22,0.22,0.33V20.43z" />
						<path className="st6" d="M21.09,21.44c-0.07-0.02-0.15-0.05-0.22-0.07v1.36c0.07,0.03,0.14,0.05,0.22,0.07V21.44z" />
						<path className="st6" d="M19.99,22.27v-1.35c-0.08-0.05-0.15-0.11-0.22-0.16v1.35C19.84,22.16,19.92,22.22,19.99,22.27z" />
					</g>
				</g>
				<g id="tree_2_">
					<g>
						<circle className="st9" cx="22.73" cy="5.95" r="4.18" />
						<path className="st2" d="M22.73,10.58c-2.56,0-4.63-2.08-4.63-4.63c0-2.56,2.08-4.63,4.63-4.63s4.63,2.08,4.63,4.63
						C27.37,8.5,25.29,10.58,22.73,10.58z M22.73,2.21C20.67,2.21,19,3.89,19,5.95s1.68,3.73,3.73,3.73s3.73-1.68,3.73-3.73
						S24.79,2.21,22.73,2.21z" />
					</g>
					<g>
						<path className="st2" d="M22.79,17.3c-0.25,0-0.45-0.2-0.45-0.45V7.21c0-0.25,0.2-0.45,0.45-0.45s0.45,0.2,0.45,0.45v9.64
						C23.24,17.1,23.04,17.3,22.79,17.3z" />
					</g>
					<g>
						<path className="st10" d="M20.83,6.39c0-1.47,1.19-2.66,2.66-2.66c0.43,0,0.85,0.1,1.21,0.29c-0.48-0.72-1.29-1.2-2.22-1.2
						c-1.47,0-2.66,1.19-2.66,2.66c0,1.04,0.59,1.93,1.45,2.37C20.99,7.43,20.83,6.93,20.83,6.39z" />
					</g>
				</g>
				<polygon className="st11" points="25.88,18.29 26.24,17.4 26.91,16.91 26.22,16.43 25.84,15.56 25.48,16.45 24.81,16.94 25.5,17.41 
							" />
			</g>
			<g>
				<path className="st2" d="M20.94,28.59c0-0.08-0.01-0.16-0.02-0.23c0.02-0.13,0.03-0.26,0.03-0.39c0-0.05,0-0.1-0.01-0.15
				c0.01-0.08,0.01-0.17,0.01-0.25c0,0-0.01-0.67-0.01-0.71c0-0.08-0.01-0.16-0.02-0.23c0.02-0.13,0.03-0.26,0.03-0.39
				c-0.01-0.91-0.56-1.76-1.51-2.35c-0.83-0.51-1.92-0.79-3.07-0.79c-0.03,0-0.06,0-0.08,0c-2.59,0.03-4.61,1.46-4.59,3.25
				c0,0.1,0.01,0.2,0.02,0.3c-0.01,0.07-0.02,0.14-0.02,0.21c-0.01,0.09,0,0.81,0,0.82c0,0.05,0,0.1,0.01,0.15
				C11.7,27.91,11.7,28,11.7,28.08c0,0.1,0.01,0.2,0.02,0.3c-0.01,0.07-0.02,0.14-0.02,0.21c-0.01,0.09,0,0.81,0,0.82
				c0,0.05,0,0.1,0.01,0.15c-0.01,0.08-0.01,0.17-0.01,0.25c0,0.1,0.01,0.2,0.02,0.3c-0.01,0.07-0.02,0.14-0.02,0.21
				c-0.01,0.09,0,0.81,0,0.82c0.01,0.91,0.56,1.78,1.51,2.36c0.83,0.52,1.92,0.8,3.07,0.8c0.03,0,0.05,0,0.08,0
				c1.16-0.01,2.27-0.32,3.1-0.86c0.95-0.61,1.49-1.49,1.48-2.42c0-0.01-0.01-0.67-0.01-0.71c0-0.08-0.01-0.16-0.02-0.23
				c0.02-0.13,0.03-0.26,0.03-0.39c0-0.05,0-0.1-0.01-0.15c0.01-0.08,0.01-0.17,0.01-0.25C20.95,29.3,20.94,28.63,20.94,28.59z" />
				<g>
					<g>
						<path className="st3" d="M16.29,28.11c2.05-0.02,3.72,0.98,3.77,2.25c0,0.02,0.01,0.67,0.01,0.68c0.02,1.29-1.65,2.36-3.72,2.39
						c-2.07,0.02-3.76-1.01-3.78-2.3c0-0.04-0.01-0.71,0-0.75C12.66,29.14,14.28,28.13,16.29,28.11z" />
						<ellipse transform="matrix(0.9999 -0.0118 0.0118 0.9999 -0.3498 0.1946)" className="st4" cx="16.33" cy="29.76" rx="3.75" ry="2.32" />
						<ellipse transform="matrix(0.9999 -0.0118 0.0118 0.9999 -0.3499 0.1947)" className="st5" cx="16.33" cy="29.76" rx="2.89" ry="1.79" />
					</g>
					<g>
						<path className="st3" d="M16.29,26.38c2.05-0.02,3.72,0.98,3.77,2.25c0,0.02,0.01,0.67,0.01,0.68c0.02,1.29-1.65,2.36-3.72,2.39
						c-2.07,0.02-3.76-1.01-3.78-2.3c0-0.04-0.01-0.71,0-0.75C12.66,27.41,14.28,26.4,16.29,26.38z" />
						<ellipse transform="matrix(0.9999 -0.0118 0.0118 0.9999 -0.3294 0.1945)" className="st4" cx="16.33" cy="28.02" rx="3.75" ry="2.32" />
						<ellipse transform="matrix(0.9999 -0.0118 0.0118 0.9999 -0.3294 0.1945)" className="st5" cx="16.33" cy="28.02" rx="2.89" ry="1.79" />
					</g>
					<g>
						<path className="st3" d="M16.29,24.64c2.05-0.02,3.72,0.98,3.77,2.25c0,0.02,0.01,0.67,0.01,0.68c0.02,1.29-1.65,2.36-3.72,2.39
						c-2.07,0.02-3.76-1.01-3.78-2.3c0-0.04-0.01-0.71,0-0.75C12.66,25.67,14.28,24.67,16.29,24.64z" />
						<path className="st4" d="M16.3,23.97c2.07-0.02,3.76,0.99,3.78,2.27c0.02,1.28-1.65,2.34-3.72,2.36c-2.07,0.02-3.76-0.99-3.78-2.27
						C12.56,25.05,14.23,24,16.3,23.97z" />
						<ellipse transform="matrix(0.9999 -0.0118 0.0118 0.9999 -0.309 0.1944)" className="st5" cx="16.33" cy="26.29" rx="2.89" ry="1.79" />
					</g>
					<g>
						<path className="st6" d="M18.79,29.37c0.08-0.04,0.15-0.09,0.22-0.13v-1.36c-0.07,0.05-0.14,0.09-0.22,0.13V29.37z" />
						<path className="st6" d="M19.01,29.62c-0.07,0.05-0.14,0.09-0.22,0.13v1.36c0.08-0.04,0.15-0.09,0.22-0.13V29.62z" />
						<path className="st6" d="M19.34,27.65V29c0.08-0.07,0.15-0.14,0.22-0.21v-1.35C19.49,27.51,19.42,27.58,19.34,27.65z" />
						<path className="st6" d="M17.91,30.11c-0.07,0.02-0.14,0.04-0.22,0.06v1.36c0.07-0.02,0.15-0.04,0.22-0.06V30.11z" />
						<path className="st6" d="M18.46,29.91c-0.07,0.03-0.14,0.06-0.22,0.09v1.36c0.07-0.03,0.15-0.06,0.22-0.09V29.91z" />
						<path className="st6" d="M17.37,30.24c-0.07,0.01-0.15,0.03-0.22,0.04v1.36c0.07-0.01,0.15-0.02,0.22-0.04V30.24z" />
						<path className="st6" d="M17.15,29.9c0.07-0.01,0.15-0.02,0.22-0.04v-1.36c-0.07,0.01-0.15,0.03-0.22,0.04V29.9z" />
						<path className="st6" d="M16.6,29.96c0.07,0,0.15-0.01,0.22-0.02v-1.36c-0.07,0.01-0.15,0.01-0.22,0.02V29.96z" />
						<path className="st6" d="M17.69,29.8c0.07-0.02,0.15-0.04,0.22-0.06v-1.36c-0.07,0.02-0.14,0.04-0.22,0.06V29.8z" />
						<path className="st6" d="M18.24,29.62c0.07-0.03,0.15-0.06,0.22-0.09v-1.36c-0.07,0.03-0.14,0.06-0.22,0.09V29.62z" />
						<path className="st6" d="M13.53,29.59c-0.08-0.05-0.15-0.11-0.22-0.16v1.35c0.07,0.06,0.14,0.11,0.22,0.17V29.59z" />
						<path className="st6" d="M12.98,29.1c-0.09-0.1-0.16-0.21-0.22-0.32v1.34c0.06,0.11,0.13,0.22,0.22,0.33V29.1z" />
						<path className="st6" d="M16.82,30.32c-0.07,0.01-0.15,0.01-0.22,0.02v1.36c0.07,0,0.15-0.01,0.22-0.02V30.32z" />
						<path className="st6" d="M14.08,29.89c-0.08-0.03-0.15-0.07-0.22-0.11v1.35c0.07,0.04,0.14,0.07,0.22,0.11V29.89z" />
						<path className="st6" d="M19.34,29.38v1.35c0.08-0.07,0.15-0.14,0.22-0.21v-1.35C19.49,29.24,19.42,29.31,19.34,29.38z" />
						<path className="st6" d="M20.07,28.63c0-0.09-0.02-0.19-0.04-0.28c-0.03,0.13-0.08,0.25-0.14,0.37v1.35
						c0.13-0.24,0.19-0.49,0.19-0.76C20.08,29.3,20.07,28.65,20.07,28.63z" />
						<path className="st6" d="M16.27,30.34c-0.07,0-0.15,0-0.22,0v1.36c0.07,0,0.15,0,0.22,0V30.34z" />
						<path className="st6" d="M14.63,30.1c-0.07-0.02-0.15-0.05-0.22-0.07v1.36c0.07,0.03,0.14,0.05,0.22,0.07V30.1z" />
						<path className="st6" d="M15.72,30.31c-0.07-0.01-0.15-0.01-0.22-0.02v1.36c0.07,0.01,0.15,0.02,0.22,0.02V30.31z" />
						<path className="st6" d="M15.17,30.24c-0.07-0.01-0.15-0.03-0.22-0.05v1.36c0.07,0.02,0.14,0.03,0.22,0.05V30.24z" />
						<path className="st6" d="M16.05,28.6v1.36c0.07,0,0.15,0,0.22,0V28.6C16.2,28.6,16.12,28.6,16.05,28.6z" />
						<path className="st6" d="M15.5,29.91c0.07,0.01,0.15,0.02,0.22,0.02v-1.36c-0.07-0.01-0.15-0.01-0.22-0.02V29.91z" />
						<path className="st6" d="M17.37,31.98c-0.07,0.01-0.15,0.03-0.22,0.04v1.36c0.07-0.01,0.15-0.02,0.22-0.04V31.98z" />
						<path className="st6" d="M16.27,32.07c-0.07,0-0.15,0-0.22,0v1.36c0.07,0,0.15,0,0.22,0V32.07z" />
						<path className="st6" d="M16.82,33.41v-1.36c-0.07,0.01-0.15,0.01-0.22,0.02v1.36C16.67,33.42,16.75,33.42,16.82,33.41z" />
						<path className="st6" d="M15.72,32.05c-0.07-0.01-0.15-0.01-0.22-0.02v1.36c0.07,0.01,0.15,0.02,0.22,0.02V32.05z" />
						<path className="st6" d="M18.46,31.64c-0.07,0.03-0.14,0.06-0.22,0.09v1.36c0.07-0.03,0.15-0.06,0.22-0.09V31.64z" />
						<path className="st6" d="M19.01,31.35c-0.07,0.05-0.14,0.09-0.22,0.13v1.36c0.08-0.04,0.15-0.09,0.22-0.13V31.35z" />
						<path className="st6" d="M20.07,30.36c0-0.09-0.02-0.19-0.04-0.28c-0.03,0.13-0.08,0.25-0.14,0.37v1.35
						c0.13-0.24,0.19-0.49,0.19-0.76C20.08,31.03,20.07,30.38,20.07,30.36z" />
						<path className="st6" d="M20.03,26.62c-0.03,0.13-0.08,0.25-0.14,0.37v1.35c0.13-0.24,0.19-0.49,0.19-0.76
						c0-0.02-0.01-0.67-0.01-0.68C20.06,26.8,20.05,26.71,20.03,26.62z" />
						<path className="st6" d="M19.56,32.26v-1.35c-0.07,0.07-0.14,0.14-0.22,0.21v1.35C19.42,32.4,19.49,32.33,19.56,32.26z" />
						<path className="st6" d="M17.91,31.84c-0.07,0.02-0.14,0.04-0.22,0.06v1.36c0.07-0.02,0.15-0.04,0.22-0.06V31.84z" />
						<path className="st6" d="M13.86,29.4c0.07,0.04,0.14,0.07,0.22,0.11v-1.35c-0.08-0.03-0.15-0.07-0.22-0.11V29.4z" />
						<path className="st6" d="M13.31,29.04c0.07,0.06,0.14,0.11,0.22,0.17v-1.35c-0.08-0.05-0.15-0.11-0.22-0.16V29.04z" />
						<path className="st6" d="M12.77,27.04v1.34c0.06,0.11,0.13,0.22,0.22,0.33v-1.34C12.9,27.26,12.83,27.15,12.77,27.04z" />
						<path className="st6" d="M15.17,31.97c-0.07-0.01-0.15-0.03-0.22-0.05v1.36c0.07,0.02,0.14,0.03,0.22,0.05V31.97z" />
						<path className="st6" d="M14.41,29.65c0.07,0.03,0.14,0.05,0.22,0.07v-1.36c-0.07-0.02-0.15-0.05-0.22-0.07V29.65z" />
						<path className="st6" d="M14.96,29.81c0.07,0.02,0.14,0.03,0.22,0.05V28.5c-0.07-0.01-0.15-0.03-0.22-0.05V29.81z" />
						<path className="st6" d="M14.08,31.63c-0.08-0.03-0.15-0.07-0.22-0.11v1.35c0.07,0.04,0.14,0.07,0.22,0.11V31.63z" />
						<path className="st6" d="M12.98,30.83c-0.09-0.1-0.16-0.21-0.22-0.32v1.34c0.06,0.11,0.13,0.22,0.22,0.33V30.83z" />
						<path className="st6" d="M14.63,31.83c-0.07-0.02-0.15-0.05-0.22-0.07v1.36c0.07,0.03,0.14,0.05,0.22,0.07V31.83z" />
						<path className="st6" d="M13.53,32.67v-1.35c-0.08-0.05-0.15-0.11-0.22-0.16v1.35C13.38,32.56,13.45,32.62,13.53,32.67z" />
					</g>
				</g>
				<g id="fir_2_">
					<g>
						<polygon className="st12" points="21.22,20.73 18.02,17.11 20.49,17.11 17.76,13.48 19.98,13.48 16.21,7.8 12.43,13.48 
						14.66,13.48 11.92,17.11 14.4,17.11 11.2,20.73 					" />
						<path className="st2" d="M21.22,21.18H11.2c-0.18,0-0.34-0.1-0.41-0.26c-0.07-0.16-0.04-0.35,0.07-0.48l2.54-2.88h-1.48
						c-0.17,0-0.33-0.1-0.4-0.25c-0.08-0.15-0.06-0.34,0.04-0.47l2.19-2.91h-1.32c-0.17,0-0.32-0.09-0.4-0.24
						c-0.08-0.15-0.07-0.32,0.02-0.46l3.78-5.68c0.08-0.13,0.22-0.2,0.37-0.2s0.29,0.08,0.37,0.2l3.78,5.68
						c0.09,0.14,0.1,0.32,0.02,0.46c-0.08,0.15-0.23,0.24-0.4,0.24h-1.32l2.19,2.91c0.1,0.14,0.12,0.32,0.04,0.47
						c-0.08,0.15-0.23,0.25-0.4,0.25h-1.48l2.54,2.88c0.12,0.13,0.15,0.32,0.07,0.48C21.55,21.08,21.39,21.18,21.22,21.18z
						 M12.2,20.28h8.02l-2.54-2.88c-0.12-0.13-0.15-0.32-0.07-0.48c0.07-0.16,0.23-0.26,0.41-0.26h1.57l-2.19-2.91
						c-0.1-0.14-0.12-0.32-0.04-0.47c0.08-0.15,0.23-0.25,0.4-0.25h1.39l-2.94-4.42l-2.94,4.42h1.39c0.17,0,0.33,0.1,0.4,0.25
						s0.06,0.34-0.04,0.47l-2.19,2.91h1.57c0.18,0,0.34,0.1,0.41,0.26c0.07,0.16,0.04,0.35-0.07,0.48L12.2,20.28z" />
					</g>
					<g>
						<path className="st2" d="M16.21,26.54c-0.25,0-0.45-0.2-0.45-0.45v-5.2c0-0.25,0.2-0.45,0.45-0.45c0.25,0,0.45,0.2,0.45,0.45v5.2
						C16.66,26.34,16.46,26.54,16.21,26.54z" />
					</g>
					<g>
						<polygon className="st13" points="16.21,9.48 14.17,12.36 16.38,13.25 					" />
					</g>
				</g>
			</g>
		</g>
	</g>
</svg>