<svg width="1em" height="100%" viewBox="0 0 127 34" fill="currentColor" color="currentColor" xmlns="http://www.w3.org/2000/svg" class="text-bulma rem:w-[150px]"><path d="M13.4757 7.0255C11.5272 7.40767 11.2274 7.7134 10.8527 9.70066C10.478 7.67518 10.2157 7.36945 8.22974 7.0255C10.1782 6.64334 10.478 6.3376 10.8527 4.35034C11.19 6.3376 11.4897 6.64334 13.4757 7.0255Z" fill="#D63741"></path><path d="M12.3141 2.28672C11.19 2.51602 11.0401 2.66888 10.8153 3.81538C10.6279 2.66888 10.4405 2.51602 9.31641 2.28672C10.4405 2.05742 10.5904 1.90455 10.8153 0.758057C11.0401 1.90455 11.2274 2.09564 12.3141 2.28672Z" fill="#D63741"></path><path d="M12.3141 31.5987C11.19 31.828 11.0401 31.9809 10.8153 33.1274C10.6279 31.9809 10.4405 31.828 9.31641 31.5987C10.4405 31.3694 10.5904 31.2166 10.8153 30.0701C11.0401 31.2166 11.2274 31.3694 12.3141 31.5987Z" fill="#D63741"></path><path d="M13.8509 11.6497C11.6026 12.0701 11.2654 12.4141 10.8532 14.7453C10.441 12.4141 10.1038 12.0701 7.85547 11.6497C10.1038 11.2294 10.441 10.8854 10.8532 8.5542C11.2654 10.8854 11.6026 11.2294 13.8509 11.6497Z" fill="#D63741"></path><path d="M24.1929 11.6498C21.7572 12.1084 21.3825 12.4906 20.9329 14.9746C20.4832 12.4523 20.1085 12.1084 17.6729 11.6498C20.1085 11.1912 20.4832 10.809 20.9329 8.32495C21.3825 10.8472 21.7572 11.1912 24.1929 11.6498Z" fill="#D63741"></path><path d="M24.9798 22.0064C21.9821 22.5797 21.5324 23.0383 20.9704 26.0956C20.4083 23.0383 19.9586 22.5797 16.9609 22.0064C19.9586 21.4332 20.4083 20.9746 20.9704 17.9172C21.5324 20.9746 21.9821 21.4332 24.9798 22.0064Z" fill="#D63741"></path><path d="M13.8509 22.0064C11.6026 22.4268 11.2654 22.7708 10.8532 25.102C10.441 22.7708 10.1038 22.4268 7.85547 22.0064C10.1038 21.586 10.441 21.2421 10.8532 18.9109C11.2654 21.2039 11.6026 21.5478 13.8509 22.0064Z" fill="#D63741"></path><path d="M14.5619 16.8855C11.789 17.4205 11.3768 17.8409 10.8522 20.6689C10.3276 17.8027 9.91546 17.3823 7.14258 16.8855C9.91546 16.3505 10.3276 15.9301 10.8522 13.1021C11.3394 15.9301 11.789 16.3505 14.5619 16.8855Z" fill="#D63741"></path><path d="M19.0214 7.0255C17.0729 7.40767 16.7731 7.7134 16.3984 9.70066C16.0237 7.67518 15.7614 7.36945 13.7754 7.0255C15.7239 6.64334 16.0237 6.3376 16.3984 4.35034C16.7731 6.3376 17.0729 6.64334 19.0214 7.0255Z" fill="#D63741"></path><path d="M7.44252 7.02551C6.28091 7.25481 6.09355 7.40767 5.86872 8.6306C5.64389 7.44589 5.49401 7.25481 4.29492 7.02551C5.45654 6.79621 5.64389 6.64334 5.86872 5.42041C6.09355 6.60512 6.28091 6.79621 7.44252 7.02551Z" fill="#D63741"></path><path d="M6.88113 11.6499C6.1317 11.8027 6.01929 11.9174 5.90687 12.6435C5.75699 11.8792 5.64457 11.7645 4.93262 11.6499C5.68205 11.497 5.79446 11.3824 5.90687 10.6562C6.01929 11.4206 6.1317 11.5352 6.88113 11.6499Z" fill="#D63741"></path><path d="M6.88113 16.8855C6.1317 17.0383 6.01929 17.153 5.90687 17.8791C5.75699 17.1148 5.64457 17.0001 4.93262 16.8855C5.68205 16.7326 5.79446 16.618 5.90687 15.8918C6.01929 16.618 6.1317 16.7326 6.88113 16.8855Z" fill="#D63741"></path><path d="M6.88113 22.0063C6.1317 22.1592 6.01929 22.2738 5.90687 23C5.75699 22.2356 5.64457 22.121 4.93262 22.0063C5.68205 21.8535 5.79446 21.7388 5.90687 21.0127C6.01929 21.7388 6.1317 21.8535 6.88113 22.0063Z" fill="#D63741"></path><path d="M1.37244 21.9681C0.960256 22.0446 0.922785 22.121 0.847842 22.5032C0.772899 22.0828 0.697956 22.0446 0.323242 21.9681C0.735428 21.8917 0.772899 21.8153 0.847842 21.4331C0.922785 21.8153 0.960256 21.8917 1.37244 21.9681Z" fill="#D63741"></path><path d="M1.37244 16.8473C0.960256 16.9237 0.922785 17.0002 0.847842 17.3823C0.772899 16.9619 0.697956 16.9237 0.323242 16.8473C0.735428 16.7709 0.772899 16.6944 0.847842 16.3123C0.922785 16.6944 0.960256 16.7709 1.37244 16.8473Z" fill="#D63741"></path><path d="M1.37244 11.6881C0.960256 11.7645 0.922785 11.841 0.847842 12.2231C0.772899 11.8028 0.697956 11.7645 0.323242 11.6881C0.735428 11.6117 0.772899 11.5352 0.847842 11.1531C0.922785 11.5735 0.960256 11.6117 1.37244 11.6881Z" fill="#D63741"></path><path d="M7.44252 26.7452C6.28091 26.9745 6.09355 27.1274 5.86872 28.3503C5.64389 27.1656 5.49401 26.9745 4.29492 26.7452C5.45654 26.5159 5.64389 26.3631 5.86872 25.1401C6.09355 26.3248 6.28091 26.5159 7.44252 26.7452Z" fill="#D63741"></path><path d="M19.0214 16.8854C17.0729 17.2675 16.7731 17.5733 16.3984 19.5605C16.0237 17.535 15.7614 17.2293 13.7754 16.8854C15.7239 16.5032 16.0237 16.1975 16.3984 14.2102C16.7731 16.1975 17.0729 16.5032 19.0214 16.8854Z" fill="#D63741"></path><path d="M13.4757 26.7452C11.5272 27.1274 11.2274 27.4331 10.8527 29.4204C10.478 27.3949 10.2157 27.0892 8.22974 26.7452C10.1782 26.3631 10.478 26.0573 10.8527 24.0701C11.19 26.0573 11.4897 26.3631 13.4757 26.7452Z" fill="#D63741"></path><path d="M19.0214 26.7452C17.0729 27.1274 16.7731 27.4331 16.3984 29.4204C16.0237 27.3949 15.7614 27.0892 13.7754 26.7452C15.7239 26.3631 16.0237 26.0573 16.3984 24.0701C16.7731 26.0573 17.0729 26.3631 19.0214 26.7452Z" fill="#D63741"></path><path d="M36.071 11.9172H38.5441C38.9188 11.9172 39.3685 11.9554 39.8181 12.0318C40.2678 12.1083 40.68 12.2229 41.0921 12.414C41.5043 12.6051 41.8416 12.8726 42.0664 13.2548C42.3287 13.6369 42.4786 14.1338 42.4786 14.7452C42.4786 15.1274 42.3662 15.5095 42.1788 15.8535C41.9915 16.1592 41.7292 16.4267 41.4294 16.656C41.1296 16.8471 40.7924 17 40.4551 17.0764C41.0172 17.1146 41.5418 17.3057 41.9915 17.5732C42.4411 17.8408 42.8158 18.1847 43.0781 18.6051C43.3404 19.0255 43.4903 19.4841 43.4903 20.0191C43.4903 20.6306 43.3779 21.1274 43.1156 21.5478C42.8533 21.9299 42.5535 22.2739 42.1413 22.5032C41.7292 22.7325 41.2795 22.9236 40.7549 23.0382C40.2678 23.1529 39.7432 23.1911 39.2186 23.1911H37.1951C37.1951 23.1911 37.1951 23.1529 37.1951 23.0382C37.1951 22.9236 37.1951 22.8089 37.1951 22.7325C37.1951 22.6178 37.1951 22.5796 37.1951 22.5796H38.9188C39.4059 22.5796 39.8556 22.5032 40.2678 22.3121C40.68 22.121 40.9797 21.8535 41.2046 21.4713C41.4294 21.0892 41.5418 20.5924 41.5418 19.9809C41.5418 19.4459 41.4294 18.9873 41.2046 18.6433C40.9797 18.2994 40.7174 18.0318 40.3802 17.8025C40.0429 17.6115 39.6308 17.4586 39.2186 17.3822C38.8064 17.3057 38.3567 17.2675 37.9071 17.2675V17.0764C38.2068 17.0764 38.5441 17.0382 38.8439 17C39.1811 16.9236 39.4809 16.8089 39.7432 16.656C40.0055 16.5032 40.2303 16.2739 40.4177 15.9681C40.605 15.6624 40.68 15.2802 40.68 14.8217C40.68 14.0191 40.4551 13.4459 40.0429 13.1019C39.6308 12.758 39.0687 12.5669 38.3567 12.5669H36.2209C36.2209 12.5669 36.2209 12.4904 36.1834 12.414C36.1459 12.2994 36.1459 12.2229 36.1084 12.1083C36.071 11.9554 36.071 11.9172 36.071 11.9172ZM37.345 11.9172V23.1146H35.6963V11.9172H37.345ZM35.7337 21.9299V23.1146H34.3848V22.9236C34.3848 22.9236 34.4222 22.9236 34.4972 22.9236C34.5721 22.9236 34.6096 22.9236 34.6096 22.9236C34.9094 22.9236 35.1717 22.8089 35.359 22.6178C35.5464 22.4267 35.6588 22.1974 35.6588 21.8917H35.7337V21.9299ZM35.7337 13.1019H35.6963C35.6963 12.7962 35.5839 12.5669 35.3965 12.3758C35.2091 12.1847 34.9468 12.1083 34.6471 12.1083C34.6471 12.1083 34.6096 12.1083 34.5347 12.1083C34.4597 12.1083 34.4222 12.1083 34.4222 12.1083V11.9172H35.7712V13.1019H35.7337ZM47.9494 11.9172V23.1146H46.2632V11.9172H47.9494ZM46.3381 21.9299V23.1146H44.8768V22.9236C44.8768 22.9236 44.9142 22.9236 44.9892 22.9236C45.0641 22.9236 45.1016 22.9236 45.1016 22.9236C45.4014 22.9236 45.7011 22.8089 45.926 22.6178C46.1508 22.4267 46.2632 22.1974 46.3007 21.8917H46.3381V21.9299ZM47.9119 21.9299H47.9494C47.9494 22.1974 48.0618 22.4267 48.2867 22.656C48.5115 22.8471 48.8113 22.9618 49.111 22.9618C49.111 22.9618 49.1485 22.9618 49.2234 22.9618C49.2984 22.9618 49.3359 22.9618 49.3359 22.9618V23.1529H47.837V21.9299H47.9119ZM47.9119 13.1019V11.9172H49.4108V12.1083C49.4108 12.1083 49.3733 12.1083 49.2984 12.1083C49.2234 12.1083 49.186 12.1083 49.186 12.1083C48.8487 12.1083 48.5864 12.2229 48.3616 12.414C48.1368 12.6051 48.0244 12.8344 48.0244 13.1401H47.9119V13.1019ZM46.3381 13.1019H46.3007C46.3007 12.8344 46.1508 12.5669 45.926 12.3758C45.7011 12.1847 45.4388 12.0701 45.1016 12.0701C45.1016 12.0701 45.0641 12.0701 44.9892 12.0701C44.9142 12.0701 44.8768 12.0701 44.8768 12.0701V11.879H46.3381V13.1019ZM56.3055 11.9554V23.1146H54.5818V11.9554H56.3055ZM60.5773 11.879V12.5287H50.3101V11.879H60.5773ZM60.5773 12.4904V14.0573H60.3899V13.7898C60.3899 13.4459 60.315 13.1401 60.0901 12.9108C59.8653 12.6815 59.603 12.5669 59.2283 12.5669V12.5287H60.5773V12.4904ZM60.5773 11.6115V12.1083L58.5913 11.9172C58.8161 11.9172 59.0784 11.9172 59.3407 11.879C59.603 11.8408 59.8653 11.8025 60.0901 11.7643C60.315 11.6879 60.4649 11.6497 60.5773 11.6115ZM54.6193 21.9299V23.1146H53.3078V22.9236C53.3078 22.9236 53.3453 22.9236 53.4202 22.9236C53.4952 22.9236 53.5326 22.9236 53.5326 22.9236C53.7949 22.9236 54.0573 22.8089 54.2446 22.6178C54.432 22.4267 54.5444 22.1974 54.6193 21.9299ZM56.2306 21.9299H56.2681C56.2681 22.1974 56.3805 22.4267 56.5678 22.656C56.7927 22.8471 57.0175 22.9618 57.3173 22.9618C57.3173 22.9618 57.3547 22.9618 57.3922 22.9618C57.4671 22.9618 57.4671 22.9618 57.4671 22.9618V23.1529H56.1556V21.9299H56.2306ZM51.6966 12.4904V12.5287C51.3218 12.5287 51.0221 12.6433 50.8347 12.8726C50.6099 13.1019 50.5349 13.4076 50.5349 13.7516V14.0191H50.3476V12.4522H51.6966V12.4904ZM50.3101 11.6115C50.4225 11.6497 50.5724 11.6879 50.7972 11.7261C51.0221 11.7643 51.2469 11.8025 51.5467 11.8408C51.809 11.879 52.1087 11.879 52.3336 11.879L50.3101 12.0701V11.6115ZM72.1934 18.414L72.1559 21.0509C71.8562 21.5095 71.4814 21.9299 70.9943 22.2739C70.5072 22.6178 69.9451 22.8853 69.3456 23.0764C68.7086 23.2675 68.0341 23.3439 67.2846 23.3439C66.0106 23.3439 64.924 23.0764 63.9872 22.6178C63.0504 22.1592 62.3384 21.4713 61.8138 20.6306C61.3267 19.7516 61.0644 18.7197 61.0644 17.4968C61.0644 16.2739 61.3267 15.242 61.8138 14.3631C62.301 13.4841 63.0504 12.8344 63.9872 12.3376C64.924 11.879 66.0481 11.6115 67.3221 11.6115C68.109 11.6115 68.8585 11.6879 69.6079 11.879C70.3573 12.0701 70.9943 12.3376 71.5564 12.6433L71.8187 15.3949H71.6688C71.369 14.2484 70.8444 13.4459 70.095 12.949C69.3456 12.4522 68.4463 12.2229 67.3971 12.2229C66.4603 12.2229 65.6734 12.4522 64.9989 12.8726C64.3244 13.293 63.8373 13.9045 63.4626 14.6688C63.1253 15.4713 62.938 16.3885 62.938 17.4204C62.938 18.4904 63.1253 19.4076 63.4626 20.172C63.7998 20.9745 64.3244 21.5478 64.9989 21.9681C65.6734 22.3885 66.4228 22.6178 67.3596 22.656C68.2589 22.656 69.0458 22.5032 69.7203 22.1974C70.3948 21.8917 70.9568 21.4331 71.369 20.7834C71.7812 20.1338 72.0435 19.3312 72.1559 18.2994H72.1934V18.414ZM78.9008 11.5732L84.0718 23.0382H82.0109L78.3012 13.8662L78.9008 11.5732ZM75.3785 21.8153C75.2286 22.1592 75.2661 22.465 75.4159 22.656C75.6033 22.8471 75.7907 22.9236 75.978 22.9236H76.1279V23.1146H72.5681V22.9236C72.5681 22.9236 72.6056 22.9236 72.6431 22.9236C72.6805 22.9236 72.718 22.9236 72.718 22.9236C72.9803 22.9236 73.2426 22.8471 73.5049 22.656C73.7672 22.465 73.992 22.1974 74.1794 21.8153H75.3785ZM78.9008 11.5732L78.9757 13.2166L74.8539 23.0764H73.6173L77.9265 13.6369C77.9265 13.5987 77.964 13.5223 78.0389 13.3694C78.1139 13.1783 78.1888 12.9873 78.3012 12.758C78.4137 12.5287 78.4886 12.2994 78.5635 12.1083C78.6385 11.879 78.676 11.7261 78.676 11.5732H78.9008V11.5732ZM80.8493 19.0255V19.6369H76.053V18.9873H80.8493V19.0255ZM81.5613 21.8153H83.5472C83.7346 22.1974 83.9594 22.5032 84.2217 22.656C84.484 22.8471 84.7463 22.9236 85.0086 22.9236C85.0086 22.9236 85.0461 22.9236 85.0836 22.9236C85.121 22.9236 85.1585 22.9236 85.1585 22.9236V23.1146H80.8118V22.9236H80.9617C81.1865 22.9236 81.3739 22.8471 81.5238 22.656C81.6737 22.465 81.6737 22.1592 81.5613 21.8153ZM89.093 11.6497C89.3928 11.6497 89.6925 11.6497 89.9548 11.6879C90.2546 11.7261 90.5169 11.7261 90.7792 11.7643C91.0415 11.8025 91.2289 11.8408 91.4162 11.879C91.6036 11.9172 91.7535 11.9554 91.8659 11.9936L91.7909 14.0191H91.6036C91.6036 13.4841 91.4162 13.0637 91.0415 12.758C90.7043 12.4522 90.1422 12.2994 89.4302 12.2994C88.8307 12.2994 88.3061 12.4522 87.8939 12.7962C87.4817 13.1019 87.2944 13.4841 87.2944 13.9809C87.2944 14.172 87.3318 14.3631 87.3693 14.5159C87.4443 14.6688 87.5192 14.8217 87.6691 15.0127C87.819 15.1656 87.9689 15.3185 88.1937 15.4713L91.6036 17.9936C91.9408 18.2229 92.2406 18.5669 92.428 18.949C92.6153 19.3694 92.6903 19.7898 92.6903 20.2484C92.6903 20.8599 92.5404 21.3949 92.2031 21.8917C91.9034 22.3503 91.4537 22.7325 90.8916 23C90.367 23.2675 89.73 23.3822 89.0555 23.3822C88.6433 23.3822 88.2312 23.3439 87.7815 23.2675C87.3693 23.1911 86.9946 23.0764 86.6574 22.9618C86.3201 22.8089 86.0203 22.656 85.833 22.465C85.758 22.2739 85.7581 22.0064 85.7581 21.7006C85.7581 21.3949 85.7955 21.0892 85.8705 20.7834C85.9454 20.4777 86.0203 20.172 86.0953 19.9427H86.2826C86.2452 20.5159 86.3201 21.0127 86.545 21.4331C86.7698 21.8535 87.107 22.1974 87.5192 22.4267C87.9314 22.656 88.456 22.7707 89.0181 22.7707C89.7675 22.7707 90.3296 22.5796 90.7417 22.2357C91.1539 21.8917 91.3413 21.3949 91.3413 20.8599C91.3413 20.5541 91.2663 20.2866 91.1165 20.0191C90.9666 19.7516 90.7417 19.5223 90.4045 19.293L87.107 16.8471C86.6574 16.5414 86.3576 16.1974 86.1702 15.7771C85.9829 15.3567 85.9079 14.8981 85.9454 14.4777C85.9829 13.9427 86.1328 13.4841 86.3951 13.0637C86.6574 12.6433 87.0321 12.2994 87.5192 12.0701C87.9689 11.7643 88.4935 11.6497 89.093 11.6497ZM91.8284 11.8025V12.1465H90.2921V11.8025H91.8284ZM97.3367 11.9172V23.1146H95.6505V11.9172H97.3367ZM95.688 21.9299V23.1146H94.2266V22.9236C94.2266 22.9236 94.2641 22.9236 94.339 22.9236C94.4139 22.9236 94.4514 22.9236 94.4514 22.9236C94.7512 22.9236 95.051 22.8089 95.2758 22.6178C95.5006 22.4267 95.613 22.1974 95.6505 21.8917H95.688V21.9299ZM97.2618 21.9299H97.2992C97.2992 22.1974 97.4116 22.4267 97.6365 22.656C97.8613 22.8471 98.1611 22.9618 98.4609 22.9618C98.4609 22.9618 98.4983 22.9618 98.5733 22.9618C98.6482 22.9618 98.6857 22.9618 98.6857 22.9618V23.1529H97.1868V21.9299H97.2618ZM97.2618 13.1019V11.9172H98.7606V12.1083C98.7606 12.1083 98.7232 12.1083 98.6482 12.1083C98.5733 12.1083 98.5358 12.1083 98.5358 12.1083C98.1985 12.1083 97.9363 12.2229 97.7114 12.414C97.4866 12.6051 97.3742 12.8344 97.3742 13.1401H97.2618V13.1019ZM95.688 13.1019H95.6505C95.6505 12.8344 95.5006 12.5669 95.2758 12.3758C95.051 12.1847 94.7887 12.0701 94.4514 12.0701C94.4514 12.0701 94.4139 12.0701 94.339 12.0701C94.2641 12.0701 94.2266 12.0701 94.2266 12.0701V11.879H95.688V13.1019V13.1019ZM101.309 11.6497L111.688 21.3567L111.876 23.3822L101.496 13.6369L101.309 11.6497ZM101.346 21.9681V23.1146H99.9597V22.9236C99.9597 22.9236 99.9972 22.9236 100.11 22.9236C100.222 22.9236 100.259 22.9236 100.259 22.9236C100.522 22.9236 100.784 22.8471 100.971 22.656C101.159 22.465 101.271 22.2357 101.271 21.9681H101.346ZM102.733 21.9681C102.733 22.2357 102.845 22.465 103.032 22.656C103.257 22.8471 103.482 22.9236 103.744 22.9236C103.744 22.9236 103.782 22.9236 103.894 22.9236C104.007 22.9236 104.044 22.9236 104.044 22.9236V23.1146H102.658V21.9681H102.733ZM101.309 11.6497L102.733 13.3312V23.1529H101.309V13.9045C101.309 13.2548 101.271 12.7197 101.234 12.2994C101.159 11.879 101.159 11.6497 101.159 11.6497H101.309V11.6497ZM111.838 11.9172V21.0892C111.838 21.5095 111.838 21.8917 111.876 22.2357C111.913 22.5796 111.951 22.8853 111.951 23.0764C111.988 23.3057 111.988 23.3822 111.988 23.3822H111.838L110.414 21.6624V11.9172H111.838ZM111.801 13.0637V11.9172H113.187V12.1083C113.187 12.1083 113.15 12.1083 113.037 12.1083C112.925 12.1083 112.887 12.1083 112.887 12.1083C112.625 12.1083 112.363 12.1847 112.175 12.3758C111.988 12.5669 111.876 12.7962 111.876 13.0637H111.801ZM110.414 13.0637C110.414 12.7962 110.302 12.5669 110.114 12.3758C109.927 12.1847 109.665 12.1083 109.402 12.1083C109.402 12.1083 109.365 12.1083 109.253 12.1083C109.14 12.1083 109.103 12.1083 109.103 12.1083V11.9172H110.489L110.414 13.0637ZM120.494 11.6497C121.393 11.6497 122.218 11.8025 123.005 12.0701C123.792 12.3376 124.429 12.758 124.991 13.2548C125.553 13.7516 126.002 14.3631 126.302 15.0892C126.602 15.8153 126.789 16.5796 126.789 17.4968C126.789 18.3758 126.639 19.1783 126.302 19.9045C126.002 20.6306 125.553 21.242 124.991 21.7388C124.429 22.2357 123.754 22.656 123.005 22.9236C122.218 23.1911 121.393 23.3439 120.494 23.3439C119.595 23.3439 118.77 23.1911 118.021 22.9236C117.271 22.656 116.597 22.2357 116.035 21.7388C115.473 21.2038 115.023 20.5924 114.723 19.9045C114.424 19.1783 114.274 18.3758 114.274 17.4968C114.274 16.6178 114.424 15.8153 114.723 15.0892C115.023 14.3631 115.473 13.7516 116.035 13.2548C116.597 12.7197 117.271 12.3376 118.021 12.0701C118.77 11.8025 119.632 11.6497 120.494 11.6497ZM120.494 22.7325C121.356 22.7325 122.105 22.5032 122.78 22.0828C123.454 21.6624 123.979 21.0509 124.354 20.2484C124.728 19.4459 124.953 18.5669 124.953 17.4968C124.953 16.4267 124.766 15.5095 124.354 14.7452C123.979 13.9427 123.454 13.3312 122.78 12.9108C122.105 12.4904 121.356 12.2611 120.494 12.2611C119.67 12.2611 118.92 12.4904 118.246 12.9108C117.571 13.3312 117.047 13.9427 116.672 14.7452C116.297 15.5095 116.11 16.4267 116.11 17.4968C116.11 18.5287 116.297 19.4459 116.672 20.2484C117.047 21.0509 117.571 21.6624 118.246 22.0828C118.92 22.5414 119.67 22.7325 120.494 22.7325Z" fill="currentColor"></path></svg>